<?xml version="1.0" encoding="utf-8"?>
<!-- Generator: Adobe Illustrator 25.3.0, SVG Export Plug-In . SVG Version: 6.00 Build 0)  -->
<svg version="1.1" id="Layer_1" xmlns="http://www.w3.org/2000/svg" xmlns:xlink="http://www.w3.org/1999/xlink" x="0px" y="0px"
	 viewBox="0 0 1200 788" style="enable-background:new 0 0 1200 788;" xml:space="preserve">
<style type="text/css">
	.st0{fill:#0C1D23;}
	.st1{clip-path:url(#SVGID_2_);fill:#FFFFFF;}
	.st2{clip-path:url(#SVGID_2_);}
	.st3{clip-path:url(#SVGID_4_);fill:#FFFFFF;}
	.st4{opacity:0.15;clip-path:url(#SVGID_4_);}
	.st5{clip-path:url(#SVGID_6_);fill:#FFFFFF;}
	.st6{clip-path:url(#SVGID_8_);fill:#FFFFFF;}
	.st7{clip-path:url(#SVGID_10_);fill:#FFFFFF;}
	.st8{clip-path:url(#SVGID_12_);fill:#FFFFFF;}
	.st9{clip-path:url(#SVGID_14_);fill:#FFFFFF;}
</style>
<rect class="st0" width="1200" height="788"/>
<g>
	<defs>
		<rect id="SVGID_1_" x="249.7" y="319.9" width="700.5" height="148.2"/>
	</defs>
	<clipPath id="SVGID_2_">
		<use xlink:href="#SVGID_1_"  style="overflow:visible;"/>
	</clipPath>
	<polygon class="st1" points="483.1,464 483.1,442.3 475.3,442.3 475.3,439.6 493.8,439.6 493.8,442.3 486,442.3 486,464 	"/>
	<polygon class="st1" points="498.6,464 498.6,439.6 513.6,439.6 513.6,442.3 501.5,442.3 501.5,449.9 510.5,449.9 510.5,452.5 
		501.5,452.5 501.5,461.4 514.3,461.4 514.3,464 	"/>
	<g class="st2">
		<defs>
			<rect id="SVGID_3_" x="249.7" y="319.9" width="700.5" height="148.2"/>
		</defs>
		<clipPath id="SVGID_4_">
			<use xlink:href="#SVGID_3_"  style="overflow:visible;"/>
		</clipPath>
		<path class="st3" d="M517.2,451.7c0-7.6,4.3-12.6,10.4-12.6c5.2,0,7.9,3,9,7.5l-2.8,0.8c-1.1-3.7-2.7-5.6-6.3-5.6
			c-4.5,0-7.4,3.8-7.4,9.9c0,6.5,2.9,10.2,7.5,10.2c3.5,0,5.6-1.9,6.6-5.9l2.7,0.6c-1.2,4.8-4.3,7.9-9.4,7.9
			C521.4,464.5,517.2,459.7,517.2,451.7"/>
		<polygon class="st3" points="542.5,464 542.5,439.6 545.4,439.6 545.4,449.8 557.9,449.8 557.9,439.6 560.8,439.6 560.8,464 
			557.9,464 557.9,452.5 545.4,452.5 545.4,464 		"/>
		<path class="st3" d="M573.3,464l8.6-24.5h3l8.6,24.5h-3l-2.4-7h-9.7l-2.4,7H573.3z M579.4,454.5h7.9l-3.9-11.4h-0.1L579.4,454.5z"
			/>
		<polygon class="st3" points="598.4,464 598.4,439.6 601.5,439.6 614.3,458.9 614.4,458.9 614.4,439.6 617.1,439.6 617.1,464 
			614.5,464 601.2,444.2 601.2,444.2 601.2,464 		"/>
		<path class="st3" d="M624,464v-24.4h6.4c7.8,0,12.3,4,12.3,12.1c0,8.3-4.5,12.3-12.3,12.3H624z M626.9,461.4h3.9
			c5.9,0,9-2.9,9-9.7c0-6.6-3.2-9.5-9.1-9.5h-3.8V461.4z"/>
		<path class="st3" d="M656.9,464v-24.4h8.3c5.3,0,8.8,2.1,8.8,6.9c0,5.2-3.9,7.2-9,7.2h-5.2V464H656.9z M659.8,451.1h5.3
			c3.9,0,6-1.2,6-4.5c0-3.1-2-4.4-6-4.4h-5.3V451.1z"/>
		<path class="st3" d="M678.2,455.6v-16h2.9v15.6c0,3.9,1.9,6.7,6.2,6.7c4.3,0,6.1-2.6,6.1-6.6v-15.6h2.9v15.9c0,5.1-3,8.9-9,8.9
			C681,464.5,678.2,460.6,678.2,455.6"/>
		<path class="st3" d="M702.9,464v-24.4h8.7c5.3,0,8.3,2,8.3,6.1c0,3.3-2,5.1-4.5,5.6v0.1c3,0.6,5.3,2.4,5.3,5.9
			c0,4.1-3,6.7-8.4,6.7H702.9z M705.8,450.3h5.6c3.7,0,5.8-1.3,5.8-4.1c0-2.8-1.7-4-5.7-4h-5.7V450.3z M705.8,461.5h6.4
			c4,0,5.8-1.5,5.8-4.3c0-3.1-2.4-4.4-6.4-4.4h-5.8V461.5z"/>
		<polygon class="st3" points="726.5,464 726.5,439.6 729.4,439.6 729.4,461.4 741.2,461.4 741.2,464 		"/>
		<rect x="746.5" y="439.6" class="st3" width="2.9" height="24.4"/>
		<path class="st3" d="M755.3,451.7c0-7.6,4.3-12.6,10.4-12.6c5.2,0,7.9,3,9,7.5l-2.8,0.8c-1.1-3.7-2.7-5.6-6.3-5.6
			c-4.5,0-7.4,3.8-7.4,9.9c0,6.5,2.9,10.2,7.5,10.2c3.5,0,5.6-1.9,6.6-5.9l2.7,0.6c-1.2,4.8-4.3,7.9-9.4,7.9
			C759.5,464.5,755.3,459.7,755.3,451.7"/>
		<path class="st3" d="M789.1,464v-24.4h8.3c5.3,0,8.8,2.1,8.8,6.9c0,5.2-3.9,7.2-9,7.2H792V464H789.1z M792,451.1h5.3
			c3.9,0,6-1.2,6-4.5c0-3.1-2-4.4-6-4.4H792V451.1z"/>
		<path class="st3" d="M810.5,455.6v-16h2.9v15.6c0,3.9,1.9,6.7,6.2,6.7c4.3,0,6.1-2.6,6.1-6.6v-15.6h2.9v15.9c0,5.1-3,8.9-9,8.9
			C813.3,464.5,810.5,460.6,810.5,455.6"/>
		<path class="st3" d="M835.1,464v-24.4h8.4c5.5,0,8.7,2.3,8.7,6.8c0,3.9-2.2,6-5.7,6.7l6,10.9h-3.2l-5.8-10.5H838V464H835.1z
			 M838,450.9h5.3c3.8,0,6-1.1,6-4.4c0-3.2-2.1-4.3-6-4.3H838V450.9z"/>
		<path class="st3" d="M858.3,464v-24.4h8.3c5.3,0,8.8,2.1,8.8,6.9c0,5.2-3.9,7.2-9,7.2h-5.2V464H858.3z M861.2,451.1h5.3
			c3.9,0,6-1.2,6-4.5c0-3.1-2-4.4-6-4.4h-5.3V451.1z"/>
		<path class="st3" d="M879.3,451.8c0-7.8,4.5-12.7,10.6-12.7c6,0,10.5,4.8,10.5,12.7s-4.5,12.7-10.5,12.7
			C883.8,464.5,879.3,459.7,879.3,451.8 M897.5,451.8c0-6.4-3.2-10-7.6-10c-4.5,0-7.6,3.7-7.6,10s3.1,10.1,7.6,10.1
			C894.3,461.9,897.5,458.2,897.5,451.8"/>
		<path class="st3" d="M904.5,458.1l2.4-1.1c1.2,3.3,3.6,4.9,6.9,4.9c3.4,0,5.7-1.5,5.7-4c0-2.4-1.3-3.6-6.1-5.1
			c-5.1-1.6-8.1-2.9-8.1-7.2c0-3.7,3.2-6.5,7.8-6.5c4.6,0,7.4,2.4,8.6,5.5l-2.3,1.3c-1.3-2.9-3.4-4.1-6.3-4.1
			c-3.1,0-4.9,1.5-4.9,3.6c0,2.6,1.6,3.5,6.4,5c4.9,1.5,7.8,3.2,7.8,7.3c0,4-3.5,6.8-8.7,6.8C909.1,464.5,905.8,462,904.5,458.1"/>
		<polygon class="st3" points="928.2,464 928.2,439.6 943.2,439.6 943.2,442.3 931.1,442.3 931.1,449.9 940.1,449.9 940.1,452.5 
			931.1,452.5 931.1,461.4 943.9,461.4 943.9,464 		"/>
		<polygon class="st3" points="484.5,355.4 467.6,355.4 467.6,350.8 506.4,350.8 506.4,355.4 489.5,355.4 489.5,403 484.5,403 		"/>
		<path class="st3" d="M504.4,384.4c0-13.2,8.5-19.3,16.3-19.3c8.7,0,15.2,6.6,15.2,19.3v0.9h-26.6c0.1,9.2,5.3,14.3,11.7,14.3
			c5.6,0,8.8-2.4,11.6-6.8l3,2.4c-3.2,5.2-7.8,8.5-14.9,8.5C512,403.8,504.4,397.1,504.4,384.4 M531.1,381.5
			c-0.5-7.1-3.9-12.3-10.5-12.3c-5.4,0-10.4,3.9-11.3,12.3H531.1z"/>
		<path class="st3" d="M544.7,384.5c0-13.3,8.3-19.3,16.6-19.3c8,0,11.9,4.7,14.3,10.2l-4.2,1.8c-2-5-5-7.8-10.2-7.8
			c-5.5,0-11.6,4-11.6,15.1c0,9.7,4.9,15.3,11.4,15.3c5.2,0,8-2.4,10.7-7.9l4,1.7c-3,6.3-7.3,10.4-14.8,10.4
			C552.3,403.8,544.7,396.8,544.7,384.5"/>
		<path class="st3" d="M586.1,350.8h4.9v20.9c3.6-3.5,8.3-6.6,14.2-6.6c7.3,0,11.1,4.1,11.1,11V403h-4.9v-26c0-5.2-2.3-7.8-7.4-7.8
			c-4.8,0-8.8,2.5-13,6.5V403h-4.9V350.8z"/>
		<path class="st3" d="M645,390.2l4.4-1.6c2.3,7.3,7.6,11,15,11c7.8,0,12.9-3.6,12.9-9.5c0-5.4-2.6-8.2-13.7-11.7
			c-11.2-3.5-16.9-6.6-16.9-15.2c0-7.5,6.7-13.4,16.2-13.4c9.8,0,15.5,5,17.9,12l-4.2,2c-2.6-6.8-7.2-9.5-13.8-9.5
			c-7,0-11.2,3.7-11.2,8.5c0,5.9,3.5,7.8,14.5,11.4c10.9,3.5,16.2,7.1,16.2,15.5c0,8.7-7.7,14.3-18.1,14.3
			C654.4,404,647.5,398.6,645,390.2"/>
		<path class="st3" d="M694.2,365.8h4.9v5.3c3-3.2,6.8-6,12.4-6c8.5,0,15.3,6.3,15.3,19.3c0,13-6.8,19.3-15.7,19.3
			c-4.8,0-8.7-2.3-12-5.7v19.2h-4.9V365.8z M721.9,384.5c0-10.3-5.1-15.2-11.3-15.2c-4.6,0-8,2.4-11.6,6.1v18.1
			c3.7,3.9,7.3,6.1,11.6,6.1C717.2,399.6,721.9,395,721.9,384.5"/>
		<path class="st3" d="M735.7,384.5c0-12.4,7.7-19.3,16.9-19.3c9.1,0,16.8,6.9,16.8,19.3c0,12.4-7.7,19.3-16.8,19.3
			C743.5,403.8,735.7,396.8,735.7,384.5 M764.5,384.4c0-8.1-4.1-15.1-11.9-15.1c-7.6,0-12,6.4-12,15.1c0,8.3,4,15.3,12,15.3
			C760.1,399.6,764.5,393.4,764.5,384.4"/>
		<path class="st3" d="M782.9,394.3V370h-6.5v-4.2h6.5v-13.3h4.9v13.3h9.7v4.2h-9.7v23.4c0,4,1.3,6.1,5.9,6.1c1.4,0,2.8-0.1,3.9-0.5
			v4.2c-1.1,0.2-3.1,0.4-4.8,0.4C785.5,403.5,782.9,400.8,782.9,394.3"/>
		<rect x="808.3" y="350.8" class="st3" width="4.9" height="52.2"/>
		<path class="st3" d="M826.9,352h5.2v5.2h-5.2V352z M827,365.8h4.9V403H827V365.8z"/>
		<path class="st3" d="M841.2,408c0-3.8,2.5-6.8,6.8-8.5c-2.3-0.9-3.3-2.5-3.3-4.7c0-2.3,1.8-4.2,4.5-5.6c-3.5-2.3-5.6-6.1-5.6-10.7
			c0-7.9,6.3-13.4,14.7-13.4c4.3,0,8,1.4,10.6,3.8c2.2-1.6,5.6-3,8.6-3.4v4.6c-2.2,0-4.7,0.4-6.8,1.3c1.4,1.9,2.2,4.2,2.2,7.1
			c0,8.1-6.4,13.2-14.6,13.2c-2.2,0-4.2-0.4-6-1.1c-1.8,0.7-3,1.8-3,3.2c0,1.6,1.3,2.4,5.5,2.8l8.1,0.6c8.6,0.7,13.1,3.7,13.1,9.5
			c0,6.8-7.1,10.5-17.2,10.5C846.8,417.3,841.2,413.7,841.2,408 M871.5,407.2c0-3.5-2.8-5.3-10.2-5.9l-7.4-0.6
			c-0.6-0.1-1.3-0.1-1.9-0.2c-4.2,1.3-6.2,4-6.2,6.8c0,3.9,4.1,6.1,13.5,6.1C867,413.5,871.5,410.9,871.5,407.2 M868.3,378.6
			c0-5.9-3.7-9.6-10-9.6c-6.1,0-10,3.8-10,9.6c0,5.7,4,9.4,10,9.4C864.4,388,868.3,384.3,868.3,378.6"/>
		<path class="st3" d="M886.9,350.8h4.9v20.9c3.6-3.5,8.3-6.6,14.2-6.6c7.3,0,11.1,4.1,11.1,11V403h-4.9v-26c0-5.2-2.3-7.8-7.4-7.8
			c-4.8,0-8.8,2.5-13,6.5V403h-4.9V350.8z"/>
		<path class="st3" d="M932.2,394.3V370h-6.5v-4.2h6.5v-13.3h4.9v13.3h9.7v4.2h-9.7v23.4c0,4,1.3,6.1,5.9,6.1c1.4,0,2.8-0.1,3.9-0.5
			v4.2c-1.1,0.2-3.1,0.4-4.8,0.4C934.9,403.5,932.2,400.8,932.2,394.3"/>
		<g class="st4">
			<g>
				<defs>
					<rect id="SVGID_5_" x="298.5" y="321.4" width="85.7" height="142.3"/>
				</defs>
				<clipPath id="SVGID_6_">
					<use xlink:href="#SVGID_5_"  style="overflow:visible;"/>
				</clipPath>
				<polygon class="st5" points="298.5,463.7 341.3,321.4 384.2,463.7 				"/>
			</g>
		</g>
		<g class="st4">
			<g>
				<defs>
					<rect id="SVGID_7_" x="298.5" y="382.1" width="134.3" height="81.6"/>
				</defs>
				<clipPath id="SVGID_8_">
					<use xlink:href="#SVGID_7_"  style="overflow:visible;"/>
				</clipPath>
				<polygon class="st6" points="298.5,463.7 432.8,382.1 384.2,463.7 				"/>
			</g>
		</g>
		<g class="st4">
			<g>
				<defs>
					<rect id="SVGID_9_" x="249.8" y="382.1" width="134.3" height="81.6"/>
				</defs>
				<clipPath id="SVGID_10_">
					<use xlink:href="#SVGID_9_"  style="overflow:visible;"/>
				</clipPath>
				<polygon class="st7" points="384.1,463.7 249.8,382.1 298.4,463.7 				"/>
			</g>
		</g>
		<g class="st4">
			<g>
				<defs>
					<rect id="SVGID_11_" x="298.5" y="342.7" width="95.3" height="121"/>
				</defs>
				<clipPath id="SVGID_12_">
					<use xlink:href="#SVGID_11_"  style="overflow:visible;"/>
				</clipPath>
				<polygon class="st8" points="384.2,463.7 393.8,342.7 298.5,463.7 				"/>
			</g>
		</g>
		<g class="st4">
			<g>
				<defs>
					<rect id="SVGID_13_" x="288.9" y="342.7" width="95.3" height="121"/>
				</defs>
				<clipPath id="SVGID_14_">
					<use xlink:href="#SVGID_13_"  style="overflow:visible;"/>
				</clipPath>
				<polygon class="st9" points="298.5,463.7 288.9,342.7 384.2,463.7 				"/>
			</g>
		</g>
	</g>
</g>
</svg>
