<svg id="Layer_1" data-name="Layer 1" xmlns="http://www.w3.org/2000/svg" xmlns:xlink="http://www.w3.org/1999/xlink" viewBox="0 0 1920 1080"><defs><style>.cls-1{fill:#00a388;}.cls-2{fill:#f2b134;}.cls-3{fill:#9abce5;}.cls-4{fill:#ff6138;}.cls-5{fill:#112f41;}.cls-6{clip-path:url(#clip-path);}.cls-7{opacity:0.1;}.cls-8{opacity:0.2;}.cls-10,.cls-11,.cls-12,.cls-9{fill:#fff;}.cls-9{opacity:0.05;}.cls-10{opacity:0.3;}.cls-11{opacity:0.15;}.cls-12{font-size:33.51px;font-family:ProximaNova-Semibold, Proxima Nova;font-weight:600;letter-spacing:0.05em;}.cls-13{letter-spacing:0.01em;}.cls-14{letter-spacing:-0.01em;}.cls-15{letter-spacing:0.05em;}.cls-16{clip-path:url(#clip-path-2);}.cls-17{clip-path:url(#clip-path-3);}.cls-18{clip-path:url(#clip-path-4);}</style><clipPath id="clip-path"><path class="cls-1" d="M474.49,411.58A103.63,103.63,0,0,1,479.74,379a103.8,103.8,0,0,1-57.58-33.34,103.68,103.68,0,0,1-57,32.73,103.71,103.71,0,0,1,0,66.62,103.74,103.74,0,0,1,57.08,33.08A103.67,103.67,0,0,1,480,444.93,103.66,103.66,0,0,1,474.49,411.58Z"/></clipPath><clipPath id="clip-path-2"><path class="cls-2" d="M474.49,654.08a103.63,103.63,0,0,1,5.25-32.55,103.8,103.8,0,0,1-57.58-33.34,103.68,103.68,0,0,1-57,32.73,103.71,103.71,0,0,1,0,66.62,103.74,103.74,0,0,1,57.08,33.08A103.73,103.73,0,0,1,480,687.43,103.66,103.66,0,0,1,474.49,654.08Z"/></clipPath><clipPath id="clip-path-3"><path class="cls-3" d="M1184.65,411.58A103.63,103.63,0,0,1,1189.9,379a103.73,103.73,0,0,1-57.58-33.34,103.67,103.67,0,0,1-57,32.73,103.8,103.8,0,0,1,0,66.62,103.78,103.78,0,0,1,57.08,33.08,103.67,103.67,0,0,1,57.68-33.19A103.66,103.66,0,0,1,1184.65,411.58Z"/></clipPath><clipPath id="clip-path-4"><path class="cls-4" d="M1184.65,654.08a103.63,103.63,0,0,1,5.25-32.55,103.73,103.73,0,0,1-57.58-33.34,103.67,103.67,0,0,1-57,32.73,103.8,103.8,0,0,1,0,66.62,103.78,103.78,0,0,1,57.08,33.08,103.73,103.73,0,0,1,57.68-33.19A103.66,103.66,0,0,1,1184.65,654.08Z"/></clipPath></defs><rect class="cls-5" x="420" y="-420" width="1080" height="1920" transform="translate(1500 -420) rotate(90)"/><path class="cls-1" d="M474.49,411.58A103.63,103.63,0,0,1,479.74,379a103.8,103.8,0,0,1-57.58-33.34,103.68,103.68,0,0,1-57,32.73,103.71,103.71,0,0,1,0,66.62,103.74,103.74,0,0,1,57.08,33.08A103.67,103.67,0,0,1,480,444.93,103.66,103.66,0,0,1,474.49,411.58Z"/><g class="cls-6"><polygon class="cls-7" points="422.16 345.69 422.16 411.9 479.74 379.03 422.16 345.69"/><polygon class="cls-8" points="479.74 379.03 422.16 411.9 481.01 445.52 479.74 379.03"/><polygon class="cls-7" points="481.01 445.52 422.16 411.9 422.32 478.12 481.01 445.52"/><polygon class="cls-9" points="422.47 478.12 422.16 411.9 365.25 444.95 422.47 478.12"/><polygon class="cls-10" points="365.25 444.95 422.16 411.9 365.21 378.42 365.25 444.95"/><polygon class="cls-11" points="365.21 378.42 422.16 411.9 422.16 345.69 365.21 378.42"/></g><text class="cls-12" transform="translate(524.41 404.14)">RESPONSIBLE <tspan class="cls-13" x="246.06" y="0">D</tspan><tspan class="cls-14" x="270.36" y="0">AT</tspan><tspan class="cls-15" x="311.23" y="0">A</tspan><tspan x="0" y="40.21">FOR CHILDREN</tspan></text><path class="cls-2" d="M474.49,654.08a103.63,103.63,0,0,1,5.25-32.55,103.8,103.8,0,0,1-57.58-33.34,103.68,103.68,0,0,1-57,32.73,103.71,103.71,0,0,1,0,66.62,103.74,103.74,0,0,1,57.08,33.08A103.73,103.73,0,0,1,480,687.43,103.66,103.66,0,0,1,474.49,654.08Z"/><g class="cls-16"><polygon class="cls-7" points="422.16 588.19 422.16 654.4 479.74 621.53 422.16 588.19"/><polygon class="cls-8" points="479.74 621.53 422.16 654.4 481.01 688.02 479.74 621.53"/><polygon class="cls-7" points="481.01 688.02 422.16 654.4 422.32 720.62 481.01 688.02"/><polygon class="cls-9" points="422.47 720.62 422.16 654.4 365.25 687.45 422.47 720.62"/><polygon class="cls-10" points="365.25 687.45 422.16 654.4 365.21 620.92 365.25 687.45"/><polygon class="cls-11" points="365.21 620.92 422.16 654.4 422.16 588.19 365.21 620.92"/></g><text class="cls-12" transform="translate(524.41 646.64)">RESPONSIBLE <tspan class="cls-13" x="246.06" y="0">D</tspan><tspan class="cls-14" x="270.36" y="0">AT</tspan><tspan class="cls-15" x="311.23" y="0">A</tspan><tspan x="0" y="40.21">FOR CHILDREN</tspan></text><path class="cls-3" d="M1184.65,411.58A103.63,103.63,0,0,1,1189.9,379a103.73,103.73,0,0,1-57.58-33.34,103.67,103.67,0,0,1-57,32.73,103.8,103.8,0,0,1,0,66.62,103.78,103.78,0,0,1,57.08,33.08,103.67,103.67,0,0,1,57.68-33.19A103.66,103.66,0,0,1,1184.65,411.58Z"/><g class="cls-17"><polygon class="cls-7" points="1132.32 345.69 1132.32 411.9 1189.9 379.03 1132.32 345.69"/><polygon class="cls-8" points="1189.9 379.03 1132.32 411.9 1191.17 445.52 1189.9 379.03"/><polygon class="cls-7" points="1191.17 445.52 1132.32 411.9 1132.48 478.12 1191.17 445.52"/><polygon class="cls-9" points="1132.63 478.12 1132.32 411.9 1075.41 444.95 1132.63 478.12"/><polygon class="cls-10" points="1075.41 444.95 1132.32 411.9 1075.36 378.42 1075.41 444.95"/><polygon class="cls-11" points="1075.36 378.42 1132.32 411.9 1132.32 345.69 1075.36 378.42"/></g><text class="cls-12" transform="translate(1234.57 404.14)">RESPONSIBLE <tspan class="cls-13" x="246.06" y="0">D</tspan><tspan class="cls-14" x="270.36" y="0">AT</tspan><tspan class="cls-15" x="311.23" y="0">A</tspan><tspan x="0" y="40.21">FOR CHILDREN</tspan></text><path class="cls-4" d="M1184.65,654.08a103.63,103.63,0,0,1,5.25-32.55,103.73,103.73,0,0,1-57.58-33.34,103.67,103.67,0,0,1-57,32.73,103.8,103.8,0,0,1,0,66.62,103.78,103.78,0,0,1,57.08,33.08,103.73,103.73,0,0,1,57.68-33.19A103.66,103.66,0,0,1,1184.65,654.08Z"/><g class="cls-18"><polygon class="cls-7" points="1132.32 588.19 1132.32 654.4 1189.9 621.53 1132.32 588.19"/><polygon class="cls-8" points="1189.9 621.53 1132.32 654.4 1191.17 688.02 1189.9 621.53"/><polygon class="cls-7" points="1191.17 688.02 1132.32 654.4 1132.48 720.62 1191.17 688.02"/><polygon class="cls-9" points="1132.63 720.62 1132.32 654.4 1075.41 687.45 1132.63 720.62"/><polygon class="cls-10" points="1075.41 687.45 1132.32 654.4 1075.36 620.92 1075.41 687.45"/><polygon class="cls-11" points="1075.36 620.92 1132.32 654.4 1132.32 588.19 1075.36 620.92"/></g><text class="cls-12" transform="translate(1234.57 646.64)">RESPONSIBLE <tspan class="cls-13" x="246.06" y="0">D</tspan><tspan class="cls-14" x="270.36" y="0">AT</tspan><tspan class="cls-15" x="311.23" y="0">A</tspan><tspan x="0" y="40.21">FOR CHILDREN</tspan></text></svg>