<?xml version="1.0" encoding="UTF-8"?>
<svg id="Layer_1" xmlns="http://www.w3.org/2000/svg" xmlns:xlink="http://www.w3.org/1999/xlink" version="1.1" viewBox="0 0 1920 1080">
  <!-- Generator: Adobe Illustrator 29.8.3, SVG Export Plug-In . SVG Version: 2.1.1 Build 3)  -->
  <defs>
    <style>
      .st0 {
        fill: none;
      }

      .st1 {
        opacity: .1;
      }

      .st1, .st2, .st3, .st4, .st5, .st6 {
        isolation: isolate;
      }

      .st2 {
        opacity: .2;
      }

      .st7 {
        fill: #112f41;
      }

      .st8 {
        clip-path: url(#clippath-1);
      }

      .st9 {
        clip-path: url(#clippath-3);
      }

      .st10 {
        clip-path: url(#clippath-2);
      }

      .st11, .st4, .st5, .st6 {
        fill: #fff;
      }

      .st12 {
        fill: #f2b134;
      }

      .st13 {
        fill: #00a388;
      }

      .st14 {
        fill: #9abce5;
      }

      .st15 {
        fill: #ff6138;
      }

      .st16 {
        clip-path: url(#clippath);
      }

      .st4 {
        opacity: 0;
      }

      .st5 {
        opacity: .2;
      }

      .st6 {
        opacity: .3;
      }
    </style>
    <clipPath id="clippath">
      <path class="st0" d="M474.5,411.6c0-11.1,1.8-22.1,5.2-32.6-22.3-4.5-42.6-16.2-57.6-33.3-14.9,16.8-35,28.3-57,32.7,7.3,21.6,7.3,45,0,66.6,22.1,4.5,42.2,16.1,57.1,33.1,15.1-17.1,35.4-28.8,57.8-33.2-3.6-10.7-5.5-22-5.5-33.4Z"/>
    </clipPath>
    <clipPath id="clippath-1">
      <path class="st0" d="M474.5,654.1c0-11.1,1.8-22,5.2-32.5-22.3-4.5-42.6-16.2-57.6-33.3-14.9,16.8-35,28.3-57,32.7,7.3,21.6,7.3,45,0,66.6,22.1,4.5,42.2,16.1,57.1,33.1,15.1-17.1,35.4-28.8,57.8-33.2-3.6-10.7-5.5-22-5.5-33.3Z"/>
    </clipPath>
    <clipPath id="clippath-2">
      <path class="st0" d="M1184.7,411.6c0-11.1,1.8-22.1,5.2-32.6-22.3-4.5-42.6-16.2-57.6-33.3-14.9,16.8-35,28.3-57,32.7,7.3,21.6,7.3,45,0,66.6,22.1,4.5,42.2,16.1,57.1,33.1,15.1-17.1,35.3-28.8,57.7-33.2-3.6-10.7-5.5-22-5.4-33.3Z"/>
    </clipPath>
    <clipPath id="clippath-3">
      <path class="st0" d="M1184.7,654.1c0-11.1,1.8-22,5.2-32.5-22.3-4.5-42.6-16.2-57.6-33.3-14.9,16.8-35,28.3-57,32.7,7.3,21.6,7.3,45,0,66.6,22.1,4.5,42.2,16.1,57.1,33.1,15.1-17.1,35.3-28.8,57.7-33.2-3.6-10.7-5.5-22-5.4-33.3Z"/>
    </clipPath>
  </defs>
  <rect class="st7" width="1920" height="1080"/>
  <path class="st13" d="M474.5,411.6c0-11.1,1.8-22.1,5.2-32.6-22.3-4.5-42.6-16.2-57.6-33.3-14.9,16.8-35,28.3-57,32.7,7.3,21.6,7.3,45,0,66.6,22.1,4.5,42.2,16.1,57.1,33.1,15.1-17.1,35.4-28.8,57.8-33.2-3.6-10.7-5.5-22-5.5-33.4Z"/>
  <g class="st16">
    <g>
      <polygon class="st1" points="422.2 345.7 422.2 411.9 479.7 379 422.2 345.7"/>
      <polygon class="st2" points="479.7 379 422.2 411.9 481 445.5 479.7 379"/>
      <polygon class="st1" points="481 445.5 422.2 411.9 422.3 478.1 481 445.5"/>
      <polygon class="st4" points="422.5 478.1 422.2 411.9 365.2 445 422.5 478.1"/>
      <polygon class="st6" points="365.2 445 422.2 411.9 365.2 378.4 365.2 445"/>
      <polygon class="st5" points="365.2 378.4 422.2 411.9 422.2 345.7 365.2 378.4"/>
    </g>
  </g>
  <g class="st3">
    <g class="st3">
      <path class="st11" d="M539.6,404.1l-5-8.3h-3.9v8.3h-3.9v-22.3h9.8c4.4,0,7.3,2.9,7.3,7s-2.6,6.1-5.3,6.6l5.5,8.8h-4.5ZM536.1,385.2h-5.4v7.1h5.4c2.2,0,3.8-1.4,3.8-3.6s-1.6-3.6-3.8-3.6Z"/>
      <path class="st11" d="M549.5,404.1v-22.3h15.3v3.5h-11.4v5.8h11.2v3.5h-11.2v6.2h11.4v3.5h-15.3Z"/>
      <path class="st11" d="M571.3,398c1.5,1.6,4,3.1,7.1,3.1s4.5-1.6,4.5-3-2.4-2.6-5.1-3.3c-3.7-.9-7.9-2-7.9-6.7s3.2-6.5,8.1-6.5,6.3,1.1,8.4,3.1l-2.2,2.9c-1.7-1.7-4.1-2.5-6.5-2.5s-3.8,1.1-3.8,2.8,2.3,2.3,4.9,3c3.7.9,8.1,2.1,8.1,6.9s-2.6,6.9-8.6,6.9-7.1-1.4-9.1-3.6l2.2-3Z"/>
      <path class="st11" d="M592.1,404.1v-22.3h9.8c4.7,0,7.3,3.2,7.3,7s-2.6,7-7.3,7h-5.9v8.3h-3.9ZM601.4,385.2h-5.4v7.1h5.4c2.2,0,3.8-1.4,3.8-3.6s-1.6-3.6-3.8-3.6Z"/>
      <path class="st11" d="M624.6,381.4c6.7,0,11.4,4.9,11.4,11.6s-4.7,11.6-11.4,11.6-11.4-4.9-11.4-11.6,4.7-11.6,11.4-11.6ZM624.6,384.9c-4.5,0-7.4,3.5-7.4,8.1s2.9,8.1,7.4,8.1,7.4-3.5,7.4-8.1-2.9-8.1-7.4-8.1Z"/>
      <path class="st11" d="M657,404.1l-11.7-16.3v16.3h-3.9v-22.3h4l11.4,15.8v-15.8h3.9v22.3h-3.8Z"/>
      <path class="st11" d="M668,398c1.5,1.6,4,3.1,7.1,3.1s4.5-1.6,4.5-3-2.4-2.6-5.1-3.3c-3.7-.9-7.9-2-7.9-6.7s3.2-6.5,8.1-6.5,6.3,1.1,8.4,3.1l-2.2,2.9c-1.7-1.7-4.1-2.5-6.5-2.5s-3.8,1.1-3.8,2.8,2.3,2.3,4.9,3c3.7.9,8.1,2.1,8.1,6.9s-2.6,6.9-8.6,6.9-7.1-1.4-9.1-3.6l2.2-3Z"/>
      <path class="st11" d="M688.8,404.1v-22.3h3.9v22.3h-3.9Z"/>
      <path class="st11" d="M699.2,404.1v-22.3h11c4.1,0,6.4,2.5,6.4,5.7s-1.8,4.7-3.9,5.1c2.4.4,4.3,2.7,4.3,5.5s-2.3,6-6.5,6h-11.3ZM703.1,391h6.3c2,0,3.1-1.2,3.1-2.9s-1.1-2.9-3.1-2.9h-6.3v5.8ZM703.1,400.7h6.4c2.1,0,3.4-1.2,3.4-3.1s-1.2-3.1-3.4-3.1h-6.4v6.2Z"/>
      <path class="st11" d="M722.6,404.1v-22.3h3.9v18.9h9.9v3.5h-13.8Z"/>
      <path class="st11" d="M741.6,404.1v-22.3h15.3v3.5h-11.4v5.8h11.2v3.5h-11.2v6.2h11.4v3.5h-15.3Z"/>
    </g>
    <g class="st3">
      <path class="st11" d="M772.8,404.1v-22.3h8.3c7,0,11.7,4.6,11.7,11.2s-4.7,11.2-11.7,11.2h-8.3ZM776.8,400.7h4.4c4.9,0,7.7-3.5,7.7-7.7s-2.7-7.7-7.7-7.7h-4.4v15.4Z"/>
    </g>
    <g class="st3">
      <path class="st11" d="M813,404.1l-1.6-4.3h-10.6l-1.6,4.3h-4.3l8.8-22.3h4.9l8.8,22.3h-4.3ZM806,385.1l-4.2,11.3h8.4l-4.2-11.3Z"/>
      <path class="st11" d="M822.5,404.1v-18.9h-6.8v-3.5h17.5v3.5h-6.8v18.9h-3.9Z"/>
    </g>
    <g class="st3">
      <path class="st11" d="M853.8,404.1l-1.6-4.3h-10.6l-1.6,4.3h-4.3l8.8-22.3h4.9l8.8,22.3h-4.3ZM846.9,385.1l-4.2,11.3h8.4l-4.2-11.3Z"/>
    </g>
    <g class="st3">
      <path class="st11" d="M526.8,444.4v-22.3h15.3v3.5h-11.4v5.8h11.2v3.5h-11.2v9.7h-3.9Z"/>
      <path class="st11" d="M557.7,421.6c6.7,0,11.4,4.9,11.4,11.6s-4.7,11.6-11.4,11.6-11.4-4.9-11.4-11.6,4.7-11.6,11.4-11.6ZM557.7,425.1c-4.5,0-7.4,3.5-7.4,8.1s2.9,8.1,7.4,8.1,7.4-3.5,7.4-8.1-2.9-8.1-7.4-8.1Z"/>
      <path class="st11" d="M587.4,444.4l-5-8.3h-3.9v8.3h-3.9v-22.3h9.8c4.4,0,7.3,2.9,7.3,7s-2.6,6.1-5.3,6.6l5.5,8.8h-4.5ZM583.9,425.5h-5.4v7.1h5.4c2.2,0,3.8-1.4,3.8-3.6s-1.6-3.6-3.8-3.6Z"/>
      <path class="st11" d="M606.6,433.2c0-6.9,5.1-11.6,11.6-11.6s7.5,2.3,9.1,5l-3.4,1.7c-1.1-1.8-3.2-3.2-5.8-3.2-4.3,0-7.5,3.4-7.5,8.1s3.3,8.1,7.5,8.1,4.7-1.4,5.8-3.2l3.4,1.7c-1.7,2.7-4.5,5-9.1,5s-11.6-4.7-11.6-11.6Z"/>
      <path class="st11" d="M647.7,444.4v-9.8h-11.6v9.8h-3.9v-22.3h3.9v9.1h11.6v-9.1h3.9v22.3h-3.9Z"/>
      <path class="st11" d="M658,444.4v-22.3h3.9v22.3h-3.9Z"/>
      <path class="st11" d="M668.4,444.4v-22.3h3.9v18.9h9.9v3.5h-13.8Z"/>
      <path class="st11" d="M687.4,444.4v-22.3h8.3c7,0,11.7,4.6,11.7,11.2s-4.7,11.2-11.7,11.2h-8.3ZM691.3,440.9h4.4c4.9,0,7.7-3.5,7.7-7.7s-2.7-7.7-7.7-7.7h-4.4v15.4Z"/>
      <path class="st11" d="M725.6,444.4l-5-8.3h-3.9v8.3h-3.9v-22.3h9.8c4.4,0,7.3,2.9,7.3,7s-2.6,6.1-5.3,6.6l5.5,8.8h-4.5ZM722.1,425.5h-5.4v7.1h5.4c2.2,0,3.8-1.4,3.8-3.6s-1.6-3.6-3.8-3.6Z"/>
      <path class="st11" d="M735.6,444.4v-22.3h15.3v3.5h-11.4v5.8h11.2v3.5h-11.2v6.2h11.4v3.5h-15.3Z"/>
      <path class="st11" d="M772.2,444.4l-11.7-16.3v16.3h-3.9v-22.3h4l11.4,15.8v-15.8h3.9v22.3h-3.8Z"/>
    </g>
  </g>
  <path class="st12" d="M474.5,654.1c0-11.1,1.8-22,5.2-32.5-22.3-4.5-42.6-16.2-57.6-33.3-14.9,16.8-35,28.3-57,32.7,7.3,21.6,7.3,45,0,66.6,22.1,4.5,42.2,16.1,57.1,33.1,15.1-17.1,35.4-28.8,57.8-33.2-3.6-10.7-5.5-22-5.5-33.3Z"/>
  <g class="st8">
    <g>
      <polygon class="st1" points="422.2 588.2 422.2 654.4 479.7 621.5 422.2 588.2"/>
      <polygon class="st2" points="479.7 621.5 422.2 654.4 481 688 479.7 621.5"/>
      <polygon class="st1" points="481 688 422.2 654.4 422.3 720.6 481 688"/>
      <polygon class="st4" points="422.5 720.6 422.2 654.4 365.2 687.5 422.5 720.6"/>
      <polygon class="st6" points="365.2 687.5 422.2 654.4 365.2 620.9 365.2 687.5"/>
      <polygon class="st5" points="365.2 620.9 422.2 654.4 422.2 588.2 365.2 620.9"/>
    </g>
  </g>
  <g class="st3">
    <g class="st3">
      <path class="st11" d="M539.6,646.6l-5-8.3h-3.9v8.3h-3.9v-22.3h9.8c4.4,0,7.3,2.9,7.3,7s-2.6,6.1-5.3,6.6l5.5,8.8h-4.5ZM536.1,627.7h-5.4v7.1h5.4c2.2,0,3.8-1.4,3.8-3.6s-1.6-3.6-3.8-3.6Z"/>
      <path class="st11" d="M549.5,646.6v-22.3h15.3v3.5h-11.4v5.8h11.2v3.5h-11.2v6.2h11.4v3.5h-15.3Z"/>
      <path class="st11" d="M571.3,640.5c1.5,1.6,4,3.1,7.1,3.1s4.5-1.6,4.5-3-2.4-2.6-5.1-3.3c-3.7-.9-7.9-2-7.9-6.7s3.2-6.5,8.1-6.5,6.3,1.1,8.4,3.1l-2.2,2.9c-1.7-1.7-4.1-2.5-6.5-2.5s-3.8,1.1-3.8,2.8,2.3,2.3,4.9,3c3.7.9,8.1,2.1,8.1,6.9s-2.6,6.9-8.6,6.9-7.1-1.4-9.1-3.6l2.2-3Z"/>
      <path class="st11" d="M592.1,646.6v-22.3h9.8c4.7,0,7.3,3.2,7.3,7s-2.6,7-7.3,7h-5.9v8.3h-3.9ZM601.4,627.7h-5.4v7.1h5.4c2.2,0,3.8-1.4,3.8-3.6s-1.6-3.6-3.8-3.6Z"/>
      <path class="st11" d="M624.6,623.9c6.7,0,11.4,4.9,11.4,11.6s-4.7,11.6-11.4,11.6-11.4-4.9-11.4-11.6,4.7-11.6,11.4-11.6ZM624.6,627.4c-4.5,0-7.4,3.5-7.4,8.1s2.9,8.1,7.4,8.1,7.4-3.5,7.4-8.1-2.9-8.1-7.4-8.1Z"/>
      <path class="st11" d="M657,646.6l-11.7-16.3v16.3h-3.9v-22.3h4l11.4,15.8v-15.8h3.9v22.3h-3.8Z"/>
      <path class="st11" d="M668,640.5c1.5,1.6,4,3.1,7.1,3.1s4.5-1.6,4.5-3-2.4-2.6-5.1-3.3c-3.7-.9-7.9-2-7.9-6.7s3.2-6.5,8.1-6.5,6.3,1.1,8.4,3.1l-2.2,2.9c-1.7-1.7-4.1-2.5-6.5-2.5s-3.8,1.1-3.8,2.8,2.3,2.3,4.9,3c3.7.9,8.1,2.1,8.1,6.9s-2.6,6.9-8.6,6.9-7.1-1.4-9.1-3.6l2.2-3Z"/>
      <path class="st11" d="M688.8,646.6v-22.3h3.9v22.3h-3.9Z"/>
      <path class="st11" d="M699.2,646.6v-22.3h11c4.1,0,6.4,2.5,6.4,5.7s-1.8,4.7-3.9,5.1c2.4.4,4.3,2.7,4.3,5.5s-2.3,6-6.5,6h-11.3ZM703.1,633.5h6.3c2,0,3.1-1.2,3.1-2.9s-1.1-2.9-3.1-2.9h-6.3v5.8ZM703.1,643.2h6.4c2.1,0,3.4-1.2,3.4-3.1s-1.2-3.1-3.4-3.1h-6.4v6.2Z"/>
      <path class="st11" d="M722.6,646.6v-22.3h3.9v18.9h9.9v3.5h-13.8Z"/>
      <path class="st11" d="M741.6,646.6v-22.3h15.3v3.5h-11.4v5.8h11.2v3.5h-11.2v6.2h11.4v3.5h-15.3Z"/>
    </g>
    <g class="st3">
      <path class="st11" d="M772.8,646.6v-22.3h8.3c7,0,11.7,4.6,11.7,11.2s-4.7,11.2-11.7,11.2h-8.3ZM776.8,643.2h4.4c4.9,0,7.7-3.5,7.7-7.7s-2.7-7.7-7.7-7.7h-4.4v15.4Z"/>
    </g>
    <g class="st3">
      <path class="st11" d="M813,646.6l-1.6-4.3h-10.6l-1.6,4.3h-4.3l8.8-22.3h4.9l8.8,22.3h-4.3ZM806,627.6l-4.2,11.3h8.4l-4.2-11.3Z"/>
      <path class="st11" d="M822.5,646.6v-18.9h-6.8v-3.5h17.5v3.5h-6.8v18.9h-3.9Z"/>
    </g>
    <g class="st3">
      <path class="st11" d="M853.8,646.6l-1.6-4.3h-10.6l-1.6,4.3h-4.3l8.8-22.3h4.9l8.8,22.3h-4.3ZM846.9,627.6l-4.2,11.3h8.4l-4.2-11.3Z"/>
    </g>
    <g class="st3">
      <path class="st11" d="M526.8,686.8v-22.3h15.3v3.5h-11.4v5.8h11.2v3.5h-11.2v9.7h-3.9Z"/>
      <path class="st11" d="M557.7,664.1c6.7,0,11.4,4.9,11.4,11.6s-4.7,11.6-11.4,11.6-11.4-4.9-11.4-11.6,4.7-11.6,11.4-11.6ZM557.7,667.6c-4.5,0-7.4,3.5-7.4,8.1s2.9,8.1,7.4,8.1,7.4-3.5,7.4-8.1-2.9-8.1-7.4-8.1Z"/>
      <path class="st11" d="M587.4,686.8l-5-8.3h-3.9v8.3h-3.9v-22.3h9.8c4.4,0,7.3,2.9,7.3,7s-2.6,6.1-5.3,6.6l5.5,8.8h-4.5ZM583.9,668h-5.4v7.1h5.4c2.2,0,3.8-1.4,3.8-3.6s-1.6-3.6-3.8-3.6Z"/>
      <path class="st11" d="M606.6,675.7c0-6.9,5.1-11.6,11.6-11.6s7.5,2.3,9.1,5l-3.4,1.7c-1.1-1.8-3.2-3.2-5.8-3.2-4.3,0-7.5,3.4-7.5,8.1s3.3,8.1,7.5,8.1,4.7-1.4,5.8-3.2l3.4,1.7c-1.7,2.7-4.5,5-9.1,5s-11.6-4.7-11.6-11.6Z"/>
      <path class="st11" d="M647.7,686.8v-9.8h-11.6v9.8h-3.9v-22.3h3.9v9.1h11.6v-9.1h3.9v22.3h-3.9Z"/>
      <path class="st11" d="M658,686.8v-22.3h3.9v22.3h-3.9Z"/>
      <path class="st11" d="M668.4,686.8v-22.3h3.9v18.9h9.9v3.5h-13.8Z"/>
      <path class="st11" d="M687.4,686.8v-22.3h8.3c7,0,11.7,4.6,11.7,11.2s-4.7,11.2-11.7,11.2h-8.3ZM691.3,683.4h4.4c4.9,0,7.7-3.5,7.7-7.7s-2.7-7.7-7.7-7.7h-4.4v15.4Z"/>
      <path class="st11" d="M725.6,686.8l-5-8.3h-3.9v8.3h-3.9v-22.3h9.8c4.4,0,7.3,2.9,7.3,7s-2.6,6.1-5.3,6.6l5.5,8.8h-4.5ZM722.1,668h-5.4v7.1h5.4c2.2,0,3.8-1.4,3.8-3.6s-1.6-3.6-3.8-3.6Z"/>
      <path class="st11" d="M735.6,686.8v-22.3h15.3v3.5h-11.4v5.8h11.2v3.5h-11.2v6.2h11.4v3.5h-15.3Z"/>
      <path class="st11" d="M772.2,686.8l-11.7-16.3v16.3h-3.9v-22.3h4l11.4,15.8v-15.8h3.9v22.3h-3.8Z"/>
    </g>
  </g>
  <path class="st14" d="M1184.7,411.6c0-11.1,1.8-22.1,5.2-32.6-22.3-4.5-42.6-16.2-57.6-33.3-14.9,16.8-35,28.3-57,32.7,7.3,21.6,7.3,45,0,66.6,22.1,4.5,42.2,16.1,57.1,33.1,15.1-17.1,35.3-28.8,57.7-33.2-3.6-10.7-5.5-22-5.4-33.3Z"/>
  <g class="st10">
    <g>
      <polygon class="st1" points="1132.3 345.7 1132.3 411.9 1189.9 379 1132.3 345.7"/>
      <polygon class="st2" points="1189.9 379 1132.3 411.9 1191.2 445.5 1189.9 379"/>
      <polygon class="st1" points="1191.2 445.5 1132.3 411.9 1132.5 478.1 1191.2 445.5"/>
      <polygon class="st4" points="1132.6 478.1 1132.3 411.9 1075.4 445 1132.6 478.1"/>
      <polygon class="st6" points="1075.4 445 1132.3 411.9 1075.4 378.4 1075.4 445"/>
      <polygon class="st5" points="1075.4 378.4 1132.3 411.9 1132.3 345.7 1075.4 378.4"/>
    </g>
  </g>
  <g class="st3">
    <g class="st3">
      <path class="st11" d="M1249.7,404.1l-5-8.3h-3.9v8.3h-3.9v-22.3h9.8c4.4,0,7.3,2.9,7.3,7s-2.6,6.1-5.3,6.6l5.5,8.8h-4.5ZM1246.2,385.2h-5.4v7.1h5.4c2.2,0,3.8-1.4,3.8-3.6s-1.6-3.6-3.8-3.6Z"/>
      <path class="st11" d="M1259.7,404.1v-22.3h15.3v3.5h-11.4v5.8h11.2v3.5h-11.2v6.2h11.4v3.5h-15.3Z"/>
      <path class="st11" d="M1281.4,398c1.5,1.6,4,3.1,7.1,3.1s4.5-1.6,4.5-3-2.4-2.6-5.1-3.3c-3.7-.9-7.9-2-7.9-6.7s3.2-6.5,8.1-6.5,6.3,1.1,8.4,3.1l-2.2,2.9c-1.7-1.7-4.1-2.5-6.5-2.5s-3.8,1.1-3.8,2.8,2.3,2.3,4.9,3c3.7.9,8.1,2.1,8.1,6.9s-2.6,6.9-8.6,6.9-7.1-1.4-9.1-3.6l2.2-3Z"/>
      <path class="st11" d="M1302.3,404.1v-22.3h9.8c4.7,0,7.3,3.2,7.3,7s-2.6,7-7.3,7h-5.9v8.3h-3.9ZM1311.5,385.2h-5.4v7.1h5.4c2.2,0,3.8-1.4,3.8-3.6s-1.6-3.6-3.8-3.6Z"/>
      <path class="st11" d="M1334.7,381.4c6.7,0,11.4,4.9,11.4,11.6s-4.7,11.6-11.4,11.6-11.4-4.9-11.4-11.6,4.7-11.6,11.4-11.6ZM1334.7,384.9c-4.5,0-7.4,3.5-7.4,8.1s2.9,8.1,7.4,8.1,7.4-3.5,7.4-8.1-2.9-8.1-7.4-8.1Z"/>
      <path class="st11" d="M1367.2,404.1l-11.7-16.3v16.3h-3.9v-22.3h4l11.4,15.8v-15.8h3.9v22.3h-3.8Z"/>
      <path class="st11" d="M1378.2,398c1.5,1.6,4,3.1,7.1,3.1s4.5-1.6,4.5-3-2.4-2.6-5.1-3.3c-3.7-.9-7.9-2-7.9-6.7s3.2-6.5,8.1-6.5,6.3,1.1,8.4,3.1l-2.2,2.9c-1.7-1.7-4.1-2.5-6.5-2.5s-3.8,1.1-3.8,2.8,2.3,2.3,4.9,3c3.7.9,8.1,2.1,8.1,6.9s-2.6,6.9-8.6,6.9-7.1-1.4-9.1-3.6l2.2-3Z"/>
      <path class="st11" d="M1399,404.1v-22.3h3.9v22.3h-3.9Z"/>
      <path class="st11" d="M1409.4,404.1v-22.3h11c4.1,0,6.4,2.5,6.4,5.7s-1.8,4.7-3.9,5.1c2.4.4,4.3,2.7,4.3,5.5s-2.3,6-6.5,6h-11.3ZM1413.3,391h6.3c2,0,3.2-1.2,3.2-2.9s-1.1-2.9-3.2-2.9h-6.3v5.8ZM1413.3,400.7h6.4c2.1,0,3.4-1.2,3.4-3.1s-1.2-3.1-3.4-3.1h-6.4v6.2Z"/>
      <path class="st11" d="M1432.7,404.1v-22.3h3.9v18.9h9.9v3.5h-13.8Z"/>
      <path class="st11" d="M1451.7,404.1v-22.3h15.3v3.5h-11.4v5.8h11.2v3.5h-11.2v6.2h11.4v3.5h-15.3Z"/>
    </g>
    <g class="st3">
      <path class="st11" d="M1483,404.1v-22.3h8.3c7,0,11.7,4.6,11.7,11.2s-4.7,11.2-11.7,11.2h-8.3ZM1486.9,400.7h4.4c4.9,0,7.7-3.5,7.7-7.7s-2.7-7.7-7.7-7.7h-4.4v15.4Z"/>
    </g>
    <g class="st3">
      <path class="st11" d="M1523.1,404.1l-1.6-4.3h-10.6l-1.6,4.3h-4.3l8.8-22.3h4.9l8.8,22.3h-4.3ZM1516.2,385.1l-4.2,11.3h8.4l-4.2-11.3Z"/>
      <path class="st11" d="M1532.7,404.1v-18.9h-6.8v-3.5h17.5v3.5h-6.8v18.9h-3.9Z"/>
    </g>
    <g class="st3">
      <path class="st11" d="M1564,404.1l-1.6-4.3h-10.6l-1.6,4.3h-4.3l8.8-22.3h4.9l8.8,22.3h-4.3ZM1557.1,385.1l-4.2,11.3h8.4l-4.2-11.3Z"/>
    </g>
    <g class="st3">
      <path class="st11" d="M1236.9,444.4v-22.3h15.3v3.5h-11.4v5.8h11.2v3.5h-11.2v9.7h-3.9Z"/>
      <path class="st11" d="M1267.9,421.6c6.7,0,11.4,4.9,11.4,11.6s-4.7,11.6-11.4,11.6-11.4-4.9-11.4-11.6,4.7-11.6,11.4-11.6ZM1267.9,425.1c-4.5,0-7.4,3.5-7.4,8.1s2.9,8.1,7.4,8.1,7.4-3.5,7.4-8.1-2.9-8.1-7.4-8.1Z"/>
      <path class="st11" d="M1297.5,444.4l-5-8.3h-3.9v8.3h-3.9v-22.3h9.8c4.4,0,7.3,2.9,7.3,7s-2.6,6.1-5.3,6.6l5.5,8.8h-4.5ZM1294,425.5h-5.4v7.1h5.4c2.2,0,3.8-1.4,3.8-3.6s-1.6-3.6-3.8-3.6Z"/>
      <path class="st11" d="M1316.8,433.2c0-6.9,5.1-11.6,11.6-11.6s7.5,2.3,9.1,5l-3.4,1.7c-1.1-1.8-3.2-3.2-5.8-3.2-4.3,0-7.5,3.4-7.5,8.1s3.3,8.1,7.5,8.1,4.7-1.4,5.8-3.2l3.4,1.7c-1.7,2.7-4.5,5-9.1,5s-11.6-4.7-11.6-11.6Z"/>
      <path class="st11" d="M1357.9,444.4v-9.8h-11.6v9.8h-3.9v-22.3h3.9v9.1h11.6v-9.1h3.9v22.3h-3.9Z"/>
      <path class="st11" d="M1368.2,444.4v-22.3h3.9v22.3h-3.9Z"/>
      <path class="st11" d="M1378.6,444.4v-22.3h3.9v18.9h9.9v3.5h-13.8Z"/>
      <path class="st11" d="M1397.6,444.4v-22.3h8.3c7,0,11.7,4.6,11.7,11.2s-4.7,11.2-11.7,11.2h-8.3ZM1401.5,440.9h4.4c4.9,0,7.7-3.5,7.7-7.7s-2.7-7.7-7.7-7.7h-4.4v15.4Z"/>
      <path class="st11" d="M1435.8,444.4l-5-8.3h-3.9v8.3h-3.9v-22.3h9.8c4.4,0,7.3,2.9,7.3,7s-2.6,6.1-5.3,6.6l5.5,8.8h-4.5ZM1432.3,425.5h-5.4v7.1h5.4c2.2,0,3.8-1.4,3.8-3.6s-1.6-3.6-3.8-3.6Z"/>
      <path class="st11" d="M1445.7,444.4v-22.3h15.3v3.5h-11.4v5.8h11.2v3.5h-11.2v6.2h11.4v3.5h-15.3Z"/>
      <path class="st11" d="M1482.3,444.4l-11.7-16.3v16.3h-3.9v-22.3h4l11.4,15.8v-15.8h3.9v22.3h-3.8Z"/>
    </g>
  </g>
  <path class="st15" d="M1184.7,654.1c0-11.1,1.8-22,5.2-32.5-22.3-4.5-42.6-16.2-57.6-33.3-14.9,16.8-35,28.3-57,32.7,7.3,21.6,7.3,45,0,66.6,22.1,4.5,42.2,16.1,57.1,33.1,15.1-17.1,35.3-28.8,57.7-33.2-3.6-10.7-5.5-22-5.4-33.3Z"/>
  <g class="st9">
    <g>
      <polygon class="st1" points="1132.3 588.2 1132.3 654.4 1189.9 621.5 1132.3 588.2"/>
      <polygon class="st2" points="1189.9 621.5 1132.3 654.4 1191.2 688 1189.9 621.5"/>
      <polygon class="st1" points="1191.2 688 1132.3 654.4 1132.5 720.6 1191.2 688"/>
      <polygon class="st4" points="1132.6 720.6 1132.3 654.4 1075.4 687.5 1132.6 720.6"/>
      <polygon class="st6" points="1075.4 687.5 1132.3 654.4 1075.4 620.9 1075.4 687.5"/>
      <polygon class="st5" points="1075.4 620.9 1132.3 654.4 1132.3 588.2 1075.4 620.9"/>
    </g>
  </g>
  <g class="st3">
    <g class="st3">
      <path class="st11" d="M1249.7,646.6l-5-8.3h-3.9v8.3h-3.9v-22.3h9.8c4.4,0,7.3,2.9,7.3,7s-2.6,6.1-5.3,6.6l5.5,8.8h-4.5ZM1246.2,627.7h-5.4v7.1h5.4c2.2,0,3.8-1.4,3.8-3.6s-1.6-3.6-3.8-3.6Z"/>
      <path class="st11" d="M1259.7,646.6v-22.3h15.3v3.5h-11.4v5.8h11.2v3.5h-11.2v6.2h11.4v3.5h-15.3Z"/>
      <path class="st11" d="M1281.4,640.5c1.5,1.6,4,3.1,7.1,3.1s4.5-1.6,4.5-3-2.4-2.6-5.1-3.3c-3.7-.9-7.9-2-7.9-6.7s3.2-6.5,8.1-6.5,6.3,1.1,8.4,3.1l-2.2,2.9c-1.7-1.7-4.1-2.5-6.5-2.5s-3.8,1.1-3.8,2.8,2.3,2.3,4.9,3c3.7.9,8.1,2.1,8.1,6.9s-2.6,6.9-8.6,6.9-7.1-1.4-9.1-3.6l2.2-3Z"/>
      <path class="st11" d="M1302.3,646.6v-22.3h9.8c4.7,0,7.3,3.2,7.3,7s-2.6,7-7.3,7h-5.9v8.3h-3.9ZM1311.5,627.7h-5.4v7.1h5.4c2.2,0,3.8-1.4,3.8-3.6s-1.6-3.6-3.8-3.6Z"/>
      <path class="st11" d="M1334.7,623.9c6.7,0,11.4,4.9,11.4,11.6s-4.7,11.6-11.4,11.6-11.4-4.9-11.4-11.6,4.7-11.6,11.4-11.6ZM1334.7,627.4c-4.5,0-7.4,3.5-7.4,8.1s2.9,8.1,7.4,8.1,7.4-3.5,7.4-8.1-2.9-8.1-7.4-8.1Z"/>
      <path class="st11" d="M1367.2,646.6l-11.7-16.3v16.3h-3.9v-22.3h4l11.4,15.8v-15.8h3.9v22.3h-3.8Z"/>
      <path class="st11" d="M1378.2,640.5c1.5,1.6,4,3.1,7.1,3.1s4.5-1.6,4.5-3-2.4-2.6-5.1-3.3c-3.7-.9-7.9-2-7.9-6.7s3.2-6.5,8.1-6.5,6.3,1.1,8.4,3.1l-2.2,2.9c-1.7-1.7-4.1-2.5-6.5-2.5s-3.8,1.1-3.8,2.8,2.3,2.3,4.9,3c3.7.9,8.1,2.1,8.1,6.9s-2.6,6.9-8.6,6.9-7.1-1.4-9.1-3.6l2.2-3Z"/>
      <path class="st11" d="M1399,646.6v-22.3h3.9v22.3h-3.9Z"/>
      <path class="st11" d="M1409.4,646.6v-22.3h11c4.1,0,6.4,2.5,6.4,5.7s-1.8,4.7-3.9,5.1c2.4.4,4.3,2.7,4.3,5.5s-2.3,6-6.5,6h-11.3ZM1413.3,633.5h6.3c2,0,3.2-1.2,3.2-2.9s-1.1-2.9-3.2-2.9h-6.3v5.8ZM1413.3,643.2h6.4c2.1,0,3.4-1.2,3.4-3.1s-1.2-3.1-3.4-3.1h-6.4v6.2Z"/>
      <path class="st11" d="M1432.7,646.6v-22.3h3.9v18.9h9.9v3.5h-13.8Z"/>
      <path class="st11" d="M1451.7,646.6v-22.3h15.3v3.5h-11.4v5.8h11.2v3.5h-11.2v6.2h11.4v3.5h-15.3Z"/>
    </g>
    <g class="st3">
      <path class="st11" d="M1483,646.6v-22.3h8.3c7,0,11.7,4.6,11.7,11.2s-4.7,11.2-11.7,11.2h-8.3ZM1486.9,643.2h4.4c4.9,0,7.7-3.5,7.7-7.7s-2.7-7.7-7.7-7.7h-4.4v15.4Z"/>
    </g>
    <g class="st3">
      <path class="st11" d="M1523.1,646.6l-1.6-4.3h-10.6l-1.6,4.3h-4.3l8.8-22.3h4.9l8.8,22.3h-4.3ZM1516.2,627.6l-4.2,11.3h8.4l-4.2-11.3Z"/>
      <path class="st11" d="M1532.7,646.6v-18.9h-6.8v-3.5h17.5v3.5h-6.8v18.9h-3.9Z"/>
    </g>
    <g class="st3">
      <path class="st11" d="M1564,646.6l-1.6-4.3h-10.6l-1.6,4.3h-4.3l8.8-22.3h4.9l8.8,22.3h-4.3ZM1557.1,627.6l-4.2,11.3h8.4l-4.2-11.3Z"/>
    </g>
    <g class="st3">
      <path class="st11" d="M1236.9,686.8v-22.3h15.3v3.5h-11.4v5.8h11.2v3.5h-11.2v9.7h-3.9Z"/>
      <path class="st11" d="M1267.9,664.1c6.7,0,11.4,4.9,11.4,11.6s-4.7,11.6-11.4,11.6-11.4-4.9-11.4-11.6,4.7-11.6,11.4-11.6ZM1267.9,667.6c-4.5,0-7.4,3.5-7.4,8.1s2.9,8.1,7.4,8.1,7.4-3.5,7.4-8.1-2.9-8.1-7.4-8.1Z"/>
      <path class="st11" d="M1297.5,686.8l-5-8.3h-3.9v8.3h-3.9v-22.3h9.8c4.4,0,7.3,2.9,7.3,7s-2.6,6.1-5.3,6.6l5.5,8.8h-4.5ZM1294,668h-5.4v7.1h5.4c2.2,0,3.8-1.4,3.8-3.6s-1.6-3.6-3.8-3.6Z"/>
      <path class="st11" d="M1316.8,675.7c0-6.9,5.1-11.6,11.6-11.6s7.5,2.3,9.1,5l-3.4,1.7c-1.1-1.8-3.2-3.2-5.8-3.2-4.3,0-7.5,3.4-7.5,8.1s3.3,8.1,7.5,8.1,4.7-1.4,5.8-3.2l3.4,1.7c-1.7,2.7-4.5,5-9.1,5s-11.6-4.7-11.6-11.6Z"/>
      <path class="st11" d="M1357.9,686.8v-9.8h-11.6v9.8h-3.9v-22.3h3.9v9.1h11.6v-9.1h3.9v22.3h-3.9Z"/>
      <path class="st11" d="M1368.2,686.8v-22.3h3.9v22.3h-3.9Z"/>
      <path class="st11" d="M1378.6,686.8v-22.3h3.9v18.9h9.9v3.5h-13.8Z"/>
      <path class="st11" d="M1397.6,686.8v-22.3h8.3c7,0,11.7,4.6,11.7,11.2s-4.7,11.2-11.7,11.2h-8.3ZM1401.5,683.4h4.4c4.9,0,7.7-3.5,7.7-7.7s-2.7-7.7-7.7-7.7h-4.4v15.4Z"/>
      <path class="st11" d="M1435.8,686.8l-5-8.3h-3.9v8.3h-3.9v-22.3h9.8c4.4,0,7.3,2.9,7.3,7s-2.6,6.1-5.3,6.6l5.5,8.8h-4.5ZM1432.3,668h-5.4v7.1h5.4c2.2,0,3.8-1.4,3.8-3.6s-1.6-3.6-3.8-3.6Z"/>
      <path class="st11" d="M1445.7,686.8v-22.3h15.3v3.5h-11.4v5.8h11.2v3.5h-11.2v6.2h11.4v3.5h-15.3Z"/>
      <path class="st11" d="M1482.3,686.8l-11.7-16.3v16.3h-3.9v-22.3h4l11.4,15.8v-15.8h3.9v22.3h-3.8Z"/>
    </g>
  </g>
</svg>