<svg id="Layer_1" data-name="Layer 1" xmlns="http://www.w3.org/2000/svg" xmlns:xlink="http://www.w3.org/1999/xlink" viewBox="0 0 1920 1080"><defs><style>.cls-1{fill:#ff6138;}.cls-2{clip-path:url(#clip-path);}.cls-3{opacity:0.1;}.cls-4{opacity:0.2;}.cls-5,.cls-6,.cls-7{fill:#fff;}.cls-5{opacity:0.05;}.cls-6{opacity:0.3;}.cls-7{opacity:0.15;}.cls-8{font-size:65.98px;fill:#204075;font-family:ProximaNova-Bold, Proxima Nova;font-weight:700;letter-spacing:0.02em;}.cls-9{letter-spacing:-0.01em;}.cls-10{letter-spacing:-0.04em;}.cls-11{opacity:0.14;font-size:18px;font-family:DIN2014-Regular, "DIN 2014";letter-spacing:0.03em;}.cls-12{letter-spacing:0.02em;}.cls-13{letter-spacing:0.02em;}</style><clipPath id="clip-path"><path class="cls-1" d="M747.39,506.67a204.32,204.32,0,0,1,10.33-64.1,204.24,204.24,0,0,1-113.38-65.65,204.27,204.27,0,0,1-112.17,64.46,204.24,204.24,0,0,1,.08,131.19,204.27,204.27,0,0,1,112.4,65.13,204.24,204.24,0,0,1,113.57-65.35A204.15,204.15,0,0,1,747.39,506.67Z"/></clipPath></defs><path class="cls-1" d="M747.39,506.67a204.32,204.32,0,0,1,10.33-64.1,204.24,204.24,0,0,1-113.38-65.65,204.27,204.27,0,0,1-112.17,64.46,204.24,204.24,0,0,1,.08,131.19,204.27,204.27,0,0,1,112.4,65.13,204.24,204.24,0,0,1,113.57-65.35A204.15,204.15,0,0,1,747.39,506.67Z"/><g class="cls-2"><polygon class="cls-3" points="644.33 376.92 644.33 507.31 757.72 442.57 644.33 376.92"/><polygon class="cls-4" points="757.72 442.57 644.34 507.31 760.22 573.51 757.72 442.57"/><polygon class="cls-3" points="760.22 573.51 644.34 507.31 644.65 637.7 760.22 573.51"/><polygon class="cls-5" points="644.95 637.7 644.34 507.31 532.27 572.39 644.95 637.7"/><polygon class="cls-6" points="532.27 572.39 644.33 507.31 532.17 441.37 532.27 572.39"/><polygon class="cls-7" points="532.17 441.38 644.34 507.31 644.33 376.92 532.17 441.38"/></g><text class="cls-8" transform="translate(845.69 492.02)">RESPONSIBLE <tspan class="cls-9" x="471.29" y="0">D</tspan><tspan class="cls-10" x="518.07" y="0">AT</tspan><tspan x="596.45" y="0">A</tspan><tspan x="0" y="79.18">FOR CHILDREN</tspan></text><text class="cls-11" transform="translate(1775.97 1050.14)">by ccm<tspan class="cls-12" x="55.38" y="0">.</tspan><tspan class="cls-13" x="59.98" y="0">design</tspan></text></svg>