<?xml version="1.0" encoding="UTF-8"?>
<svg id="Layer_1" xmlns="http://www.w3.org/2000/svg" xmlns:xlink="http://www.w3.org/1999/xlink" version="1.1" viewBox="0 0 1920 1080">
  <!-- Generator: Adobe Illustrator 29.8.3, SVG Export Plug-In . SVG Version: 2.1.1 Build 3)  -->
  <defs>
    <style>
      .st0 {
        fill: none;
      }

      .st1 {
        opacity: .1;
      }

      .st1, .st2, .st3, .st4, .st5, .st6 {
        isolation: isolate;
      }

      .st2 {
        opacity: .2;
      }

      .st7 {
        fill: #204075;
      }

      .st8 {
        fill: #ff6138;
      }

      .st9 {
        clip-path: url(#clippath);
      }

      .st4 {
        opacity: 0;
      }

      .st4, .st5, .st6 {
        fill: #fff;
      }

      .st5 {
        opacity: .2;
      }

      .st6 {
        opacity: .3;
      }
    </style>
    <clipPath id="clippath">
      <path class="st0" d="M747.4,506.7c0-21.8,3.5-43.4,10.3-64.1-44-8.8-83.8-31.9-113.4-65.6-29.4,33.1-68.8,55.7-112.2,64.5,14.5,42.5,14.5,88.6,0,131.2,43.6,8.9,83,31.8,112.4,65.1,29.7-33.7,69.6-56.6,113.6-65.3-7.2-21.2-10.8-43.3-10.8-65.7Z"/>
    </clipPath>
  </defs>
  <path class="st8" d="M747.4,506.7c0-21.8,3.5-43.4,10.3-64.1-44-8.8-83.8-31.9-113.4-65.6-29.4,33.1-68.8,55.7-112.2,64.5,14.5,42.5,14.5,88.6,0,131.2,43.6,8.9,83,31.8,112.4,65.1,29.7-33.7,69.6-56.6,113.6-65.3-7.2-21.2-10.8-43.3-10.8-65.7Z"/>
  <g class="st9">
    <g>
      <polygon class="st1" points="644.3 376.9 644.3 507.3 757.7 442.6 644.3 376.9"/>
      <polygon class="st2" points="757.7 442.6 644.3 507.3 760.2 573.5 757.7 442.6"/>
      <polygon class="st1" points="760.2 573.5 644.3 507.3 644.7 637.7 760.2 573.5"/>
      <polygon class="st4" points="645 637.7 644.3 507.3 532.3 572.4 645 637.7"/>
      <polygon class="st6" points="532.3 572.4 644.3 507.3 532.2 441.4 532.3 572.4"/>
      <polygon class="st5" points="532.2 441.4 644.3 507.3 644.3 376.9 532.2 441.4"/>
    </g>
  </g>
  <g class="st3">
    <g class="st3">
      <path class="st7" d="M874.9,492l-8.6-15.8h-6.9v15.8h-9.4v-44h20.6c9.2,0,14.8,6,14.8,14.2s-4.9,11.9-9.6,13.1l9.9,16.8h-10.8ZM869.2,456.1h-9.8v12.1h9.8c3.8,0,6.6-2.4,6.6-6.1s-2.8-6.1-6.6-6.1Z"/>
      <path class="st7" d="M893.7,492v-44h31.1v8h-21.8v9.6h21.3v8h-21.3v10.2h21.8v8.1h-31.1Z"/>
      <path class="st7" d="M935.6,478.7c3.1,3.2,7.9,5.9,14,5.9s7.7-2.4,7.7-4.9-3.8-4.4-8.9-5.6c-7.2-1.6-16.4-3.6-16.4-13.5s6.3-13.3,16.7-13.3,12.8,2.1,17.2,6.1l-5.2,6.9c-3.6-3.3-8.3-4.8-12.6-4.8s-6.5,1.8-6.5,4.5,3.7,3.9,8.8,5.1c7.3,1.7,16.5,3.8,16.5,13.6s-5.7,14.1-17.6,14.1-14.5-2.8-18.7-7l5.1-7.1Z"/>
      <path class="st7" d="M974.3,492v-44h20.6c9.6,0,14.8,6.5,14.8,14.2s-5.3,14.1-14.8,14.1h-11.2v15.8h-9.4ZM993.6,456.1h-10v12.1h10c3.7,0,6.5-2.4,6.5-6.1s-2.8-6.1-6.5-6.1Z"/>
      <path class="st7" d="M1037.6,447.3c13.3,0,23,9.5,23,22.8s-9.7,22.8-23,22.8-23-9.5-23-22.8,9.7-22.8,23-22.8ZM1037.6,455.6c-8.1,0-13.3,6.2-13.3,14.4s5.2,14.4,13.3,14.4,13.4-6.3,13.4-14.4-5.3-14.4-13.4-14.4Z"/>
      <path class="st7" d="M1098.8,492l-21-29.6v29.6h-9.4v-44h9.6l20.4,28.5v-28.5h9.4v44h-9Z"/>
      <path class="st7" d="M1119.9,478.7c3.1,3.2,7.9,5.9,14,5.9s7.7-2.4,7.7-4.9-3.8-4.4-8.9-5.6c-7.2-1.6-16.4-3.6-16.4-13.5s6.3-13.3,16.7-13.3,12.8,2.1,17.2,6.1l-5.2,6.9c-3.6-3.3-8.3-4.8-12.6-4.8s-6.5,1.8-6.5,4.5,3.7,3.9,8.8,5.1c7.3,1.7,16.5,3.8,16.5,13.6s-5.7,14.1-17.6,14.1-14.5-2.8-18.7-7l5.1-7.1Z"/>
      <path class="st7" d="M1158.6,492v-44h9.4v44h-9.4Z"/>
      <path class="st7" d="M1178,492v-44h23.2c8.4,0,12.7,5.3,12.7,11.2s-3.4,9.2-7.6,10.1c4.7.7,8.4,5.3,8.4,10.8s-4.4,11.9-12.8,11.9h-23.9ZM1187.3,465.7h11.7c3.2,0,5.1-2,5.1-4.9s-2-4.8-5.1-4.8h-11.7v9.7ZM1187.3,484h12.1c3.6,0,5.7-2,5.7-5.2s-2-5.1-5.7-5.1h-12.1v10.4Z"/>
      <path class="st7" d="M1223,492v-44h9.4v35.8h18.6v8.2h-28Z"/>
      <path class="st7" d="M1258.7,492v-44h31.1v8h-21.8v9.6h21.3v8h-21.3v10.2h21.8v8.1h-31.1Z"/>
    </g>
    <g class="st3">
      <path class="st7" d="M1321.3,492v-44h17.4c13.8,0,23.4,8.8,23.4,22s-9.6,22-23.4,22h-17.4ZM1330.7,483.8h8c8.7,0,13.8-6.3,13.8-13.7s-4.8-13.8-13.8-13.8h-8v27.5Z"/>
    </g>
    <g class="st3">
      <path class="st7" d="M1398.9,492l-2.8-7.6h-19.7l-2.8,7.6h-10.3l17-44h11.7l17,44h-10.2ZM1386.3,456.1l-7.3,20.2h14.6l-7.3-20.2Z"/>
      <path class="st7" d="M1416.6,492v-35.8h-12.9v-8.2h35.1v8.2h-12.8v35.8h-9.4Z"/>
    </g>
    <g class="st3">
      <path class="st7" d="M1477.3,492l-2.8-7.6h-19.7l-2.8,7.6h-10.3l17-44h11.7l17,44h-10.2ZM1464.7,456.1l-7.3,20.2h14.6l-7.3-20.2Z"/>
    </g>
    <g class="st3">
      <path class="st7" d="M850,571.2v-44h31.1v8h-21.8v9.6h21.3v8h-21.3v18.3h-9.4Z"/>
      <path class="st7" d="M909.8,526.5c13.3,0,23,9.5,23,22.8s-9.7,22.8-23,22.8-23-9.5-23-22.8,9.7-22.8,23-22.8ZM909.8,534.8c-8.1,0-13.3,6.2-13.3,14.4s5.2,14.4,13.3,14.4,13.4-6.3,13.4-14.4-5.3-14.4-13.4-14.4Z"/>
      <path class="st7" d="M965.6,571.2l-8.6-15.8h-6.9v15.8h-9.4v-44h20.6c9.2,0,14.8,6,14.8,14.2s-4.9,11.9-9.6,13.1l9.9,16.8h-10.8ZM959.9,535.2h-9.8v12.1h9.8c3.8,0,6.6-2.4,6.6-6.1s-2.8-6.1-6.6-6.1Z"/>
      <path class="st7" d="M1000.4,549.2c0-13.5,10.2-22.8,23.1-22.8s15.6,5.3,18.7,10.8l-8,4c-1.8-3.6-5.8-6.4-10.7-6.4-7.7,0-13.5,6.1-13.5,14.4s5.8,14.4,13.5,14.4,8.8-2.8,10.7-6.4l8,3.9c-3.2,5.5-8.7,10.8-18.7,10.8s-23.1-9.2-23.1-22.8Z"/>
      <path class="st7" d="M1079.3,571.2v-18.5h-20.8v18.5h-9.4v-44h9.4v17.3h20.8v-17.3h9.4v44h-9.4Z"/>
      <path class="st7" d="M1098.6,571.2v-44h9.4v44h-9.4Z"/>
      <path class="st7" d="M1117.9,571.2v-44h9.4v35.8h18.6v8.2h-28Z"/>
      <path class="st7" d="M1153.7,571.2v-44h17.4c13.8,0,23.4,8.8,23.4,22s-9.6,22-23.4,22h-17.4ZM1163.1,563h8c8.7,0,13.8-6.3,13.8-13.7s-4.8-13.8-13.8-13.8h-8v27.5Z"/>
      <path class="st7" d="M1227.2,571.2l-8.6-15.8h-6.9v15.8h-9.4v-44h20.6c9.2,0,14.8,6,14.8,14.2s-4.9,11.9-9.6,13.1l9.9,16.8h-10.8ZM1221.5,535.2h-9.8v12.1h9.8c3.8,0,6.6-2.4,6.6-6.1s-2.8-6.1-6.6-6.1Z"/>
      <path class="st7" d="M1246,571.2v-44h31.1v8h-21.8v9.6h21.3v8h-21.3v10.2h21.8v8.1h-31.1Z"/>
      <path class="st7" d="M1316.1,571.2l-21-29.6v29.6h-9.4v-44h9.6l20.4,28.5v-28.5h9.4v44h-9Z"/>
    </g>
  </g>
</svg>