<svg id="Layer_1" data-name="Layer 1" xmlns="http://www.w3.org/2000/svg" xmlns:xlink="http://www.w3.org/1999/xlink" viewBox="0 0 1920 1080"><defs><style>.cls-1{fill:#00a388;}.cls-2{fill:#f2b134;}.cls-3{fill:#9abce5;}.cls-4{fill:#ff6138;}.cls-5{fill:#112f41;}.cls-6{clip-path:url(#clip-path);}.cls-7{opacity:0.1;}.cls-8{opacity:0.2;}.cls-10,.cls-11,.cls-9{fill:#fff;}.cls-9{opacity:0.05;}.cls-10{opacity:0.3;}.cls-11{opacity:0.15;}.cls-12{clip-path:url(#clip-path-2);}.cls-13{clip-path:url(#clip-path-3);}.cls-14{clip-path:url(#clip-path-4);}</style><clipPath id="clip-path"><path class="cls-1" d="M857.45,355.82a158.13,158.13,0,0,1,8-49.62,158.1,158.1,0,0,1-87.77-50.81,158.15,158.15,0,0,1-86.82,49.89,158.19,158.19,0,0,1,.06,101.55,158.09,158.09,0,0,1,87,50.42,158.11,158.11,0,0,1,87.92-50.59A158.07,158.07,0,0,1,857.45,355.82Z"/></clipPath><clipPath id="clip-path-2"><path class="cls-2" d="M857.45,679a158.13,158.13,0,0,1,8-49.62,158.1,158.1,0,0,1-87.77-50.81,158.15,158.15,0,0,1-86.82,49.89A158.19,158.19,0,0,1,690.92,730a158.09,158.09,0,0,1,87,50.42,158.11,158.11,0,0,1,87.92-50.59A158.07,158.07,0,0,1,857.45,679Z"/></clipPath><clipPath id="clip-path-3"><path class="cls-3" d="M1223.25,355.82a157.85,157.85,0,0,1,8-49.62,158.07,158.07,0,0,1-87.77-50.81,158.18,158.18,0,0,1-86.83,49.89,158.19,158.19,0,0,1,.06,101.55,158.15,158.15,0,0,1,87,50.42,158.08,158.08,0,0,1,87.91-50.59A158.07,158.07,0,0,1,1223.25,355.82Z"/></clipPath><clipPath id="clip-path-4"><path class="cls-4" d="M1223.25,679a157.85,157.85,0,0,1,8-49.62,158.07,158.07,0,0,1-87.77-50.81,158.18,158.18,0,0,1-86.83,49.89,158.19,158.19,0,0,1,.06,101.55,158.15,158.15,0,0,1,87,50.42,158.08,158.08,0,0,1,87.91-50.59A158.07,158.07,0,0,1,1223.25,679Z"/></clipPath></defs><rect class="cls-5" x="420" y="-420" width="1080" height="1920" transform="translate(1500 -420) rotate(90)"/><path class="cls-1" d="M857.45,355.82a158.13,158.13,0,0,1,8-49.62,158.1,158.1,0,0,1-87.77-50.81,158.15,158.15,0,0,1-86.82,49.89,158.19,158.19,0,0,1,.06,101.55,158.09,158.09,0,0,1,87,50.42,158.11,158.11,0,0,1,87.92-50.59A158.07,158.07,0,0,1,857.45,355.82Z"/><g class="cls-6"><polygon class="cls-7" points="777.68 255.38 777.68 356.32 865.45 306.2 777.68 255.38"/><polygon class="cls-8" points="865.45 306.2 777.68 356.32 867.38 407.56 865.45 306.2"/><polygon class="cls-7" points="867.38 407.56 777.68 356.32 777.92 457.25 867.38 407.56"/><polygon class="cls-9" points="778.15 457.25 777.68 356.32 690.93 406.7 778.15 457.25"/><polygon class="cls-10" points="690.93 406.7 777.68 356.32 690.86 305.27 690.93 406.7"/><polygon class="cls-11" points="690.86 305.28 777.68 356.32 777.68 255.38 690.86 305.28"/></g><path class="cls-2" d="M857.45,679a158.13,158.13,0,0,1,8-49.62,158.1,158.1,0,0,1-87.77-50.81,158.15,158.15,0,0,1-86.82,49.89A158.19,158.19,0,0,1,690.92,730a158.09,158.09,0,0,1,87,50.42,158.11,158.11,0,0,1,87.92-50.59A158.07,158.07,0,0,1,857.45,679Z"/><g class="cls-12"><polygon class="cls-7" points="777.68 578.58 777.68 679.51 865.45 629.39 777.68 578.58"/><polygon class="cls-8" points="865.45 629.39 777.68 679.51 867.38 730.75 865.45 629.39"/><polygon class="cls-7" points="867.38 730.75 777.68 679.51 777.92 780.44 867.38 730.75"/><polygon class="cls-9" points="778.15 780.44 777.68 679.51 690.93 729.89 778.15 780.44"/><polygon class="cls-10" points="690.93 729.89 777.68 679.51 690.86 628.47 690.93 729.89"/><polygon class="cls-11" points="690.86 628.47 777.68 679.51 777.68 578.58 690.86 628.47"/></g><path class="cls-3" d="M1223.25,355.82a157.85,157.85,0,0,1,8-49.62,158.07,158.07,0,0,1-87.77-50.81,158.18,158.18,0,0,1-86.83,49.89,158.19,158.19,0,0,1,.06,101.55,158.15,158.15,0,0,1,87,50.42,158.08,158.08,0,0,1,87.91-50.59A158.07,158.07,0,0,1,1223.25,355.82Z"/><g class="cls-13"><polygon class="cls-7" points="1143.48 255.38 1143.48 356.32 1231.25 306.2 1143.48 255.38"/><polygon class="cls-8" points="1231.25 306.2 1143.49 356.32 1233.19 407.56 1231.25 306.2"/><polygon class="cls-7" points="1233.19 407.56 1143.49 356.32 1143.73 457.25 1233.19 407.56"/><polygon class="cls-9" points="1143.96 457.25 1143.49 356.32 1056.74 406.7 1143.96 457.25"/><polygon class="cls-10" points="1056.74 406.7 1143.48 356.32 1056.66 305.27 1056.74 406.7"/><polygon class="cls-11" points="1056.66 305.28 1143.49 356.32 1143.48 255.38 1056.66 305.28"/></g><path class="cls-4" d="M1223.25,679a157.85,157.85,0,0,1,8-49.62,158.07,158.07,0,0,1-87.77-50.81,158.18,158.18,0,0,1-86.83,49.89,158.19,158.19,0,0,1,.06,101.55,158.15,158.15,0,0,1,87,50.42,158.08,158.08,0,0,1,87.91-50.59A158.07,158.07,0,0,1,1223.25,679Z"/><g class="cls-14"><polygon class="cls-7" points="1143.48 578.58 1143.48 679.51 1231.25 629.39 1143.48 578.58"/><polygon class="cls-8" points="1231.25 629.39 1143.49 679.51 1233.19 730.75 1231.25 629.39"/><polygon class="cls-7" points="1233.19 730.75 1143.49 679.51 1143.73 780.44 1233.19 730.75"/><polygon class="cls-9" points="1143.96 780.44 1143.49 679.51 1056.74 729.89 1143.96 780.44"/><polygon class="cls-10" points="1056.74 729.89 1143.48 679.51 1056.66 628.47 1056.74 729.89"/><polygon class="cls-11" points="1056.66 628.47 1143.49 679.51 1143.48 578.58 1056.66 628.47"/></g></svg>