<?xml version="1.0" encoding="UTF-8"?>
<svg id="Layer_1" data-name="Layer 1" xmlns="http://www.w3.org/2000/svg" viewBox="0 0 819.73 145.78">
  <defs>
    <style>
      .cls-1 {
        fill: #297496;
      }

      .cls-2 {
        fill: #0c3354;
      }
    </style>
  </defs>
  <g>
    <path class="cls-2" d="M20.31,115.55c-1.28,0-2.56-.49-3.53-1.46-1.95-1.95-1.96-5.12,0-7.07,12.66-12.68,17.71-31.3,13.2-48.6-2.27-8.72-6.84-16.68-13.2-23.03-1.95-1.95-1.96-5.12,0-7.07,1.95-1.96,5.12-1.96,7.07,0,7.62,7.6,13.08,17.14,15.81,27.58,5.4,20.71-.65,43.01-15.8,58.19-.98.98-2.26,1.47-3.54,1.47Z"/>
    <path class="cls-2" d="M5,100.24c-1.28,0-2.56-.49-3.53-1.46-1.95-1.95-1.96-5.12,0-7.07,7.25-7.26,10.14-17.92,7.56-27.83-1.3-4.99-3.91-9.55-7.55-13.18-1.95-1.95-1.96-5.12,0-7.07,1.95-1.96,5.12-1.96,7.07,0,4.9,4.89,8.41,11.02,10.17,17.74,3.47,13.32-.42,27.66-10.16,37.41-.98.98-2.26,1.47-3.54,1.47Z"/>
  </g>
  <g>
    <path class="cls-2" d="M49.1,43.1c1.36-4.31,3.02-8.53,4.99-12.61-3.76-6.75-8.44-12.98-13.94-18.47-1.95-1.95-5.12-1.95-7.07,0-1.95,1.95-1.95,5.12,0,7.07,6.89,6.87,12.32,15.05,16.02,24.01Z"/>
    <path class="cls-2" d="M49.04,99.32c-3.65,8.85-9.02,17.04-15.96,24-1.95,1.95-1.95,5.12,0,7.07.98.97,2.25,1.46,3.53,1.46s2.56-.49,3.54-1.47c5.53-5.54,10.17-11.76,13.88-18.45-1.96-4.07-3.63-8.28-4.99-12.61Z"/>
  </g>
  <g>
    <path class="cls-2" d="M192.06,2.75h25.77c5.32,0,9.12,1.29,11.78,4.1,2.2,2.43,3.57,5.85,3.57,9.2,0,3.04-1.06,5.93-3.04,7.98-1.52,1.6-2.74,2.28-5.47,3.12,6.46,1.6,9.8,5.55,9.8,11.86,0,4.94-2.2,9.58-5.62,11.86-2.74,1.82-6.54,2.58-12.62,2.58h-24.17V2.75ZM213.56,22.21c3.12,0,4.94-1.6,4.94-4.41,0-2.66-1.82-4.18-5.17-4.18h-6.92v8.59h7.14ZM214.02,42.12c3.27,0,5.4-1.75,5.4-4.56s-2.2-4.56-5.93-4.56h-7.07v9.12h7.6Z"/>
    <path class="cls-2" d="M277.1,53.44h-13.68v-6.23c-1.98,4.64-5.93,6.99-11.71,6.99-7.3,0-11.32-4.1-11.32-11.55V15.67h14.82v23.79c0,3.04.68,4.03,2.96,4.03,2.66,0,4.33-1.98,4.33-5.17V15.67h14.59v37.77Z"/>
    <path class="cls-2" d="M284.85,53.44V15.67h12.31v7.83c1.82-6.16,4.56-8.51,10.03-8.51.61,0,1.06,0,1.98.15v13.15c-1.29-.3-1.9-.38-2.81-.38-4.94,0-7.3,2.58-7.3,8.21v17.33h-14.21Z"/>
    <path class="cls-2" d="M335.77,53.44v-23.79c0-3.27-.84-4.56-3.12-4.56-2.81,0-4.1,1.82-4.1,5.62v22.73h-14.82V15.67h13.76v5.32c1.14-2.05,1.9-2.96,3.27-3.95,1.82-1.29,4.86-2.13,7.75-2.13,3.57,0,6.84,1.22,9.04,3.19,2.43,2.28,3.04,4.48,3.04,11.17v24.17h-14.82Z"/>
    <path class="cls-2" d="M397.1,40.83c-1.98,8.36-9.35,13.38-19.61,13.38-12.54,0-21.13-7.75-21.13-19.15,0-5.47,2.28-11.1,5.85-14.59,3.65-3.57,8.97-5.55,14.9-5.55,12.16,0,20.06,8.06,20.06,20.45,0,.38,0,1.29-.08,2.2h-25.23c0,2.96.23,3.95,1.06,5.02.99,1.29,2.58,1.98,4.71,1.98,3.34,0,4.86-1.22,5.7-4.64l13.76.91ZM382.36,30.11c-.15-4.56-1.67-6.46-5.24-6.46s-5.32,2.13-5.32,6.46h10.56Z"/>
    <path class="cls-2" d="M411.54,41.13c.91,2.96,3.12,4.1,7.9,4.1,3.65,0,5.78-.84,5.78-2.28s-1.06-1.82-7.9-2.74c-4.41-.61-8.21-1.75-10.64-3.12-3.12-1.67-5.09-5.32-5.09-9.2,0-7.9,6.99-13,17.79-13,8.82,0,14.74,3.42,17.25,9.88l-11.25,2.13c-1.22-2.36-3.19-3.34-6.61-3.34-2.66,0-4.64.84-4.64,2.05,0,.53.38,1.06,1.06,1.44.84.46,1.44.61,7.52,1.29,5.55.68,8.21,1.44,10.72,3.12,3.12,2.13,4.86,5.4,4.86,9.27,0,8.36-7.37,13.45-19.53,13.45-10.18,0-16.26-3.72-18.92-11.48l11.7-1.6Z"/>
    <path class="cls-2" d="M505.02,34.98c-.84,6.31-2.28,9.58-5.7,13.15-3.88,4.03-9.2,6.08-15.58,6.08-14.06,0-23.03-9.96-23.03-25.69,0-8.36,2.51-15.66,7.07-20.44,3.88-4.03,9.35-6.08,16.11-6.08,8.44,0,14.59,3.34,18.17,9.8,1.75,3.12,2.51,5.7,2.96,10.49l-14.44.84c-.08-2.89-.3-4.18-1.06-5.85-.99-2.28-3.12-3.8-5.55-3.8-2.58,0-4.86,1.82-5.93,4.71-.99,2.58-1.37,5.62-1.37,10.41,0,9.8,2.2,13.91,7.3,13.91,4.1,0,6.38-2.74,6.84-8.44l14.21.91Z"/>
    <path class="cls-2" d="M549.25,40.83c-1.98,8.36-9.35,13.38-19.61,13.38-12.54,0-21.13-7.75-21.13-19.15,0-5.47,2.28-11.1,5.85-14.59,3.65-3.57,8.97-5.55,14.9-5.55,12.16,0,20.06,8.06,20.06,20.45,0,.38,0,1.29-.08,2.2h-25.23c0,2.96.23,3.95,1.06,5.02.99,1.29,2.58,1.98,4.71,1.98,3.34,0,4.86-1.22,5.7-4.64l13.76.91ZM534.51,30.11c-.15-4.56-1.67-6.46-5.24-6.46s-5.32,2.13-5.32,6.46h10.56Z"/>
    <path class="cls-2" d="M577.14,53.44v-23.79c0-3.27-.84-4.56-3.12-4.56-2.81,0-4.1,1.82-4.1,5.62v22.73h-14.82V15.67h13.76v5.32c1.14-2.05,1.9-2.96,3.27-3.95,1.82-1.29,4.86-2.13,7.75-2.13,3.57,0,6.84,1.22,9.04,3.19,2.43,2.28,3.04,4.48,3.04,11.17v24.17h-14.82Z"/>
    <path class="cls-2" d="M623.05,25.32h-7.52v13.91c0,2.89.84,3.88,3.42,3.88,1.14,0,2.58-.23,4.1-.61v10.56c-3.42.61-5.62.84-8.51.84-5.09,0-7.98-.91-10.26-3.19-1.9-1.9-2.74-3.88-2.96-7.22q-.08-.99-.08-6.31v-11.86h-5.62v-9.65h6.31l.99-12.08,12.92-.46-.3,12.54h7.52v9.65Z"/>
    <path class="cls-2" d="M666.67,40.83c-1.98,8.36-9.35,13.38-19.61,13.38-12.54,0-21.13-7.75-21.13-19.15,0-5.47,2.28-11.1,5.85-14.59,3.65-3.57,8.97-5.55,14.9-5.55,12.16,0,20.06,8.06,20.06,20.45,0,.38,0,1.29-.08,2.2h-25.23c0,2.96.23,3.95,1.06,5.02.99,1.29,2.58,1.98,4.71,1.98,3.34,0,4.86-1.22,5.7-4.64l13.76.91ZM651.93,30.11c-.15-4.56-1.67-6.46-5.24-6.46s-5.32,2.13-5.32,6.46h10.56Z"/>
    <path class="cls-2" d="M672.52,53.44V15.67h12.31v7.83c1.82-6.16,4.56-8.51,10.03-8.51.61,0,1.06,0,1.98.15v13.15c-1.29-.3-1.9-.38-2.81-.38-4.94,0-7.3,2.58-7.3,8.21v17.33h-14.21Z"/>
    <path class="cls-2" d="M207.48,129.44h-13.98v-28.12h-5.62v-9.65h5.62c0-6.38.3-8.06,2.05-10.64,2.28-3.34,5.93-4.79,12.39-4.79,3.65,0,6.69.3,10.72.99v9.58q-5.32-.61-6.69-.61c-3.34,0-4.64,1.14-4.64,4.26v1.22h9.65v9.65h-9.5v28.12Z"/>
    <path class="cls-2" d="M260.46,110.67c0,11.4-8.74,19.53-20.98,19.53s-20.45-8.21-20.45-19.53,8.67-19.76,20.75-19.76,20.67,7.98,20.67,19.76ZM234.77,110.6c0,7.75,1.37,10.64,4.86,10.64,2.05,0,3.42-.84,4.03-2.51.61-1.82,1.06-5.17,1.06-8.44,0-7.37-1.37-10.11-4.94-10.11s-5.02,3.04-5.02,10.41Z"/>
    <path class="cls-2" d="M266.16,129.44v-37.77h12.31v7.83c1.82-6.16,4.56-8.51,10.03-8.51.61,0,1.06,0,1.98.15v13.15c-1.29-.3-1.9-.38-2.81-.38-4.94,0-7.3,2.58-7.3,8.21v17.33h-14.21Z"/>
    <path class="cls-2" d="M323.84,112.19c1.6,4.41,4.1,6.08,9.42,6.08,3.72,0,5.78-1.14,5.78-3.19s-1.6-3.19-6.16-4.03c-6.16-1.22-10.49-2.58-13.83-4.33-4.48-2.28-7.07-6.76-7.07-12.08,0-10.03,8.21-16.65,20.83-16.65,10.41,0,17.41,4.18,20.67,12.46l-12.92,3.88c-1.44-3.57-3.88-5.09-8.13-5.09-3.12,0-5.02,1.22-5.02,3.19s1.29,2.74,5.62,3.65c9.42,1.98,11.4,2.58,14.67,4.33,4.41,2.43,7.14,7.22,7.14,12.62,0,10.34-9.04,17.18-22.73,17.18-7.37,0-13.22-2.05-17.56-6.16-2.58-2.51-3.88-4.79-5.17-9.27l14.44-2.58Z"/>
    <path class="cls-2" d="M399.84,110.67c0,11.4-8.74,19.53-20.98,19.53s-20.44-8.21-20.44-19.53,8.66-19.76,20.75-19.76,20.67,7.98,20.67,19.76ZM374.15,110.6c0,7.75,1.37,10.64,4.86,10.64,2.05,0,3.42-.84,4.03-2.51.61-1.82,1.06-5.17,1.06-8.44,0-7.37-1.37-10.11-4.94-10.11s-5.02,3.04-5.02,10.41Z"/>
    <path class="cls-2" d="M440.88,115.31c-.68,4.18-1.67,6.54-3.88,9.12-3.42,3.95-7.9,5.78-14.14,5.78-5.47,0-9.5-1.44-13.07-4.64-4.03-3.65-6.23-8.82-6.23-14.75,0-11.78,7.98-19.91,19.61-19.91,5.25,0,9.65,1.67,13,5.09,2.74,2.81,3.88,5.32,4.56,9.88l-12.92,1.14c-.38-2.13-.46-2.43-.76-3.27-.61-1.75-1.98-2.74-3.8-2.74-3.27,0-4.56,2.81-4.56,9.73,0,6.38,1.44,9.04,4.79,9.04,2.74,0,4.26-1.67,4.79-5.55l12.62,1.06Z"/>
    <path class="cls-2" d="M460.11,88.94h-14.82v-11.71h14.82v11.71ZM460.11,129.44h-14.82v-37.77h14.82v37.77Z"/>
    <path class="cls-2" d="M491.87,129.44c-.46-2.13-.53-3.34-.53-5.24-3.04,4.18-6.61,6-12.16,6-7.98,0-13.3-4.48-13.3-11.25,0-5.24,3.57-9.73,9.42-11.63,4.26-1.37,9.2-2.13,15.28-2.43v-.91c0-2.96-1.22-4.1-4.48-4.1s-5.24,1.37-5.7,4.1l-13.45-1.22c1.06-4.03,2.43-6.16,5.24-8.13,3.65-2.58,8.06-3.72,14.37-3.72,7.6,0,13.3,1.9,16.04,5.24,1.82,2.2,2.2,4.18,2.2,10.87v15.05c0,3.34.15,4.56,1.14,7.37h-14.06ZM490.58,111.81c-6.38.68-9.42,2.66-9.42,6,0,2.13,1.37,3.42,3.72,3.42,4.03,0,5.7-2.2,5.7-7.68v-1.75Z"/>
    <path class="cls-2" d="M527.06,129.44h-14.59v-50.69h14.59v50.69Z"/>
    <path class="cls-2" d="M596.45,110.98c-.84,6.31-2.28,9.58-5.7,13.15-3.88,4.03-9.2,6.08-15.58,6.08-14.06,0-23.03-9.96-23.03-25.69,0-8.36,2.51-15.66,7.07-20.44,3.88-4.03,9.35-6.08,16.11-6.08,8.44,0,14.59,3.34,18.17,9.8,1.75,3.12,2.51,5.7,2.96,10.49l-14.44.84c-.08-2.89-.3-4.18-1.06-5.85-.99-2.28-3.12-3.8-5.55-3.8-2.58,0-4.86,1.82-5.93,4.71-.99,2.58-1.37,5.62-1.37,10.41,0,9.8,2.2,13.91,7.3,13.91,4.1,0,6.38-2.74,6.84-8.44l14.21.91Z"/>
    <path class="cls-2" d="M623.88,129.44v-22.73c0-3.04-.08-3.42-.61-4.26-.53-.76-1.52-1.22-2.66-1.22-1.9,0-3.57,1.22-4.03,2.89q-.15.76-.15,3.95v21.36h-14.82v-50.69h14.82v17.4c2.81-3.65,6-5.24,10.41-5.24,4.18,0,7.6,1.44,9.73,4.18,1.75,2.28,2.13,3.88,2.13,9.8v24.55h-14.82Z"/>
    <path class="cls-2" d="M670.55,129.44c-.46-2.13-.53-3.34-.53-5.24-3.04,4.18-6.61,6-12.16,6-7.98,0-13.3-4.48-13.3-11.25,0-5.24,3.57-9.73,9.42-11.63,4.26-1.37,9.2-2.13,15.28-2.43v-.91c0-2.96-1.22-4.1-4.48-4.1s-5.24,1.37-5.7,4.1l-13.45-1.22c1.06-4.03,2.43-6.16,5.24-8.13,3.65-2.58,8.06-3.72,14.37-3.72,7.6,0,13.3,1.9,16.04,5.24,1.82,2.2,2.2,4.18,2.2,10.87v15.05c0,3.34.15,4.56,1.14,7.37h-14.06ZM669.26,111.81c-6.38.68-9.42,2.66-9.42,6,0,2.13,1.37,3.42,3.72,3.42,4.03,0,5.7-2.2,5.7-7.68v-1.75Z"/>
    <path class="cls-2" d="M713.18,129.44v-23.79c0-3.27-.84-4.56-3.12-4.56-2.81,0-4.1,1.82-4.1,5.62v22.73h-14.82v-37.77h13.76v5.32c1.14-2.05,1.9-2.96,3.27-3.95,1.82-1.29,4.86-2.13,7.75-2.13,3.57,0,6.84,1.22,9.04,3.19,2.43,2.28,3.04,4.48,3.04,11.17v24.17h-14.82Z"/>
    <path class="cls-2" d="M775.12,93.27c-2.2-.15-3.04-.23-3.57-.23-2.43,0-3.42.3-4.18,1.44,2.74,2.2,4.26,5.32,4.26,8.66,0,7.3-6.23,11.4-17.33,11.4q-.46,0-2.81-.15h-.46c-2.58,0-3.65.53-3.65,1.82,0,1.22.76,1.67,3.19,1.75l12.08.53c3.65.15,6.84,1.14,8.82,2.81,2.43,1.98,4.03,5.55,4.03,8.89,0,4.1-2.28,7.83-5.85,9.65-3.88,1.9-8.59,2.66-16.72,2.66-13.91,0-20.6-3.12-20.6-9.5,0-3.42,1.67-5.62,5.4-7.22-2.51-1.9-3.5-3.57-3.5-5.93s1.14-4.56,3.04-6.08c1.06-.84,1.9-1.29,4.26-2.28-4.41-2.13-6.08-4.48-6.08-8.74,0-7.52,6.84-11.93,18.32-11.93,2.81,0,4.33.15,7.07.84,1.06-6.16,3.95-8.89,9.35-8.89,1.44,0,2.05,0,5.32.3l-.38,10.18ZM750.04,128.99c-.53-.08-1.22-.08-1.6-.08-2.89,0-3.88.61-3.88,2.36,0,2.51,2.89,3.5,10.18,3.5,6,0,7.75-.68,7.75-2.96,0-1.67-.91-2.28-3.42-2.43l-9.04-.38ZM749.36,102.92c0,2.96,1.6,4.64,4.41,4.64s4.41-1.67,4.41-4.56-1.6-4.71-4.33-4.71-4.48,1.75-4.48,4.64Z"/>
    <path class="cls-2" d="M817.76,116.83c-1.98,8.36-9.35,13.38-19.61,13.38-12.54,0-21.13-7.75-21.13-19.15,0-5.47,2.28-11.1,5.85-14.59,3.65-3.57,8.97-5.55,14.9-5.55,12.16,0,20.06,8.06,20.06,20.45,0,.38,0,1.29-.08,2.2h-25.23c0,2.96.23,3.95,1.06,5.02.99,1.29,2.58,1.98,4.71,1.98,3.34,0,4.86-1.22,5.7-4.64l13.76.91ZM803.01,106.11c-.15-4.56-1.67-6.46-5.24-6.46s-5.32,2.13-5.32,6.46h10.56Z"/>
  </g>
  <g>
    <path class="cls-1" d="M82.77,131.85c-1.28,0-2.56-.49-3.53-1.46-10.51-10.49-18.06-23.66-21.82-38.06-7.46-28.59.9-59.36,21.81-80.31,1.95-1.96,5.12-1.96,7.07,0,1.95,1.95,1.96,5.12,0,7.07-18.42,18.45-25.78,45.55-19.21,70.72,3.31,12.69,9.95,24.27,19.21,33.51,1.95,1.95,1.96,5.12,0,7.07-.98.98-2.26,1.47-3.54,1.47Z"/>
    <path class="cls-1" d="M99.07,115.55c-1.28,0-2.56-.49-3.53-1.46-7.62-7.6-13.09-17.14-15.81-27.58-5.4-20.71.65-43.01,15.8-58.19,1.95-1.95,5.12-1.96,7.07,0,1.95,1.95,1.96,5.12,0,7.07-12.66,12.68-17.72,31.3-13.2,48.6,2.27,8.72,6.84,16.68,13.2,23.03,1.95,1.95,1.96,5.12,0,7.07-.98.98-2.26,1.47-3.54,1.47Z"/>
    <path class="cls-1" d="M114.38,100.24c-1.28,0-2.56-.49-3.53-1.46-4.9-4.89-8.42-11.02-10.17-17.74-3.47-13.32.42-27.66,10.16-37.42,1.95-1.96,5.12-1.96,7.07,0,1.95,1.95,1.96,5.12,0,7.07-7.25,7.26-10.14,17.92-7.56,27.83,1.3,4.99,3.91,9.55,7.55,13.18,1.95,1.95,1.96,5.12,0,7.07-.98.98-2.26,1.47-3.54,1.47Z"/>
  </g>
</svg>