<?xml version="1.0" encoding="UTF-8"?>
<svg id="Layer_1" xmlns="http://www.w3.org/2000/svg" version="1.1" viewBox="0 0 112 20.7">
  <!-- Generator: Adobe Illustrator 29.8.3, SVG Export Plug-In . SVG Version: 2.1.1 Build 3)  -->
  <defs>
    <style>
      .st0 {
        fill: none;
        stroke: #0066b3;
        stroke-width: .5px;
      }

      .st1 {
        fill: #0066b3;
      }

      .st2 {
        fill: #fff;
      }
    </style>
  </defs>
  <polygon class="st1" points="7.4 1.7 7.5 1.7 10.3 6.3 10.3 9.8 7.4 6.9 7.4 1.7"/>
  <polygon class="st1" points="7.1 7.3 1.8 7.3 1.8 7.4 6.4 10.2 9.9 10.2 7.1 7.3"/>
  <polygon class="st1" points="7.5 1.7 7.6 2.2 2.3 2.2 2.3 7.5 1.8 7.4 1.8 1.7 7.5 1.7"/>
  <polygon class="st1" points="13.8 1.7 13.7 1.7 10.9 6.3 10.9 9.8 13.8 6.9 13.8 1.7"/>
  <polygon class="st1" points="14.1 7.3 19.4 7.3 19.4 7.4 14.7 10.2 11.2 10.2 14.1 7.3"/>
  <polygon class="st1" points="13.7 1.7 13.6 2.2 18.9 2.2 18.9 7.5 19.4 7.4 19.4 1.7 13.7 1.7"/>
  <polygon class="st1" points="7.4 19.3 7.5 19.3 10.3 14.6 10.3 11.1 7.4 14 7.4 19.3"/>
  <polygon class="st1" points="7.1 13.6 1.8 13.6 1.8 13.5 6.4 10.7 9.9 10.7 7.1 13.6"/>
  <polygon class="st1" points="7.5 19.3 7.6 18.7 2.3 18.7 2.3 13.5 1.8 13.5 1.8 19.3 7.5 19.3"/>
  <polygon class="st1" points="13.8 19.3 13.7 19.3 10.9 14.6 10.9 11.1 13.8 14 13.8 19.3"/>
  <polygon class="st1" points="14.1 13.6 19.4 13.6 19.4 13.5 14.7 10.7 11.2 10.7 14.1 13.6"/>
  <polygon class="st1" points="13.7 19.3 13.6 18.7 18.9 18.7 18.9 13.4 19.4 13.5 19.4 19.3 13.7 19.3"/>
  <path class="st1" d="M30.3,4.9v11.3h-2.6V4.9h2.6Z"/>
  <path class="st1" d="M32.2,5c1.1-.2,2.3-.2,3.5-.2,1.6-.1,3.3.3,4.6,1.2,1.3,1,2,2.6,1.9,4.3.1,1.7-.6,3.4-1.9,4.6-1.5,1.1-3.4,1.6-5.2,1.5-1,0-1.9,0-2.9-.2V5ZM34.7,14.2c.3,0,.6,0,.9,0,2.3,0,3.8-1.3,3.8-4,.2-1.8-1.1-3.4-2.9-3.6-.2,0-.5,0-.7,0-.4,0-.8,0-1.2.1v7.5Z"/>
  <path class="st1" d="M43.5,5c1.1-.2,2.3-.2,3.4-.2,1.3-.1,2.6.2,3.7.9.7.6,1.1,1.5,1,2.4,0,1.3-.8,2.4-2,2.8h0c.8.5,1.4,1.3,1.6,2.2.3,1.1.6,2.1.9,3.2h-2.6c-.3-.9-.6-1.7-.8-2.6-.3-1.4-.8-1.8-1.8-1.8h-.8v4.5h-2.5V5ZM46.1,9.9h1c1.3,0,2-.6,2-1.6s-.7-1.6-1.9-1.6c-.4,0-.8,0-1.2,0v3.1Z"/>
  <path class="st1" d="M61.4,15.9c-.9.4-1.9.5-2.9.5-3.9,0-5.9-2.5-5.9-5.7s2.8-6,6.2-6c1,0,1.9.1,2.8.5l-.5,2c-.7-.3-1.4-.4-2.2-.4-1.9-.1-3.5,1.3-3.6,3.2,0,.2,0,.4,0,.6-.2,1.9,1.2,3.5,3,3.7.2,0,.4,0,.6,0,.7,0,1.4-.1,2.1-.4l.4,2Z"/>
  <path class="st1" d="M84.7,15.9c-.9.4-1.9.5-2.9.5-3.9,0-5.9-2.5-5.9-5.7s2.8-6,6.2-6c1,0,1.9.1,2.8.5l-.5,2c-.7-.3-1.4-.4-2.1-.4-1.9-.1-3.5,1.3-3.6,3.2,0,.2,0,.4,0,.6-.2,1.9,1.2,3.5,3,3.7.2,0,.4,0,.6,0,.7,0,1.5-.1,2.1-.4l.3,2Z"/>
  <path class="st1" d="M86.3,5c1.1-.2,2.3-.2,3.4-.2,1.3-.1,2.6.2,3.7.9.7.6,1.1,1.5,1,2.4,0,1.3-.8,2.4-2,2.8h0c.8.5,1.4,1.3,1.5,2.2.4,1.3.7,2.8.9,3.2h-2.6c-.4-.8-.6-1.7-.8-2.6-.3-1.4-.8-1.8-1.8-1.8h-.8v4.5h-2.5V5ZM88.9,9.9h1c1.3,0,2-.6,2-1.6s-.7-1.6-1.9-1.6c-.4,0-.8,0-1.2,0v3.1Z"/>
  <path class="st1" d="M96.3,5c1.1-.2,2.3-.2,3.5-.2,1.6-.1,3.3.3,4.6,1.2,1.3,1,2,2.6,1.9,4.3,0,1.7-.6,3.4-1.9,4.6-1.5,1.1-3.4,1.6-5.3,1.5-1,0-1.9,0-2.9-.2V5ZM98.9,14.2c.3,0,.6,0,.9,0,2.3,0,3.8-1.3,3.8-4,.2-1.8-1.1-3.4-2.9-3.6-.2,0-.5,0-.7,0-.4,0-.8,0-1.2.1v7.5Z"/>
  <path class="st1" d="M110.2,4.9v11.3h-2.6V4.9h2.6Z"/>
  <line class="st0" x1="69.2" y1="1.7" x2="69.2" y2="19.3"/>
  <rect class="st2" x="2.3" y="2.2" width="5.1" height="5.1"/>
  <rect class="st2" x="13.7" y="2.2" width="5.1" height="5.1"/>
  <rect class="st2" x="2.3" y="13.6" width="5.1" height="5.1"/>
  <rect class="st2" x="13.7" y="13.6" width="5.1" height="5.1"/>
</svg>