<svg xmlns="http://www.w3.org/2000/svg" width="400.984" height="72" viewBox="0 0 400.984 72"><g transform="translate(220.603 -60.817)"><rect width="11.248" height="11.248" transform="translate(-74.915 120.508)" fill="#f3e000"/><path d="M-196.574,114.876A9.184,9.184,0,0,1-198,120.585a7.232,7.232,0,0,1-5.727,2.38,6.25,6.25,0,0,1-5.212-2.489,9.777,9.777,0,0,1-1.331-6.187V79.807a10.323,10.323,0,0,1,1.739-6.9,6.622,6.622,0,0,1,5.316-2.286,6.273,6.273,0,0,1,5.32,2.5,8.5,8.5,0,0,1,1.327,4.593v3.988h9.931v-4.8a16.417,16.417,0,0,0-4.6-11.588,18.963,18.963,0,0,0-12.37-4.5,18.426,18.426,0,0,0-11.666,4.093c-4.6,3.9-5.216,9.092-5.216,13.689v36.271a17.413,17.413,0,0,0,3.577,12.588,16.089,16.089,0,0,0,12.886,5.3c7.058,0,11.247-2.4,13.39-4.695a17.907,17.907,0,0,0,4.3-12.791v-2.9h-10.228Z" transform="translate(0 0.015)" fill="#0e2845"/><g transform="translate(-53.194 61.86)"><path d="M-145.556,65.294c-4.5-4-10.647-4.2-14.928-4.2H-174.29v69.9h15.236a19.056,19.056,0,0,0,14.417-5.492,19.4,19.4,0,0,0,4.6-14.277V80.371C-140.037,77.374-140.341,69.985-145.556,65.294Zm-4.7,45.33a12.062,12.062,0,0,1-2.35,8.188,9.071,9.071,0,0,1-6.858,2.4h-4.6V70.883h5.216a7.406,7.406,0,0,1,6.647,2.3,10.021,10.021,0,0,1,1.946,6.491Z" transform="translate(174.29 -61.098)" fill="#0e2845"/></g><path d="M-184.544,114.876a9.234,9.234,0,0,1-1.431,5.709,7.242,7.242,0,0,1-5.727,2.38,6.247,6.247,0,0,1-5.216-2.5,9.794,9.794,0,0,1-1.327-6.187V79.807a10.3,10.3,0,0,1,1.739-6.9,6.611,6.611,0,0,1,5.3-2.286,6.262,6.262,0,0,1,5.316,2.5,8.5,8.5,0,0,1,1.331,4.593l.011,3.988h9.916v-4.8a16.4,16.4,0,0,0-4.6-11.588,18.97,18.97,0,0,0-12.371-4.5,18.439,18.439,0,0,0-11.659,4.093c-4.6,3.9-5.216,9.092-5.216,13.689v36.271a17.415,17.415,0,0,0,3.581,12.588,16.081,16.081,0,0,0,12.882,5.3c7.062,0,11.247-2.4,13.39-4.695a17.891,17.891,0,0,0,4.3-12.791v-2.9h-10.224Z" transform="translate(32.556 0.015)" fill="#0e2845"/><path d="M-171.689,99.641h-.414L-186.214,61.1H-196.44v69.9h10.225V87.25h.511l10.737,31.553h5.419L-158.81,87.25h.511v43.744h10.225V61.1H-158.3Z" transform="translate(63.094 0.762)" fill="#0e2845"/><path d="M-92.727,61.1v43.935L-109.808,61.1h-10.225v69.9h10.225V87.059l17.081,43.935H-82.5V61.1Z" transform="translate(262.883 0.762)" fill="#0e2845"/><path d="M-116.03,102.6h8.689v9.393a13.1,13.1,0,0,1-1.839,8.194,7.979,7.979,0,0,1-5.931,2.789,7.31,7.31,0,0,1-5.727-2.5,11.8,11.8,0,0,1-1.739-7.194V80.517a10.458,10.458,0,0,1,1.95-7.393,7.318,7.318,0,0,1,5.713-2.489,7.6,7.6,0,0,1,5.52,2,7.464,7.464,0,0,1,2.046,5.694v3.488h10.224v-2.8a18.609,18.609,0,0,0-5.216-13.686,18.014,18.014,0,0,0-12.678-4.5,17.456,17.456,0,0,0-14.417,6.6,19.733,19.733,0,0,0-3.377,12.787V115.6a19.013,19.013,0,0,0,3.681,12.19,13.877,13.877,0,0,0,11.351,5,16.853,16.853,0,0,0,7.978-1.71,11.887,11.887,0,0,0,4.908-4.695l2.669,5.394h5.112V93.608H-116.03Z" transform="translate(228.101 0.004)" fill="#0e2845"/><path d="M-127.931,92.214l-6.239-2.2a9.472,9.472,0,0,1-4.7-3.094,14.655,14.655,0,0,1-1.635-7.3,9.778,9.778,0,0,1,2.146-7.093,6.935,6.935,0,0,1,5.012-1.905,6.542,6.542,0,0,1,5.42,2.3,10.3,10.3,0,0,1,1.739,6.394l-.019,1.9h10.224v-2.3c0-11.592-6.851-18.08-17.079-18.08a17.171,17.171,0,0,0-12.371,4.3,17.515,17.515,0,0,0-5.316,12.99v2a24.518,24.518,0,0,0,1.531,10.194,14.237,14.237,0,0,0,9.409,7.792l7.466,2.6a10.55,10.55,0,0,1,4.908,3.094A12.992,12.992,0,0,1-125.8,111v2.6a11.179,11.179,0,0,1-1.635,6.9,7.685,7.685,0,0,1-6.443,2.5,7.071,7.071,0,0,1-5.624-2.3,10.508,10.508,0,0,1-1.639-6.184V112.6h-10.224v2.286a21.259,21.259,0,0,0,3.273,11.787,17.149,17.149,0,0,0,14.335,6.1,18.645,18.645,0,0,0,13.29-4.6c2.966-3,4.908-8.393,4.908-15.486v-2.4a18.724,18.724,0,0,0-3.066-12.088A17.921,17.921,0,0,0-127.931,92.214Z" transform="translate(180.993 0)" fill="#0e2845"/><rect width="10.226" height="69.896" transform="translate(75.474 61.86)" fill="#0e2845"/><path d="M-151.625,100.14h17.792V91.154h-17.792V70.584h20.144V61.1h-30.37v69.9h30.676v-9.486h-20.451Z" transform="translate(153.676 0.762)" fill="#0e2845"/></g></svg>
