<svg id="Layer_1" data-name="Layer 1" xmlns="http://www.w3.org/2000/svg" viewBox="0 0 1280 800"><defs><style>.cls-1{fill:#153634;}.cls-2{fill:#de6e26;}.cls-3{fill:#efc329;}.cls-4{fill:#bc2c26;}.cls-5{fill:#c5cdcc;}.cls-6{fill:#fff;}.cls-7{fill:#4dacb6;}</style></defs><rect class="cls-1" x="650.07" width="279.32" height="385.75"/><rect class="cls-2" x="957.99" width="279.32" height="385.75"/><rect class="cls-3" x="34.25" y="414.25" width="279.32" height="385.75"/><rect class="cls-4" x="342.16" y="414.25" width="279.32" height="385.75"/><rect class="cls-5" x="650.07" y="414.25" width="279.32" height="385.75"/><circle class="cls-6" cx="747.45" cy="289.06" r="15.73"/><circle class="cls-6" cx="748.09" cy="194.8" r="15.73"/><circle class="cls-6" cx="794.66" cy="183.36" r="11.33"/><circle class="cls-6" cx="794.66" cy="300.65" r="11.33"/><circle class="cls-6" cx="732.82" cy="242" r="11.33"/><circle class="cls-6" cx="834.54" cy="281.99" r="7.01"/><path class="cls-6" d="M795.45,241.93a4.53,4.53,0,0,0-4.26,2.55v2.4q0,6.57,4.54,6.57a3.68,3.68,0,0,0,3.06-1.64,6.7,6.7,0,0,0,1.23-4.12,6.57,6.57,0,0,0-1.25-4.15A4,4,0,0,0,795.45,241.93Z"/><path class="cls-6" d="M766.19,238.48q4.5,0,4.5-4.4a3.78,3.78,0,0,0-1.07-2.8,4.06,4.06,0,0,0-3-1.08,4.38,4.38,0,0,0-2.77.92,2.83,2.83,0,0,0-1.18,2.31h-6.87a40.33,40.33,0,0,0-.92,8.57,39.62,39.62,0,0,0,.71,7.52h6.58a3.64,3.64,0,0,0,1.28,2.77,4.59,4.59,0,0,0,3.17,1.16,4.74,4.74,0,0,0,3.38-1.18,3.93,3.93,0,0,0,1.26-3,4.61,4.61,0,0,0-1.31-3.71,5.47,5.47,0,0,0-3.62-1.1h-3.9v-6Z"/><path class="cls-6" d="M823.51,230.22a3.19,3.19,0,0,0-3,1.71,11.83,11.83,0,0,0-1,5.19V246a12.42,12.42,0,0,0,1,5.67,3.27,3.27,0,0,0,3.09,1.8,3.21,3.21,0,0,0,3-1.75,11.78,11.78,0,0,0,1-5.48v-8.57a12.42,12.42,0,0,0-1-5.59A3.26,3.26,0,0,0,823.51,230.22Z"/><path class="cls-6" d="M823.56,259.64q-5.79,0-8.95-3.83T811.44,245v-6.33q0-7,3.16-10.83t8.91-3.81a11.17,11.17,0,0,1,8.1,2.94,39.86,39.86,0,0,0-73.71-.27,11,11,0,0,1,2.47-1.49,14.53,14.53,0,0,1,5.94-1.2q5.79,0,9.1,2.64a8.8,8.8,0,0,1,3.31,7.26,7.32,7.32,0,0,1-1.37,4.22,9.79,9.79,0,0,1-4,3.23,9.39,9.39,0,0,1,4.33,3,8,8,0,0,1,1.57,5,9,9,0,0,1-3.57,7.43,14.85,14.85,0,0,1-9.38,2.78,15.31,15.31,0,0,1-6.32-1.3,11.63,11.63,0,0,1-2.17-1.25,39.86,39.86,0,0,0,74-.56A11.09,11.09,0,0,1,823.56,259.64Zm-17-5.88a11.18,11.18,0,0,1-4.36,4.32,12.52,12.52,0,0,1-6.2,1.56,12.9,12.9,0,0,1-6.59-1.68,11.52,11.52,0,0,1-4.53-4.79,15.78,15.78,0,0,1-1.66-7.19v-3.22a20,20,0,0,1,2.29-9.62,16.67,16.67,0,0,1,6.56-6.71,18.83,18.83,0,0,1,9.45-2.42h1.22v6.3h-.36a12,12,0,0,0-7.39,2.16,9.08,9.08,0,0,0-3.56,6,9.36,9.36,0,0,1,6.85-2.67,8.76,8.76,0,0,1,7.17,3.28,13.25,13.25,0,0,1,2.66,8.62A12.21,12.21,0,0,1,806.51,253.76Z"/><circle class="cls-6" cx="1055.23" cy="289.06" r="15.73"/><circle class="cls-6" cx="1055.87" cy="194.8" r="15.73"/><circle class="cls-6" cx="1102.44" cy="183.36" r="11.33"/><circle class="cls-6" cx="1102.44" cy="300.65" r="11.33"/><circle class="cls-6" cx="1040.6" cy="242" r="11.33"/><circle class="cls-6" cx="1142.33" cy="281.99" r="7.01"/><path class="cls-6" d="M1103.24,241.93a4.59,4.59,0,0,0-2.67.74,4.69,4.69,0,0,0-1.6,1.81v2.4q0,6.57,4.55,6.57a3.71,3.71,0,0,0,3.06-1.64,6.7,6.7,0,0,0,1.23-4.12,6.57,6.57,0,0,0-1.25-4.15A4,4,0,0,0,1103.24,241.93Z"/><path class="cls-6" d="M1074,238.48q4.5,0,4.5-4.4a3.82,3.82,0,0,0-1.07-2.8,4.07,4.07,0,0,0-3-1.08,4.41,4.41,0,0,0-2.78.92,2.85,2.85,0,0,0-1.18,2.31h-6.86a39.8,39.8,0,0,0-.21,16.09h6.57a3.62,3.62,0,0,0,1.29,2.77,4.57,4.57,0,0,0,3.17,1.16,4.75,4.75,0,0,0,3.38-1.18,3.93,3.93,0,0,0,1.26-3,4.61,4.61,0,0,0-1.31-3.71,5.47,5.47,0,0,0-3.62-1.1h-3.9v-6Z"/><path class="cls-6" d="M1131.3,230.22a3.19,3.19,0,0,0-3,1.71,11.55,11.55,0,0,0-1,5.19V246a12.44,12.44,0,0,0,1,5.67,3.27,3.27,0,0,0,3.1,1.8,3.22,3.22,0,0,0,3-1.75,11.91,11.91,0,0,0,1-5.48v-8.57a12.41,12.41,0,0,0-1-5.59A3.25,3.25,0,0,0,1131.3,230.22Z"/><path class="cls-6" d="M1131.35,259.64q-5.79,0-8.95-3.83T1119.23,245v-6.33q0-7,3.16-10.83t8.91-3.81a11.2,11.2,0,0,1,8.1,2.94,39.86,39.86,0,0,0-73.71-.27,11,11,0,0,1,2.47-1.49,14.46,14.46,0,0,1,5.94-1.2q5.79,0,9.09,2.64a8.77,8.77,0,0,1,3.31,7.26,7.25,7.25,0,0,1-1.37,4.22,9.76,9.76,0,0,1-4,3.23,9.39,9.39,0,0,1,4.33,3,8,8,0,0,1,1.57,5,9,9,0,0,1-3.57,7.43,14.87,14.87,0,0,1-9.38,2.78,15.27,15.27,0,0,1-6.32-1.3,12.05,12.05,0,0,1-2.18-1.25,39.86,39.86,0,0,0,74-.56A11.09,11.09,0,0,1,1131.35,259.64Zm-17.06-5.88a11.15,11.15,0,0,1-4.35,4.32,12.55,12.55,0,0,1-6.2,1.56,13,13,0,0,1-6.6-1.68,11.56,11.56,0,0,1-4.52-4.79A15.78,15.78,0,0,1,1091,246v-3.22a20,20,0,0,1,2.3-9.62,16.67,16.67,0,0,1,6.56-6.71,18.83,18.83,0,0,1,9.45-2.42h1.21v6.3h-.36a12,12,0,0,0-7.39,2.16,9.16,9.16,0,0,0-3.56,6,9.39,9.39,0,0,1,6.86-2.67,8.76,8.76,0,0,1,7.17,3.28,13.31,13.31,0,0,1,2.66,8.62A12.11,12.11,0,0,1,1114.29,253.76Z"/><circle class="cls-6" cx="747.2" cy="596.85" r="15.73"/><circle class="cls-6" cx="747.84" cy="502.58" r="15.73"/><circle class="cls-6" cx="794.41" cy="491.14" r="11.33"/><circle class="cls-6" cx="794.41" cy="608.44" r="11.33"/><circle class="cls-6" cx="732.57" cy="549.79" r="11.33"/><circle class="cls-6" cx="834.29" cy="589.78" r="7.01"/><path class="cls-6" d="M795.2,549.72a4.54,4.54,0,0,0-2.67.74,4.7,4.7,0,0,0-1.59,1.8v2.41q0,6.57,4.54,6.57a3.68,3.68,0,0,0,3.06-1.64,6.7,6.7,0,0,0,1.23-4.12,6.62,6.62,0,0,0-1.25-4.16A4,4,0,0,0,795.2,549.72Z"/><path class="cls-6" d="M765.94,546.27q4.5,0,4.5-4.41a3.77,3.77,0,0,0-1.07-2.79,4,4,0,0,0-3-1.09,4.31,4.31,0,0,0-2.77.93,2.83,2.83,0,0,0-1.18,2.31h-6.87a40.23,40.23,0,0,0-.92,8.56,39.72,39.72,0,0,0,.71,7.53h6.58a3.64,3.64,0,0,0,1.28,2.76,4.53,4.53,0,0,0,3.17,1.17,4.74,4.74,0,0,0,3.38-1.18,4,4,0,0,0,1.26-3,4.6,4.6,0,0,0-1.31-3.71,5.47,5.47,0,0,0-3.62-1.1h-3.9v-6Z"/><path class="cls-6" d="M823.26,538a3.19,3.19,0,0,0-3,1.71,11.62,11.62,0,0,0-1,5.19v8.85a12.33,12.33,0,0,0,1,5.68,3.27,3.27,0,0,0,3.09,1.8,3.22,3.22,0,0,0,3-1.75,11.85,11.85,0,0,0,1-5.49v-8.57a12.38,12.38,0,0,0-1-5.58A3.27,3.27,0,0,0,823.26,538Z"/><path class="cls-6" d="M823.31,567.43q-5.79,0-8.95-3.84t-3.17-10.8v-6.33q0-7,3.16-10.83t8.91-3.81a11.17,11.17,0,0,1,8.1,2.94,39.86,39.86,0,0,0-73.71-.27,11,11,0,0,1,2.47-1.49,14.31,14.31,0,0,1,5.94-1.21q5.79,0,9.1,2.65a8.79,8.79,0,0,1,3.3,7.26,7.31,7.31,0,0,1-1.36,4.22,9.86,9.86,0,0,1-4,3.23,9.25,9.25,0,0,1,4.33,3,8,8,0,0,1,1.57,5,8.93,8.93,0,0,1-3.57,7.42,14.81,14.81,0,0,1-9.38,2.79,15.47,15.47,0,0,1-6.32-1.3,11.52,11.52,0,0,1-2.18-1.26,39.86,39.86,0,0,0,74-.55A11.09,11.09,0,0,1,823.31,567.43Zm-17.06-5.88a11.09,11.09,0,0,1-4.35,4.32,12.52,12.52,0,0,1-6.2,1.56,13,13,0,0,1-6.6-1.68,11.58,11.58,0,0,1-4.52-4.8,15.75,15.75,0,0,1-1.66-7.19v-3.21a20,20,0,0,1,2.29-9.63,16.65,16.65,0,0,1,6.56-6.7,18.73,18.73,0,0,1,9.45-2.43h1.21v6.31h-.35a12,12,0,0,0-7.39,2.16,9.06,9.06,0,0,0-3.56,6,9.36,9.36,0,0,1,6.85-2.66,8.76,8.76,0,0,1,7.17,3.28,13.29,13.29,0,0,1,2.66,8.62A12.14,12.14,0,0,1,806.25,561.55Z"/><rect class="cls-7" x="958.99" y="414.25" width="279.32" height="385.75"/><circle class="cls-6" cx="1056.11" cy="596.85" r="15.73"/><circle class="cls-6" cx="1056.75" cy="502.58" r="15.73"/><circle class="cls-6" cx="1103.32" cy="491.14" r="11.33"/><circle class="cls-6" cx="1103.32" cy="608.44" r="11.33"/><circle class="cls-6" cx="1041.48" cy="549.79" r="11.33"/><circle class="cls-6" cx="1143.2" cy="589.78" r="7.01"/><path class="cls-6" d="M1104.11,549.72a4.51,4.51,0,0,0-2.66.74,4.65,4.65,0,0,0-1.6,1.8v2.41q0,6.57,4.55,6.57a3.71,3.71,0,0,0,3.06-1.64,6.69,6.69,0,0,0,1.22-4.12,6.56,6.56,0,0,0-1.25-4.16A4,4,0,0,0,1104.11,549.72Z"/><path class="cls-6" d="M1074.86,546.27q4.5,0,4.5-4.41a3.81,3.81,0,0,0-1.07-2.79,4,4,0,0,0-3-1.09,4.35,4.35,0,0,0-2.77.93,2.85,2.85,0,0,0-1.18,2.31h-6.86a39.6,39.6,0,0,0-.93,8.56,40.56,40.56,0,0,0,.71,7.53h6.58a3.61,3.61,0,0,0,1.29,2.76,4.53,4.53,0,0,0,3.16,1.17,4.72,4.72,0,0,0,3.38-1.18,3.92,3.92,0,0,0,1.27-3,4.6,4.6,0,0,0-1.31-3.71,5.49,5.49,0,0,0-3.62-1.1h-3.91v-6Z"/><path class="cls-6" d="M1132.18,538a3.18,3.18,0,0,0-3,1.71,11.49,11.49,0,0,0-1,5.19v8.85a12.49,12.49,0,0,0,1,5.68,3.27,3.27,0,0,0,3.1,1.8,3.22,3.22,0,0,0,3-1.75,12,12,0,0,0,1-5.49v-8.57a12.36,12.36,0,0,0-1-5.58A3.25,3.25,0,0,0,1132.18,538Z"/><path class="cls-6" d="M1132.23,567.43q-5.79,0-9-3.84t-3.17-10.8v-6.33q0-7,3.15-10.83t8.92-3.81a11.2,11.2,0,0,1,8.1,2.94,39.86,39.86,0,0,0-73.72-.27A11.26,11.26,0,0,1,1069,533a14.31,14.31,0,0,1,5.94-1.21c3.85,0,6.89.88,9.09,2.65a8.77,8.77,0,0,1,3.31,7.26,7.32,7.32,0,0,1-1.37,4.22,9.73,9.73,0,0,1-4,3.23,9.23,9.23,0,0,1,4.34,3,8.06,8.06,0,0,1,1.57,5,8.93,8.93,0,0,1-3.57,7.42,14.81,14.81,0,0,1-9.38,2.79,15.44,15.44,0,0,1-6.32-1.3,11.52,11.52,0,0,1-2.18-1.26,39.86,39.86,0,0,0,74-.55A11.09,11.09,0,0,1,1132.23,567.43Zm-17.06-5.88a11.11,11.11,0,0,1-4.36,4.32,12.49,12.49,0,0,1-6.2,1.56,12.92,12.92,0,0,1-6.59-1.68,11.52,11.52,0,0,1-4.52-4.8,15.75,15.75,0,0,1-1.67-7.19v-3.21a20,20,0,0,1,2.3-9.63,16.65,16.65,0,0,1,6.56-6.7,18.73,18.73,0,0,1,9.45-2.43h1.21v6.31H1111a12,12,0,0,0-7.39,2.16,9.09,9.09,0,0,0-3.56,6,9.38,9.38,0,0,1,6.86-2.66,8.73,8.73,0,0,1,7.16,3.28,13.23,13.23,0,0,1,2.67,8.62A12.14,12.14,0,0,1,1115.17,561.55Z"/><circle class="cls-6" cx="439.41" cy="596.85" r="15.73"/><circle class="cls-6" cx="440.05" cy="502.58" r="15.73"/><circle class="cls-6" cx="486.62" cy="491.14" r="11.33"/><circle class="cls-6" cx="486.62" cy="608.44" r="11.33"/><circle class="cls-6" cx="424.78" cy="549.79" r="11.33"/><circle class="cls-6" cx="526.5" cy="589.78" r="7.01"/><path class="cls-6" d="M487.41,549.72a4.51,4.51,0,0,0-2.66.74,4.65,4.65,0,0,0-1.6,1.8v2.41q0,6.57,4.55,6.57a3.71,3.71,0,0,0,3.06-1.64,6.76,6.76,0,0,0,1.22-4.12,6.56,6.56,0,0,0-1.25-4.16A4,4,0,0,0,487.41,549.72Z"/><path class="cls-6" d="M458.16,546.27q4.5,0,4.5-4.41a3.78,3.78,0,0,0-1.08-2.79,4,4,0,0,0-3-1.09,4.33,4.33,0,0,0-2.77.93,2.83,2.83,0,0,0-1.18,2.31h-6.87a40.28,40.28,0,0,0-.21,16.09h6.58a3.61,3.61,0,0,0,1.29,2.76,4.51,4.51,0,0,0,3.16,1.17,4.74,4.74,0,0,0,3.38-1.18,4,4,0,0,0,1.26-3,4.57,4.57,0,0,0-1.31-3.71,5.44,5.44,0,0,0-3.61-1.1h-3.91v-6Z"/><path class="cls-6" d="M515.48,538a3.2,3.2,0,0,0-3,1.71,11.76,11.76,0,0,0-1,5.19v8.85a12.46,12.46,0,0,0,1,5.68,3.27,3.27,0,0,0,3.09,1.8,3.23,3.23,0,0,0,3-1.75,12,12,0,0,0,1-5.49v-8.57a12.36,12.36,0,0,0-1-5.58A3.25,3.25,0,0,0,515.48,538Z"/><path class="cls-6" d="M515.52,567.43q-5.77,0-8.95-3.84t-3.16-10.8v-6.33q0-7,3.15-10.83t8.92-3.81a11.2,11.2,0,0,1,8.1,2.94,39.86,39.86,0,0,0-73.72-.27,11,11,0,0,1,2.48-1.49,14.31,14.31,0,0,1,5.94-1.21q5.78,0,9.09,2.65a8.8,8.8,0,0,1,3.31,7.26,7.32,7.32,0,0,1-1.37,4.22,9.73,9.73,0,0,1-4,3.23,9.2,9.2,0,0,1,4.33,3,8,8,0,0,1,1.58,5,9,9,0,0,1-3.57,7.42,14.83,14.83,0,0,1-9.38,2.79,15.44,15.44,0,0,1-6.32-1.3,11.21,11.21,0,0,1-2.18-1.26,39.86,39.86,0,0,0,74-.55A11.1,11.1,0,0,1,515.52,567.43Zm-17-5.88a11.11,11.11,0,0,1-4.36,4.32,12.49,12.49,0,0,1-6.2,1.56,12.9,12.9,0,0,1-6.59-1.68,11.46,11.46,0,0,1-4.52-4.8,15.75,15.75,0,0,1-1.67-7.19v-3.21a19.92,19.92,0,0,1,2.3-9.63,16.63,16.63,0,0,1,6.55-6.7,18.73,18.73,0,0,1,9.45-2.43h1.22v6.31h-.36a12,12,0,0,0-7.39,2.16,9.09,9.09,0,0,0-3.56,6,9.38,9.38,0,0,1,6.86-2.66,8.74,8.74,0,0,1,7.16,3.28,13.23,13.23,0,0,1,2.67,8.62A12.14,12.14,0,0,1,498.47,561.55Z"/><circle class="cls-6" cx="131.62" cy="596.85" r="15.73"/><circle class="cls-6" cx="132.26" cy="502.58" r="15.73"/><circle class="cls-6" cx="178.83" cy="491.14" r="11.33"/><circle class="cls-6" cx="178.83" cy="608.44" r="11.33"/><circle class="cls-6" cx="116.99" cy="549.79" r="11.33"/><circle class="cls-6" cx="218.72" cy="589.78" r="7.01"/><path class="cls-6" d="M179.63,549.72a4.52,4.52,0,0,0-2.67.74,4.73,4.73,0,0,0-1.6,1.8v2.41q0,6.57,4.55,6.57A3.71,3.71,0,0,0,183,559.6a6.7,6.7,0,0,0,1.23-4.12,6.62,6.62,0,0,0-1.25-4.16A4,4,0,0,0,179.63,549.72Z"/><path class="cls-6" d="M150.37,546.27q4.5,0,4.5-4.41a3.81,3.81,0,0,0-1.07-2.79,4,4,0,0,0-3-1.09,4.36,4.36,0,0,0-2.78.93,2.85,2.85,0,0,0-1.18,2.31H140a39.8,39.8,0,0,0-.21,16.09h6.57a3.61,3.61,0,0,0,1.29,2.76,4.53,4.53,0,0,0,3.17,1.17,4.75,4.75,0,0,0,3.38-1.18,4,4,0,0,0,1.26-3,4.6,4.6,0,0,0-1.31-3.71,5.49,5.49,0,0,0-3.62-1.1h-3.9v-6Z"/><path class="cls-6" d="M207.69,538a3.19,3.19,0,0,0-3,1.71,11.49,11.49,0,0,0-1,5.19v8.85a12.49,12.49,0,0,0,1,5.68,3.27,3.27,0,0,0,3.1,1.8,3.22,3.22,0,0,0,3-1.75,12,12,0,0,0,1-5.49v-8.57a12.36,12.36,0,0,0-1-5.58A3.25,3.25,0,0,0,207.69,538Z"/><path class="cls-6" d="M207.74,567.43q-5.79,0-9-3.84t-3.17-10.8v-6.33q0-7,3.16-10.83t8.91-3.81a11.2,11.2,0,0,1,8.1,2.94,39.86,39.86,0,0,0-73.71-.27,11,11,0,0,1,2.47-1.49,14.31,14.31,0,0,1,5.94-1.21q5.79,0,9.09,2.65a8.77,8.77,0,0,1,3.31,7.26,7.32,7.32,0,0,1-1.37,4.22,9.76,9.76,0,0,1-4,3.23,9.25,9.25,0,0,1,4.33,3,8,8,0,0,1,1.57,5,8.93,8.93,0,0,1-3.57,7.42,14.81,14.81,0,0,1-9.38,2.79,15.44,15.44,0,0,1-6.32-1.3,11.52,11.52,0,0,1-2.18-1.26,39.86,39.86,0,0,0,74-.55A11.09,11.09,0,0,1,207.74,567.43Zm-17.06-5.88a11.15,11.15,0,0,1-4.35,4.32,12.56,12.56,0,0,1-6.21,1.56,13,13,0,0,1-6.59-1.68A11.52,11.52,0,0,1,169,561a15.75,15.75,0,0,1-1.67-7.19v-3.21a20,20,0,0,1,2.3-9.63,16.65,16.65,0,0,1,6.56-6.7,18.73,18.73,0,0,1,9.45-2.43h1.21v6.31h-.36a12,12,0,0,0-7.39,2.16,9.13,9.13,0,0,0-3.56,6,9.38,9.38,0,0,1,6.86-2.66,8.73,8.73,0,0,1,7.16,3.28,13.23,13.23,0,0,1,2.67,8.62A12.14,12.14,0,0,1,190.68,561.55Z"/><circle class="cls-3" cx="279.38" cy="248.2" r="15.67"/><circle class="cls-2" cx="280.02" cy="154.28" r="15.67"/><circle class="cls-3" cx="326.42" cy="142.88" r="11.29"/><circle class="cls-2" cx="326.42" cy="259.75" r="11.29"/><circle class="cls-7" cx="264.8" cy="201.32" r="11.29"/><circle class="cls-4" cx="366.16" cy="241.16" r="6.99"/><path class="cls-1" d="M327.21,201.24a4.58,4.58,0,0,0-2.66.74,4.7,4.7,0,0,0-1.59,1.8v2.4q0,6.54,4.53,6.54a3.67,3.67,0,0,0,3.05-1.63,6.7,6.7,0,0,0,1.22-4.11,6.56,6.56,0,0,0-1.24-4.14A4,4,0,0,0,327.21,201.24Z"/><path class="cls-1" d="M355.17,189.57a3.18,3.18,0,0,0-3,1.71,11.7,11.7,0,0,0-1,5.17v8.83a12.35,12.35,0,0,0,1,5.65,3.51,3.51,0,0,0,6.09,0,11.86,11.86,0,0,0,1-5.47V197a12.29,12.29,0,0,0-1-5.56A3.25,3.25,0,0,0,355.17,189.57Z"/><path class="cls-1" d="M298.06,197.8q4.49,0,4.48-4.38a3.77,3.77,0,0,0-1.07-2.79,4,4,0,0,0-3-1.08,4.3,4.3,0,0,0-2.76.93,2.81,2.81,0,0,0-1.17,2.3h-6.85a40,40,0,0,0-.21,16H294a3.57,3.57,0,0,0,1.28,2.75,4.48,4.48,0,0,0,3.15,1.16,4.75,4.75,0,0,0,3.37-1.17,3.91,3.91,0,0,0,1.26-3,4.59,4.59,0,0,0-1.31-3.7,5.43,5.43,0,0,0-3.6-1.09h-3.89v-6Z"/><path class="cls-1" d="M355.22,218.89q-5.76,0-8.92-3.82t-3.15-10.77V198q0-7,3.14-10.79t8.88-3.79a11.16,11.16,0,0,1,8.07,2.93,39.72,39.72,0,0,0-73.45-.27,11,11,0,0,1,2.47-1.49,14.4,14.4,0,0,1,5.92-1.2q5.76,0,9.06,2.64a8.73,8.73,0,0,1,3.3,7.23,7.29,7.29,0,0,1-1.37,4.21,9.69,9.69,0,0,1-4,3.21,9.42,9.42,0,0,1,4.32,3,8,8,0,0,1,1.56,5,8.91,8.91,0,0,1-3.56,7.4,14.75,14.75,0,0,1-9.34,2.78,15.37,15.37,0,0,1-6.3-1.29,11.12,11.12,0,0,1-2.17-1.26,39.71,39.71,0,0,0,73.73-.55A11.05,11.05,0,0,1,355.22,218.89Zm-17-5.86a11,11,0,0,1-4.34,4.31,12.48,12.48,0,0,1-6.17,1.55,12.94,12.94,0,0,1-6.57-1.67,11.57,11.57,0,0,1-4.51-4.78,15.65,15.65,0,0,1-1.66-7.16v-3.21a19.9,19.9,0,0,1,2.29-9.59,16.59,16.59,0,0,1,6.53-6.68,18.72,18.72,0,0,1,9.42-2.42h1.21v6.29h-.36a12,12,0,0,0-7.36,2.15,9.06,9.06,0,0,0-3.55,6,9.37,9.37,0,0,1,6.83-2.66,8.73,8.73,0,0,1,7.14,3.28,13.19,13.19,0,0,1,2.66,8.58A12,12,0,0,1,338.22,213Z"/></svg>