<?xml version="1.0" encoding="utf-8"?>
<!-- Generator: Adobe Illustrator 25.3.0, SVG Export Plug-In . SVG Version: 6.00 Build 0)  -->
<svg version="1.1" id="Layer_1" xmlns="http://www.w3.org/2000/svg" xmlns:xlink="http://www.w3.org/1999/xlink" x="0px" y="0px"
	 viewBox="0 0 1200 788" style="enable-background:new 0 0 1200 788;" xml:space="preserve">
<style type="text/css">
	.st0{fill:#EFC329;}
	.st1{fill:#DE6E26;}
	.st2{fill:#4DACB6;}
	.st3{fill:#BC2C26;}
	.st4{fill:#153634;}
</style>
<circle class="st0" cx="341.3" cy="496.8" r="37.4"/>
<circle class="st1" cx="342.8" cy="272.6" r="37.4"/>
<circle class="st0" cx="453.6" cy="245.4" r="27"/>
<circle class="st1" cx="453.6" cy="524.3" r="27"/>
<circle class="st2" cx="306.5" cy="384.9" r="27"/>
<circle class="st3" cx="548.4" cy="479.9" r="16.7"/>
<path class="st4" d="M455.4,384.7c-2.2-0.1-4.5,0.5-6.3,1.8c-1.6,1.1-2.9,2.6-3.8,4.3v5.7c0,10.4,3.6,15.6,10.8,15.6
	c2.9,0,5.7-1.5,7.3-3.9c2-2.9,3.1-6.3,2.9-9.8c0.1-3.5-0.9-7-3-9.9C461.5,386,458.5,384.6,455.4,384.7z"/>
<path class="st4" d="M385.9,376.5c7.1,0,10.7-3.5,10.7-10.5c0.1-2.5-0.8-4.9-2.5-6.6c-1.7-1.7-4.1-2.6-7.2-2.6
	c-2.4,0-4.7,0.7-6.6,2.2c-1.8,1.3-2.8,3.3-2.8,5.5h-16.3c-2.8,12.6-2.9,25.6-0.5,38.3h15.6c0,2.5,1.1,4.9,3.1,6.6
	c2.1,1.9,4.8,2.8,7.5,2.8c2.9,0.1,5.8-0.9,8-2.8c2-1.8,3.1-4.5,3-7.2c0-4.1-1-7.1-3.1-8.8c-2.1-1.7-4.9-2.6-8.6-2.6h-9.3v-14.2
	H385.9z"/>
<path class="st4" d="M522.2,356.8c-3-0.2-5.8,1.4-7.2,4.1c-1.5,2.7-2.3,6.8-2.4,12.3v21c0,6.1,0.8,10.6,2.3,13.5
	c1.4,2.8,4.3,4.4,7.4,4.3c3,0.1,5.8-1.5,7.2-4.2c1.5-2.8,2.3-7.1,2.4-13v-20.4c0-5.9-0.8-10.3-2.3-13.3
	C528.2,358.4,525.3,356.7,522.2,356.8z"/>
<path class="st4" d="M522.3,426.8c-9.2,0-16.3-3-21.3-9.1c-5-6.1-7.5-14.6-7.5-25.7v-15.1c0-11.1,2.5-19.7,7.5-25.8
	c5-6,12.1-9.1,21.2-9c8,0,14.4,2.3,19.3,7c-19.7-48.5-75-71.8-123.5-52c-23.4,9.5-42,28-51.7,51.4c1.8-1.4,3.8-2.6,5.9-3.5
	c4.5-1.9,9.3-2.9,14.1-2.9c9.2,0,16.4,2.1,21.6,6.3c5.2,4.2,7.9,9.9,7.9,17.3c0,3.6-1.2,7.1-3.2,10c-2.4,3.4-5.7,6-9.5,7.7
	c4.1,1.4,7.6,3.9,10.3,7.2c2.6,3.5,3.9,7.7,3.7,12c0.2,6.9-3,13.5-8.5,17.6c-5.7,4.4-13.1,6.6-22.3,6.6c-5.2,0-10.3-1-15-3.1
	c-1.8-0.8-3.6-1.8-5.2-3c19.9,48.4,75.2,71.6,123.6,51.7c23.9-9.8,42.8-29,52.3-53.1C537,424.3,530.5,426.8,522.3,426.8z
	 M481.7,412.8c-2.4,4.3-6,7.9-10.4,10.3c-4.5,2.5-9.6,3.8-14.7,3.7c-5.5,0.1-10.9-1.3-15.7-4c-4.6-2.7-8.3-6.6-10.8-11.4
	c-2.7-5.3-4-11.2-4-17.1v-7.6c-0.1-8,1.8-15.8,5.5-22.9c3.6-6.7,9-12.2,15.6-15.9c6.9-3.9,14.6-5.9,22.5-5.8h2.9v15h-0.9
	c-7.1,0-13,1.7-17.6,5.1c-4.6,3.4-7.6,8.6-8.5,14.2c4.3-4.2,10.2-6.5,16.3-6.3c7.1,0,12.8,2.6,17,7.8s6.3,12,6.3,20.5
	C485.4,403.4,484.2,408.4,481.7,412.8L481.7,412.8z"/>
<path class="st4" d="M641.6,414.7c-2,3-5.4,5.8-10.2,8.3s-11.1,3.8-18.8,3.8c-9.8,0-18-3.2-24.4-9.5s-9.6-14.5-9.7-24.4V376
	c0-10,3-18.1,9-24.5c6-6.3,13.7-9.5,23.2-9.5c9.4,0,16.9,2.3,22.2,7c5.3,4.4,8.3,11,8.3,17.9l-0.1,0.3h-10.6
	c-0.2-4.5-2.1-8.8-5.5-11.9c-3.3-3.1-8.1-4.6-14.3-4.6c-5.9-0.2-11.6,2.4-15.2,7.1c-3.9,4.7-5.8,10.7-5.8,17.9v17.1
	c0,7.3,2.2,13.4,6.5,18.1c4.2,4.7,10.2,7.3,16.4,7.1c3.9,0.1,7.8-0.5,11.5-1.9c2.4-0.9,4.6-2.3,6.4-4.2v-18.7h-18.1v-8.8h29.2V414.7
	z"/>
<path class="st4" d="M668,348.7h-11.2v-11.4H668V348.7z M668,425.7h-11.2v-61.2H668V425.7z"/>
<path class="st4" d="M702.6,407.6l1,4.3h0.3l1.1-4.3l14.1-43.2h11.4L708,425.6h-8.4l-22.8-61.2h11.4L702.6,407.6z"/>
<path class="st4" d="M749.7,348.7h-11.1v-11.4h11.2L749.7,348.7z M749.7,425.7h-11.1v-61.2h11.2L749.7,425.7z"/>
<path class="st4" d="M773.9,364.4l0.8,9.1c1.9-3.1,4.5-5.7,7.7-7.5c3.2-1.8,6.8-2.8,10.5-2.7c6.6,0,11.7,1.9,15.3,5.8
	c3.6,3.9,5.4,9.8,5.4,17.9v38.7h-11.1v-38.4c0-5.4-1.1-9.2-3.2-11.5c-2.1-2.3-5.4-3.4-9.8-3.4c-3-0.1-6,0.8-8.5,2.3
	c-2.5,1.6-4.5,3.8-5.9,6.3v44.7h-11.2v-61.2H773.9z"/>
<path class="st4" d="M824.5,396.2c0-9.9,2.2-17.8,6.5-23.8c4.3-6,10.2-9,17.8-9c3.6-0.1,7.1,0.7,10.3,2.3c3,1.6,5.5,3.9,7.4,6.8
	l1.4-8h8.9V426c0,7.8-2.3,13.9-6.8,18.1s-11.1,6.3-19.8,6.3c-3.2,0-6.4-0.4-9.5-1.2c-3.1-0.7-6.2-1.8-9-3.3l2.8-8.7
	c2.3,1.2,4.7,2.2,7.2,2.8c2.7,0.7,5.6,1,8.4,1c5.4,0,9.4-1.2,11.8-3.7c2.5-2.5,3.7-6.2,3.7-11.2v-6.9c-1.9,2.5-4.4,4.5-7.2,5.8
	c-3,1.4-6.3,2.1-9.6,2c-7.5,0-13.4-2.7-17.7-8.1c-4.3-5.4-6.5-12.5-6.5-21.3L824.5,396.2z M835.6,397.4c0,6.1,1.3,11.1,3.9,14.8
	c2.6,3.7,6.6,5.6,11.9,5.6c3,0.1,5.9-0.7,8.4-2.3c2.4-1.7,4.3-3.9,5.6-6.5v-28.2c-1.3-2.5-3.3-4.6-5.6-6.2c-2.5-1.6-5.4-2.4-8.3-2.3
	c-4.9-0.2-9.5,2.4-11.9,6.7c-2.7,4.4-4,10.2-4,17.1L835.6,397.4z"/>
</svg>
