<svg id="Layer_1" data-name="Layer 1" xmlns="http://www.w3.org/2000/svg" viewBox="0 0 1280 800"><defs><style>.cls-1{fill:#153634;}.cls-2{fill:#efc329;}.cls-3{fill:#de6e26;}.cls-4{fill:#4dacb6;}.cls-5{fill:#bc2c26;}</style></defs><path class="cls-1" d="M251.59,193a9.92,9.92,0,0,1-3.15,6.58,10.32,10.32,0,0,1-7,2.31,9.5,9.5,0,0,1-7.63-3.41q-2.86-3.42-2.86-9.13v-2.59a15.31,15.31,0,0,1,1.33-6.58,10,10,0,0,1,3.79-4.37,10.62,10.62,0,0,1,5.69-1.52,9.71,9.71,0,0,1,6.86,2.39,10,10,0,0,1,3,6.62H248a7.72,7.72,0,0,0-2-4.67,6,6,0,0,0-4.3-1.44,6.36,6.36,0,0,0-5.33,2.51c-1.28,1.67-1.92,4.06-1.92,7.15v2.6a11.82,11.82,0,0,0,1.82,7A5.91,5.91,0,0,0,241.4,199a6.82,6.82,0,0,0,4.53-1.34c1-.89,1.75-2.45,2.1-4.66Z"/><path class="cls-1" d="M258.35,183.94a7.26,7.26,0,0,1,5.91-2.79q6.33,0,6.38,7.14v13.19h-3.41V188.27a4.56,4.56,0,0,0-1-3.19,4,4,0,0,0-3-1,4.93,4.93,0,0,0-2.91.88,6,6,0,0,0-2,2.33v14.22h-3.41V173.15h3.41Z"/><path class="cls-1" d="M287.13,201.48a6.9,6.9,0,0,1-.48-2.1,7.61,7.61,0,0,1-5.68,2.47,7,7,0,0,1-4.84-1.67,5.37,5.37,0,0,1-1.9-4.23,5.64,5.64,0,0,1,2.37-4.84,11.21,11.21,0,0,1,6.67-1.73h3.33v-1.57a3.85,3.85,0,0,0-1.07-2.85,4.35,4.35,0,0,0-3.16-1.06,5,5,0,0,0-3.06.92,2.72,2.72,0,0,0-1.24,2.24h-3.43a4.69,4.69,0,0,1,1.06-2.89,7.36,7.36,0,0,1,2.88-2.21,9.68,9.68,0,0,1,4-.81,7.92,7.92,0,0,1,5.41,1.73,6.23,6.23,0,0,1,2,4.75v9.19a11.17,11.17,0,0,0,.7,4.37v.29Zm-5.66-2.6a5.92,5.92,0,0,0,3-.83,5,5,0,0,0,2.09-2.16V191.8h-2.68q-6.27,0-6.27,3.67a3.09,3.09,0,0,0,1.07,2.51A4.12,4.12,0,0,0,281.47,198.88Z"/><path class="cls-1" d="M298.12,201.48h-3.41V173.15h3.41Z"/><path class="cls-1" d="M306.35,201.48h-3.42V173.15h3.42Z"/><path class="cls-1" d="M319.15,201.85a8.75,8.75,0,0,1-6.61-2.66,9.89,9.89,0,0,1-2.54-7.13v-.63a12,12,0,0,1,1.13-5.31,8.9,8.9,0,0,1,3.17-3.65,8,8,0,0,1,4.42-1.32,7.47,7.47,0,0,1,6,2.57c1.44,1.71,2.16,4.15,2.16,7.34v1.42H313.41a7.1,7.1,0,0,0,1.72,4.77,5.43,5.43,0,0,0,4.2,1.82,5.93,5.93,0,0,0,3.06-.74,7.71,7.71,0,0,0,2.2-2l2.08,1.63A8.37,8.37,0,0,1,319.15,201.85ZM318.72,184a4.57,4.57,0,0,0-3.47,1.5,7.33,7.33,0,0,0-1.73,4.22h10v-.26a6.52,6.52,0,0,0-1.4-4A4.28,4.28,0,0,0,318.72,184Z"/><path class="cls-1" d="M333.16,181.52l.11,2.51a7.28,7.28,0,0,1,6-2.88q6.33,0,6.38,7.14v13.19h-3.41V188.27a4.56,4.56,0,0,0-1-3.19,3.93,3.93,0,0,0-3-1,4.94,4.94,0,0,0-2.92.88,6.09,6.09,0,0,0-1.95,2.33v14.22h-3.42v-20Z"/><path class="cls-1" d="M349,191.34a11.78,11.78,0,0,1,2.15-7.43,6.91,6.91,0,0,1,5.72-2.76,6.84,6.84,0,0,1,5.7,2.59l.17-2.22h3.12V201a8.13,8.13,0,0,1-2.3,6.11,8.47,8.47,0,0,1-6.17,2.23,10.29,10.29,0,0,1-4.22-.92,7.34,7.34,0,0,1-3.16-2.53l1.77-2a6.67,6.67,0,0,0,5.37,2.72,5.19,5.19,0,0,0,3.88-1.41,5.34,5.34,0,0,0,1.4-3.94v-1.72a7,7,0,0,1-5.59,2.36,6.84,6.84,0,0,1-5.68-2.82A12.37,12.37,0,0,1,349,191.34Zm3.43.38a9,9,0,0,0,1.38,5.31,4.51,4.51,0,0,0,3.88,1.93,5,5,0,0,0,4.74-2.94v-9.11a5.07,5.07,0,0,0-4.71-2.86,4.51,4.51,0,0,0-3.89,1.94A9.69,9.69,0,0,0,352.46,191.72Z"/><path class="cls-1" d="M378.37,201.85a8.75,8.75,0,0,1-6.6-2.66,9.9,9.9,0,0,1-2.55-7.13v-.63a12,12,0,0,1,1.14-5.31,8.82,8.82,0,0,1,3.17-3.65,8,8,0,0,1,4.42-1.32,7.48,7.48,0,0,1,6.05,2.57c1.44,1.71,2.16,4.15,2.16,7.34v1.42H372.64a7.1,7.1,0,0,0,1.72,4.77,5.43,5.43,0,0,0,4.2,1.82,6,6,0,0,0,3.06-.74,7.71,7.71,0,0,0,2.2-2L385.9,198A8.38,8.38,0,0,1,378.37,201.85ZM378,184a4.57,4.57,0,0,0-3.47,1.5,7.33,7.33,0,0,0-1.73,4.22h10v-.26a6.47,6.47,0,0,0-1.41-4A4.24,4.24,0,0,0,378,184Z"/><circle class="cls-2" cx="153.93" cy="224.66" r="12.19"/><circle class="cls-3" cx="154.43" cy="151.6" r="12.19"/><circle class="cls-2" cx="190.53" cy="142.73" r="8.78"/><circle class="cls-3" cx="190.53" cy="233.64" r="8.78"/><circle class="cls-4" cx="142.6" cy="188.19" r="8.78"/><circle class="cls-5" cx="221.44" cy="219.18" r="5.43"/><path class="cls-1" d="M191.14,188.13a3.49,3.49,0,0,0-3.3,2V192q0,5.09,3.52,5.09a2.84,2.84,0,0,0,2.37-1.27,5.21,5.21,0,0,0,1-3.19,5.06,5.06,0,0,0-1-3.22A3.09,3.09,0,0,0,191.14,188.13Z"/><path class="cls-1" d="M212.89,179.05a2.47,2.47,0,0,0-2.33,1.33,9,9,0,0,0-.79,4v6.87a9.59,9.59,0,0,0,.76,4.4,2.53,2.53,0,0,0,2.4,1.39,2.5,2.5,0,0,0,2.34-1.36,9.23,9.23,0,0,0,.77-4.25v-6.64a9.69,9.69,0,0,0-.75-4.33A2.55,2.55,0,0,0,212.89,179.05Z"/><path class="cls-1" d="M168.47,185.46q3.48,0,3.48-3.42a2.92,2.92,0,0,0-.83-2.16,3.13,3.13,0,0,0-2.34-.84,3.36,3.36,0,0,0-2.15.72,2.18,2.18,0,0,0-.91,1.79h-5.33a31.3,31.3,0,0,0-.16,12.47h5.1a2.82,2.82,0,0,0,1,2.14,3.55,3.55,0,0,0,2.46.9,3.68,3.68,0,0,0,2.62-.91,3.07,3.07,0,0,0,1-2.34,3.54,3.54,0,0,0-1-2.87,4.22,4.22,0,0,0-2.8-.85h-3v-4.63Z"/><path class="cls-1" d="M212.93,201.86a8.5,8.5,0,0,1-6.94-3c-1.64-2-2.45-4.77-2.45-8.38V185.6q0-5.43,2.44-8.39a8.46,8.46,0,0,1,6.91-3,8.67,8.67,0,0,1,6.28,2.28,30.89,30.89,0,0,0-57.13-.21,8.38,8.38,0,0,1,1.91-1.16,11.24,11.24,0,0,1,4.61-.93,11,11,0,0,1,7,2,6.8,6.8,0,0,1,2.57,5.62,5.67,5.67,0,0,1-1.06,3.28,7.58,7.58,0,0,1-3.09,2.5,7.34,7.34,0,0,1,3.36,2.35,6.19,6.19,0,0,1,1.21,3.9,6.94,6.94,0,0,1-2.76,5.76,11.5,11.5,0,0,1-7.27,2.16,11.94,11.94,0,0,1-4.9-1,8.89,8.89,0,0,1-1.69-1,30.89,30.89,0,0,0,57.35-.43A8.61,8.61,0,0,1,212.93,201.86Zm-13.22-4.56a8.64,8.64,0,0,1-3.38,3.35,9.75,9.75,0,0,1-4.8,1.21,10.09,10.09,0,0,1-5.11-1.3,9,9,0,0,1-3.51-3.72,12.14,12.14,0,0,1-1.29-5.57v-2.49a15.5,15.5,0,0,1,1.78-7.47,13,13,0,0,1,5.08-5.19,14.57,14.57,0,0,1,7.33-1.88h.94v4.89h-.28a9.31,9.31,0,0,0-5.73,1.67,7.08,7.08,0,0,0-2.76,4.64,7.29,7.29,0,0,1,5.32-2.07,6.78,6.78,0,0,1,5.55,2.55,10.24,10.24,0,0,1,2.07,6.68A9.45,9.45,0,0,1,199.71,197.3Z"/><path class="cls-1" d="M251.66,401.87a8.18,8.18,0,0,1-3.81,2.93,15.52,15.52,0,0,1-5.69,1,11.11,11.11,0,0,1-5.83-1.54,10.26,10.26,0,0,1-3.94-4.39,15.14,15.14,0,0,1-1.43-6.58v-2.34q0-6.07,2.83-9.41a9.86,9.86,0,0,1,8-3.34,10.14,10.14,0,0,1,6.77,2.15,9.34,9.34,0,0,1,3.14,6.09h-3.54c-.67-3.56-2.78-5.35-6.35-5.35a6.26,6.26,0,0,0-5.39,2.51c-1.23,1.66-1.85,4.08-1.86,7.24V393a11.42,11.42,0,0,0,2.07,7.19,6.69,6.69,0,0,0,5.59,2.67,12.43,12.43,0,0,0,3.48-.44,5.48,5.48,0,0,0,2.48-1.49v-6h-6.22V392h9.74Z"/><path class="cls-1" d="M265.73,388.5a9.71,9.71,0,0,0-1.68-.13,4.49,4.49,0,0,0-4.55,2.86V405.4h-3.42v-20h3.33l0,2.3a5.32,5.32,0,0,1,4.76-2.67,3.36,3.36,0,0,1,1.51.26Z"/><path class="cls-1" d="M279.51,405.4a7.07,7.07,0,0,1-.48-2.11,7.62,7.62,0,0,1-5.68,2.48,7,7,0,0,1-4.84-1.67,5.4,5.4,0,0,1-1.9-4.24A5.62,5.62,0,0,1,269,395a11.16,11.16,0,0,1,6.66-1.73H279v-1.56a3.82,3.82,0,0,0-1.07-2.85,4.31,4.31,0,0,0-3.16-1.06,4.92,4.92,0,0,0-3.06.92,2.7,2.7,0,0,0-1.24,2.23H267a4.69,4.69,0,0,1,1.06-2.89,7.24,7.24,0,0,1,2.88-2.2,9.68,9.68,0,0,1,4-.81,7.9,7.9,0,0,1,5.41,1.72,6.25,6.25,0,0,1,2,4.75v9.19a11.17,11.17,0,0,0,.7,4.37v.3Zm-5.66-2.6a6,6,0,0,0,3-.83,5.16,5.16,0,0,0,2.09-2.16v-4.1H276.3c-4.18,0-6.27,1.23-6.27,3.67a3.09,3.09,0,0,0,1.07,2.51A4.13,4.13,0,0,0,273.85,402.8Z"/><path class="cls-1" d="M290,385.44l.11,2.5a7.3,7.3,0,0,1,6-2.87q6.33,0,6.38,7.14V405.4h-3.41V392.19a4.56,4.56,0,0,0-1-3.19,3.94,3.94,0,0,0-3-1,5,5,0,0,0-2.92.89,6,6,0,0,0-2,2.32V405.4h-3.42v-20Z"/><path class="cls-1" d="M311.33,380.6v4.84h3.72v2.63h-3.72v12.4a2.72,2.72,0,0,0,.5,1.8,2.08,2.08,0,0,0,1.69.6,8.07,8.07,0,0,0,1.63-.22v2.75a10.16,10.16,0,0,1-2.62.37,4.22,4.22,0,0,1-3.45-1.39,5.91,5.91,0,0,1-1.17-3.93V388.07h-3.63v-2.63h3.63V380.6Z"/><path class="cls-1" d="M339.27,405.4h-3.56l-13.52-20.7v20.7h-3.56V378.54h3.56l13.56,20.79V378.54h3.52Z"/><path class="cls-1" d="M356.41,405.4a7.07,7.07,0,0,1-.48-2.11,7.62,7.62,0,0,1-5.68,2.48,7.09,7.09,0,0,1-4.85-1.67,5.42,5.42,0,0,1-1.89-4.24,5.64,5.64,0,0,1,2.37-4.84,11.19,11.19,0,0,1,6.67-1.73h3.32v-1.56a3.79,3.79,0,0,0-1.07-2.85,4.27,4.27,0,0,0-3.15-1.06,4.92,4.92,0,0,0-3.06.92,2.7,2.7,0,0,0-1.24,2.23h-3.43a4.69,4.69,0,0,1,1.06-2.89,7.24,7.24,0,0,1,2.88-2.2,9.68,9.68,0,0,1,4-.81,7.91,7.91,0,0,1,5.41,1.72,6.25,6.25,0,0,1,2,4.75v9.19a11.17,11.17,0,0,0,.7,4.37v.3Zm-5.66-2.6a6,6,0,0,0,3-.83,5.07,5.07,0,0,0,2.08-2.16v-4.1H353.2c-4.18,0-6.27,1.23-6.27,3.67a3.09,3.09,0,0,0,1.07,2.51A4.13,4.13,0,0,0,350.75,402.8Z"/><path class="cls-1" d="M370,400.77,375,385.44h3.48l-7.15,20h-2.61l-7.23-20h3.49Z"/><circle class="cls-2" cx="153.93" cy="428.57" r="12.19"/><circle class="cls-3" cx="154.43" cy="355.51" r="12.19"/><circle class="cls-2" cx="190.53" cy="346.65" r="8.78"/><circle class="cls-3" cx="190.53" cy="437.56" r="8.78"/><circle class="cls-4" cx="142.6" cy="392.1" r="8.78"/><circle class="cls-5" cx="221.44" cy="423.1" r="5.43"/><path class="cls-1" d="M191.14,392.05a3.58,3.58,0,0,0-2.07.57,3.65,3.65,0,0,0-1.23,1.4v1.86c0,3.4,1.17,5.09,3.52,5.09a2.84,2.84,0,0,0,2.37-1.27,5.21,5.21,0,0,0,1-3.19,5.06,5.06,0,0,0-1-3.22A3.08,3.08,0,0,0,191.14,392.05Z"/><path class="cls-1" d="M212.89,383a2.45,2.45,0,0,0-2.33,1.33,9,9,0,0,0-.79,4v6.86a9.56,9.56,0,0,0,.76,4.4,2.74,2.74,0,0,0,4.74,0,9.26,9.26,0,0,0,.77-4.25v-6.65a9.62,9.62,0,0,0-.75-4.32A2.55,2.55,0,0,0,212.89,383Z"/><path class="cls-1" d="M168.47,389.37q3.48,0,3.48-3.41a2.92,2.92,0,0,0-.83-2.17,3.13,3.13,0,0,0-2.34-.84,3.36,3.36,0,0,0-2.15.72,2.19,2.19,0,0,0-.91,1.79h-5.33a31.56,31.56,0,0,0-.71,6.64,31.14,31.14,0,0,0,.55,5.83h5.1a2.81,2.81,0,0,0,1,2.14,3.55,3.55,0,0,0,2.46.9,3.68,3.68,0,0,0,2.62-.91,3,3,0,0,0,1-2.33,3.57,3.57,0,0,0-1-2.88,4.22,4.22,0,0,0-2.8-.85h-3v-4.63Z"/><path class="cls-1" d="M212.93,405.77a8.5,8.5,0,0,1-6.94-3c-1.64-2-2.45-4.77-2.45-8.37v-4.91q0-5.44,2.44-8.4a8.49,8.49,0,0,1,6.91-2.95,8.67,8.67,0,0,1,6.28,2.28,30.89,30.89,0,0,0-57.13-.21,8.36,8.36,0,0,1,1.91-1.15,12.56,12.56,0,0,1,11.65,1.11,6.82,6.82,0,0,1,2.57,5.63,5.64,5.64,0,0,1-1.06,3.27,7.58,7.58,0,0,1-3.09,2.5,7.28,7.28,0,0,1,3.36,2.36,6.19,6.19,0,0,1,1.21,3.9,6.93,6.93,0,0,1-2.76,5.75,11.5,11.5,0,0,1-7.27,2.16,11.93,11.93,0,0,1-4.9-1,8.91,8.91,0,0,1-1.69-1,30.89,30.89,0,0,0,57.35-.43A8.57,8.57,0,0,1,212.93,405.77Zm-13.22-4.56a8.57,8.57,0,0,1-3.38,3.35,9.64,9.64,0,0,1-4.8,1.21,10,10,0,0,1-5.11-1.3,9,9,0,0,1-3.51-3.72,12.1,12.1,0,0,1-1.29-5.57v-2.49a15.46,15.46,0,0,1,1.78-7.46,12.88,12.88,0,0,1,5.08-5.19,14.48,14.48,0,0,1,7.33-1.89h.94V383h-.28a9.38,9.38,0,0,0-5.73,1.67,7.11,7.11,0,0,0-2.76,4.64,7.28,7.28,0,0,1,5.32-2.06,6.77,6.77,0,0,1,5.55,2.54,10.28,10.28,0,0,1,2.07,6.68A9.43,9.43,0,0,1,199.71,401.21Z"/><path class="cls-1" d="M235.63,610.59h-3.54V583.73h3.54Z"/><path class="cls-1" d="M243.85,590.63l.11,2.51a7.28,7.28,0,0,1,6-2.88q6.33,0,6.38,7.14v13.19h-3.41v-13.2a4.59,4.59,0,0,0-1-3.2,4,4,0,0,0-3-1,5,5,0,0,0-2.92.89,6,6,0,0,0-2,2.32v14.22h-3.42v-20Z"/><path class="cls-1" d="M272.15,605.3a2.53,2.53,0,0,0-1-2.15,10.12,10.12,0,0,0-3.64-1.32,16.93,16.93,0,0,1-4.11-1.33,5.73,5.73,0,0,1-2.25-1.84,4.38,4.38,0,0,1-.73-2.55,5.19,5.19,0,0,1,2.07-4.15,8.15,8.15,0,0,1,5.31-1.7,8.35,8.35,0,0,1,5.51,1.76,5.59,5.59,0,0,1,2.11,4.48H272a3.11,3.11,0,0,0-1.19-2.42,4.52,4.52,0,0,0-3-1,4.69,4.69,0,0,0-2.92.81,2.56,2.56,0,0,0-1,2.12,2.08,2.08,0,0,0,1,1.87,12.29,12.29,0,0,0,3.53,1.19,18.51,18.51,0,0,1,4.14,1.37,6,6,0,0,1,2.36,1.91,4.68,4.68,0,0,1,.76,2.72,5.11,5.11,0,0,1-2.14,4.29,8.94,8.94,0,0,1-5.55,1.61,10.12,10.12,0,0,1-4.24-.84,6.89,6.89,0,0,1-2.89-2.38,5.66,5.66,0,0,1-1-3.29h3.41a3.53,3.53,0,0,0,1.37,2.72,5.36,5.36,0,0,0,3.39,1,5.45,5.45,0,0,0,3.11-.79A2.4,2.4,0,0,0,272.15,605.3Z"/><path class="cls-1" d="M279.08,585.34a2,2,0,0,1,.51-1.4,1.91,1.91,0,0,1,1.5-.58,2,2,0,0,1,1.52.58,2,2,0,0,1,.51,1.4,2,2,0,0,1-.51,1.38,2,2,0,0,1-1.52.56,1.94,1.94,0,0,1-1.5-.56A2,2,0,0,1,279.08,585.34Zm3.69,25.25h-3.41v-20h3.41Z"/><path class="cls-1" d="M286.48,600.45a11.74,11.74,0,0,1,2.16-7.43,7.43,7.43,0,0,1,11.42-.17l.16-2.22h3.12v19.49a8.12,8.12,0,0,1-2.3,6.1,8.47,8.47,0,0,1-6.17,2.23,10.13,10.13,0,0,1-4.22-.92,7.27,7.27,0,0,1-3.16-2.53l1.77-2a6.71,6.71,0,0,0,5.37,2.71,5.23,5.23,0,0,0,3.88-1.4,5.37,5.37,0,0,0,1.4-3.95V608.6a7,7,0,0,1-5.59,2.36,6.84,6.84,0,0,1-5.68-2.82A12.37,12.37,0,0,1,286.48,600.45Zm3.43.39a9,9,0,0,0,1.38,5.3,4.52,4.52,0,0,0,3.88,1.93,5,5,0,0,0,4.74-2.94V596a5.07,5.07,0,0,0-4.71-2.86,4.54,4.54,0,0,0-3.89,1.94A9.78,9.78,0,0,0,289.91,600.84Z"/><path class="cls-1" d="M311,593.05a7.28,7.28,0,0,1,5.91-2.79q6.33,0,6.38,7.14v13.19h-3.41v-13.2a4.59,4.59,0,0,0-1-3.2,4,4,0,0,0-3-1,5,5,0,0,0-2.92.89,6,6,0,0,0-2,2.32v14.22h-3.41V582.26H311Z"/><path class="cls-1" d="M332,585.8v4.83h3.72v2.64H332v12.4a2.72,2.72,0,0,0,.5,1.8,2.08,2.08,0,0,0,1.69.6,8.87,8.87,0,0,0,1.63-.22v2.75a10.13,10.13,0,0,1-2.62.36,4.24,4.24,0,0,1-3.45-1.38,5.91,5.91,0,0,1-1.16-3.93V593.27H325v-2.64h3.64V585.8Z"/><path class="cls-1" d="M350.43,605.3a2.53,2.53,0,0,0-1-2.15,10.12,10.12,0,0,0-3.64-1.32,16.93,16.93,0,0,1-4.11-1.33,5.73,5.73,0,0,1-2.25-1.84,4.38,4.38,0,0,1-.73-2.55,5.19,5.19,0,0,1,2.07-4.15,8.13,8.13,0,0,1,5.31-1.7,8.31,8.31,0,0,1,5.5,1.76,5.57,5.57,0,0,1,2.12,4.48h-3.43a3.11,3.11,0,0,0-1.19-2.42,4.52,4.52,0,0,0-3-1,4.67,4.67,0,0,0-2.92.81,2.56,2.56,0,0,0-1.05,2.12,2.08,2.08,0,0,0,1,1.87,12.29,12.29,0,0,0,3.53,1.19,18.68,18.68,0,0,1,4.14,1.37,6,6,0,0,1,2.36,1.91,4.68,4.68,0,0,1,.76,2.72,5.11,5.11,0,0,1-2.14,4.29,9,9,0,0,1-5.55,1.61,10.17,10.17,0,0,1-4.25-.84,6.86,6.86,0,0,1-2.88-2.38,5.66,5.66,0,0,1-1-3.29h3.41a3.53,3.53,0,0,0,1.37,2.72,5.36,5.36,0,0,0,3.39,1,5.45,5.45,0,0,0,3.11-.79A2.4,2.4,0,0,0,350.43,605.3Z"/><circle class="cls-2" cx="153.93" cy="633.77" r="12.19"/><circle class="cls-3" cx="154.43" cy="560.71" r="12.19"/><circle class="cls-2" cx="190.53" cy="551.84" r="8.78"/><circle class="cls-3" cx="190.53" cy="642.76" r="8.78"/><circle class="cls-4" cx="142.6" cy="597.3" r="8.78"/><circle class="cls-5" cx="221.44" cy="628.29" r="5.43"/><path class="cls-1" d="M191.14,597.24a3.58,3.58,0,0,0-2.07.57,3.67,3.67,0,0,0-1.23,1.41v1.86q0,5.08,3.52,5.09a2.84,2.84,0,0,0,2.37-1.27,5.21,5.21,0,0,0,1-3.19,5.06,5.06,0,0,0-1-3.22A3.09,3.09,0,0,0,191.14,597.24Z"/><path class="cls-1" d="M212.89,588.17a2.46,2.46,0,0,0-2.33,1.32,9,9,0,0,0-.79,4v6.86a9.59,9.59,0,0,0,.76,4.4,2.74,2.74,0,0,0,4.74,0,9.31,9.31,0,0,0,.77-4.26v-6.64a9.62,9.62,0,0,0-.75-4.32A2.53,2.53,0,0,0,212.89,588.17Z"/><path class="cls-1" d="M168.47,594.57q3.48,0,3.48-3.42a2.92,2.92,0,0,0-.83-2.16,3.13,3.13,0,0,0-2.34-.84,3.36,3.36,0,0,0-2.15.72,2.18,2.18,0,0,0-.91,1.79h-5.33a31.3,31.3,0,0,0-.16,12.47h5.1a2.81,2.81,0,0,0,1,2.14,3.55,3.55,0,0,0,2.46.9,3.68,3.68,0,0,0,2.62-.91,3.06,3.06,0,0,0,1-2.33,3.55,3.55,0,0,0-1-2.88,4.22,4.22,0,0,0-2.8-.85h-3v-4.63Z"/><path class="cls-1" d="M212.93,611a8.5,8.5,0,0,1-6.94-3c-1.64-2-2.45-4.77-2.45-8.38v-4.9q0-5.44,2.44-8.4a8.46,8.46,0,0,1,6.91-3,8.67,8.67,0,0,1,6.28,2.28,30.89,30.89,0,0,0-57.13-.21,8.38,8.38,0,0,1,1.91-1.16,11.24,11.24,0,0,1,4.61-.93,11,11,0,0,1,7,2,6.8,6.8,0,0,1,2.57,5.63,5.66,5.66,0,0,1-1.06,3.27,7.58,7.58,0,0,1-3.09,2.5,7.34,7.34,0,0,1,3.36,2.35,6.19,6.19,0,0,1,1.21,3.9,6.94,6.94,0,0,1-2.76,5.76,11.5,11.5,0,0,1-7.27,2.16,11.94,11.94,0,0,1-4.9-1,8.89,8.89,0,0,1-1.69-1,30.89,30.89,0,0,0,57.35-.43A8.61,8.61,0,0,1,212.93,611Zm-13.22-4.56a8.57,8.57,0,0,1-3.38,3.35,9.64,9.64,0,0,1-4.8,1.21,10,10,0,0,1-5.11-1.3,9,9,0,0,1-3.51-3.72,12.14,12.14,0,0,1-1.29-5.57v-2.49a15.43,15.43,0,0,1,1.78-7.46,13,13,0,0,1,5.08-5.2,14.57,14.57,0,0,1,7.33-1.88h.94v4.89h-.28a9.38,9.38,0,0,0-5.73,1.67,7.08,7.08,0,0,0-2.76,4.64,7.29,7.29,0,0,1,5.32-2.07,6.78,6.78,0,0,1,5.55,2.55,10.26,10.26,0,0,1,2.07,6.68A9.43,9.43,0,0,1,199.71,606.41Z"/><path class="cls-1" d="M666.6,170.53l8.78,21.92,8.78-21.92h4.6v26.86h-3.54V186.93l.33-11.29-8.82,21.75H674l-8.8-21.69.35,11.23v10.46H662V170.53Z"/><path class="cls-1" d="M705.86,197.39a6.9,6.9,0,0,1-.48-2.1,7.61,7.61,0,0,1-5.68,2.47,7.08,7.08,0,0,1-4.85-1.67,5.39,5.39,0,0,1-1.89-4.23,5.67,5.67,0,0,1,2.37-4.85,11.19,11.19,0,0,1,6.67-1.72h3.32v-1.57a3.85,3.85,0,0,0-1.07-2.85,4.27,4.27,0,0,0-3.15-1.06,5,5,0,0,0-3.07.92A2.73,2.73,0,0,0,696.8,183h-3.43a4.69,4.69,0,0,1,1.06-2.89,7.13,7.13,0,0,1,2.88-2.21,9.68,9.68,0,0,1,4-.81,7.92,7.92,0,0,1,5.41,1.73,6.19,6.19,0,0,1,2,4.75v9.18a11.17,11.17,0,0,0,.71,4.38v.29Zm-5.67-2.6a6.06,6.06,0,0,0,3-.83,5,5,0,0,0,2.08-2.16v-4.09h-2.67q-6.28,0-6.28,3.67a3.13,3.13,0,0,0,1.07,2.51A4.14,4.14,0,0,0,700.19,194.79Z"/><path class="cls-1" d="M730,187.63a12,12,0,0,1-2.08,7.35,6.7,6.7,0,0,1-5.65,2.78,7.35,7.35,0,0,1-5.72-2.3v9.61h-3.41V177.43h3.12l.16,2.21a7.05,7.05,0,0,1,5.8-2.58,6.83,6.83,0,0,1,5.69,2.71q2.08,2.72,2.09,7.55Zm-3.41-.38a8.84,8.84,0,0,0-1.44-5.34A4.65,4.65,0,0,0,721.2,180a5,5,0,0,0-4.65,2.75v9.54a5,5,0,0,0,4.69,2.73,4.61,4.61,0,0,0,3.9-1.95A9.6,9.6,0,0,0,726.59,187.25Z"/><circle class="cls-2" cx="584.13" cy="220.57" r="12.19"/><circle class="cls-3" cx="584.63" cy="147.51" r="12.19"/><circle class="cls-2" cx="620.72" cy="138.64" r="8.78"/><circle class="cls-3" cx="620.72" cy="229.55" r="8.78"/><circle class="cls-4" cx="572.79" cy="184.1" r="8.78"/><circle class="cls-5" cx="651.63" cy="215.09" r="5.43"/><path class="cls-1" d="M621.34,184a3.56,3.56,0,0,0-2.07.57A3.68,3.68,0,0,0,618,186v1.87q0,5.09,3.53,5.09a2.86,2.86,0,0,0,2.37-1.27,5.23,5.23,0,0,0,1-3.19,5.06,5.06,0,0,0-1-3.22A3.1,3.1,0,0,0,621.34,184Z"/><path class="cls-1" d="M643.09,175a2.49,2.49,0,0,0-2.34,1.33,9.18,9.18,0,0,0-.78,4v6.87a9.59,9.59,0,0,0,.76,4.4,2.73,2.73,0,0,0,4.74,0,9.23,9.23,0,0,0,.77-4.25v-6.64a9.69,9.69,0,0,0-.75-4.33A2.55,2.55,0,0,0,643.09,175Z"/><path class="cls-1" d="M598.66,181.37q3.5,0,3.49-3.42a3,3,0,0,0-.83-2.17A3.18,3.18,0,0,0,599,175a3.35,3.35,0,0,0-2.15.71,2.2,2.2,0,0,0-.92,1.79h-5.32a31.35,31.35,0,0,0-.16,12.48h5.1a2.82,2.82,0,0,0,1,2.14,3.54,3.54,0,0,0,2.46.9,3.7,3.7,0,0,0,2.62-.91,3.06,3.06,0,0,0,1-2.34,3.57,3.57,0,0,0-1-2.88,4.27,4.27,0,0,0-2.8-.84h-3v-4.63Z"/><path class="cls-1" d="M643.13,197.77a8.49,8.49,0,0,1-6.94-3c-1.64-2-2.46-4.78-2.46-8.38v-4.91c0-3.63.82-6.42,2.45-8.39a8.46,8.46,0,0,1,6.91-3,8.67,8.67,0,0,1,6.28,2.28,30.9,30.9,0,0,0-57.14-.21,8.68,8.68,0,0,1,1.92-1.16,11.24,11.24,0,0,1,4.61-.93,11,11,0,0,1,7,2,6.8,6.8,0,0,1,2.57,5.62,5.74,5.74,0,0,1-1.06,3.28,7.66,7.66,0,0,1-3.09,2.5,7.18,7.18,0,0,1,3.35,2.35,6.14,6.14,0,0,1,1.22,3.9,6.93,6.93,0,0,1-2.77,5.76,11.45,11.45,0,0,1-7.26,2.16,11.9,11.9,0,0,1-4.9-1,8.89,8.89,0,0,1-1.69-1,30.9,30.9,0,0,0,57.35-.43A8.61,8.61,0,0,1,643.13,197.77Zm-13.22-4.56a8.71,8.71,0,0,1-3.38,3.35,9.79,9.79,0,0,1-4.81,1.21,10.11,10.11,0,0,1-5.11-1.3,8.92,8.92,0,0,1-3.5-3.72,12.14,12.14,0,0,1-1.29-5.57v-2.49a15.5,15.5,0,0,1,1.78-7.47,12.88,12.88,0,0,1,5.08-5.19,14.56,14.56,0,0,1,7.32-1.88h1V175h-.28a9.27,9.27,0,0,0-5.73,1.67,7.08,7.08,0,0,0-2.76,4.64,7.28,7.28,0,0,1,5.32-2.07,6.78,6.78,0,0,1,5.55,2.55,10.23,10.23,0,0,1,2.06,6.68A9.47,9.47,0,0,1,629.91,193.21Z"/><path class="cls-1" d="M671.88,390.44h-6.31v10.87H662V374.44h8.89c3,0,5.35.69,7,2.07a7.44,7.44,0,0,1,2.45,6A7.19,7.19,0,0,1,679,386.9a8,8,0,0,1-3.77,2.78l6.31,11.41v.22h-3.8Zm-6.31-2.9H671a6.15,6.15,0,0,0,4.2-1.36,4.65,4.65,0,0,0,1.56-3.66,4.88,4.88,0,0,0-1.49-3.83,6.26,6.26,0,0,0-4.29-1.35h-5.42Z"/><path class="cls-1" d="M692.09,401.68a8.72,8.72,0,0,1-6.6-2.67,9.88,9.88,0,0,1-2.55-7.13v-.63a11.9,11.9,0,0,1,1.14-5.3,8.79,8.79,0,0,1,3.17-3.66,8,8,0,0,1,4.42-1.31,7.48,7.48,0,0,1,6.05,2.56q2.16,2.56,2.16,7.34v1.42H686.36a7.1,7.1,0,0,0,1.72,4.77,5.43,5.43,0,0,0,4.2,1.82,6,6,0,0,0,3.06-.74,7.68,7.68,0,0,0,2.2-1.95l2.08,1.62A8.38,8.38,0,0,1,692.09,401.68Zm-.42-17.9a4.57,4.57,0,0,0-3.47,1.5,7.36,7.36,0,0,0-1.73,4.22h10v-.26a6.49,6.49,0,0,0-1.41-4A4.27,4.27,0,0,0,691.67,383.78Z"/><path class="cls-1" d="M702.07,391.16a11.74,11.74,0,0,1,2.16-7.43,7.45,7.45,0,0,1,11.42-.17l.17-2.22h3.11v19.49a8.1,8.1,0,0,1-2.29,6.1,8.49,8.49,0,0,1-6.17,2.24,10.22,10.22,0,0,1-4.23-.93,7.16,7.16,0,0,1-3.15-2.52l1.77-2.05a6.66,6.66,0,0,0,5.37,2.71,5.24,5.24,0,0,0,3.88-1.4,5.36,5.36,0,0,0,1.39-4v-1.72a7,7,0,0,1-5.59,2.37,6.81,6.81,0,0,1-5.67-2.83A12.29,12.29,0,0,1,702.07,391.16Zm3.43.39a8.87,8.87,0,0,0,1.39,5.3,4.48,4.48,0,0,0,3.87,1.93,5,5,0,0,0,4.74-2.93v-9.12a5.06,5.06,0,0,0-4.7-2.86,4.56,4.56,0,0,0-3.9,1.94A9.78,9.78,0,0,0,705.5,391.55Z"/><path class="cls-1" d="M723.15,376.05a2,2,0,0,1,.51-1.4,1.91,1.91,0,0,1,1.5-.57,2,2,0,0,1,1.52.57,2,2,0,0,1,.51,1.4,2,2,0,0,1-.51,1.38,2,2,0,0,1-1.52.56,1.94,1.94,0,0,1-1.5-.56A2,2,0,0,1,723.15,376.05Zm3.69,25.26h-3.41v-20h3.41Z"/><path class="cls-1" d="M743,396a2.5,2.5,0,0,0-1-2.15,10.05,10.05,0,0,0-3.63-1.32,17.68,17.68,0,0,1-4.12-1.32,6,6,0,0,1-2.25-1.85,4.45,4.45,0,0,1-.73-2.55,5.17,5.17,0,0,1,2.08-4.15,8.1,8.1,0,0,1,5.3-1.69,8.33,8.33,0,0,1,5.51,1.75,5.56,5.56,0,0,1,2.11,4.48h-3.43a3.11,3.11,0,0,0-1.19-2.42,4.48,4.48,0,0,0-3-1,4.66,4.66,0,0,0-2.91.81,2.56,2.56,0,0,0-1,2.12,2.07,2.07,0,0,0,1,1.87,12.32,12.32,0,0,0,3.54,1.2,18.39,18.39,0,0,1,4.14,1.36,6.06,6.06,0,0,1,2.35,1.91,4.69,4.69,0,0,1,.77,2.72,5.11,5.11,0,0,1-2.14,4.29,9,9,0,0,1-5.56,1.62,10.12,10.12,0,0,1-4.24-.85,7,7,0,0,1-2.89-2.37,5.78,5.78,0,0,1-1-3.3h3.41a3.51,3.51,0,0,0,1.38,2.72,5.31,5.31,0,0,0,3.38,1,5.53,5.53,0,0,0,3.11-.78A2.42,2.42,0,0,0,743,396Z"/><path class="cls-1" d="M754.53,376.51v4.83h3.73V384h-3.73v12.4a2.72,2.72,0,0,0,.5,1.8,2.08,2.08,0,0,0,1.69.6,8.07,8.07,0,0,0,1.63-.22v2.75a10.16,10.16,0,0,1-2.62.37,4.25,4.25,0,0,1-3.45-1.39,5.91,5.91,0,0,1-1.16-3.93V384h-3.64v-2.64h3.64v-4.83Z"/><path class="cls-1" d="M770.94,384.41a9.68,9.68,0,0,0-1.67-.13,4.5,4.5,0,0,0-4.56,2.86v14.17H761.3v-20h3.32l0,2.31a5.32,5.32,0,0,1,4.76-2.67,3.49,3.49,0,0,1,1.51.25Z"/><path class="cls-1" d="M780,396.31l4.65-15h3.65l-8,23.05c-1.25,3.32-3.22,5-5.93,5l-.64-.06-1.28-.24v-2.76l.93.07a4.54,4.54,0,0,0,2.7-.7,5.06,5.06,0,0,0,1.6-2.57l.75-2-7.12-19.75H775Z"/><circle class="cls-2" cx="584.13" cy="424.48" r="12.19"/><circle class="cls-3" cx="584.63" cy="351.42" r="12.19"/><circle class="cls-2" cx="620.72" cy="342.56" r="8.78"/><circle class="cls-3" cx="620.72" cy="433.47" r="8.78"/><circle class="cls-4" cx="572.79" cy="388.01" r="8.78"/><circle class="cls-5" cx="651.63" cy="419" r="5.43"/><path class="cls-1" d="M621.34,388a3.56,3.56,0,0,0-2.07.58,3.68,3.68,0,0,0-1.24,1.4v1.86c0,3.4,1.18,5.09,3.53,5.09a2.86,2.86,0,0,0,2.37-1.27,5.21,5.21,0,0,0,1-3.19,5.06,5.06,0,0,0-1-3.22A3.1,3.1,0,0,0,621.34,388Z"/><path class="cls-1" d="M643.09,378.88a2.48,2.48,0,0,0-2.34,1.33,9.12,9.12,0,0,0-.78,4v6.86a9.56,9.56,0,0,0,.76,4.4,2.74,2.74,0,0,0,4.74,0,9.26,9.26,0,0,0,.77-4.25v-6.65a9.62,9.62,0,0,0-.75-4.32A2.53,2.53,0,0,0,643.09,378.88Z"/><path class="cls-1" d="M598.66,385.28q3.5,0,3.49-3.41a3,3,0,0,0-.83-2.17,3.15,3.15,0,0,0-2.34-.84,3.36,3.36,0,0,0-2.15.72,2.2,2.2,0,0,0-.92,1.79h-5.32a31.3,31.3,0,0,0-.16,12.47h5.1a2.81,2.81,0,0,0,1,2.14,3.54,3.54,0,0,0,2.46.9,3.7,3.7,0,0,0,2.62-.91,3.06,3.06,0,0,0,1-2.33,3.54,3.54,0,0,0-1-2.88,4.22,4.22,0,0,0-2.8-.85h-3v-4.63Z"/><path class="cls-1" d="M643.13,401.68a8.49,8.49,0,0,1-6.94-3q-2.46-3-2.46-8.38v-4.9q0-5.44,2.45-8.4a8.49,8.49,0,0,1,6.91-2.95,8.67,8.67,0,0,1,6.28,2.28,30.9,30.9,0,0,0-57.14-.21,9.07,9.07,0,0,1,1.92-1.16,11.24,11.24,0,0,1,4.61-.93,11,11,0,0,1,7,2.05,6.82,6.82,0,0,1,2.57,5.63,5.71,5.71,0,0,1-1.06,3.27,7.58,7.58,0,0,1-3.09,2.5,7.26,7.26,0,0,1,3.35,2.35,6.19,6.19,0,0,1,1.22,3.91,6.92,6.92,0,0,1-2.77,5.75,11.45,11.45,0,0,1-7.26,2.16,11.9,11.9,0,0,1-4.9-1,8.91,8.91,0,0,1-1.69-1,30.89,30.89,0,0,0,57.35-.43A8.57,8.57,0,0,1,643.13,401.68Zm-13.22-4.56a8.64,8.64,0,0,1-3.38,3.35,9.68,9.68,0,0,1-4.81,1.21,10,10,0,0,1-5.11-1.3,8.92,8.92,0,0,1-3.5-3.72,12.14,12.14,0,0,1-1.29-5.57V388.6a15.46,15.46,0,0,1,1.78-7.46,12.9,12.9,0,0,1,5.08-5.2,14.56,14.56,0,0,1,7.32-1.88h1V379h-.28a9.34,9.34,0,0,0-5.73,1.67,7.08,7.08,0,0,0-2.76,4.64,7.28,7.28,0,0,1,5.32-2.07,6.78,6.78,0,0,1,5.55,2.55,10.25,10.25,0,0,1,2.06,6.68A9.42,9.42,0,0,1,629.91,397.12Z"/><path class="cls-1" d="M671.88,595.64h-6.31V606.5H662V579.64h8.89c3,0,5.35.69,7,2.07a7.43,7.43,0,0,1,2.45,6A7.22,7.22,0,0,1,679,592.1a8,8,0,0,1-3.77,2.78l6.31,11.4v.22h-3.8Zm-6.31-2.9H671a6.11,6.11,0,0,0,4.2-1.37,4.62,4.62,0,0,0,1.56-3.66,4.87,4.87,0,0,0-1.49-3.82,6.26,6.26,0,0,0-4.29-1.35h-5.42Z"/><path class="cls-1" d="M692.09,606.87a8.75,8.75,0,0,1-6.6-2.66,9.9,9.9,0,0,1-2.55-7.13v-.63a11.9,11.9,0,0,1,1.14-5.3,8.79,8.79,0,0,1,3.17-3.66,8,8,0,0,1,4.42-1.32,7.48,7.48,0,0,1,6.05,2.57c1.44,1.71,2.16,4.15,2.16,7.34v1.42H686.36a7.1,7.1,0,0,0,1.72,4.77,5.43,5.43,0,0,0,4.2,1.82,6,6,0,0,0,3.06-.74,7.57,7.57,0,0,0,2.2-2l2.08,1.63A8.38,8.38,0,0,1,692.09,606.87ZM691.67,589a4.57,4.57,0,0,0-3.47,1.5,7.33,7.33,0,0,0-1.73,4.22h10v-.26a6.47,6.47,0,0,0-1.41-4A4.24,4.24,0,0,0,691.67,589Z"/><path class="cls-1" d="M714.51,601.21a2.51,2.51,0,0,0-1-2.15,10,10,0,0,0-3.63-1.32,17.18,17.18,0,0,1-4.12-1.33,5.88,5.88,0,0,1-2.25-1.84,4.47,4.47,0,0,1-.72-2.55,5.19,5.19,0,0,1,2.07-4.15,8.1,8.1,0,0,1,5.3-1.7,8.33,8.33,0,0,1,5.51,1.76,5.54,5.54,0,0,1,2.11,4.48H714.3a3.06,3.06,0,0,0-1.19-2.42,4.48,4.48,0,0,0-3-1,4.66,4.66,0,0,0-2.91.81,2.56,2.56,0,0,0-1.05,2.12,2,2,0,0,0,1,1.86,11.93,11.93,0,0,0,3.53,1.2,18.35,18.35,0,0,1,4.14,1.37,6,6,0,0,1,2.35,1.91,4.69,4.69,0,0,1,.77,2.72,5.11,5.11,0,0,1-2.14,4.29,9,9,0,0,1-5.55,1.61A10,10,0,0,1,706,606a6.86,6.86,0,0,1-2.89-2.37,5.73,5.73,0,0,1-1-3.29h3.42a3.51,3.51,0,0,0,1.37,2.72,5.32,5.32,0,0,0,3.39,1,5.42,5.42,0,0,0,3.1-.79A2.41,2.41,0,0,0,714.51,601.21Z"/><path class="cls-1" d="M720.52,596.34a11.77,11.77,0,0,1,1.15-5.28,8.56,8.56,0,0,1,3.21-3.61,8.73,8.73,0,0,1,4.69-1.28,8.41,8.41,0,0,1,6.6,2.83,10.84,10.84,0,0,1,2.52,7.5v.24a11.78,11.78,0,0,1-1.12,5.23,8.43,8.43,0,0,1-3.19,3.61,8.83,8.83,0,0,1-4.77,1.29,8.42,8.42,0,0,1-6.58-2.82,10.83,10.83,0,0,1-2.51-7.47Zm3.43.4a8.53,8.53,0,0,0,1.54,5.34,5.21,5.21,0,0,0,8.25,0,9.34,9.34,0,0,0,1.54-5.71,8.51,8.51,0,0,0-1.56-5.32,5,5,0,0,0-4.15-2,4.89,4.89,0,0,0-4.07,2A9.22,9.22,0,0,0,724,596.74Z"/><path class="cls-1" d="M754.35,604.53a7.26,7.26,0,0,1-5.85,2.34,6.21,6.21,0,0,1-4.86-1.85,8,8,0,0,1-1.69-5.49v-13h3.41v12.9c0,3,1.23,4.54,3.69,4.54,2.61,0,4.34-1,5.21-2.92V586.54h3.41v20h-3.25Z"/><path class="cls-1" d="M771.56,589.6a11.06,11.06,0,0,0-1.68-.12,4.5,4.5,0,0,0-4.56,2.86V606.5h-3.41v-20h3.32l0,2.31a5.33,5.33,0,0,1,4.76-2.68,3.55,3.55,0,0,1,1.52.26Z"/><path class="cls-1" d="M781.4,604.09a4.93,4.93,0,0,0,3.2-1.11,3.9,3.9,0,0,0,1.51-2.77h3.23a6.21,6.21,0,0,1-1.18,3.27,7.81,7.81,0,0,1-2.91,2.47,8.31,8.31,0,0,1-3.85.92,8.21,8.21,0,0,1-6.48-2.72,10.84,10.84,0,0,1-2.41-7.44v-.57a12.06,12.06,0,0,1,1.07-5.19,8.19,8.19,0,0,1,3.07-3.52,8.74,8.74,0,0,1,4.74-1.26,8,8,0,0,1,5.58,2,7.22,7.22,0,0,1,2.37,5.23h-3.23a4.71,4.71,0,0,0-1.47-3.19,4.55,4.55,0,0,0-3.25-1.24,4.76,4.76,0,0,0-4,1.87,8.74,8.74,0,0,0-1.43,5.41v.65a8.58,8.58,0,0,0,1.42,5.31A4.77,4.77,0,0,0,781.4,604.09Z"/><path class="cls-1" d="M800.51,606.87a8.75,8.75,0,0,1-6.6-2.66,9.9,9.9,0,0,1-2.55-7.13v-.63a11.9,11.9,0,0,1,1.14-5.3,8.79,8.79,0,0,1,3.17-3.66,8,8,0,0,1,4.42-1.32,7.48,7.48,0,0,1,6,2.57c1.44,1.71,2.16,4.15,2.16,7.34v1.42H794.78a7.1,7.1,0,0,0,1.72,4.77,5.43,5.43,0,0,0,4.2,1.82,6,6,0,0,0,3.06-.74,7.57,7.57,0,0,0,2.2-2L808,603A8.38,8.38,0,0,1,800.51,606.87ZM800.09,589a4.57,4.57,0,0,0-3.47,1.5,7.33,7.33,0,0,0-1.73,4.22h10v-.26a6.47,6.47,0,0,0-1.41-4A4.24,4.24,0,0,0,800.09,589Z"/><path class="cls-1" d="M822.93,601.21a2.51,2.51,0,0,0-1-2.15,10,10,0,0,0-3.63-1.32,17.18,17.18,0,0,1-4.12-1.33,5.88,5.88,0,0,1-2.25-1.84,4.47,4.47,0,0,1-.72-2.55,5.19,5.19,0,0,1,2.07-4.15,8.1,8.1,0,0,1,5.3-1.7,8.33,8.33,0,0,1,5.51,1.76,5.54,5.54,0,0,1,2.11,4.48h-3.43a3.06,3.06,0,0,0-1.19-2.42,4.48,4.48,0,0,0-3-1,4.66,4.66,0,0,0-2.91.81,2.56,2.56,0,0,0-1,2.12,2,2,0,0,0,1,1.86,11.93,11.93,0,0,0,3.53,1.2,18.35,18.35,0,0,1,4.14,1.37,6,6,0,0,1,2.35,1.91,4.69,4.69,0,0,1,.77,2.72,5.11,5.11,0,0,1-2.14,4.29,9,9,0,0,1-5.55,1.61,10,10,0,0,1-4.25-.85,6.77,6.77,0,0,1-2.88-2.37,5.67,5.67,0,0,1-1-3.29h3.42a3.54,3.54,0,0,0,1.37,2.72,5.32,5.32,0,0,0,3.39,1,5.42,5.42,0,0,0,3.1-.79A2.39,2.39,0,0,0,822.93,601.21Z"/><circle class="cls-2" cx="584.13" cy="629.68" r="12.19"/><circle class="cls-3" cx="584.63" cy="556.62" r="12.19"/><circle class="cls-2" cx="620.72" cy="547.75" r="8.78"/><circle class="cls-3" cx="620.72" cy="638.66" r="8.78"/><circle class="cls-4" cx="572.79" cy="593.21" r="8.78"/><circle class="cls-5" cx="651.63" cy="624.2" r="5.43"/><path class="cls-1" d="M621.34,593.15a3.56,3.56,0,0,0-2.07.57,3.7,3.7,0,0,0-1.24,1.41V597q0,5.09,3.53,5.09a2.86,2.86,0,0,0,2.37-1.27,5.21,5.21,0,0,0,1-3.19,5.06,5.06,0,0,0-1-3.22A3.1,3.1,0,0,0,621.34,593.15Z"/><path class="cls-1" d="M643.09,584.08a2.48,2.48,0,0,0-2.34,1.32,9.2,9.2,0,0,0-.78,4v6.86a9.59,9.59,0,0,0,.76,4.4,2.74,2.74,0,0,0,4.74,0,9.31,9.31,0,0,0,.77-4.26v-6.64a9.69,9.69,0,0,0-.75-4.33A2.54,2.54,0,0,0,643.09,584.08Z"/><path class="cls-1" d="M598.66,590.48q3.5,0,3.49-3.42a3,3,0,0,0-.83-2.16,3.15,3.15,0,0,0-2.34-.84,3.36,3.36,0,0,0-2.15.72,2.19,2.19,0,0,0-.92,1.79h-5.32a30.75,30.75,0,0,0-.71,6.63,31.17,31.17,0,0,0,.55,5.84h5.1a2.82,2.82,0,0,0,1,2.14,3.54,3.54,0,0,0,2.46.9,3.7,3.7,0,0,0,2.62-.91,3.06,3.06,0,0,0,1-2.34,3.53,3.53,0,0,0-1-2.87,4.22,4.22,0,0,0-2.8-.85h-3v-4.63Z"/><path class="cls-1" d="M643.13,606.88a8.49,8.49,0,0,1-6.94-3q-2.46-3-2.46-8.38v-4.91q0-5.43,2.45-8.39a8.46,8.46,0,0,1,6.91-3,8.67,8.67,0,0,1,6.28,2.28,30.9,30.9,0,0,0-57.14-.21,8.68,8.68,0,0,1,1.92-1.16,11.24,11.24,0,0,1,4.61-.93,11,11,0,0,1,7,2,6.8,6.8,0,0,1,2.57,5.62,5.74,5.74,0,0,1-1.06,3.28,7.58,7.58,0,0,1-3.09,2.5,7.26,7.26,0,0,1,3.35,2.35,6.14,6.14,0,0,1,1.22,3.9,6.93,6.93,0,0,1-2.77,5.76,11.45,11.45,0,0,1-7.26,2.16,11.9,11.9,0,0,1-4.9-1,8.89,8.89,0,0,1-1.69-1,30.89,30.89,0,0,0,57.35-.43A8.61,8.61,0,0,1,643.13,606.88Zm-13.22-4.56a8.71,8.71,0,0,1-3.38,3.35,9.68,9.68,0,0,1-4.81,1.21,10.11,10.11,0,0,1-5.11-1.3,8.92,8.92,0,0,1-3.5-3.72,12.14,12.14,0,0,1-1.29-5.57V593.8a15.43,15.43,0,0,1,1.78-7.46,12.9,12.9,0,0,1,5.08-5.2,14.56,14.56,0,0,1,7.32-1.88h1v4.89h-.28a9.34,9.34,0,0,0-5.73,1.67,7.08,7.08,0,0,0-2.76,4.64,7.28,7.28,0,0,1,5.32-2.07,6.78,6.78,0,0,1,5.55,2.55,10.25,10.25,0,0,1,2.06,6.68A9.45,9.45,0,0,1,629.91,602.32Z"/><path class="cls-1" d="M1013.78,182.47a16.54,16.54,0,0,1-6.63-3.22,6.15,6.15,0,0,1-2.07-4.71,6.51,6.51,0,0,1,2.53-5.25,10.1,10.1,0,0,1,6.6-2.07,10.89,10.89,0,0,1,4.93,1.07,8,8,0,0,1,3.36,3,7.55,7.55,0,0,1,1.19,4.11h-3.56a4.91,4.91,0,0,0-1.55-3.84,6.3,6.3,0,0,0-4.37-1.4,6.46,6.46,0,0,0-4.09,1.16,3.85,3.85,0,0,0-1.47,3.2,3.48,3.48,0,0,0,1.4,2.79,13.86,13.86,0,0,0,4.74,2.08,22,22,0,0,1,5.24,2.07,8,8,0,0,1,2.8,2.65,6.76,6.76,0,0,1,.92,3.56,6.27,6.27,0,0,1-2.55,5.23,10.87,10.87,0,0,1-6.81,2,12.74,12.74,0,0,1-5.16-1.06,8.68,8.68,0,0,1-3.7-2.91,7.08,7.08,0,0,1-1.3-4.19h3.56a4.62,4.62,0,0,0,1.8,3.85,7.57,7.57,0,0,0,4.8,1.41,7,7,0,0,0,4.3-1.14,3.72,3.72,0,0,0,1.49-3.12,3.66,3.66,0,0,0-1.38-3.06A16.31,16.31,0,0,0,1013.78,182.47Z"/><path class="cls-1" d="M1031.44,169.65v4.84h3.72v2.63h-3.72v12.4a2.78,2.78,0,0,0,.49,1.8,2.11,2.11,0,0,0,1.7.6,8,8,0,0,0,1.62-.22v2.75a10.1,10.1,0,0,1-2.62.37,4.28,4.28,0,0,1-3.45-1.39,6,6,0,0,1-1.16-3.93V177.12h-3.63v-2.63H1028v-4.84Z"/><path class="cls-1" d="M1050.53,194.45a7.07,7.07,0,0,1-.48-2.11,7.62,7.62,0,0,1-5.69,2.48,7.07,7.07,0,0,1-4.84-1.67,5.42,5.42,0,0,1-1.89-4.24,5.64,5.64,0,0,1,2.37-4.84,11.17,11.17,0,0,1,6.67-1.73H1050v-1.56a3.82,3.82,0,0,0-1.07-2.85,4.27,4.27,0,0,0-3.15-1.06,5,5,0,0,0-3.07.92,2.72,2.72,0,0,0-1.23,2.23H1038a4.69,4.69,0,0,1,1.06-2.89,7.14,7.14,0,0,1,2.87-2.2,9.76,9.76,0,0,1,4-.81,7.87,7.87,0,0,1,5.4,1.72,6.21,6.21,0,0,1,2,4.75v9.19a11.36,11.36,0,0,0,.7,4.37v.3Zm-5.67-2.6a6.06,6.06,0,0,0,3.05-.83,5.07,5.07,0,0,0,2.08-2.16v-4.1h-2.67c-4.19,0-6.28,1.23-6.28,3.67a3.12,3.12,0,0,0,1.07,2.51A4.14,4.14,0,0,0,1044.86,191.85Z"/><path class="cls-1" d="M1061,174.49l.11,2.5a7.29,7.29,0,0,1,6-2.87q6.31,0,6.38,7.14v13.19h-3.41V181.24a4.61,4.61,0,0,0-1-3.19,4,4,0,0,0-3-1,4.92,4.92,0,0,0-2.91.89,6,6,0,0,0-2,2.32v14.23h-3.41v-20Z"/><path class="cls-1" d="M1076.88,184.3a11.72,11.72,0,0,1,2.18-7.39,7.41,7.41,0,0,1,11.25-.39V166.11h3.42v28.34h-3.14l-.17-2.14a6.94,6.94,0,0,1-5.7,2.51,6.83,6.83,0,0,1-5.65-2.84,11.83,11.83,0,0,1-2.19-7.42Zm3.42.39a8.81,8.81,0,0,0,1.4,5.31,4.52,4.52,0,0,0,3.87,1.92,5,5,0,0,0,4.74-2.92v-9.16a5,5,0,0,0-4.7-2.83,4.56,4.56,0,0,0-3.91,1.94A9.7,9.7,0,0,0,1080.3,184.69Z"/><path class="cls-1" d="M1110.4,194.45a7.07,7.07,0,0,1-.48-2.11,7.62,7.62,0,0,1-5.68,2.48,7,7,0,0,1-4.84-1.67,5.4,5.4,0,0,1-1.9-4.24,5.64,5.64,0,0,1,2.37-4.84,11.21,11.21,0,0,1,6.67-1.73h3.32v-1.56a3.79,3.79,0,0,0-1.07-2.85,4.27,4.27,0,0,0-3.15-1.06,4.92,4.92,0,0,0-3.06.92,2.7,2.7,0,0,0-1.24,2.23h-3.43a4.69,4.69,0,0,1,1.06-2.89,7.24,7.24,0,0,1,2.88-2.2,9.68,9.68,0,0,1,4-.81,7.91,7.91,0,0,1,5.41,1.72,6.25,6.25,0,0,1,2,4.75v9.19a11.17,11.17,0,0,0,.7,4.37v.3Zm-5.66-2.6a6,6,0,0,0,3-.83,5.07,5.07,0,0,0,2.08-2.16v-4.1h-2.67c-4.18,0-6.27,1.23-6.27,3.67a3.09,3.09,0,0,0,1.07,2.51A4.13,4.13,0,0,0,1104.74,191.85Z"/><path class="cls-1" d="M1127.33,177.55a9.71,9.71,0,0,0-1.68-.13,4.48,4.48,0,0,0-4.55,2.86v14.17h-3.42v-20H1121l.06,2.3a5.32,5.32,0,0,1,4.76-2.67,3.52,3.52,0,0,1,1.51.25Z"/><path class="cls-1" d="M1128.34,184.3a11.72,11.72,0,0,1,2.18-7.39,7.41,7.41,0,0,1,11.25-.39V166.11h3.42v28.34h-3.14l-.17-2.14a6.94,6.94,0,0,1-5.7,2.51,6.83,6.83,0,0,1-5.65-2.84,11.83,11.83,0,0,1-2.19-7.42Zm3.42.39a8.81,8.81,0,0,0,1.4,5.31,4.52,4.52,0,0,0,3.87,1.92,5,5,0,0,0,4.74-2.92v-9.16a5,5,0,0,0-4.7-2.83,4.56,4.56,0,0,0-3.91,1.94A9.7,9.7,0,0,0,1131.76,184.69Z"/><circle class="cls-2" cx="927.98" cy="217.62" r="12.19"/><circle class="cls-3" cx="928.47" cy="144.56" r="12.19"/><circle class="cls-2" cx="964.57" cy="135.7" r="8.78"/><circle class="cls-3" cx="964.57" cy="226.61" r="8.78"/><circle class="cls-4" cx="916.64" cy="181.15" r="8.78"/><circle class="cls-5" cx="995.48" cy="212.14" r="5.43"/><path class="cls-1" d="M965.18,181.1a3.6,3.6,0,0,0-2.07.57,3.65,3.65,0,0,0-1.23,1.4v1.86c0,3.4,1.17,5.09,3.52,5.09a2.84,2.84,0,0,0,2.37-1.27,5.21,5.21,0,0,0,1-3.19,5.06,5.06,0,0,0-1-3.22A3.08,3.08,0,0,0,965.18,181.1Z"/><path class="cls-1" d="M986.93,172a2.45,2.45,0,0,0-2.33,1.33,9,9,0,0,0-.79,4v6.86a9.56,9.56,0,0,0,.76,4.4A2.53,2.53,0,0,0,987,190a2.49,2.49,0,0,0,2.34-1.35,9.24,9.24,0,0,0,.78-4.25v-6.65a9.6,9.6,0,0,0-.76-4.32A2.54,2.54,0,0,0,986.93,172Z"/><path class="cls-1" d="M942.51,178.42q3.48,0,3.48-3.41a2.92,2.92,0,0,0-.83-2.17,3.13,3.13,0,0,0-2.34-.84,3.38,3.38,0,0,0-2.15.72,2.19,2.19,0,0,0-.91,1.79h-5.32a31.07,31.07,0,0,0-.17,12.47h5.1a2.79,2.79,0,0,0,1,2.14,3.51,3.51,0,0,0,2.45.9,3.68,3.68,0,0,0,2.62-.91,3.06,3.06,0,0,0,1-2.33,3.56,3.56,0,0,0-1-2.88,4.2,4.2,0,0,0-2.8-.85h-3v-4.63Z"/><path class="cls-1" d="M987,194.82a8.5,8.5,0,0,1-6.94-3q-2.44-3-2.45-8.37v-4.91q0-5.44,2.44-8.4a8.49,8.49,0,0,1,6.91-2.95,8.67,8.67,0,0,1,6.28,2.28,30.89,30.89,0,0,0-57.13-.21,8.43,8.43,0,0,1,1.92-1.15,12.56,12.56,0,0,1,11.65,1.11,6.81,6.81,0,0,1,2.56,5.63,5.64,5.64,0,0,1-1.06,3.27,7.58,7.58,0,0,1-3.09,2.5,7.24,7.24,0,0,1,3.36,2.35,6.24,6.24,0,0,1,1.21,3.91,6.93,6.93,0,0,1-2.76,5.75,11.5,11.5,0,0,1-7.27,2.16,11.93,11.93,0,0,1-4.9-1,8.91,8.91,0,0,1-1.69-1,30.89,30.89,0,0,0,57.35-.43A8.56,8.56,0,0,1,987,194.82Zm-13.22-4.56a8.57,8.57,0,0,1-3.38,3.35,9.62,9.62,0,0,1-4.8,1.21,10,10,0,0,1-5.11-1.3A9,9,0,0,1,957,189.8a12.14,12.14,0,0,1-1.29-5.57v-2.49a15.46,15.46,0,0,1,1.78-7.46,12.88,12.88,0,0,1,5.08-5.19,14.5,14.5,0,0,1,7.33-1.89h.94v4.89h-.28a9.38,9.38,0,0,0-5.73,1.67A7.11,7.11,0,0,0,962,178.4a7.28,7.28,0,0,1,5.32-2.06,6.77,6.77,0,0,1,5.55,2.54,10.28,10.28,0,0,1,2.07,6.68A9.43,9.43,0,0,1,973.75,190.26Z"/></svg>