<svg id="Layer_1" data-name="Layer 1" xmlns="http://www.w3.org/2000/svg" viewBox="0 0 1280 800"><defs><style>.cls-1{fill:#15353c;}.cls-2{isolation:isolate;}.cls-3{fill:#fff;}.cls-4{fill:#f26b32;}</style></defs><rect class="cls-1" width="1280" height="800"/><g id="Group_79" data-name="Group 79"><g class="cls-2"><path class="cls-3" d="M315.53,525.61V503.77a1.93,1.93,0,0,1,2.08-2.07h10c4.62,0,7.33,2.87,7.33,6.53a5.8,5.8,0,0,1-4.47,5.9,6.41,6.41,0,0,1,4.94,6.38c0,4.14-2.71,7-7.49,7H317.61A1.74,1.74,0,0,1,315.53,525.61ZM327,512.7a3.64,3.64,0,0,0,4-3.83,3.72,3.72,0,0,0-4-3.82h-7.49v7.65Zm.16,11.63c2.71,0,4.3-1.59,4.3-4.14a3.94,3.94,0,0,0-4.3-4h-7.81v8.13Z"/><path class="cls-3" d="M340.39,525.92V503.45a1.92,1.92,0,0,1,3.83,0v22.47a1.92,1.92,0,1,1-3.83,0Z"/><path class="cls-3" d="M372.9,516.2v5.9a3.15,3.15,0,0,1-1.11,2.55,13.43,13.43,0,0,1-9.4,3.51A13,13,0,0,1,349,514.77c0-8.13,6.06-13.39,13.39-13.39a12.64,12.64,0,0,1,8.92,3.51,1.79,1.79,0,0,1,.48,1.27,1.77,1.77,0,0,1-1.75,1.76,1.82,1.82,0,0,1-1.28-.48,9,9,0,0,0-6.37-2.71c-5.42,0-9.41,4.14-9.41,9.88s4,10,9.41,10a10.31,10.31,0,0,0,6.53-2.55v-4.62h-6.85a1.78,1.78,0,0,1-1.76-1.76,1.64,1.64,0,0,1,1.76-1.59h8.6C372.11,514.13,372.9,514.77,372.9,516.2Z"/><path class="cls-3" d="M387.89,525.61V503.77A1.92,1.92,0,0,1,390,501.7h7.17c8.13,0,13.38,5.58,13.38,12.91,0,7.49-5.41,12.91-13.38,12.91H390C388.52,527.68,387.89,526.88,387.89,525.61Zm9.24-1.28c6.05,0,9.4-4.3,9.4-9.56s-3.35-9.56-9.4-9.56h-5.42v19.12Z"/><path class="cls-3" d="M435.69,525.92a1.94,1.94,0,0,1-1.91,1.92,1.73,1.73,0,0,1-1.75-1.28l-1.59-4.3H417.53l-1.6,4.3a2.11,2.11,0,0,1-1.75,1.28,1.94,1.94,0,0,1-1.91-1.92,1.7,1.7,0,0,1,.16-.79l8.6-21.36a3.4,3.4,0,0,1,6.38,0l8.6,21.36C435.69,525.29,435.69,525.61,435.69,525.92Zm-6.69-7-5.1-13.7-5.1,13.7Z"/><path class="cls-3" d="M442.71,525.92V505.21h-6.54a1.75,1.75,0,0,1-1.75-1.6,1.77,1.77,0,0,1,1.75-1.75h16.9a1.77,1.77,0,0,1,1.75,1.75,1.64,1.64,0,0,1-1.75,1.6h-6.54v20.71a1.94,1.94,0,0,1-1.91,1.92A1.84,1.84,0,0,1,442.71,525.92Z"/><path class="cls-3" d="M477.13,525.92a1.94,1.94,0,0,1-1.91,1.92,1.73,1.73,0,0,1-1.76-1.28l-1.59-4.3H459l-1.59,4.3a2.12,2.12,0,0,1-1.75,1.28,2,2,0,0,1-1.92-1.92,1.7,1.7,0,0,1,.16-.79l8.61-21.36a3.39,3.39,0,0,1,6.37,0l8.61,21.36C477.13,525.29,477.13,525.61,477.13,525.92Zm-6.69-7-5.1-13.7-5.1,13.7Z"/><path class="cls-3" d="M491.15,525.92V503.77a1.93,1.93,0,0,1,2.08-2.07h13.7a1.76,1.76,0,0,1,1.75,1.75,1.64,1.64,0,0,1-1.75,1.6H495v7.65h11.63a1.73,1.73,0,0,1,1.75,1.59,1.76,1.76,0,0,1-1.75,1.75H495v9.72a1.85,1.85,0,0,1-1.91,1.92A1.72,1.72,0,0,1,491.15,525.92Z"/><path class="cls-3" d="M524.78,501.38c7.81,0,13.07,5.74,13.07,13.39s-5.26,13.39-13.07,13.39-13.07-5.74-13.07-13.39S517,501.38,524.78,501.38Zm0,3.51c-5.58,0-9.08,4.3-9.08,9.88,0,5.74,3.5,9.88,9.08,9.88,5.42,0,9.08-4.3,9.08-9.88C533.86,509,530.2,504.89,524.78,504.89Z"/><path class="cls-3" d="M561.75,526.08a1.88,1.88,0,0,1-1.75,1.76,1.94,1.94,0,0,1-1.59-.8l-6.54-9.4h-5.42v8.28a1.84,1.84,0,0,1-1.91,1.92,1.94,1.94,0,0,1-1.91-1.92V503.77a1.92,1.92,0,0,1,2.07-2.07h8.76c4.95,0,8.29,3.19,8.29,8a7.24,7.24,0,0,1-5.74,7.49l5.42,7.65A2.47,2.47,0,0,1,561.75,526.08Zm-15.3-11.79H553c2.87,0,4.78-1.75,4.78-4.62a4.56,4.56,0,0,0-4.78-4.62h-6.54Z"/><path class="cls-3" d="M598.88,525.92v-18.8l-8.12,20.08a1.2,1.2,0,0,1-1.12.8,1.18,1.18,0,0,1-1.11-.8l-8.13-20.08v18.8a1.85,1.85,0,0,1-1.91,1.92,2,2,0,0,1-1.92-1.92V504.73a3.21,3.21,0,0,1,3.19-3.19,3.13,3.13,0,0,1,3,2.07l6.85,16.9,6.85-16.9a3.13,3.13,0,0,1,3-2.07,3.21,3.21,0,0,1,3.19,3.19v21.19a1.94,1.94,0,0,1-1.91,1.92A1.85,1.85,0,0,1,598.88,525.92Z"/><path class="cls-3" d="M608.45,525.92V503.45a1.91,1.91,0,0,1,3.82,0v22.47a1.85,1.85,0,0,1-1.91,1.92A1.94,1.94,0,0,1,608.45,525.92Z"/><path class="cls-3" d="M641,516.2v5.9a3.16,3.16,0,0,1-1.12,2.55,13.43,13.43,0,0,1-9.4,3.51,13,13,0,0,1-13.39-13.39c0-8.13,6.06-13.39,13.39-13.39a12.64,12.64,0,0,1,8.92,3.51,1.79,1.79,0,0,1,.48,1.27,1.77,1.77,0,0,1-1.75,1.76,1.82,1.82,0,0,1-1.28-.48,9,9,0,0,0-6.37-2.71c-5.42,0-9.4,4.14-9.4,9.88s4,10,9.4,10A10.31,10.31,0,0,0,637,522.1v-4.62h-6.85a1.77,1.77,0,0,1-1.75-1.76,1.63,1.63,0,0,1,1.75-1.59h8.61C640.16,514.13,641,514.77,641,516.2Z"/><path class="cls-3" d="M665.18,526.08a1.89,1.89,0,0,1-1.75,1.76,2,2,0,0,1-1.6-.8l-6.53-9.4h-5.42v8.28a1.85,1.85,0,0,1-1.91,1.92,1.94,1.94,0,0,1-1.91-1.92V503.77a1.92,1.92,0,0,1,2.07-2.07h8.76c4.94,0,8.29,3.19,8.29,8a7.24,7.24,0,0,1-5.74,7.49l5.42,7.65A2.47,2.47,0,0,1,665.18,526.08Zm-15.3-11.79h6.53c2.87,0,4.79-1.75,4.79-4.62a4.57,4.57,0,0,0-4.79-4.62h-6.53Z"/><path class="cls-3" d="M691.79,525.92a1.94,1.94,0,0,1-1.91,1.92,1.72,1.72,0,0,1-1.75-1.28l-1.6-4.3h-12.9l-1.6,4.3a2.11,2.11,0,0,1-1.75,1.28,1.94,1.94,0,0,1-1.91-1.92,1.7,1.7,0,0,1,.16-.79l8.6-21.36a3.4,3.4,0,0,1,6.38,0l8.6,21.36C691.79,525.29,691.79,525.61,691.79,525.92Zm-6.69-7-5.1-13.7-5.1,13.7Z"/><path class="cls-3" d="M698.81,525.92V505.21h-6.54a1.75,1.75,0,0,1-1.75-1.6,1.77,1.77,0,0,1,1.75-1.75h16.89a1.77,1.77,0,0,1,1.76,1.75,1.64,1.64,0,0,1-1.76,1.6h-6.53v20.71a1.94,1.94,0,0,1-1.91,1.92A1.84,1.84,0,0,1,698.81,525.92Z"/><path class="cls-3" d="M714.74,525.92V503.45a1.92,1.92,0,0,1,3.83,0v22.47a1.85,1.85,0,0,1-1.92,1.92A1.94,1.94,0,0,1,714.74,525.92Z"/><path class="cls-3" d="M736.42,501.38c7.8,0,13.06,5.74,13.06,13.39s-5.26,13.39-13.06,13.39-13.07-5.74-13.07-13.39S728.61,501.38,736.42,501.38Zm0,3.51c-5.58,0-9.09,4.3-9.09,9.88,0,5.74,3.51,9.88,9.09,9.88,5.41,0,9.08-4.3,9.08-9.88C745.5,509,741.83,504.89,736.42,504.89Z"/><path class="cls-3" d="M771.79,526.88l-13.7-19.12v18.16a1.85,1.85,0,0,1-1.91,1.92,2,2,0,0,1-1.92-1.92V504.09a2.52,2.52,0,0,1,2.55-2.55,2.33,2.33,0,0,1,2.08,1.12l13.54,18.64V503.45a1.84,1.84,0,0,1,1.91-1.91,1.94,1.94,0,0,1,1.92,1.91v22a2.46,2.46,0,0,1-2.39,2.39A2.38,2.38,0,0,1,771.79,526.88Z"/><path class="cls-3" d="M813.87,525.92a2,2,0,0,1-1.92,1.92,1.73,1.73,0,0,1-1.75-1.28l-1.59-4.3H795.7l-1.59,4.3a2.12,2.12,0,0,1-1.76,1.28,1.94,1.94,0,0,1-1.91-1.92,1.7,1.7,0,0,1,.16-.79l8.61-21.36a3.39,3.39,0,0,1,6.37,0l8.61,21.36C813.71,525.29,813.87,525.61,813.87,525.92Zm-6.7-7-5.1-13.7-5.1,13.7Z"/><path class="cls-3" d="M817.85,525.61V503.45a1.92,1.92,0,0,1,3.83,0v20.72h10.2a1.75,1.75,0,0,1,1.75,1.59,1.77,1.77,0,0,1-1.75,1.76h-12C818.49,527.68,817.85,526.88,817.85,525.61Z"/><path class="cls-3" d="M837.77,525.61V503.45a1.92,1.92,0,0,1,3.83,0v20.72h10.2a1.75,1.75,0,0,1,1.75,1.59,1.77,1.77,0,0,1-1.75,1.76h-12C838.41,527.68,837.77,526.88,837.77,525.61Z"/><path class="cls-3" d="M857.69,525.92V503.45a1.92,1.92,0,0,1,3.83,0v22.47a1.92,1.92,0,1,1-3.83,0Z"/><path class="cls-3" d="M889.25,525.92a2,2,0,0,1-1.92,1.92,1.73,1.73,0,0,1-1.75-1.28l-1.59-4.3H871.08l-1.59,4.3a2.12,2.12,0,0,1-1.76,1.28,1.94,1.94,0,0,1-1.91-1.92,1.7,1.7,0,0,1,.16-.79l8.61-21.36a3.39,3.39,0,0,1,6.37,0l8.61,21.36C889.09,525.29,889.25,525.61,889.25,525.92Zm-6.7-7-5.1-13.7-5.1,13.7Z"/><path class="cls-3" d="M910.76,526.88l-13.7-19.12v18.16a1.85,1.85,0,0,1-1.92,1.92,1.94,1.94,0,0,1-1.91-1.92V504.09a2.52,2.52,0,0,1,2.55-2.55,2.32,2.32,0,0,1,2.07,1.12L911.4,521.3V503.45a1.84,1.84,0,0,1,1.91-1.91,1.93,1.93,0,0,1,1.91,1.91v22a2.45,2.45,0,0,1-2.39,2.39A2.57,2.57,0,0,1,910.76,526.88Z"/><path class="cls-3" d="M919.84,514.77a12.94,12.94,0,0,1,13.23-13.39,12.34,12.34,0,0,1,9.09,3.83,1.83,1.83,0,0,1,.47,1.27,1.76,1.76,0,0,1-1.75,1.75,1.54,1.54,0,0,1-1.43-.63,8.21,8.21,0,0,0-6.22-2.87c-5.26,0-9.24,4.14-9.24,9.88s4,9.88,9.24,9.88a8,8,0,0,0,6.22-2.87,2,2,0,0,1,1.43-.64,1.77,1.77,0,0,1,1.75,1.76,1.85,1.85,0,0,1-.47,1.27,11.82,11.82,0,0,1-9.09,3.83C925.74,528.16,919.84,522.74,919.84,514.77Z"/><path class="cls-3" d="M946.94,525.61V503.77A1.92,1.92,0,0,1,949,501.7h13.7a1.77,1.77,0,0,1,1.76,1.75,1.64,1.64,0,0,1-1.76,1.6h-12v7.65h11.63a1.74,1.74,0,0,1,1.76,1.59,1.77,1.77,0,0,1-1.76,1.75H950.76v8.13h12a1.75,1.75,0,0,1,1.76,1.59,1.78,1.78,0,0,1-1.76,1.76H949A1.74,1.74,0,0,1,946.94,525.61Z"/></g><g id="Group_75" data-name="Group 75"><g id="icon"><path id="Path_1" data-name="Path 1" class="cls-4" d="M721.53,375.55a4.59,4.59,0,0,1-3.34-1.43L694.6,350.53a4.92,4.92,0,0,1,0-6.69,4.7,4.7,0,0,1,6.53,0l23.59,23.58a4.93,4.93,0,0,1,0,6.7A4.27,4.27,0,0,1,721.53,375.55Z"/><path id="Path_2" data-name="Path 2" class="cls-4" d="M555.79,375.55a4.62,4.62,0,0,1-3.18-8L576.19,344a4.91,4.91,0,0,1,6.7,0,4.72,4.72,0,0,1,0,6.53L559.3,374.12A5.58,5.58,0,0,1,555.79,375.55Z"/><path id="Path_4" data-name="Path 4" class="cls-4" d="M654.6,319.77a5.78,5.78,0,0,0-8.13,0l-7.81,7.65-7.81-7.65a5.75,5.75,0,1,0-8.12,8.13h0l11.47,11.48.32.31a5.83,5.83,0,0,0,7.81.32h0l.32-.32h0l11.79-11.79a5.64,5.64,0,0,0,.16-8.13Z"/><path id="Path_5" data-name="Path 5" class="cls-4" d="M591.33,364.87a5.71,5.71,0,0,1-5.74-5.73,5.79,5.79,0,0,1,1.76-4.15l11.79-11.79a5.75,5.75,0,0,1,8.13,8.13l-11.79,11.79A6.37,6.37,0,0,1,591.33,364.87Z"/><path id="Path_6" data-name="Path 6" class="cls-4" d="M555.79,281.37a4.56,4.56,0,0,1-3.34-1.44l-.64-.64c-.16-.31-.32-.47-.48-.79s-.16-.64-.32-.8a3.86,3.86,0,0,1,0-1.91,1.22,1.22,0,0,1,.32-.8c.16-.32.32-.48.48-.79a1.25,1.25,0,0,1,.64-.64,4.71,4.71,0,0,1,4.3-1.28,1.22,1.22,0,0,1,.8.32c.32.16.47.32.79.48a1.25,1.25,0,0,1,.64.64l.64.63c.16.32.32.48.48.8s.16.64.31.8a3.86,3.86,0,0,1,0,1.91,1.22,1.22,0,0,1-.31.8c-.16.32-.32.48-.48.79a1.25,1.25,0,0,1-.64.64l-.64.64c-.32.16-.47.32-.79.48s-.64.16-.8.32A2.82,2.82,0,0,0,555.79,281.37Z"/><path id="Path_7" data-name="Path 7" class="cls-4" d="M579.22,399.14a2,2,0,0,1-1-.16,1.19,1.19,0,0,1-.79-.32,3.5,3.5,0,0,1-.8-.48,1.25,1.25,0,0,1-.64-.64l-.63-.63c-.16-.32-.32-.48-.48-.8s-.16-.64-.32-1c0-.32-.16-.63-.16-.95a4.61,4.61,0,0,1,1.43-3.35l.64-.64c.32-.16.48-.32.8-.48s.63-.15.79-.31a4.82,4.82,0,0,1,5.58,3.66c0,.32.16.64.16,1a2,2,0,0,1-.16.95,2.27,2.27,0,0,1-.32,1c-.16.32-.32.48-.47.8a1.23,1.23,0,0,1-.64.63l-.64.64c-.32.16-.48.32-.8.48s-.63.16-.95.32C579.86,399,579.54,399.14,579.22,399.14Z"/><path id="Path_8" data-name="Path 8" class="cls-4" d="M567.59,316.75a4.58,4.58,0,0,1-3.35-1.44l-.64-.64a3.29,3.29,0,0,1-.64-1.75c0-.32-.15-.64-.15-1a4.62,4.62,0,0,1,4.62-4.62,2,2,0,0,1,1,.16,1.22,1.22,0,0,1,.8.32c.32.16.48.32.8.48a1.23,1.23,0,0,1,.63.64,4.56,4.56,0,0,1,1.44,3.34,2,2,0,0,1-.16,1,2.27,2.27,0,0,1-.32,1c-.16.31-.32.47-.48.79a1.25,1.25,0,0,1-.64.64l-.63.64c-.32.16-.48.32-.8.48s-.64.15-.8.31C568.22,316.75,567.91,316.75,567.59,316.75Z"/><path id="Path_9" data-name="Path 9" class="cls-4" d="M709.58,316.75a2,2,0,0,1-1-.16,2.28,2.28,0,0,1-1-.32c-.32-.16-.48-.32-.8-.48a4.69,4.69,0,0,1-1.27-1.28c-.16-.31-.32-.47-.48-.79s-.16-.64-.32-1a3.24,3.24,0,0,1,0-1.75,2.27,2.27,0,0,1,.32-1c.16-.32.32-.48.48-.79a1.23,1.23,0,0,1,.63-.64l.64-.64c.32-.16.48-.32.8-.48s.64-.16,1-.32a3.9,3.9,0,0,1,1.92,0,2.23,2.23,0,0,1,1,.32c.32.16.48.32.8.48a1.25,1.25,0,0,1,.64.64l.63.64c.16.31.32.47.48.79s.16.64.32,1a3.24,3.24,0,0,1,0,1.75,2.27,2.27,0,0,1-.32,1c-.16.32-.32.48-.48.79a1.23,1.23,0,0,1-.63.64A4.21,4.21,0,0,1,709.58,316.75Z"/><path id="Path_10" data-name="Path 10" class="cls-4" d="M591.33,317.86a5.8,5.8,0,0,1-4.14-1.75l-12-11.95a5.75,5.75,0,1,1,8.12-8.13l12,12a5.78,5.78,0,0,1,0,8.13,5.46,5.46,0,0,1-4,1.75Z"/><path id="Path_11" data-name="Path 11" class="cls-4" d="M638.66,385.91a3.19,3.19,0,0,1-3.18-3.19V359.14a3.19,3.19,0,1,1,6.37,0v23.58A3.19,3.19,0,0,1,638.66,385.91Z"/><path id="Path_12" data-name="Path 12" class="cls-4" d="M686,364.87a5.77,5.77,0,0,1-4.14-1.75l-11.79-11.79a5.75,5.75,0,0,1,8.13-8.13h0L690,355a5.78,5.78,0,0,1,0,8.13,5.42,5.42,0,0,1-4,1.75Z"/><path id="Path_13" data-name="Path 13" class="cls-4" d="M721.53,281.37a5.74,5.74,0,0,1-1.75-.32c-.32-.16-.48-.32-.8-.48a4.71,4.71,0,0,1-2.07-3.83,2,2,0,0,1,.16-.95,2.27,2.27,0,0,1,.32-1c.16-.32.32-.48.48-.79a1.27,1.27,0,0,1,.63-.64l.64-.64c.32-.16.48-.32.8-.48s.64-.16,1-.32a3.86,3.86,0,0,1,1.91,0,1.19,1.19,0,0,1,.79.32c.32.16.48.32.8.48a1.25,1.25,0,0,1,.64.64l.64.64c.16.31.31.47.47.79s.16.64.32,1c0,.32.16.64.16.95a4.6,4.6,0,0,1-1.43,3.35,3.32,3.32,0,0,1-1.6,1c-.31.16-.63.16-.79.32Z"/><path id="Path_14" data-name="Path 14" class="cls-4" d="M697.31,399.14A4.58,4.58,0,0,1,694,397.7l-.16-.16a4.74,4.74,0,0,1,6.7-6.69l.16.16a4.79,4.79,0,0,1-3.35,8.13Z"/><path id="Path_15" data-name="Path 15" class="cls-4" d="M686,317.86a5.71,5.71,0,0,1-5.73-5.74A5.77,5.77,0,0,1,682,308l12-12a5.75,5.75,0,1,1,8.13,8.13l-12,11.95A6.42,6.42,0,0,1,686,317.86Z"/><path id="Path_19" data-name="Path 19" class="cls-3" d="M686,388.3a5.81,5.81,0,0,1-4.14-1.75l-35.54-35.22a5.75,5.75,0,0,1,8.13-8.13L690,378.42a5.82,5.82,0,0,1-4,9.88Z"/><path id="Path_20" data-name="Path 20" class="cls-3" d="M697.79,375.55a2,2,0,0,1-1-.16,2.27,2.27,0,0,1-1-.32c-.31-.16-.47-.32-.79-.48a1.2,1.2,0,0,1-.64-.63,4.93,4.93,0,0,1,0-6.7l.64-.63c.32-.16.48-.32.79-.48s.64-.16,1-.32a4.82,4.82,0,0,1,5.58,3.67,4.71,4.71,0,0,1-1.28,4.3l-.63.64c-.32.15-.48.31-.8.47s-.64.16-.8.32A1.7,1.7,0,0,1,697.79,375.55Z"/><path id="Path_21" data-name="Path 21" class="cls-3" d="M591.33,388.3a5.71,5.71,0,0,1-5.74-5.74,5.78,5.78,0,0,1,1.76-4.14l35.54-35.22a5.75,5.75,0,1,1,8.12,8.13h0l-35.69,35.38A6.33,6.33,0,0,1,591.33,388.3Z"/><path id="Path_23" data-name="Path 23" class="cls-3" d="M614.76,316.75a4.58,4.58,0,0,1-3.35-1.44l-11.79-11.79a4.73,4.73,0,1,1,6.69-6.7l11.79,11.8a4.9,4.9,0,0,1,0,6.69,4.32,4.32,0,0,1-3.34,1.44Z"/><path id="Path_24" data-name="Path 24" class="cls-3" d="M555.63,303.52a3.2,3.2,0,0,1-3.18-3.19,2.91,2.91,0,0,1,.95-2.23l12-12a3.27,3.27,0,1,1,4.62,4.62h0l-12,12A3.88,3.88,0,0,1,555.63,303.52Z"/><path id="Path_25" data-name="Path 25" class="cls-3" d="M579.38,375.55a2,2,0,0,1-1-.16,1.19,1.19,0,0,1-.79-.32,3.5,3.5,0,0,1-.8-.48,1.2,1.2,0,0,1-.64-.63l-.64-.64c-.15-.32-.31-.48-.47-.8s-.16-.63-.32-.95a3.27,3.27,0,0,1,0-1.76,2.28,2.28,0,0,1,.32-.95c.16-.32.32-.48.47-.8a1.25,1.25,0,0,1,.64-.64l.64-.63c.32-.16.48-.32.8-.48a5.09,5.09,0,0,1,2.71-.32,2.28,2.28,0,0,1,.95.32c.32.16.48.32.8.48a1.23,1.23,0,0,1,.64.63l.63.64c.16.32.32.48.48.8s.16.64.32.95a3.27,3.27,0,0,1,0,1.76,2.23,2.23,0,0,1-.32.95c-.16.32-.32.48-.48.8a1.27,1.27,0,0,1-.63.64l-.64.63c-.32.16-.48.32-.8.48s-.64.16-.95.32A2,2,0,0,1,579.38,375.55Z"/><path id="Path_26" data-name="Path 26" class="cls-3" d="M638.5,316.75a2,2,0,0,1-1-.16,1.22,1.22,0,0,1-.8-.32,3.5,3.5,0,0,1-.8-.48,1.27,1.27,0,0,1-.63-.64l-.64-.64c-.16-.31-.32-.47-.48-.79s-.16-.64-.32-1c0-.32-.16-.64-.16-.95a4.57,4.57,0,0,1,1.44-3.35l.63-.64c.32-.16.48-.32.8-.48s.64-.16.8-.32a4.83,4.83,0,0,1,5.58,3.67c0,.32.16.64.16,1a2,2,0,0,1-.16,1,2.27,2.27,0,0,1-.32,1,5.27,5.27,0,0,1-1,1.59A3.72,3.72,0,0,1,638.5,316.75Z"/><path id="Path_27" data-name="Path 27" class="cls-3" d="M591.33,291.73a3.14,3.14,0,0,1-2.23-1l-12-11.79a3.27,3.27,0,0,1,4.62-4.63h0l12,11.8a3.27,3.27,0,0,1-2.39,5.58Z"/><path id="Path_28" data-name="Path 28" class="cls-3" d="M614.92,385.75a3.19,3.19,0,0,1-3.19-3.19,2.9,2.9,0,0,1,1-2.23l11.79-11.79a3.27,3.27,0,0,1,4.62,4.62h0l-11.79,11.63A3.52,3.52,0,0,1,614.92,385.75Z"/><path id="Path_29" data-name="Path 29" class="cls-3" d="M591.33,338.74a3.14,3.14,0,0,1-2.23-1l-12-11.79a3.27,3.27,0,1,1,4.46-4.78h0L593.56,333a3.26,3.26,0,0,1,0,4.62,2.4,2.4,0,0,1-2.23,1.12Z"/><path id="Path_30" data-name="Path 30" class="cls-3" d="M615.08,338.74a3.12,3.12,0,0,1-2.23-1l-12-11.79a3.27,3.27,0,1,1,4.47-4.78l.16.16,12,11.79a3.28,3.28,0,0,1,0,4.62,3.84,3.84,0,0,1-2.39,1Z"/><path id="Path_32" data-name="Path 32" class="cls-3" d="M662.41,316.75a4.63,4.63,0,0,1-4.62-4.63,4.55,4.55,0,0,1,1.43-3.34L671,297a4.74,4.74,0,0,1,6.7,6.7l-11.8,11.79A5.89,5.89,0,0,1,662.41,316.75Z"/><path id="Path_33" data-name="Path 33" class="cls-3" d="M685.83,291.73a3.2,3.2,0,0,1-3.18-3.19,3.52,3.52,0,0,1,1-2.39l12-11.8a3.27,3.27,0,0,1,4.62,4.63l-11.95,11.79A3.53,3.53,0,0,1,685.83,291.73Z"/><path id="Path_34" data-name="Path 34" class="cls-3" d="M721.21,303.36a2.9,2.9,0,0,1-2.23-1l-11.79-11.63a3.13,3.13,0,0,1,.16-4.62,3.07,3.07,0,0,1,4.46,0l11.79,11.63a3.26,3.26,0,0,1,0,4.62,3.49,3.49,0,0,1-2.39,1Z"/><path id="Path_35" data-name="Path 35" class="cls-3" d="M662.25,385.75a2.88,2.88,0,0,1-2.23-1l-11.8-11.63a3.27,3.27,0,0,1,4.63-4.62l11.79,11.79a3.28,3.28,0,0,1,0,4.62,3.9,3.9,0,0,1-2.39.8Z"/><path id="Path_36" data-name="Path 36" class="cls-3" d="M685.83,338.74a3.2,3.2,0,0,1-3.18-3.19,3.54,3.54,0,0,1,1-2.39l12-11.79a3.27,3.27,0,0,1,4.62,4.62l-.16.16-11.95,11.79A3.82,3.82,0,0,1,685.83,338.74Z"/><path id="Path_37" data-name="Path 37" class="cls-3" d="M662.25,338.74a3.21,3.21,0,0,1-3.19-3.19,3.5,3.5,0,0,1,1-2.39l12-11.79a3.26,3.26,0,0,1,4.62.16,3.21,3.21,0,0,1,0,4.46l-12,11.79A3.82,3.82,0,0,1,662.25,338.74Z"/></g><g class="cls-2"><path class="cls-3" d="M563.5,463.13v-29a3.94,3.94,0,0,1,4.31-4.3h15.62c7.17,0,10.83,4.62,10.83,9.56,0,4.78-2.87,7.81-6.53,8.61,4,.63,7.17,4.46,7.17,9.24,0,5.58-3.82,10.2-11,10.2H567.81Q563.51,467.44,563.5,463.13Zm18-18.16c2.71,0,4.47-1.76,4.47-4.15a4.2,4.2,0,0,0-4.47-4.14h-10V445Zm.32,15.61c3,0,4.78-1.75,4.78-4.46a4.44,4.44,0,0,0-4.78-4.46H571.47v8.92Z"/><path class="cls-3" d="M600.8,463.13v-29a3.93,3.93,0,0,1,4.3-4.3h10.52c11.79,0,19.92,7.49,19.92,18.8s-8.13,18.81-19.92,18.81H605.1C602.39,467.44,600.8,466,600.8,463.13Zm14.82-2.7c7.49,0,11.79-5.42,11.79-11.8,0-6.69-4-11.79-11.79-11.79h-6.86v23.59Z"/></g><g class="cls-2"><path class="cls-4" d="M670.12,456.12a3.48,3.48,0,0,1-3.67,3.51h-1.59v4.14a4,4,0,1,1-8,0v-4.14h-14a4.45,4.45,0,0,1-4.46-4.46,5.22,5.22,0,0,1,.63-2.39L652,432.54a6.92,6.92,0,0,1,12.75,3.82v16.1h1.59A3.85,3.85,0,0,1,670.12,456.12Zm-13.23-3.5V437l-10.2,15.62Z"/></g><g class="cls-2"><path class="cls-3" d="M707.57,463.93V440.5l-10.2,26a2.21,2.21,0,0,1-4.14,0l-10.2-26v23.43a4,4,0,1,1-8,0V436a6.46,6.46,0,0,1,6.53-6.53,6.58,6.58,0,0,1,6.22,4.3l7.65,19.6,7.65-19.6A6.48,6.48,0,0,1,715.7,436v27.89a4.07,4.07,0,0,1-8.13,0Z"/></g></g></g></svg>