<svg id="Layer_1" data-name="Layer 1" xmlns="http://www.w3.org/2000/svg" viewBox="0 0 1280 800"><defs><style>.cls-1{isolation:isolate;}.cls-2{fill:#15353c;}.cls-3{fill:#f26b32;}</style></defs><g id="Group_83" data-name="Group 83"><g class="cls-1"><path class="cls-2" d="M331.11,502.54V480.7a1.93,1.93,0,0,1,2.07-2.07h10c4.62,0,7.33,2.87,7.33,6.54a5.79,5.79,0,0,1-4.46,5.89,6.41,6.41,0,0,1,4.94,6.38c0,4.14-2.71,7-7.49,7H333.18C331.75,504.45,331.11,503.81,331.11,502.54Zm11.31-12.91a3.83,3.83,0,1,0,0-7.65h-7.49v7.65Zm.32,11.47c2.71,0,4.31-1.59,4.31-4.14a4,4,0,0,0-4.31-4h-7.81v8.13Z"/><path class="cls-2" d="M355.81,502.86V480.39a1.92,1.92,0,1,1,3.83,0v22.47a1.85,1.85,0,0,1-1.92,1.91A2.06,2.06,0,0,1,355.81,502.86Z"/><path class="cls-2" d="M388.32,493v5.9a3.19,3.19,0,0,1-1.11,2.55,13.43,13.43,0,0,1-9.41,3.51,13,13,0,0,1-13.38-13.39c0-8.13,6.05-13.39,13.38-13.39a12.65,12.65,0,0,1,8.93,3.51,1.82,1.82,0,0,1,.48,1.28,1.77,1.77,0,0,1-1.76,1.75,1.79,1.79,0,0,1-1.27-.48,9.07,9.07,0,0,0-6.38-2.71c-5.42,0-9.4,4.15-9.4,9.88s4,10,9.4,10a10.31,10.31,0,0,0,6.54-2.55v-4.62h-6.86a1.77,1.77,0,0,1-1.75-1.75,1.64,1.64,0,0,1,1.75-1.6h8.61A2,2,0,0,1,388.32,493Z"/><path class="cls-2" d="M403.3,502.54V480.7a1.93,1.93,0,0,1,2.07-2.07h7.17c8.13,0,13.39,5.58,13.39,12.91,0,7.49-5.42,12.91-13.39,12.91h-7.17A1.81,1.81,0,0,1,403.3,502.54Zm9.24-1.44c6.06,0,9.41-4.3,9.41-9.56S418.6,482,412.54,482h-5.25V501.1Z"/><path class="cls-2" d="M451.27,502.7a1.94,1.94,0,0,1-1.91,1.91,1.71,1.71,0,0,1-1.75-1.28L446,499H433.1l-1.59,4.3a2.12,2.12,0,0,1-1.75,1.28,1.94,1.94,0,0,1-1.92-1.91,1.74,1.74,0,0,1,.16-.8l8.61-21.36a3.39,3.39,0,0,1,6.37,0l8.61,21.36A.67.67,0,0,0,451.27,502.7Zm-6.69-7-5.1-13.7-5.1,13.7Z"/><path class="cls-2" d="M458.12,502.86V482.14h-6.53a1.74,1.74,0,0,1-1.75-1.6,1.76,1.76,0,0,1,1.75-1.75h16.89a1.76,1.76,0,0,1,1.75,1.75,1.64,1.64,0,0,1-1.75,1.6H462v20.72a1.94,1.94,0,0,1-1.91,1.91A2.06,2.06,0,0,1,458.12,502.86Z"/><path class="cls-2" d="M492.71,502.7a1.94,1.94,0,0,1-1.92,1.91,1.73,1.73,0,0,1-1.75-1.28l-1.59-4.3H474.54l-1.6,4.3a2.1,2.1,0,0,1-1.75,1.28,1.94,1.94,0,0,1-1.91-1.91,1.74,1.74,0,0,1,.16-.8l8.6-21.36a3.4,3.4,0,0,1,6.38,0L493,501.9A.68.68,0,0,0,492.71,502.7Zm-6.7-7-5.1-13.7-5.1,13.7Z"/><path class="cls-2" d="M506.73,502.86V480.7a1.93,1.93,0,0,1,2.07-2.07h13.71a1.77,1.77,0,0,1,1.75,1.76,1.64,1.64,0,0,1-1.75,1.59h-12v7.65h11.64a1.75,1.75,0,0,1,1.75,1.59,1.77,1.77,0,0,1-1.75,1.76H510.55v9.72a1.84,1.84,0,0,1-1.91,1.91A1.72,1.72,0,0,1,506.73,502.86Z"/><path class="cls-2" d="M540.2,478.15c7.8,0,13.06,5.74,13.06,13.39S548,504.93,540.2,504.93s-13.07-5.74-13.07-13.39S532.55,478.15,540.2,478.15Zm0,3.51c-5.58,0-9.09,4.3-9.09,9.88,0,5.74,3.51,9.88,9.09,9.88,5.41,0,9.08-4.3,9.08-9.88C549.28,485.8,545.77,481.66,540.2,481.66Z"/><path class="cls-2" d="M577.33,502.86a1.89,1.89,0,0,1-1.75,1.75,2,2,0,0,1-1.6-.8l-6.53-9.4H562v8.29a1.84,1.84,0,0,1-1.91,1.91,1.94,1.94,0,0,1-1.92-1.91V480.55a1.93,1.93,0,0,1,2.08-2.08H569c4.94,0,8.29,3.19,8.29,8a7.24,7.24,0,0,1-5.74,7.49l5.42,7.65A3.77,3.77,0,0,1,577.33,502.86Zm-15.46-11.8h6.53c2.87,0,4.78-1.75,4.78-4.62a4.56,4.56,0,0,0-4.78-4.62h-6.53Z"/><path class="cls-2" d="M614.3,502.86V484.05l-8.13,20.08a1.19,1.19,0,0,1-1.11.8,1.2,1.2,0,0,1-1.12-.8l-8.13-20.08v18.81a1.84,1.84,0,0,1-1.91,1.91,1.94,1.94,0,0,1-1.91-1.91v-21.2a3.2,3.2,0,0,1,3.19-3.19,3.13,3.13,0,0,1,3,2.07l6.85,16.9,6.85-16.9a3.12,3.12,0,0,1,3-2.07,3.21,3.21,0,0,1,3.19,3.19v21.2a1.94,1.94,0,0,1-1.92,1.91A2.06,2.06,0,0,1,614.3,502.86Z"/><path class="cls-2" d="M624,502.86V480.39a1.92,1.92,0,1,1,3.83,0v22.47a1.85,1.85,0,0,1-1.92,1.91A1.94,1.94,0,0,1,624,502.86Z"/><path class="cls-2" d="M656.37,493v5.9a3.19,3.19,0,0,1-1.11,2.55,13.43,13.43,0,0,1-9.41,3.51,13,13,0,0,1-13.38-13.39c0-8.13,6-13.39,13.38-13.39a12.65,12.65,0,0,1,8.93,3.51,1.82,1.82,0,0,1,.48,1.28,1.77,1.77,0,0,1-1.76,1.75,1.81,1.81,0,0,1-1.27-.48,9,9,0,0,0-6.38-2.71c-5.41,0-9.4,4.15-9.4,9.88s4,10,9.4,10a10.31,10.31,0,0,0,6.54-2.55v-4.62h-6.85a1.77,1.77,0,0,1-1.76-1.75,1.64,1.64,0,0,1,1.76-1.6h8.6C655.74,490.9,656.37,491.7,656.37,493Z"/><path class="cls-2" d="M680.76,502.86a1.89,1.89,0,0,1-1.76,1.75,2,2,0,0,1-1.59-.8l-6.53-9.4h-5.42v8.29a1.85,1.85,0,0,1-1.92,1.91,1.94,1.94,0,0,1-1.91-1.91V480.55a1.93,1.93,0,0,1,2.07-2.08h8.77c4.94,0,8.29,3.19,8.29,8a7.24,7.24,0,0,1-5.74,7.49l5.42,7.65A3.77,3.77,0,0,1,680.76,502.86Zm-15.46-11.8h6.53c2.87,0,4.78-1.75,4.78-4.62a4.56,4.56,0,0,0-4.78-4.62H665.3Z"/><path class="cls-2" d="M707.37,502.7a1.94,1.94,0,0,1-1.91,1.91,1.73,1.73,0,0,1-1.76-1.28l-1.59-4.3H689.2l-1.59,4.3a2.12,2.12,0,0,1-1.75,1.28,1.94,1.94,0,0,1-1.92-1.91,1.74,1.74,0,0,1,.16-.8l8.61-21.36a3.39,3.39,0,0,1,6.37,0l8.61,21.36A.67.67,0,0,0,707.37,502.7Zm-6.69-7-5.1-13.7-5.1,13.7Z"/><path class="cls-2" d="M714.38,502.86V482.14h-6.53a1.75,1.75,0,0,1-1.76-1.6,1.77,1.77,0,0,1,1.76-1.75h16.89a1.76,1.76,0,0,1,1.75,1.75,1.64,1.64,0,0,1-1.75,1.6h-6.53v20.72a1.92,1.92,0,0,1-3.83,0Z"/><path class="cls-2" d="M730.16,502.86V480.39a1.91,1.91,0,1,1,3.82,0v22.47a1.84,1.84,0,0,1-1.91,1.91A2.05,2.05,0,0,1,730.16,502.86Z"/><path class="cls-2" d="M751.83,478.15c7.81,0,13.07,5.74,13.07,13.39s-5.26,13.39-13.07,13.39-13.07-5.74-13.07-13.39S744.18,478.15,751.83,478.15Zm0,3.51c-5.58,0-9.08,4.3-9.08,9.88,0,5.74,3.5,9.88,9.08,9.88,5.42,0,9.09-4.3,9.09-9.88C760.92,485.8,757.41,481.66,751.83,481.66Z"/><path class="cls-2" d="M787.21,503.65l-13.7-19.12V502.7a1.85,1.85,0,0,1-1.92,1.91,1.94,1.94,0,0,1-1.91-1.91V480.86a2.52,2.52,0,0,1,2.55-2.55,2.32,2.32,0,0,1,2.07,1.12l13.55,18.64V480.39a1.85,1.85,0,0,1,1.91-1.92,1.94,1.94,0,0,1,1.91,1.92v22a2.45,2.45,0,0,1-2.39,2.39A2.16,2.16,0,0,1,787.21,503.65Z"/><path class="cls-2" d="M829.28,502.7a1.93,1.93,0,0,1-1.91,1.91,1.72,1.72,0,0,1-1.75-1.28L824,499h-12.9l-1.6,4.3a2.11,2.11,0,0,1-1.75,1.28,1.93,1.93,0,0,1-1.91-1.91,1.74,1.74,0,0,1,.16-.8l8.6-21.36a3.4,3.4,0,0,1,6.38,0l8.6,21.36A1,1,0,0,0,829.28,502.7Zm-6.69-7-5.1-13.7-5.1,13.7Z"/><path class="cls-2" d="M833.27,502.54V480.39a1.91,1.91,0,1,1,3.82,0V501.1h10.2a1.74,1.74,0,0,1,1.75,1.6,1.76,1.76,0,0,1-1.75,1.75H835.34C834.06,504.45,833.27,503.81,833.27,502.54Z"/><path class="cls-2" d="M853.19,502.54V480.39a1.91,1.91,0,1,1,3.82,0V501.1h10.2a1.75,1.75,0,0,1,1.76,1.6,1.77,1.77,0,0,1-1.76,1.75h-12A1.81,1.81,0,0,1,853.19,502.54Z"/><path class="cls-2" d="M873.11,502.86V480.39a1.91,1.91,0,1,1,3.82,0v22.47a1.84,1.84,0,0,1-1.91,1.91A2.06,2.06,0,0,1,873.11,502.86Z"/><path class="cls-2" d="M904.66,502.7a1.93,1.93,0,0,1-1.91,1.91,1.72,1.72,0,0,1-1.75-1.28l-1.6-4.3H886.5l-1.6,4.3a2.11,2.11,0,0,1-1.75,1.28,1.93,1.93,0,0,1-1.91-1.91,1.74,1.74,0,0,1,.16-.8l8.6-21.36a3.4,3.4,0,0,1,6.38,0L905,501.9A1,1,0,0,0,904.66,502.7Zm-6.69-7-5.1-13.7-5.1,13.7Z"/><path class="cls-2" d="M926.34,503.65l-13.71-19.12V502.7a1.84,1.84,0,0,1-1.91,1.91,1.93,1.93,0,0,1-1.91-1.91V480.86a2.52,2.52,0,0,1,2.55-2.55,2.33,2.33,0,0,1,2.07,1.12L927,498.07V480.39a1.85,1.85,0,0,1,1.92-1.92,1.94,1.94,0,0,1,1.91,1.92v22a2.46,2.46,0,0,1-2.39,2.39A2.15,2.15,0,0,1,926.34,503.65Z"/><path class="cls-2" d="M935.42,491.54a12.94,12.94,0,0,1,13.23-13.39,12.31,12.31,0,0,1,9.08,3.83,1.81,1.81,0,0,1,.48,1.27,1.77,1.77,0,0,1-1.75,1.76,1.56,1.56,0,0,1-1.44-.64,8.21,8.21,0,0,0-6.21-2.87c-5.26,0-9.25,4.14-9.25,9.88s4,9.88,9.25,9.88a7.93,7.93,0,0,0,6.21-2.87,2.06,2.06,0,0,1,1.44-.63,1.76,1.76,0,0,1,1.75,1.75,1.82,1.82,0,0,1-.48,1.28,11.79,11.79,0,0,1-9.08,3.82C941.32,504.93,935.42,499.51,935.42,491.54Z"/><path class="cls-2" d="M962.51,502.54V480.7a1.93,1.93,0,0,1,2.07-2.07h13.71a1.77,1.77,0,0,1,1.75,1.76,1.63,1.63,0,0,1-1.75,1.59H966.34v7.65H978a1.73,1.73,0,0,1,1.75,1.59A1.76,1.76,0,0,1,978,493H966.34v8.13h11.95a1.74,1.74,0,0,1,1.75,1.6,1.76,1.76,0,0,1-1.75,1.75H964.58A1.81,1.81,0,0,1,962.51,502.54Z"/></g><g class="cls-1"><path class="cls-2" d="M578.92,440.07v-29a3.94,3.94,0,0,1,4.3-4.3h15.62c7.17,0,10.84,4.62,10.84,9.56,0,4.78-2.87,7.81-6.53,8.61,4,.63,7.17,4.46,7.17,9.24,0,5.58-3.83,10.2-11,10.2h-16.1A3.94,3.94,0,0,1,578.92,440.07Zm18-18.17c2.71,0,4.46-1.75,4.46-4.14a4.19,4.19,0,0,0-4.46-4.15h-10v8.29Zm.32,15.62c3,0,4.78-1.76,4.78-4.47a4.44,4.44,0,0,0-4.78-4.46H586.89v8.93Z"/><path class="cls-2" d="M616.37,440.07v-29a3.94,3.94,0,0,1,4.31-4.3h10.51c11.8,0,19.92,7.49,19.92,18.8s-8.12,18.81-19.92,18.81H620.68C617.81,444.37,616.37,442.77,616.37,440.07Zm14.82-2.87c7.49,0,11.8-5.42,11.8-11.8,0-6.69-4-11.79-11.8-11.79h-6.85V437h6.85Z"/></g><g class="cls-1"><path class="cls-3" d="M685.7,433.05a3.48,3.48,0,0,1-3.67,3.51h-1.59v4.14a4,4,0,1,1-8,0v-4.14h-14A4.45,4.45,0,0,1,654,432.1a5.26,5.26,0,0,1,.64-2.39l12.91-20.24a6.92,6.92,0,0,1,12.75,3.82v16.1h1.59A3.85,3.85,0,0,1,685.7,433.05Zm-13.23-3.5V413.93l-10.2,15.62Z"/></g><g class="cls-1"><path class="cls-2" d="M723,440.7V417.28l-10.2,26a2.22,2.22,0,0,1-4.15,0l-10.2-26V440.7a4,4,0,1,1-8,0V412.81a6.46,6.46,0,0,1,6.53-6.53,6.58,6.58,0,0,1,6.22,4.3l7.65,19.61,7.65-19.61a6.48,6.48,0,0,1,12.58,2.23V440.7a4.05,4.05,0,0,1-4,4A4.2,4.2,0,0,1,723,440.7Z"/></g><g id="Group_82" data-name="Group 82"><g id="icon"><path id="Path_1" data-name="Path 1" class="cls-3" d="M737.61,353.12a4.63,4.63,0,0,1-3.35-1.43l-23.9-23.75a4.73,4.73,0,1,1,6.69-6.69h0L741,345a4.63,4.63,0,0,1,0,6.7,4.89,4.89,0,0,1-3.35,1.43Z"/><path id="Path_2" data-name="Path 2" class="cls-3" d="M570.44,353.12a4.79,4.79,0,0,1-4.78-4.78,4.57,4.57,0,0,1,1.43-3.35L591,321.25a4.73,4.73,0,1,1,6.85,6.53h0l-23.91,23.75A4.76,4.76,0,0,1,570.44,353.12Z"/><path id="Path_4" data-name="Path 4" class="cls-3" d="M670,296.86a6,6,0,0,0-8.29,0l-7.81,7.81-7.8-7.81a6,6,0,0,0-8.29,0,5.78,5.78,0,0,0,0,8.13l11.63,11.48.32.31a5.84,5.84,0,0,0,7.81.32h0l.32-.32h0l12-11.79a5.5,5.5,0,0,0,.16-8.13Z"/><path id="Path_5" data-name="Path 5" class="cls-3" d="M606.29,342.28a6,6,0,0,1-5.89-5.73,5.82,5.82,0,0,1,1.75-4.15l12-11.79a5.86,5.86,0,0,1,8.29,8.29h0l-11.95,11.79A6.7,6.7,0,0,1,606.29,342.28Z"/><path id="Path_6" data-name="Path 6" class="cls-3" d="M570.44,258.3a4.58,4.58,0,0,1-3.35-1.44,3.41,3.41,0,0,1-.64-.79c-.16-.32-.32-.48-.48-.8s-.15-.64-.31-.8a3.86,3.86,0,0,1,0-1.91,1.27,1.27,0,0,1,.31-.8c.16-.31.32-.47.48-.79a2.81,2.81,0,0,1,.64-.8,4.71,4.71,0,0,1,4.3-1.27,2.25,2.25,0,0,1,1,.31,3.5,3.5,0,0,1,.8.48,1.23,1.23,0,0,1,.63.64,3.49,3.49,0,0,1,.64.8c.16.32.32.47.48.79s.16.64.32.8a3.86,3.86,0,0,1,0,1.91,1.22,1.22,0,0,1-.32.8,3.5,3.5,0,0,1-.48.8,2.92,2.92,0,0,1-.64.79l-.63.64c-.32.16-.48.32-.8.48s-.64.16-1,.32A2,2,0,0,0,570.44,258.3Z"/><path id="Path_7" data-name="Path 7" class="cls-3" d="M594.18,376.71a2,2,0,0,1-.95-.16,2.27,2.27,0,0,1-1-.32,3.5,3.5,0,0,1-.8-.48,1.23,1.23,0,0,1-.63-.64,3.64,3.64,0,0,1-.64-.79c-.16-.32-.32-.48-.48-.8s-.16-.64-.32-1c0-.32-.16-.64-.16-.95a4.58,4.58,0,0,1,1.44-3.35l.63-.64c.32-.16.48-.32.8-.48s.64-.16,1-.31a4.71,4.71,0,0,1,4.3,1.27,4.57,4.57,0,0,1,1.43,3.35,2,2,0,0,1-.16.95,2.25,2.25,0,0,1-.31,1c-.16.32-.32.48-.48.8a2.92,2.92,0,0,1-.64.79,3.49,3.49,0,0,1-.8.64c-.32.16-.47.32-.79.48s-.64.16-1,.32C594.82,376.71,594.5,376.71,594.18,376.71Z"/><path id="Path_8" data-name="Path 8" class="cls-3" d="M582.39,293.84A4.58,4.58,0,0,1,579,292.4a3.23,3.23,0,0,1-.63-.8,3.29,3.29,0,0,1-.64-1.75c0-.32-.16-.64-.16-1a4.8,4.8,0,0,1,4.78-4.79,2,2,0,0,1,1,.16,2.28,2.28,0,0,1,.95.32,3.5,3.5,0,0,1,.8.48,2.81,2.81,0,0,1,.8.64,4.6,4.6,0,0,1,1.43,3.35,2,2,0,0,1-.16.95,2.27,2.27,0,0,1-.32,1c-.16.32-.32.48-.48.79a2.94,2.94,0,0,1-.63.8,3.49,3.49,0,0,1-.8.64c-.32.16-.48.32-.8.48s-.63.16-.95.32A1.2,1.2,0,0,0,582.39,293.84Z"/><path id="Path_9" data-name="Path 9" class="cls-3" d="M725.5,293.84a2,2,0,0,1-1-.16,2.23,2.23,0,0,1-.95-.32,3.5,3.5,0,0,1-.8-.48,4.87,4.87,0,0,1-1.28-1.28c-.15-.31-.31-.47-.47-.79s-.16-.64-.32-1a3.86,3.86,0,0,1,0-1.91,2.27,2.27,0,0,1,.32-1c.16-.32.32-.47.47-.79a2.81,2.81,0,0,1,.64-.8,3.49,3.49,0,0,1,.8-.64c.32-.16.48-.32.8-.48s.63-.16,1-.31a3.86,3.86,0,0,1,1.91,0,2.25,2.25,0,0,1,1,.31,3.5,3.5,0,0,1,.8.48,2.65,2.65,0,0,1,.79.64,3.49,3.49,0,0,1,.64.8c.16.32.32.47.48.79s.16.64.32,1a3.86,3.86,0,0,1,0,1.91,2.27,2.27,0,0,1-.32,1c-.16.32-.32.48-.48.79a2.81,2.81,0,0,1-.64.8A5.92,5.92,0,0,1,725.5,293.84Z"/><path id="Path_10" data-name="Path 10" class="cls-3" d="M606.29,295a5.81,5.81,0,0,1-4.14-1.75L590.2,281.25a5.86,5.86,0,0,1,8.29-8.29h0l12,12a6,6,0,0,1,0,8.29A5.46,5.46,0,0,1,606.29,295Z"/><path id="Path_11" data-name="Path 11" class="cls-3" d="M654.1,363.48a3.34,3.34,0,0,1-3.34-3.19V336.55a3.35,3.35,0,1,1,6.69,0v23.74A3.45,3.45,0,0,1,654.1,363.48Z"/><path id="Path_12" data-name="Path 12" class="cls-3" d="M701.75,342.28a5.77,5.77,0,0,1-4.14-1.75l-12-11.79a5.86,5.86,0,1,1,8.28-8.29l12,11.79a6,6,0,0,1,0,8.29,6.06,6.06,0,0,1-4.15,1.75Z"/><path id="Path_13" data-name="Path 13" class="cls-3" d="M737.61,258.3a5.69,5.69,0,0,1-1.75-.32,3.5,3.5,0,0,1-.8-.48,4.78,4.78,0,0,1-2.07-4,2,2,0,0,1,.16-1,2.27,2.27,0,0,1,.32-1c.16-.31.32-.47.48-.79a2.6,2.6,0,0,1,.63-.8,3.49,3.49,0,0,1,.8-.64c.32-.16.48-.32.8-.47s.63-.16,1-.32a3.86,3.86,0,0,1,1.91,0,2.27,2.27,0,0,1,1,.32,3.18,3.18,0,0,1,.8.47,1.25,1.25,0,0,1,.64.64,3.77,3.77,0,0,1,.63.8c.16.32.32.48.48.79s.16.64.32,1c0,.32.16.64.16,1a4.56,4.56,0,0,1-1.44,3.34,3.25,3.25,0,0,1-1.59,1c-.32.16-.64.16-1,.32A12.43,12.43,0,0,0,737.61,258.3Z"/><path id="Path_14" data-name="Path 14" class="cls-3" d="M713.07,376.87a4.58,4.58,0,0,1-3.35-1.44l-.16-.16a4.73,4.73,0,1,1,6.7-6.69l.16.16a4.76,4.76,0,0,1,0,6.69A4.35,4.35,0,0,1,713.07,376.87Z"/><path id="Path_15" data-name="Path 15" class="cls-3" d="M701.75,295a6,6,0,0,1-5.89-5.74,5.77,5.77,0,0,1,1.75-4.14l11.95-11.95a5.86,5.86,0,0,1,8.29,8.29h0l-12,11.95A5.93,5.93,0,0,1,701.75,295Z"/><path id="Path_19" data-name="Path 19" class="cls-2" d="M701.75,366a5.81,5.81,0,0,1-4.14-1.75l-35.86-35.54a6,6,0,0,1,0-8.29,5.78,5.78,0,0,1,8.13,0L705.74,356a6,6,0,0,1,0,8.29,5.46,5.46,0,0,1-4,1.75Z"/><path id="Path_20" data-name="Path 20" class="cls-2" d="M713.71,353.12a2,2,0,0,1-1-.16,2.27,2.27,0,0,1-1-.32,3.4,3.4,0,0,1-.79-.48,2.94,2.94,0,0,1-.8-.63,4.63,4.63,0,0,1,0-6.7,3.23,3.23,0,0,1,.8-.63c.32-.16.47-.32.79-.48s.64-.16,1-.32a4.73,4.73,0,0,1,4.3,8,3.63,3.63,0,0,1-.79.63c-.32.16-.48.32-.8.48s-.64.16-1,.32C714.34,353.12,714,353.12,713.71,353.12Z"/><path id="Path_21" data-name="Path 21" class="cls-2" d="M606.29,366a6,6,0,0,1-5.89-5.74,5.8,5.8,0,0,1,1.75-4.14L638,320.61a5.86,5.86,0,0,1,8.28,8.29l-.15.16-35.86,35.53A6.72,6.72,0,0,1,606.29,366Z"/><path id="Path_23" data-name="Path 23" class="cls-2" d="M630,293.84a4.58,4.58,0,0,1-3.35-1.44l-12-11.79a4.73,4.73,0,0,1,6.69-6.69l12,11.79a4.62,4.62,0,0,1,0,6.69,4.86,4.86,0,0,1-3.35,1.44Z"/><path id="Path_24" data-name="Path 24" class="cls-2" d="M570.44,280.61a3.34,3.34,0,0,1-3.35-3.19,3.5,3.5,0,0,1,1-2.39l12-11.95a3.27,3.27,0,0,1,4.62,4.62h0l-12,11.95A3.15,3.15,0,0,1,570.44,280.61Z"/><path id="Path_25" data-name="Path 25" class="cls-2" d="M594.18,353.12a2,2,0,0,1-.95-.16,2.27,2.27,0,0,1-1-.32,3.5,3.5,0,0,1-.8-.48,1.25,1.25,0,0,1-.63-.63,3.49,3.49,0,0,1-.64-.8c-.16-.32-.32-.48-.48-.8s-.16-.64-.32-.95a3.9,3.9,0,0,1,0-1.92,2.28,2.28,0,0,1,.32-.95c.16-.32.32-.48.48-.8a2.81,2.81,0,0,1,.64-.8l.63-.63c.32-.16.48-.32.8-.48a5.1,5.1,0,0,1,2.71-.32,2.27,2.27,0,0,1,1,.32,3.63,3.63,0,0,1,.79.48,2.94,2.94,0,0,1,.8.63,3.49,3.49,0,0,1,.64.8c.16.32.32.48.47.8s.16.64.32.95a3.9,3.9,0,0,1,0,1.92,2.28,2.28,0,0,1-.32.95c-.15.32-.31.48-.47.8a2.81,2.81,0,0,1-.64.8,3.48,3.48,0,0,1-.8.63c-.32.16-.48.32-.79.48s-.64.16-1,.32A1.2,1.2,0,0,1,594.18,353.12Z"/><path id="Path_26" data-name="Path 26" class="cls-2" d="M653.78,293.84a2,2,0,0,1-.95-.16,2.27,2.27,0,0,1-1-.32,3.4,3.4,0,0,1-.79-.48,2.81,2.81,0,0,1-.8-.64,3.64,3.64,0,0,1-.64-.79c-.16-.32-.32-.48-.48-.8s-.16-.64-.32-1c0-.32-.15-.63-.15-.95a4.57,4.57,0,0,1,1.43-3.35,3.49,3.49,0,0,1,.8-.64c.31-.16.47-.32.79-.48s.64-.16,1-.31a4.73,4.73,0,0,1,5.58,3.66c0,.32.16.64.16,1a2,2,0,0,1-.16.95,2.27,2.27,0,0,1-.32,1,5.27,5.27,0,0,1-1,1.59A3.36,3.36,0,0,1,653.78,293.84Z"/><path id="Path_27" data-name="Path 27" class="cls-2" d="M606.29,268.66a2.9,2.9,0,0,1-2.23-1L592,255.75a3.27,3.27,0,1,1,4.62-4.62l12.11,11.95a3.26,3.26,0,0,1,0,4.62,3.22,3.22,0,0,1-2.39,1Z"/><path id="Path_28" data-name="Path 28" class="cls-2" d="M630,363.48a3.35,3.35,0,0,1-3.35-3.19,3.5,3.5,0,0,1,1-2.39l11.79-11.79a3.27,3.27,0,0,1,4.62,4.62l-11.79,11.79A3.22,3.22,0,0,1,630,363.48Z"/><path id="Path_29" data-name="Path 29" class="cls-2" d="M606.29,316.15a2.9,2.9,0,0,1-2.23-1L592,303.4a3.27,3.27,0,1,1,4.62-4.62l12.11,11.79a3.26,3.26,0,0,1,0,4.62,4,4,0,0,1-2.39,1Z"/><path id="Path_30" data-name="Path 30" class="cls-2" d="M630.2,316.15a2.88,2.88,0,0,1-2.23-1L615.86,303.4a3.27,3.27,0,0,1,4.62-4.62l12.11,11.79a3.28,3.28,0,0,1,0,4.62,4.47,4.47,0,0,1-2.39,1Z"/><path id="Path_32" data-name="Path 32" class="cls-2" d="M678,293.84a4.8,4.8,0,0,1-4.78-4.78,4.6,4.6,0,0,1,1.43-3.35l12-11.79a4.73,4.73,0,1,1,6.7,6.69l-12,11.79A4.56,4.56,0,0,1,678,293.84Z"/><path id="Path_33" data-name="Path 33" class="cls-2" d="M701.59,268.66a3.34,3.34,0,0,1-3.34-3.19,3.26,3.26,0,0,1,1-2.39l12.12-11.95a3.27,3.27,0,1,1,4.62,4.62L703.83,267.7A2.91,2.91,0,0,1,701.59,268.66Z"/><path id="Path_34" data-name="Path 34" class="cls-2" d="M737.29,280.45a3.52,3.52,0,0,1-2.39-1L723.11,267.7a3.27,3.27,0,0,1,4.62-4.62l11.79,11.79a3.26,3.26,0,0,1,0,4.62,2.88,2.88,0,0,1-2.23,1Z"/><path id="Path_35" data-name="Path 35" class="cls-2" d="M677.85,363.48a3.5,3.5,0,0,1-2.39-1l-11.79-11.79a3.27,3.27,0,0,1,4.62-4.62h0l11.79,11.79a3.28,3.28,0,0,1,0,4.62,3.57,3.57,0,0,1-2.23,1Z"/><path id="Path_36" data-name="Path 36" class="cls-2" d="M701.59,316.15a3.34,3.34,0,0,1-3.34-3.19,3.26,3.26,0,0,1,1-2.39l12.12-11.79a3.27,3.27,0,1,1,4.62,4.62h0l-12.11,11.79A2.91,2.91,0,0,1,701.59,316.15Z"/><path id="Path_37" data-name="Path 37" class="cls-2" d="M677.69,316.15a3.35,3.35,0,0,1-3.35-3.19,3.23,3.23,0,0,1,1-2.39l12.11-11.79a3.13,3.13,0,0,1,4.62.16,3.26,3.26,0,0,1,0,4.62l-12.11,11.79A3.14,3.14,0,0,1,677.69,316.15Z"/></g></g></g></svg>