<svg id="Layer_1" data-name="Layer 1" xmlns="http://www.w3.org/2000/svg" viewBox="0 0 1280 800"><defs><style>.cls-1{fill:#15353c;}.cls-2{fill:#f26b32;}.cls-3{fill:#fff;}</style></defs><rect class="cls-1" y="0.3" width="640.14" height="799.8"/><g id="Group_83" data-name="Group 83"><g id="Group_82" data-name="Group 82"><g id="icon"><path id="Path_1" data-name="Path 1" class="cls-2" d="M1043.21,440.71a4.63,4.63,0,0,1-3.37-1.44l-24-23.86a4.75,4.75,0,0,1,6.72-6.72h0l24,23.85a4.65,4.65,0,0,1,0,6.73,4.61,4.61,0,0,1-3.36,1.44Z"/><path id="Path_2" data-name="Path 2" class="cls-2" d="M875.25,440.71a4.82,4.82,0,0,1-4.81-4.8,4.61,4.61,0,0,1,1.44-3.37l24-23.85a4.76,4.76,0,0,1,6.89,6.56h0l-24,23.86A4.54,4.54,0,0,1,875.25,440.71Z"/><path id="Path_4" data-name="Path 4" class="cls-2" d="M975.48,384.19a6,6,0,0,0-8.33,0L959.31,392l-7.85-7.84a6,6,0,0,0-8.33,0,5.79,5.79,0,0,0,0,8.16l11.69,11.53.32.32a5.89,5.89,0,0,0,7.85.32h0l.32-.32h0l12-11.85a5.66,5.66,0,0,0,.16-8.16Z"/><path id="Path_5" data-name="Path 5" class="cls-2" d="M911.27,429.82a6,6,0,0,1-5.92-5.76,5.83,5.83,0,0,1,1.76-4.17l12-11.84a5.88,5.88,0,0,1,8.32,8.32h0l-12,11.85A6.4,6.4,0,0,1,911.27,429.82Z"/><path id="Path_6" data-name="Path 6" class="cls-2" d="M875.25,345.28a4.63,4.63,0,0,1-3.37-1.44,3.49,3.49,0,0,1-.64-.8c-.16-.32-.32-.48-.48-.8s-.16-.64-.32-.8a3.9,3.9,0,0,1,0-1.92,1.22,1.22,0,0,1,.32-.8c.16-.32.32-.48.48-.8a2.71,2.71,0,0,1,.64-.81,4.76,4.76,0,0,1,4.33-1.28,2.27,2.27,0,0,1,1,.32,3.5,3.5,0,0,1,.8.48,1.25,1.25,0,0,1,.64.64,3.57,3.57,0,0,1,.64.81c.16.32.32.48.48.8s.16.64.32.8a3.9,3.9,0,0,1,0,1.92,1.22,1.22,0,0,1-.32.8,3.5,3.5,0,0,1-.48.8,2.81,2.81,0,0,1-.64.8l-.64.64c-.32.16-.48.32-.8.48s-.64.16-1,.32A2,2,0,0,0,875.25,345.28Z"/><path id="Path_7" data-name="Path 7" class="cls-2" d="M899.1,464.41a2,2,0,0,1-1-.16,2.27,2.27,0,0,1-1-.32,3.5,3.5,0,0,1-.8-.48,1.23,1.23,0,0,1-.64-.65,3.49,3.49,0,0,1-.64-.8c-.16-.32-.32-.48-.48-.8s-.16-.64-.32-1c0-.32-.16-.64-.16-1a4.61,4.61,0,0,1,1.44-3.36l.64-.64c.32-.16.48-.32.8-.48s.64-.16,1-.32a4.77,4.77,0,0,1,4.33,1.28,4.61,4.61,0,0,1,1.44,3.36,2,2,0,0,1-.16,1,2.27,2.27,0,0,1-.32,1c-.16.32-.32.48-.48.8a2.81,2.81,0,0,1-.64.8,3.37,3.37,0,0,1-.81.65c-.32.16-.48.32-.8.48s-.64.16-1,.32C899.74,464.41,899.42,464.41,899.1,464.41Z"/><path id="Path_8" data-name="Path 8" class="cls-2" d="M887.41,381.15a4.61,4.61,0,0,1-3.36-1.44,3.57,3.57,0,0,1-.64-.81,3.36,3.36,0,0,1-.64-1.76c0-.32-.16-.64-.16-1a4.81,4.81,0,0,1,4.8-4.8,2.07,2.07,0,0,1,1,.16,2.27,2.27,0,0,1,1,.32,3.5,3.5,0,0,1,.8.48,2.81,2.81,0,0,1,.8.64,4.61,4.61,0,0,1,1.44,3.36,2,2,0,0,1-.16,1,2.27,2.27,0,0,1-.32,1c-.16.32-.32.48-.48.8a2.71,2.71,0,0,1-.64.81,3.49,3.49,0,0,1-.8.64c-.32.16-.48.32-.8.48s-.64.16-1,.32C888.06,381,887.73,381.15,887.41,381.15Z"/><path id="Path_9" data-name="Path 9" class="cls-2" d="M1031.2,381.15a2,2,0,0,1-1-.16,2.27,2.27,0,0,1-1-.32,3.5,3.5,0,0,1-.8-.48,4.76,4.76,0,0,1-1.28-1.29c-.16-.32-.33-.48-.49-.8s-.16-.64-.32-1a3.9,3.9,0,0,1,0-1.92,2.27,2.27,0,0,1,.32-1c.16-.32.33-.48.49-.8a2.81,2.81,0,0,1,.64-.8,3.49,3.49,0,0,1,.8-.64c.32-.16.48-.32.8-.48s.64-.16,1-.32a3.9,3.9,0,0,1,1.92,0,2.27,2.27,0,0,1,1,.32,3.5,3.5,0,0,1,.8.48,2.81,2.81,0,0,1,.8.64,3.49,3.49,0,0,1,.64.8c.16.32.32.48.48.8s.16.64.32,1a3.9,3.9,0,0,1,0,1.92,2.27,2.27,0,0,1-.32,1c-.16.32-.32.48-.48.8a2.71,2.71,0,0,1-.64.81A7.66,7.66,0,0,1,1031.2,381.15Z"/><path id="Path_10" data-name="Path 10" class="cls-2" d="M911.27,382.27a5.81,5.81,0,0,1-4.16-1.76l-12-12a5.89,5.89,0,0,1,8.33-8.33h0l12,12a6,6,0,0,1,0,8.33A5.81,5.81,0,0,1,911.27,382.27Z"/><path id="Path_11" data-name="Path 11" class="cls-2" d="M959.31,451.12a3.36,3.36,0,0,1-3.37-3.21V424.06a3.37,3.37,0,1,1,6.73,0v23.85A3.35,3.35,0,0,1,959.31,451.12Z"/><path id="Path_12" data-name="Path 12" class="cls-2" d="M1007.18,429.82a5.81,5.81,0,0,1-4.16-1.76l-12-11.85a5.89,5.89,0,1,1,8.33-8.32l12,11.84a6,6,0,0,1,0,8.33,5.81,5.81,0,0,1-4.16,1.76Z"/><path id="Path_13" data-name="Path 13" class="cls-2" d="M1043.21,345.28a5.75,5.75,0,0,1-1.76-.32,3.59,3.59,0,0,1-.81-.48,4.78,4.78,0,0,1-2.08-4,2,2,0,0,1,.16-1,2.27,2.27,0,0,1,.32-1c.16-.32.32-.48.48-.8a2.84,2.84,0,0,1,.64-.81,3.36,3.36,0,0,1,.81-.64c.32-.16.48-.32.8-.48s.64-.16,1-.32a3.9,3.9,0,0,1,1.92,0,2.27,2.27,0,0,1,1,.32,3.5,3.5,0,0,1,.8.48,1.25,1.25,0,0,1,.64.64,3.57,3.57,0,0,1,.64.81c.16.32.32.48.48.8s.16.64.32,1c0,.32.16.64.16,1a4.61,4.61,0,0,1-1.44,3.36,3.32,3.32,0,0,1-1.6,1c-.32.16-.64.16-1,.32A6.19,6.19,0,0,1,1043.21,345.28Z"/><path id="Path_14" data-name="Path 14" class="cls-2" d="M1018.71,464.57a4.61,4.61,0,0,1-3.36-1.44l-.16-.16a4.76,4.76,0,1,1,6.72-6.73l.16.16a4.79,4.79,0,0,1,0,6.73A5.33,5.33,0,0,1,1018.71,464.57Z"/><path id="Path_15" data-name="Path 15" class="cls-2" d="M1007.18,382.27a6,6,0,0,1-5.92-5.77,5.81,5.81,0,0,1,1.76-4.16l12-12a5.89,5.89,0,1,1,8.32,8.33h0l-12,12A6.4,6.4,0,0,1,1007.18,382.27Z"/><path id="Path_19" data-name="Path 19" class="cls-1" d="M1007.18,453.52a5.81,5.81,0,0,1-4.16-1.76l-36-35.71a6,6,0,0,1,0-8.32,5.79,5.79,0,0,1,8.17,0l36,35.7a6,6,0,0,1,0,8.33,5.2,5.2,0,0,1-4,1.76Z"/><path id="Path_20" data-name="Path 20" class="cls-1" d="M1019.19,440.55a2,2,0,0,1-1-.16,2.27,2.27,0,0,1-1-.32,3.5,3.5,0,0,1-.8-.48,2.81,2.81,0,0,1-.8-.64,4.65,4.65,0,0,1,0-6.73,3.49,3.49,0,0,1,.8-.64c.32-.16.48-.32.8-.48s.64-.16,1-.32a4.75,4.75,0,0,1,4.32,8,3.49,3.49,0,0,1-.8.64c-.32.16-.48.32-.8.48s-.64.16-1,.32C1019.83,440.55,1019.51,440.55,1019.19,440.55Z"/><path id="Path_21" data-name="Path 21" class="cls-1" d="M911.27,453.52a6,6,0,0,1-5.92-5.77,5.81,5.81,0,0,1,1.76-4.16l36-35.7a5.89,5.89,0,1,1,8.33,8.32l-.16.16-36,35.71A5.58,5.58,0,0,1,911.27,453.52Z"/><path id="Path_23" data-name="Path 23" class="cls-1" d="M935.13,381.15a4.61,4.61,0,0,1-3.36-1.44l-12-11.85a4.76,4.76,0,0,1,6.72-6.73l12,11.85a4.65,4.65,0,0,1,0,6.73,4.36,4.36,0,0,1-3.36,1.44Z"/><path id="Path_24" data-name="Path 24" class="cls-1" d="M875.25,367.7a3.35,3.35,0,0,1-3.37-3.21,3.53,3.53,0,0,1,1-2.4l12-12a3.29,3.29,0,0,1,4.65,4.65h0l-12,12A2.68,2.68,0,0,1,875.25,367.7Z"/><path id="Path_25" data-name="Path 25" class="cls-1" d="M899.26,440.55a2,2,0,0,1-1-.16,2.27,2.27,0,0,1-1-.32,3.5,3.5,0,0,1-.8-.48,1.25,1.25,0,0,1-.64-.64,3.49,3.49,0,0,1-.64-.8c-.16-.32-.32-.48-.48-.8s-.16-.64-.32-1a3.94,3.94,0,0,1,0-1.93,2.27,2.27,0,0,1,.32-1c.16-.32.32-.48.48-.8a2.81,2.81,0,0,1,.64-.8l.64-.64c.32-.16.48-.32.8-.48a5.14,5.14,0,0,1,2.72-.32,2.27,2.27,0,0,1,1,.32,3.59,3.59,0,0,1,.81.48,2.81,2.81,0,0,1,.8.64,3.49,3.49,0,0,1,.64.8c.16.32.32.48.48.8s.16.64.32,1a3.94,3.94,0,0,1,0,1.93,2.27,2.27,0,0,1-.32,1c-.16.32-.32.48-.48.8a2.81,2.81,0,0,1-.64.8,3.49,3.49,0,0,1-.8.64c-.33.16-.49.32-.81.48s-.64.16-1,.32A1.2,1.2,0,0,1,899.26,440.55Z"/><path id="Path_26" data-name="Path 26" class="cls-1" d="M959.15,381.15a2,2,0,0,1-1-.16,2.36,2.36,0,0,1-1-.32,3.5,3.5,0,0,1-.8-.48,2.81,2.81,0,0,1-.8-.64,3.57,3.57,0,0,1-.64-.81c-.16-.32-.32-.48-.48-.8s-.16-.64-.32-1c0-.32-.16-.64-.16-1a4.61,4.61,0,0,1,1.44-3.36,3.49,3.49,0,0,1,.8-.64c.32-.16.48-.32.8-.48s.65-.16,1-.32a4.75,4.75,0,0,1,5.6,3.68c0,.32.16.64.16,1a2,2,0,0,1-.16,1,2.27,2.27,0,0,1-.32,1,5.51,5.51,0,0,1-1,1.61A3.89,3.89,0,0,1,959.15,381.15Z"/><path id="Path_27" data-name="Path 27" class="cls-1" d="M911.43,355.85a2.91,2.91,0,0,1-2.24-1l-12.17-12a3.28,3.28,0,1,1,4.64-4.64l12.17,12a3.3,3.3,0,0,1,0,4.65,3.53,3.53,0,0,1-2.4,1Z"/><path id="Path_28" data-name="Path 28" class="cls-1" d="M935.29,451a3.35,3.35,0,0,1-3.36-3.21,3.53,3.53,0,0,1,1-2.4l11.85-11.85a3.28,3.28,0,0,1,4.64,4.65L937.53,450A2.91,2.91,0,0,1,935.29,451Z"/><path id="Path_29" data-name="Path 29" class="cls-1" d="M911.43,403.4a2.91,2.91,0,0,1-2.24-1L897,390.59a3.28,3.28,0,1,1,4.64-4.64l12.17,11.85a3.28,3.28,0,0,1,0,4.64,3.53,3.53,0,0,1-2.4,1Z"/><path id="Path_30" data-name="Path 30" class="cls-1" d="M935.29,403.4a2.91,2.91,0,0,1-2.24-1l-12.17-11.85a3.28,3.28,0,0,1,4.64-4.64l12.17,11.85a3.28,3.28,0,0,1-2.4,5.6Z"/><path id="Path_32" data-name="Path 32" class="cls-1" d="M983.32,381.15a4.82,4.82,0,0,1-4.8-4.81A4.61,4.61,0,0,1,980,373l12-11.85a4.76,4.76,0,0,1,6.72,6.73l-12,11.85A4.38,4.38,0,0,1,983.32,381.15Z"/><path id="Path_33" data-name="Path 33" class="cls-1" d="M1007.18,355.85a3.35,3.35,0,0,1-3.36-3.2,3.28,3.28,0,0,1,1-2.41l12.17-12a3.28,3.28,0,0,1,4.64,4.64l-12.17,12A3.16,3.16,0,0,1,1007.18,355.85Z"/><path id="Path_34" data-name="Path 34" class="cls-1" d="M1042.89,367.7a3.57,3.57,0,0,1-2.41-1l-11.84-11.85a3.28,3.28,0,0,1,4.64-4.65l11.85,11.85a3.3,3.3,0,0,1,0,4.65,2.68,2.68,0,0,1-2.24,1Z"/><path id="Path_35" data-name="Path 35" class="cls-1" d="M983.16,451a3.53,3.53,0,0,1-2.4-1l-11.85-11.85a3.29,3.29,0,1,1,4.65-4.65h0l11.85,11.85a3.3,3.3,0,0,1,0,4.65,2.72,2.72,0,0,1-2.25,1Z"/><path id="Path_36" data-name="Path 36" class="cls-1" d="M1007.18,403.4a3.35,3.35,0,0,1-3.36-3.2,3.26,3.26,0,0,1,1-2.4L1017,386a3.28,3.28,0,0,1,4.64,4.64h0l-12.17,11.85A3.16,3.16,0,0,1,1007.18,403.4Z"/><path id="Path_37" data-name="Path 37" class="cls-1" d="M983.16,403.4a3.35,3.35,0,0,1-3.36-3.2,3.26,3.26,0,0,1,1-2.4L992.93,386a3.15,3.15,0,0,1,4.64.16,3.28,3.28,0,0,1,0,4.64L985.41,402.6A3.88,3.88,0,0,1,983.16,403.4Z"/></g></g></g><g id="Group_79" data-name="Group 79"><g id="Group_75" data-name="Group 75"><g id="icon-2" data-name="icon"><path id="Path_1-2" data-name="Path 1" class="cls-2" d="M401,440.39a4.61,4.61,0,0,1-3.37-1.44L374,415.25a4.92,4.92,0,0,1,0-6.72,4.72,4.72,0,0,1,6.56,0l23.7,23.69a5,5,0,0,1,0,6.73A4,4,0,0,1,401,440.39Z"/><path id="Path_2-2" data-name="Path 2" class="cls-2" d="M234.51,440.39a4.65,4.65,0,0,1-3.21-8L255,408.69a4.93,4.93,0,0,1,6.73,0,4.74,4.74,0,0,1,0,6.56L238,439A5.25,5.25,0,0,1,234.51,440.39Z"/><path id="Path_4-2" data-name="Path 4" class="cls-2" d="M333.78,384.35a5.81,5.81,0,0,0-8.17,0L317.77,392l-7.85-7.68a5.77,5.77,0,0,0-8.17,8.16h0L313.28,404l.32.32a5.88,5.88,0,0,0,7.85.32h0l.32-.32h0l11.85-11.85a5.66,5.66,0,0,0,.16-8.16Z"/><path id="Path_5-2" data-name="Path 5" class="cls-2" d="M270.21,429.66a5.74,5.74,0,0,1-5.76-5.76,5.83,5.83,0,0,1,1.76-4.17l11.85-11.84a5.77,5.77,0,0,1,8.16,8.16L274.37,427.9A6.1,6.1,0,0,1,270.21,429.66Z"/><path id="Path_6-2" data-name="Path 6" class="cls-2" d="M234.51,345.76a4.61,4.61,0,0,1-3.37-1.44l-.64-.64c-.16-.32-.32-.48-.48-.8s-.16-.64-.32-.8a3.9,3.9,0,0,1,0-1.92,1.22,1.22,0,0,1,.32-.8c.16-.32.32-.48.48-.8a1.25,1.25,0,0,1,.64-.64,4.74,4.74,0,0,1,4.33-1.29,1.22,1.22,0,0,1,.8.32c.32.16.48.32.8.49a1.25,1.25,0,0,1,.64.64l.64.64c.16.32.32.48.48.8s.16.64.32.8a3.9,3.9,0,0,1,0,1.92,1.22,1.22,0,0,1-.32.8c-.16.32-.32.48-.48.8a1.25,1.25,0,0,1-.64.64l-.64.64c-.32.16-.48.32-.8.48s-.64.16-.8.32A2,2,0,0,0,234.51,345.76Z"/><path id="Path_7-2" data-name="Path 7" class="cls-2" d="M258.2,464.09a2,2,0,0,1-1-.16,1.22,1.22,0,0,1-.8-.32,3.5,3.5,0,0,1-.8-.48,1.27,1.27,0,0,1-.64-.65l-.64-.64c-.16-.32-.32-.48-.48-.8s-.16-.64-.32-1c0-.32-.16-.64-.16-1a4.61,4.61,0,0,1,1.44-3.36l.64-.64c.32-.16.48-.32.8-.48s.64-.16.8-.32a4.85,4.85,0,0,1,5.61,3.68c0,.32.16.64.16,1a2,2,0,0,1-.16,1,2.27,2.27,0,0,1-.32,1c-.16.32-.32.48-.48.8a1.25,1.25,0,0,1-.64.64c-.16.16-.49.48-.65.65-.32.16-.48.32-.8.48s-.64.16-1,.32C258.84,464.09,258.52,464.09,258.2,464.09Z"/><path id="Path_8-2" data-name="Path 8" class="cls-2" d="M246.51,381.31a4.61,4.61,0,0,1-3.36-1.44l-.64-.65a3.36,3.36,0,0,1-.64-1.76c0-.32-.16-.64-.16-1a4.64,4.64,0,0,1,4.64-4.64,2.09,2.09,0,0,1,1,.16,1.22,1.22,0,0,1,.8.32c.32.16.48.32.8.48a1.25,1.25,0,0,1,.64.64,4.61,4.61,0,0,1,1.44,3.36,2,2,0,0,1-.16,1,2.27,2.27,0,0,1-.32,1c-.16.32-.32.49-.48.81a1.25,1.25,0,0,1-.64.64l-.64.64c-.32.16-.48.32-.8.48s-.64.16-.81.32C247.15,381.31,246.83,381.31,246.51,381.31Z"/><path id="Path_9-2" data-name="Path 9" class="cls-2" d="M389,381.31a2,2,0,0,1-1-.16,2.27,2.27,0,0,1-1-.32c-.32-.16-.48-.32-.81-.48a4.76,4.76,0,0,1-1.28-1.29c-.16-.32-.32-.48-.48-.8s-.16-.64-.32-1a3.27,3.27,0,0,1,0-1.76,2.27,2.27,0,0,1,.32-1c.16-.32.32-.48.48-.8a1.25,1.25,0,0,1,.64-.64l.64-.64c.33-.16.49-.32.81-.48s.64-.16,1-.32a3.9,3.9,0,0,1,1.92,0,2.27,2.27,0,0,1,1,.32c.32.16.48.32.8.48a1.25,1.25,0,0,1,.64.64l.64.64c.16.32.32.48.48.8s.16.64.32,1a3.27,3.27,0,0,1,0,1.76,2.27,2.27,0,0,1-.32,1c-.16.32-.32.48-.48.8a1.23,1.23,0,0,1-.64.65A4.23,4.23,0,0,1,389,381.31Z"/><path id="Path_10-2" data-name="Path 10" class="cls-2" d="M270.21,382.43a5.81,5.81,0,0,1-4.16-1.76l-12-12a5.78,5.78,0,0,1,8.17-8.17l12,12a5.79,5.79,0,0,1,0,8.17,4.72,4.72,0,0,1-4,1.76Z"/><path id="Path_11-2" data-name="Path 11" class="cls-2" d="M317.77,450.8a3.21,3.21,0,0,1-3.21-3.21V423.9a3.21,3.21,0,1,1,6.41,0v23.69A3,3,0,0,1,317.77,450.8Z"/><path id="Path_12-2" data-name="Path 12" class="cls-2" d="M365.32,429.66a5.81,5.81,0,0,1-4.16-1.76l-11.85-11.85a5.77,5.77,0,0,1,8.16-8.16h0l11.85,11.84a5.81,5.81,0,0,1,0,8.17,5.2,5.2,0,0,1-4,1.76Z"/><path id="Path_13-2" data-name="Path 13" class="cls-2" d="M401,345.76a5.76,5.76,0,0,1-1.77-.32c-.32-.16-.48-.32-.8-.48a4.71,4.71,0,0,1-2.08-3.84,2,2,0,0,1,.16-1,2.27,2.27,0,0,1,.32-1c.16-.32.32-.48.48-.8a1.25,1.25,0,0,1,.64-.64l.64-.65c.32-.16.48-.32.8-.48s.64-.16,1-.32a3.94,3.94,0,0,1,1.93,0,1.22,1.22,0,0,1,.8.32c.32.16.48.32.8.48a1.23,1.23,0,0,1,.64.65l.64.64c.16.32.32.48.48.8s.16.64.32,1c0,.32.16.64.16,1a4.61,4.61,0,0,1-1.44,3.36,3.32,3.32,0,0,1-1.6,1c-.32.16-.64.16-.8.32Z"/><path id="Path_14-2" data-name="Path 14" class="cls-2" d="M376.69,464.09a4.58,4.58,0,0,1-3.36-1.45l-.16-.16a4.75,4.75,0,0,1,6.72-6.72l.16.16a4.94,4.94,0,0,1,0,6.72,4.58,4.58,0,0,1-3.36,1.45Z"/><path id="Path_15-2" data-name="Path 15" class="cls-2" d="M365.32,382.43a5.74,5.74,0,0,1-5.76-5.77,5.81,5.81,0,0,1,1.76-4.16l12-12a5.77,5.77,0,0,1,8.16,8.17l-12,12A5.46,5.46,0,0,1,365.32,382.43Z"/><path id="Path_19-2" data-name="Path 19" class="cls-3" d="M365.32,453.36a5.81,5.81,0,0,1-4.16-1.76l-35.71-35.39a5.77,5.77,0,1,1,8.17-8.16l35.7,35.38a5.81,5.81,0,0,1,0,8.17,5.45,5.45,0,0,1-4,1.76Z"/><path id="Path_20-2" data-name="Path 20" class="cls-3" d="M377.17,440.39a2,2,0,0,1-1-.16,2.27,2.27,0,0,1-1-.32c-.32-.16-.48-.32-.8-.48a1.25,1.25,0,0,1-.64-.64,4.93,4.93,0,0,1,0-6.73l.64-.64c.32-.16.48-.32.8-.48s.64-.16,1-.32a4.84,4.84,0,0,1,5.6,3.68,4.76,4.76,0,0,1-1.28,4.33l-.64.64c-.32.16-.48.32-.8.48s-.64.16-.8.32A1.73,1.73,0,0,1,377.17,440.39Z"/><path id="Path_21-2" data-name="Path 21" class="cls-3" d="M270.21,453.36a5.74,5.74,0,0,1-5.76-5.77,5.81,5.81,0,0,1,1.76-4.16l35.7-35.38a5.77,5.77,0,1,1,8.17,8.16h0L274.37,451.6A6.1,6.1,0,0,1,270.21,453.36Z"/><path id="Path_23-2" data-name="Path 23" class="cls-3" d="M293.91,381.31a4.61,4.61,0,0,1-3.36-1.44L278.7,368a4.76,4.76,0,1,1,6.72-6.73l11.85,11.85a5,5,0,0,1,0,6.73,4.88,4.88,0,0,1-3.36,1.44Z"/><path id="Path_24-2" data-name="Path 24" class="cls-3" d="M234.51,368a3.21,3.21,0,0,1-3.21-3.21,2.91,2.91,0,0,1,1-2.24l12-12a3.29,3.29,0,0,1,4.65,4.65h0l-12,12A4.76,4.76,0,0,1,234.51,368Z"/><path id="Path_25-2" data-name="Path 25" class="cls-3" d="M258.2,440.39a2,2,0,0,1-1-.16,1.22,1.22,0,0,1-.8-.32,3.5,3.5,0,0,1-.8-.48,1.25,1.25,0,0,1-.64-.64l-.64-.64c-.16-.32-.32-.48-.48-.8s-.16-.64-.32-1a3.31,3.31,0,0,1,0-1.77,2.27,2.27,0,0,1,.32-1c.16-.32.32-.48.48-.8a1.25,1.25,0,0,1,.64-.64l.64-.64c.32-.16.48-.32.8-.48a5.14,5.14,0,0,1,2.72-.32,2.27,2.27,0,0,1,1,.32c.32.16.48.32.8.48a1.23,1.23,0,0,1,.65.64l.64.64c.16.32.32.48.48.8s.16.64.32,1a3.31,3.31,0,0,1,0,1.77,2.27,2.27,0,0,1-.32,1c-.16.32-.32.48-.48.8a1.25,1.25,0,0,1-.64.64l-.65.64c-.32.16-.48.32-.8.48s-.64.16-1,.32A2,2,0,0,1,258.2,440.39Z"/><path id="Path_26-2" data-name="Path 26" class="cls-3" d="M317.61,381.31a2.09,2.09,0,0,1-1-.16,1.22,1.22,0,0,1-.8-.32,3.5,3.5,0,0,1-.8-.48,1.25,1.25,0,0,1-.64-.64l-.64-.65c-.16-.32-.32-.48-.48-.8s-.16-.64-.32-1c0-.32-.16-.64-.16-1a4.61,4.61,0,0,1,1.44-3.36l.64-.64c.32-.16.48-.32.8-.48s.64-.16.8-.32a4.84,4.84,0,0,1,5.61,3.68c0,.32.16.64.16,1a2,2,0,0,1-.16,1,2.27,2.27,0,0,1-.32,1,5.51,5.51,0,0,1-1,1.61A3.73,3.73,0,0,1,317.61,381.31Z"/><path id="Path_27-2" data-name="Path 27" class="cls-3" d="M270.37,356.17a3.16,3.16,0,0,1-2.24-1l-12-11.85a3.28,3.28,0,0,1,4.64-4.64h0l12,11.84a3.3,3.3,0,0,1,0,4.65,3.84,3.84,0,0,1-2.4,1Z"/><path id="Path_28-2" data-name="Path 28" class="cls-3" d="M293.91,450.8a3.21,3.21,0,0,1-3.2-3.21,2.91,2.91,0,0,1,1-2.24l11.85-11.85a3.28,3.28,0,1,1,4.64,4.65h0l-11.85,11.69A4,4,0,0,1,293.91,450.8Z"/><path id="Path_29-2" data-name="Path 29" class="cls-3" d="M270.37,403.56a3.16,3.16,0,0,1-2.24-1l-12-11.85a3.28,3.28,0,1,1,4.48-4.8h0l12,11.85a3.28,3.28,0,0,1,0,4.64,3.36,3.36,0,0,1-2.24,1.12Z"/><path id="Path_30-2" data-name="Path 30" class="cls-3" d="M294.07,403.56a3.16,3.16,0,0,1-2.24-1l-12-11.85a3.28,3.28,0,1,1,4.48-4.8l.16.16,12,11.85a3.28,3.28,0,0,1,0,4.64,4.5,4.5,0,0,1-2.4,1Z"/><path id="Path_32-2" data-name="Path 32" class="cls-3" d="M341.62,381.31a4.65,4.65,0,0,1-4.64-4.65,4.61,4.61,0,0,1,1.44-3.36l11.85-11.85a4.76,4.76,0,0,1,6.72,6.73L345.15,380A5.64,5.64,0,0,1,341.62,381.31Z"/><path id="Path_33-2" data-name="Path 33" class="cls-3" d="M365.16,356.17A3.21,3.21,0,0,1,362,353a3.55,3.55,0,0,1,1-2.41l12-11.84a3.28,3.28,0,0,1,4.64,4.64l-12,11.85A3.26,3.26,0,0,1,365.16,356.17Z"/><path id="Path_34-2" data-name="Path 34" class="cls-3" d="M400.71,368a2.91,2.91,0,0,1-2.25-1l-11.85-11.69a3.16,3.16,0,0,1,.16-4.65,3.11,3.11,0,0,1,4.49,0l11.85,11.69a3.3,3.3,0,0,1,0,4.65,3.26,3.26,0,0,1-2.4,1Z"/><path id="Path_35-2" data-name="Path 35" class="cls-3" d="M341.46,450.8a2.91,2.91,0,0,1-2.24-1l-11.85-11.69A3.29,3.29,0,0,1,332,433.5l11.84,11.85a3.28,3.28,0,0,1,0,4.65,5.33,5.33,0,0,1-2.4.8Z"/><path id="Path_36-2" data-name="Path 36" class="cls-3" d="M365.16,403.56a3.21,3.21,0,0,1-3.2-3.2,3.53,3.53,0,0,1,1-2.4l12-11.85a3.28,3.28,0,0,1,4.64,4.64l-.16.16-12,11.85A3.17,3.17,0,0,1,365.16,403.56Z"/><path id="Path_37-2" data-name="Path 37" class="cls-3" d="M341.46,403.56a3.21,3.21,0,0,1-3.2-3.2,3.53,3.53,0,0,1,1-2.4l12-11.85a3.29,3.29,0,0,1,4.64.16,3.24,3.24,0,0,1,0,4.48l-12,11.85A3.84,3.84,0,0,1,341.46,403.56Z"/></g></g></g></svg>