<?xml version="1.0" encoding="UTF-8"?>
<svg xmlns="http://www.w3.org/2000/svg" version="1.1" viewBox="0 0 1920 1080">
  <!-- Generator: Adobe Illustrator 29.8.3, SVG Export Plug-In . SVG Version: 2.1.1 Build 3)  -->
  <defs>
    <style>
      .st0 {
        fill: #d1d3d4;
      }

      .st1 {
        fill: #6d6e71;
      }

      .st2 {
        fill: #bcbec0;
      }

      .st3 {
        isolation: isolate;
      }

      .st4 {
        mix-blend-mode: multiply;
      }

      .st5 {
        fill: #f1f2f2;
      }

      .st6 {
        fill: #fff;
      }

      .st7 {
        fill: #e4c820;
      }

      .st8 {
        fill: #e6e7e8;
      }

      .st9 {
        fill: #a7a9ac;
      }
    </style>
  </defs>
  <g class="st3">
    <g id="Layer_1">
      <polygon class="st7" points="564 540.8 538.3 494 538.3 494 484.5 491.9 484.5 492.1 455.9 536.9 455.9 537 455.9 537 455.9 537 455.9 536.9 455.9 536.9 455.9 537 455.9 537 456 537.1 481.3 583.7 481.3 583.7 531.8 586.8 564 540.8"/>
      <polygon class="st7" points="577.9 537 577.9 537 577.9 537 577.8 537 577.8 537 578 537.1 577.9 537"/>
      <g class="st4">
        <path class="st1" d="M649.8,541c0-8.5-5.3-15.2-15-15.2h-8.6v30.3h8.6c7.9.4,14.7-5.7,15.1-13.6,0-.5,0-1,0-1.5M618.5,562.9v-43.8h16.3c13.7,0,22.9,9,22.9,21.9s-9.3,21.9-22.9,21.9h-16.3Z"/>
        <path class="st1" d="M686.7,526.9l-7.9,20.9h15.7l-7.9-20.9ZM700,562.9l-3.2-8.4h-20.1l-3.2,8.4h-8.7l17.2-43.8h9.6l17.2,43.8h-8.7Z"/>
        <polygon class="st1" points="726.2 562.9 726.2 525.9 713 525.9 713 519.1 747.2 519.1 747.2 525.9 733.9 525.9 733.9 562.9 726.2 562.9"/>
        <path class="st1" d="M773.3,526.9l-7.9,20.9h15.8l-7.9-20.9ZM786.6,562.9l-3.2-8.4h-20.1l-3.2,8.4h-8.7l17.2-43.8h9.5l17.2,43.8h-8.7Z"/>
        <path class="st1" d="M828.2,541c0-13.5,10-22.6,23-22.6,7.2-.2,14,3.6,17.6,9.9l-6.6,3.3c-2.3-3.9-6.5-6.3-11-6.4-8.7,0-15.1,6.6-15.1,15.8s6.4,15.8,15.1,15.8c4.5,0,8.7-2.4,11-6.4l6.6,3.3c-3.6,6.2-10.4,10-17.6,9.8-12.9,0-23-9.2-23-22.6"/>
        <path class="st1" d="M916.4,541c0-9.1-5.7-15.8-14.5-15.8s-14.5,6.8-14.5,15.8,5.6,15.8,14.5,15.8,14.5-6.8,14.5-15.8M879.5,541c0-13.1,9.2-22.6,22.4-22.6s22.4,9.6,22.4,22.6-9.2,22.6-22.4,22.6-22.4-9.6-22.4-22.6"/>
        <polygon class="st1" points="938.2 562.9 938.2 519.1 945.9 519.1 945.9 556.1 965.2 556.1 965.2 562.9 938.2 562.9"/>
        <polygon class="st1" points="978.7 562.9 978.7 519.1 986.4 519.1 986.4 556.1 1005.7 556.1 1005.7 562.9 978.7 562.9"/>
        <path class="st1" d="M1036.6,526.9l-7.9,20.9h15.8l-7.9-20.9ZM1049.9,562.9l-3.2-8.4h-20.1l-3.2,8.4h-8.7l17.2-43.8h9.6l17.2,43.8h-8.7Z"/>
        <path class="st1" d="M1096.9,550c0-3.3-2.3-6-6.7-6h-12.6v12.1h12.6c4.2,0,6.7-2.3,6.7-6.2M1096.1,531.5c0-3.1-2.3-5.7-5.4-5.7-.3,0-.5,0-.8,0h-12.3v11.4h12.3c3,.3,5.8-1.8,6.1-4.9,0-.3,0-.5,0-.8M1070,562.9v-43.8h21.5c8,0,12.5,5,12.5,11.2.2,4.7-3,9-7.6,10,5,1.1,8.6,5.6,8.5,10.8,0,6.7-4.5,11.8-12.7,11.8h-22.1Z"/>
        <path class="st1" d="M1154,541c0-9.1-5.7-15.8-14.5-15.8s-14.5,6.8-14.5,15.8,5.6,15.8,14.5,15.8,14.5-6.8,14.5-15.8M1117.1,541c0-13.1,9.3-22.6,22.4-22.6s22.4,9.6,22.4,22.6-9.3,22.6-22.4,22.6-22.4-9.6-22.4-22.6"/>
        <path class="st1" d="M1201.5,532.8c0-3.8-3-6.9-6.8-7-.2,0-.4,0-.7,0h-10.5v13.9h10.5c3.8.3,7.1-2.5,7.5-6.3,0-.2,0-.4,0-.6M1200.8,562.9l-9.7-16.4h-7.6v16.4h-7.6v-43.8h19.2c8.7,0,14.4,5.6,14.4,13.7.4,6.3-4.1,11.9-10.4,12.9l10.7,17.2h-8.9Z"/>
        <path class="st1" d="M1241,526.9l-7.9,20.9h15.7l-7.9-20.9ZM1254.3,562.9l-3.2-8.4h-20.1l-3.2,8.4h-8.7l17.2-43.8h9.6l17.2,43.8h-8.7Z"/>
        <polygon class="st1" points="1280.5 562.9 1280.5 525.9 1267.3 525.9 1267.3 519.1 1301.5 519.1 1301.5 525.9 1288.2 525.9 1288.2 562.9 1280.5 562.9"/>
        <rect class="st1" x="1314.5" y="519.1" width="7.7" height="43.8"/>
        <polygon class="st1" points="1350.7 562.9 1333.5 519.1 1342.2 519.1 1355.5 554.6 1368.7 519.1 1377.5 519.1 1360.3 562.9 1350.7 562.9"/>
        <polygon class="st1" points="1388.8 562.9 1388.8 519.1 1418.8 519.1 1418.8 525.9 1396.5 525.9 1396.5 537.2 1418.4 537.2 1418.4 544 1396.5 544 1396.5 556.1 1418.8 556.1 1418.8 562.9 1388.8 562.9"/>
        <path class="st1" d="M1430.4,556.7l4.3-5.9c3.6,3.8,8.6,6,13.9,6,6.3,0,8.8-3.1,8.8-6s-4.7-5.1-10-6.5c-7.2-1.8-15.6-3.9-15.6-13.1s6.4-12.8,16-12.8c6.1-.2,12,2,16.4,6.2l-4.4,5.7c-3.4-3.3-8-5.1-12.7-5-4.5,0-7.4,2.2-7.4,5.5s4.5,4.5,9.7,5.8c7.2,1.8,15.8,4.1,15.8,13.6s-5.1,13.5-16.9,13.5c-6.6.3-13.1-2.2-17.8-7"/>
      </g>
      <g class="st4">
        <polygon class="st0" points="492.9 507.9 490.8 569.3 543.1 540.5 492.9 507.9"/>
        <polygon class="st2" points="543.1 540.5 490.8 569.3 532 587.2 543.1 540.5"/>
        <polygon class="st9" points="564.1 541.2 543.1 540.5 532 587.2 564.1 541.2"/>
        <polygon class="st9" points="490.8 569.3 490.8 569.3 481.4 584.2 531.9 587.2 490.8 569.3"/>
        <polygon class="st6" points="484.6 492.4 492.9 507.9 538.3 494.4 484.6 492.4"/>
        <polygon class="st5" points="538.3 494.4 538.3 494.4 492.9 507.9 543.1 540.5 538.3 494.4"/>
        <path class="st8" d="M492.9,507.9l-36.9,29.5,34.9,31.9,2.1-61.4ZM456,537.4h.1c0,.1-.1,0-.1,0Z"/>
        <path class="st5" d="M484.6,492.5l-28.7,44.8h0l36.9-29.5-8.2-15.4ZM455.9,537.4h0Z"/>
        <polygon class="st0" points="455.9 537.3 456 537.4 456 537.4 456.1 537.6 481.4 584.2 490.8 569.3 456 537.4 456 537.4 455.9 537.3"/>
        <polygon class="st8" points="538.3 494.4 543.1 540.5 564.1 541.2 538.3 494.4"/>
      </g>
    </g>
  </g>
</svg>