<svg id="Layer_1" data-name="Layer 1" xmlns="http://www.w3.org/2000/svg" viewBox="0 0 1280 800"><defs><style>.cls-1,.cls-7{fill:#c5165b;}.cls-1,.cls-10,.cls-12,.cls-8{opacity:0.3;}.cls-18,.cls-2,.cls-4{fill:#fff;}.cls-2,.cls-3{opacity:0.25;}.cls-4,.cls-6{opacity:0.2;}.cls-5{opacity:0.1;}.cls-8,.cls-9{fill:#329399;}.cls-10,.cls-11{fill:#3c557a;}.cls-12{fill:#b3b3b3;}.cls-13{fill:#666;}.cls-14{fill:#4d404f;}.cls-15{fill:#dbd6a6;}.cls-16{fill:#e3e0bd;}.cls-17{fill:#a3a17d;}.cls-19{fill:#e3deb8;}.cls-20{fill:#e8e8c9;}.cls-21{fill:#ccc9a8;}.cls-22{fill:#949170;}.cls-23{fill:#d1cfb5;}.cls-24{fill:#339499;}.cls-25{fill:#61a1a6;}.cls-26{fill:#47787a;}</style></defs><polygon class="cls-1" points="1048.54 173.14 1048.54 209.83 1080.31 228.17 1112.08 209.83 1112.08 173.14 1080.31 154.8 1048.54 173.14"/><polygon class="cls-2" points="1080.31 228.17 1112.08 209.83 1112.08 173.14 1080.31 191.44 1080.31 228.17"/><polygon class="cls-3" points="1080.31 228.17 1048.54 209.83 1048.54 173.14 1080.31 191.44 1080.31 228.17"/><polygon class="cls-4" points="1112.06 209.84 1080.29 191.5 1080.29 154.81 1112.06 173.11 1112.06 209.84"/><polygon class="cls-5" points="1080.31 228.17 1048.54 209.83 1080.31 191.44 1112.08 209.83 1080.31 228.17"/><polygon class="cls-6" points="1080.31 209.81 1064.44 200.65 1080.31 191.47 1096.17 200.65 1080.31 209.81"/><polygon class="cls-7" points="1064.44 182.32 1064.44 200.65 1080.31 209.81 1096.17 200.65 1096.17 182.32 1080.31 173.16 1064.44 182.32"/><polygon class="cls-2" points="1080.31 209.81 1096.17 200.65 1096.17 182.32 1080.31 191.47 1080.31 209.81"/><polygon class="cls-3" points="1080.31 209.81 1064.44 200.65 1064.44 182.32 1080.31 191.47 1080.31 209.81"/><polygon class="cls-8" points="1048.54 306.12 1048.54 342.81 1080.31 361.15 1112.08 342.81 1112.08 306.12 1080.31 287.78 1048.54 306.12"/><polygon class="cls-2" points="1080.31 361.15 1112.08 342.81 1112.08 306.12 1080.31 324.42 1080.31 361.15"/><polygon class="cls-3" points="1080.31 361.15 1048.54 342.81 1048.54 306.12 1080.31 324.42 1080.31 361.15"/><polygon class="cls-4" points="1112.06 342.82 1080.29 324.48 1080.29 287.79 1112.06 306.09 1112.06 342.82"/><polygon class="cls-5" points="1080.31 361.15 1048.54 342.81 1080.31 324.42 1112.08 342.81 1080.31 361.15"/><polygon class="cls-6" points="1080.31 342.79 1064.44 333.63 1080.31 324.44 1096.17 333.63 1080.31 342.79"/><polygon class="cls-9" points="1064.44 315.3 1064.44 333.63 1080.31 342.79 1096.17 333.63 1096.17 315.3 1080.31 306.14 1064.44 315.3"/><polygon class="cls-2" points="1080.31 342.79 1096.17 333.63 1096.17 315.3 1080.31 324.44 1080.31 342.79"/><polygon class="cls-3" points="1080.31 342.79 1064.44 333.63 1064.44 315.3 1080.31 324.44 1080.31 342.79"/><polygon class="cls-10" points="1048.54 439.1 1048.54 475.79 1080.31 494.13 1112.08 475.79 1112.08 439.1 1080.31 420.76 1048.54 439.1"/><polygon class="cls-2" points="1080.31 494.13 1112.08 475.79 1112.08 439.1 1080.31 457.4 1080.31 494.13"/><polygon class="cls-3" points="1080.31 494.13 1048.54 475.79 1048.54 439.1 1080.31 457.4 1080.31 494.13"/><polygon class="cls-4" points="1112.06 475.8 1080.29 457.45 1080.29 420.77 1112.06 439.07 1112.06 475.8"/><polygon class="cls-5" points="1080.31 494.13 1048.54 475.79 1080.31 457.4 1112.08 475.79 1080.31 494.13"/><polygon class="cls-6" points="1080.31 475.76 1064.44 466.6 1080.31 457.42 1096.17 466.6 1080.31 475.76"/><polygon class="cls-11" points="1064.44 448.28 1064.44 466.6 1080.31 475.76 1096.17 466.6 1096.17 448.28 1080.31 439.12 1064.44 448.28"/><polygon class="cls-2" points="1080.31 475.76 1096.17 466.6 1096.17 448.28 1080.31 457.42 1080.31 475.76"/><polygon class="cls-3" points="1080.31 475.76 1064.44 466.6 1064.44 448.28 1080.31 457.42 1080.31 475.76"/><polygon class="cls-12" points="1049.83 572.14 1049.83 608.83 1081.6 627.17 1113.38 608.83 1113.38 572.14 1081.6 553.79 1049.83 572.14"/><polygon class="cls-2" points="1081.6 627.17 1113.38 608.83 1113.38 572.14 1081.6 590.44 1081.6 627.17"/><polygon class="cls-3" points="1081.6 627.17 1049.83 608.83 1049.83 572.14 1081.6 590.44 1081.6 627.17"/><polygon class="cls-4" points="1113.36 608.84 1081.59 590.49 1081.59 553.8 1113.36 572.11 1113.36 608.84"/><polygon class="cls-5" points="1081.6 627.17 1049.83 608.83 1081.6 590.44 1113.38 608.83 1081.6 627.17"/><polygon class="cls-6" points="1081.6 608.8 1065.74 599.64 1081.6 590.46 1097.47 599.64 1081.6 608.8"/><polygon class="cls-13" points="1065.74 581.32 1065.74 599.64 1081.6 608.8 1097.47 599.64 1097.47 581.32 1081.6 572.16 1065.74 581.32"/><polygon class="cls-2" points="1081.6 608.8 1097.47 599.64 1097.47 581.32 1081.6 590.46 1081.6 608.8"/><polygon class="cls-3" points="1081.6 608.8 1065.74 599.64 1065.74 581.32 1081.6 590.46 1081.6 608.8"/><path class="cls-14" d="M277.07,428.33c0-9.78-6-17.32-17.32-17.32h-10v34.56h10c10.94,0,17.32-7.87,17.32-17.24m-39.13,27.6V400.65h21.81c17.32,0,29.34,11,29.34,27.68s-12,27.6-29.34,27.6Z"/><path class="cls-14" d="M324.15,412.42l-8.62,23.79h17.24Zm15.26,43.51-3.4-9.36H312.3l-3.48,9.36H295.39l21.39-55.28h14.75l21.3,55.28Z"/><polygon class="cls-14" points="372.07 455.93 372.07 411.01 355.9 411.01 355.9 400.65 400 400.65 400 411.01 383.92 411.01 383.92 455.93 372.07 455.93"/><path class="cls-14" d="M431.75,412.42l-8.62,23.79h17.24ZM447,455.93l-3.39-9.36H419.9l-3.48,9.36H403l21.38-55.28h14.76l21.3,55.28Z"/><path class="cls-14" d="M242.29,535.2l6.38-9a24.26,24.26,0,0,0,17.58,7.46c6.46,0,9.61-3,9.61-6.13,0-4.06-5.14-5.22-11.19-6.71-9-2.08-20.64-4.56-20.64-17.16,0-9.2,8-16.83,21-16.83,8.79,0,16.09,2.65,21.56,7.71L280,503.2a23.74,23.74,0,0,0-16.08-6.05c-5.06,0-7.88,2.24-7.88,5.55,0,3.57,5.06,4.73,11,6.14,9.11,2.15,20.72,4.89,20.72,17.4,0,10.12-7.21,17.74-22.13,17.74-10.61,0-18.24-3.56-23.38-8.78"/><polygon class="cls-14" points="315.16 542.99 315.16 498.06 298.99 498.06 298.99 487.7 343.09 487.7 343.09 498.06 327.01 498.06 327.01 542.99 315.16 542.99"/><polygon class="cls-14" points="357.27 542.99 357.27 487.7 396.39 487.7 396.39 498.06 369.04 498.06 369.04 509.75 395.81 509.75 395.81 520.11 369.04 520.11 369.04 532.63 396.39 532.63 396.39 542.99 357.27 542.99"/><polygon class="cls-14" points="454.5 542.99 444.8 505.02 435.19 542.99 422.67 542.99 406.84 487.7 420.02 487.7 429.72 527.65 440.24 487.7 449.44 487.7 459.89 527.65 469.5 487.7 482.77 487.7 467.02 542.99 454.5 542.99"/><path class="cls-14" d="M514.19,499.47l-8.62,23.79h17.24ZM529.44,543l-3.4-9.37H502.33L498.85,543H485.42l21.39-55.29h14.76L542.87,543Z"/><path class="cls-14" d="M587.05,505.52c0-4.64-3.56-7.46-8.29-7.46H566.41V513h12.35c4.73,0,8.29-2.82,8.29-7.46M585.89,543,575,523.34h-8.62V543H554.64V487.7H580.5c11.52,0,18.57,7.54,18.57,17.82,0,9.78-6.13,15-12.1,16.41L599.4,543Z"/><path class="cls-14" d="M653.7,515.38c0-9.78-6-17.32-17.33-17.32h-10v34.57h10c11,0,17.33-7.88,17.33-17.25M614.57,543V487.7h21.8c17.33,0,29.35,11,29.35,27.68S653.7,543,636.37,543Z"/><path class="cls-14" d="M677,535.2l6.39-9A24.22,24.22,0,0,0,701,533.7c6.46,0,9.61-3,9.61-6.13,0-4.06-5.14-5.22-11.19-6.71-9-2.08-20.64-4.56-20.64-17.16,0-9.2,8-16.83,21-16.83,8.79,0,16.09,2.65,21.56,7.71l-6.55,8.62a23.74,23.74,0,0,0-16.08-6.05c-5.06,0-7.88,2.24-7.88,5.55,0,3.57,5.06,4.73,11,6.14,9.12,2.15,20.72,4.89,20.72,17.4,0,10.12-7.21,17.74-22.13,17.74-10.61,0-18.24-3.56-23.38-8.78"/><polygon class="cls-15" points="237.94 217.7 181.68 250.19 181.68 315.15 237.94 347.64 294.21 315.15 294.21 250.19 237.94 217.7"/><polygon class="cls-16" points="294.18 250.21 294.18 315.14 294.21 315.16 294.21 250.19 294.18 250.21"/><polygon class="cls-17" points="181.68 315.15 237.94 347.64 181.68 315.15 209.85 298.86 209.85 266.45 209.88 266.43 181.68 250.19 181.68 315.15"/><path class="cls-18" d="M294.17,315.17h0Zm0-65v0L266,233.91Z"/><polygon class="cls-19" points="237.91 250.24 237.94 250.22 266.01 266.43 294.18 250.21 294.18 250.17 266.02 233.91 237.91 217.72 237.91 250.24"/><polygon class="cls-20" points="294.18 250.21 266.01 266.43 266.04 266.45 266.04 298.86 294.18 315.14 294.18 250.21"/><path class="cls-21" d="M266,298.91l-28.07,16.21v32.52l56.24-32.47Zm28.17,16.23v0l0,0Z"/><polygon class="cls-22" points="181.68 315.15 237.94 347.64 237.94 315.12 209.85 298.89 209.85 298.86 181.68 315.15"/><polygon class="cls-23" points="266.04 298.86 266.04 298.89 266.01 298.91 294.18 315.17 294.18 315.14 266.04 298.86"/><polygon class="cls-24" points="209.84 266.45 209.84 298.89 237.94 315.12 266.04 298.89 266.04 266.45 237.94 250.23 209.84 266.45"/><polygon class="cls-25" points="266.04 266.45 237.94 282.63 237.94 315.12 266.04 298.89 266.04 266.45"/><polygon class="cls-26" points="209.84 266.45 209.84 266.45 209.84 298.89 237.94 315.12 237.94 282.63 209.84 266.45"/></svg>