<?xml version="1.0" encoding="utf-8"?>
<!-- Generator: Adobe Illustrator 24.3.0, SVG Export Plug-In . SVG Version: 6.00 Build 0)  -->
<svg version="1.1" id="Layer_1" xmlns="http://www.w3.org/2000/svg" xmlns:xlink="http://www.w3.org/1999/xlink" x="0px" y="0px"
	 viewBox="0 0 1280 800" style="enable-background:new 0 0 1280 800;" xml:space="preserve">
<style type="text/css">
	.st0{fill:#DBD7A5;}
	.st1{opacity:0.25;fill:#FFFFFF;enable-background:new    ;}
	.st2{opacity:0.25;enable-background:new    ;}
	.st3{opacity:0.2;fill:#FFFFFF;enable-background:new    ;}
	.st4{opacity:0.1;enable-background:new    ;}
	.st5{opacity:0.2;enable-background:new    ;}
	.st6{fill:#4D404E;}
	.st7{fill:#329399;}
</style>
<polygon class="st0" points="238.9,364.6 238.9,422 288.6,450.7 338.3,422 338.3,364.6 288.6,336 "/>
<polygon class="st1" points="288.6,450.7 338.3,422 338.3,364.6 288.6,393.3 "/>
<polygon class="st2" points="288.6,450.7 238.9,422 238.9,364.6 288.6,393.3 "/>
<polygon class="st3" points="338.3,422 288.6,393.4 288.6,336 338.3,364.6 "/>
<polygon class="st4" points="288.6,450.7 238.9,422 288.6,393.3 338.3,422 "/>
<polygon class="st5" points="288.6,422 263.8,407.7 288.6,393.3 313.5,407.7 "/>
<path class="st6" d="M406,369.2h19.3c15.3,0,25.9,9.7,25.9,24.4S440.6,418,425.3,418H406V369.2z M425.2,408.9
	c8.1,0.4,14.9-5.9,15.3-13.9c0-0.4,0-0.9,0-1.3c0-8.6-5.3-15.3-15.3-15.3h-8.9v30.5L425.2,408.9L425.2,408.9z"/>
<path class="st6" d="M493,409.6h-21.8l-3.1,8.4h-11.4l19-48.8h13l18.8,48.8h-11.3L493,409.6z M474,400.6h16.2l-8.1-22.4L474,400.6z"
	/>
<path class="st6" d="M524.4,378.4h-14.3v-9.2h39v9.2h-14.2V418h-10.5V378.4z"/>
<path class="st6" d="M588.1,409.6h-21.8l-3.1,8.4h-11.4l18.9-48.8h13l18.8,48.8h-11.3L588.1,409.6z M569.1,400.7h16.2l-8.1-22.4
	L569.1,400.7z"/>
<path class="st6" d="M639.8,403.3c4.1,4.2,9.7,6.6,15.5,6.6c5.7,0,8.5-2.7,8.5-5.5c0-3.7-4.2-4.9-9.9-6.2c-8-1.8-18.2-4-18.2-14.9
	c0-8.1,7-14.7,18.5-14.7c7-0.2,13.8,2.2,19,6.9l-5.8,7.6c-3.8-3.5-8.8-5.4-14-5.3c-4.7,0-7.2,2.1-7.2,5c0,3.3,4.1,4.3,9.7,5.6
	c8.1,1.8,18.3,4.2,18.3,15.1c0,8.9-6.4,15.7-19.6,15.7c-9.4,0-16.1-3.2-20.7-7.8L639.8,403.3z"/>
<path class="st6" d="M698.1,378.4h-14.3v-9.2h39v9.2h-14.2V418h-10.5V378.4z"/>
<path class="st6" d="M735.3,369.2h34.6v8.9h-24.1v10.6h23.7v8.9h-23.7v11.3h24.1v9h-34.5L735.3,369.2L735.3,369.2z"/>
<path class="st6" d="M812.6,384.5l-8.5,33.6H793l-14-48.8h11.6l8.6,35.3l9.3-35.3h8.1l9.3,35.3l8.5-35.3h11.7l-13.9,48.8h-11.1
	L812.6,384.5z"/>
<path class="st6" d="M884.8,409.6H863l-3.1,8.4h-11.5l19-48.8h13l18.8,48.8h-11.3L884.8,409.6z M865.8,400.6H882l-8.1-22.4
	L865.8,400.6z"/>
<path class="st6" d="M927.6,400.6H920v17.5h-10.3v-48.8h22.8c10.2,0,16.4,6.7,16.4,15.7c0,8.6-5.4,13.3-10.7,14.5l11,18.6h-11.9
	L927.6,400.6z M930.9,378.2H920v13.5h10.9c4.2,0,7.3-2.6,7.3-6.7S935.1,378.2,930.9,378.2z"/>
<path class="st6" d="M962.6,369.2h19.3c15.3,0,25.9,9.7,25.9,24.4S997.2,418,981.9,418h-19.3V369.2z M981.8,408.9
	c8.1,0.4,14.9-5.8,15.3-13.9c0-0.4,0-0.9,0-1.3c0-8.6-5.3-15.3-15.3-15.3H973v30.5L981.8,408.9L981.8,408.9z"/>
<path class="st6" d="M1023.3,403.3c4.1,4.2,9.7,6.6,15.5,6.6c5.7,0,8.5-2.7,8.5-5.5c0-3.7-4.2-4.9-9.9-6.2c-8-1.8-18.2-4-18.2-14.9
	c0-8.1,7-14.7,18.5-14.7c7-0.2,13.8,2.2,19,6.9l-5.8,7.6c-3.8-3.4-8.8-5.4-14-5.3c-4.7,0-7.2,2.1-7.2,5c0,3.3,4.1,4.3,9.7,5.6
	c8.1,1.8,18.3,4.2,18.3,15.1c0,8.9-6.4,15.7-19.6,15.7c-9.4,0-16.1-3.2-20.7-7.8L1023.3,403.3z"/>
<polygon class="st7" points="263.8,379 263.8,407.7 288.6,422 313.5,407.7 313.5,379 288.6,364.7 "/>
<polygon class="st1" points="288.6,422 313.5,407.7 313.5,379 288.6,393.3 "/>
<polygon class="st2" points="288.6,422 263.8,407.7 263.8,379 288.6,393.3 "/>
</svg>
