<svg xmlns="http://www.w3.org/2000/svg" viewBox="0 0 1280 800"><defs><style>.cls-1{isolation:isolate;}.cls-2{fill:#e4c820;}.cls-3{mix-blend-mode:multiply;}.cls-4{fill:#6d6e71;}.cls-5{fill:#d1d3d4;}.cls-6{fill:#bcbec0;}.cls-7{fill:#a7a9ac;}.cls-8{fill:#fff;}.cls-9{fill:#f1f2f2;}.cls-10{fill:#e6e7e8;}</style></defs><g class="cls-1"><g id="Layer_1" data-name="Layer 1"><rect class="cls-2" y="399.87" width="879.74" height="400.26" transform="translate(879.74 1200) rotate(180)"/><rect class="cls-2" x="879.74" width="400.26" height="400.26" transform="translate(2159.74 400.26) rotate(180)"/><polygon class="cls-2" points="225.58 200.73 213.04 177.89 213.04 177.89 186.81 176.89 186.81 176.97 172.87 198.85 172.88 198.86 172.88 198.86 172.88 198.86 172.87 198.85 172.84 198.83 172.86 198.86 172.87 198.87 172.91 198.94 185.25 221.66 185.25 221.66 209.88 223.15 225.58 200.73"/><polygon class="cls-2" points="232.35 198.87 232.35 198.87 232.35 198.86 232.33 198.88 232.33 198.88 232.39 198.94 232.35 198.87"/><g class="cls-3"><path class="cls-4" d="M267.41,200.85c0-4.13-2.57-7.4-7.34-7.4h-4.19v14.76h4.19a7,7,0,0,0,7.34-7.36m-15.27,10.66V190.16h7.93c6.66,0,11.18,4.41,11.18,10.69s-4.52,10.66-11.18,10.66Z"/><path class="cls-4" d="M285.43,193.93l-3.84,10.18h7.68Zm6.46,17.58-1.56-4.1h-9.8l-1.57,4.1H274.7l8.39-21.35h4.68l8.38,21.35Z"/><polygon class="cls-4" points="304.7 211.51 304.7 193.45 298.23 193.45 298.23 190.16 314.91 190.16 314.91 193.45 308.44 193.45 308.44 211.51 304.7 211.51"/><path class="cls-4" d="M327.68,193.93l-3.84,10.18h7.69Zm6.47,17.58-1.57-4.1h-9.79l-1.57,4.1H317l8.39-21.35H330l8.39,21.35Z"/><path class="cls-4" d="M354.42,200.85c0-6.57,4.89-11,11.2-11a9.64,9.64,0,0,1,8.58,4.81l-3.2,1.63a6.36,6.36,0,0,0-5.38-3.11c-4.23,0-7.36,3.23-7.36,7.72s3.13,7.71,7.36,7.71a6.29,6.29,0,0,0,5.38-3.1l3.2,1.63a9.69,9.69,0,0,1-8.58,4.8c-6.31,0-11.2-4.48-11.2-11"/><path class="cls-4" d="M397.44,200.85c0-4.42-2.79-7.72-7.08-7.72s-7.07,3.3-7.07,7.72,2.75,7.71,7.07,7.71,7.08-3.33,7.08-7.71m-18,0c0-6.37,4.51-11,10.91-11s10.92,4.68,10.92,11-4.51,11-10.92,11-10.91-4.67-10.91-11"/><polygon class="cls-4" points="408.1 211.51 408.1 190.16 411.85 190.16 411.85 208.21 421.26 208.21 421.26 211.51 408.1 211.51"/><polygon class="cls-4" points="427.85 211.51 427.85 190.16 431.6 190.16 431.6 208.21 441.01 208.21 441.01 211.51 427.85 211.51"/><path class="cls-4" d="M456.09,193.93l-3.85,10.18h7.69Zm6.46,17.58-1.56-4.1h-9.8l-1.57,4.1h-4.26l8.39-21.35h4.67l8.39,21.35Z"/><path class="cls-4" d="M485.51,205.23c0-1.6-1.12-2.94-3.27-2.94h-6.15v5.92h6.15c2.05,0,3.27-1.12,3.27-3m-.42-9a2.72,2.72,0,0,0-3-2.79h-6V199h6a2.7,2.7,0,0,0,3-2.75m-12.74,15.27V190.16h10.5c3.91,0,6.08,2.43,6.08,5.44a4.78,4.78,0,0,1-3.71,4.89,5.27,5.27,0,0,1,4.13,5.26c0,3.29-2.21,5.76-6.21,5.76Z"/><path class="cls-4" d="M513.32,200.85c0-4.42-2.78-7.72-7.07-7.72s-7.07,3.3-7.07,7.72,2.75,7.71,7.07,7.71,7.07-3.33,7.07-7.71m-18,0c0-6.37,4.52-11,10.92-11s10.92,4.68,10.92,11-4.52,11-10.92,11-10.92-4.67-10.92-11"/><path class="cls-4" d="M536.5,196.85a3.37,3.37,0,0,0-3.65-3.4h-5.12v6.79h5.12a3.37,3.37,0,0,0,3.65-3.39m-.32,14.66-4.74-8h-3.71v8H524V190.16h9.38c4.22,0,7,2.75,7,6.69a6,6,0,0,1-5.05,6.27l5.21,8.39Z"/><path class="cls-4" d="M555.77,193.93l-3.84,10.18h7.68Zm6.47,17.58-1.57-4.1h-9.79l-1.57,4.1h-4.26l8.39-21.35h4.67l8.39,21.35Z"/><polygon class="cls-4" points="575.05 211.51 575.05 193.45 568.58 193.45 568.58 190.16 585.26 190.16 585.26 193.45 578.79 193.45 578.79 211.51 575.05 211.51"/><rect class="cls-4" x="591.63" y="190.16" width="3.75" height="21.35"/><polygon class="cls-4" points="609.27 211.51 600.88 190.16 605.14 190.16 611.6 207.44 618.07 190.16 622.33 190.16 613.94 211.51 609.27 211.51"/><polygon class="cls-4" points="627.87 211.51 627.87 190.16 642.5 190.16 642.5 193.45 631.61 193.45 631.61 198.99 642.27 198.99 642.27 202.29 631.61 202.29 631.61 208.21 642.5 208.21 642.5 211.51 627.87 211.51"/><path class="cls-4" d="M648.16,208.5l2.08-2.88a9.22,9.22,0,0,0,6.76,2.94c3.07,0,4.29-1.5,4.29-2.91,0-1.92-2.28-2.5-4.87-3.17-3.49-.87-7.59-1.89-7.59-6.4,0-3.52,3.11-6.25,7.78-6.25a11.14,11.14,0,0,1,8,3l-2.15,2.79a8.66,8.66,0,0,0-6.18-2.44c-2.21,0-3.62,1.06-3.62,2.66s2.18,2.21,4.71,2.85c3.52.9,7.72,2,7.72,6.63,0,3.55-2.5,6.59-8.26,6.59a11.46,11.46,0,0,1-8.68-3.39"/></g><g class="cls-3"><polygon class="cls-5" points="190.91 184.69 189.86 214.63 215.38 200.58 190.91 184.69"/><polygon class="cls-6" points="215.38 200.59 189.86 214.63 209.97 223.37 215.38 200.59"/><polygon class="cls-7" points="225.61 200.94 215.38 200.59 209.97 223.37 225.61 200.94"/><polygon class="cls-7" points="189.86 214.63 189.86 214.63 185.28 221.88 209.91 223.37 189.86 214.63"/><polygon class="cls-8" points="186.84 177.11 190.91 184.69 213.07 178.1 186.84 177.11"/><polygon class="cls-9" points="213.07 178.1 213.07 178.1 190.91 184.69 215.38 200.59 213.07 178.1"/><path class="cls-10" d="M190.91,184.69l-18,14.38,17,15.56Zm-18,14.39,0,0,.07.06Z"/><path class="cls-9" d="M186.84,177.19l-14,21.87h0l18-14.38Zm-14,21.88,0,0,0,0Z"/><polygon class="cls-5" points="172.87 199.04 172.89 199.07 172.89 199.08 172.94 199.16 185.28 221.88 189.86 214.63 172.91 199.07 172.89 199.06 172.87 199.04"/><polygon class="cls-10" points="213.07 178.1 215.38 200.59 225.61 200.94 213.07 178.1"/></g><g class="cls-3"><path class="cls-4" d="M267.41,601.17c0-4.13-2.57-7.4-7.34-7.4h-4.19v14.76h4.19a7,7,0,0,0,7.34-7.36m-15.27,10.66V590.48h7.93c6.66,0,11.18,4.41,11.18,10.69s-4.52,10.66-11.18,10.66Z"/><path class="cls-4" d="M285.43,594.25l-3.84,10.18h7.68Zm6.46,17.58-1.56-4.1h-9.8l-1.57,4.1H274.7l8.39-21.35h4.68l8.38,21.35Z"/><polygon class="cls-4" points="304.7 611.83 304.7 593.77 298.23 593.77 298.23 590.48 314.91 590.48 314.91 593.77 308.44 593.77 308.44 611.83 304.7 611.83"/><path class="cls-4" d="M327.68,594.25l-3.84,10.18h7.69Zm6.47,17.58-1.57-4.1h-9.79l-1.57,4.1H317l8.39-21.35H330l8.39,21.35Z"/><path class="cls-4" d="M354.42,601.17c0-6.56,4.89-11,11.2-11a9.66,9.66,0,0,1,8.58,4.81l-3.2,1.63a6.36,6.36,0,0,0-5.38-3.11c-4.23,0-7.36,3.24-7.36,7.72s3.13,7.71,7.36,7.71a6.29,6.29,0,0,0,5.38-3.1l3.2,1.63a9.69,9.69,0,0,1-8.58,4.8c-6.31,0-11.2-4.48-11.2-11"/><path class="cls-4" d="M397.44,601.17c0-4.42-2.79-7.72-7.08-7.72s-7.07,3.3-7.07,7.72,2.75,7.71,7.07,7.71,7.08-3.33,7.08-7.71m-18,0c0-6.37,4.51-11,10.91-11s10.92,4.68,10.92,11-4.51,11-10.92,11-10.91-4.67-10.91-11"/><polygon class="cls-4" points="408.1 611.83 408.1 590.48 411.85 590.48 411.85 608.53 421.26 608.53 421.26 611.83 408.1 611.83"/><polygon class="cls-4" points="427.85 611.83 427.85 590.48 431.6 590.48 431.6 608.53 441.01 608.53 441.01 611.83 427.85 611.83"/><path class="cls-4" d="M456.09,594.25l-3.85,10.18h7.69Zm6.46,17.58-1.56-4.1h-9.8l-1.57,4.1h-4.26l8.39-21.35h4.67l8.39,21.35Z"/><path class="cls-4" d="M485.51,605.55c0-1.6-1.12-2.94-3.27-2.94h-6.15v5.92h6.15c2.05,0,3.27-1.12,3.27-3m-.42-9a2.72,2.72,0,0,0-3-2.79h-6v5.54h6a2.7,2.7,0,0,0,3-2.75m-12.74,15.27V590.48h10.5c3.91,0,6.08,2.43,6.08,5.44a4.8,4.8,0,0,1-3.71,4.9,5.25,5.25,0,0,1,4.13,5.25c0,3.29-2.21,5.76-6.21,5.76Z"/><path class="cls-4" d="M513.32,601.17c0-4.42-2.78-7.72-7.07-7.72s-7.07,3.3-7.07,7.72,2.75,7.71,7.07,7.71,7.07-3.33,7.07-7.71m-18,0c0-6.37,4.52-11,10.92-11s10.92,4.68,10.92,11-4.52,11-10.92,11-10.92-4.67-10.92-11"/><path class="cls-4" d="M536.5,597.17a3.37,3.37,0,0,0-3.65-3.4h-5.12v6.79h5.12a3.36,3.36,0,0,0,3.65-3.39m-.32,14.66-4.74-8h-3.71v8H524V590.48h9.38c4.22,0,7,2.75,7,6.69a6,6,0,0,1-5.05,6.27l5.21,8.39Z"/><path class="cls-4" d="M555.77,594.25l-3.84,10.18h7.68Zm6.47,17.58-1.57-4.1h-9.79l-1.57,4.1h-4.26l8.39-21.35h4.67l8.39,21.35Z"/><polygon class="cls-4" points="575.05 611.83 575.05 593.77 568.58 593.77 568.58 590.48 585.26 590.48 585.26 593.77 578.79 593.77 578.79 611.83 575.05 611.83"/><rect class="cls-4" x="591.63" y="590.48" width="3.75" height="21.35"/><polygon class="cls-4" points="609.27 611.83 600.88 590.48 605.14 590.48 611.6 607.76 618.07 590.48 622.33 590.48 613.94 611.83 609.27 611.83"/><polygon class="cls-4" points="627.87 611.83 627.87 590.48 642.5 590.48 642.5 593.77 631.61 593.77 631.61 599.31 642.27 599.31 642.27 602.61 631.61 602.61 631.61 608.53 642.5 608.53 642.5 611.83 627.87 611.83"/><path class="cls-4" d="M648.16,608.82l2.08-2.88a9.22,9.22,0,0,0,6.76,2.94c3.07,0,4.29-1.5,4.29-2.91,0-1.92-2.28-2.5-4.87-3.17-3.49-.86-7.59-1.89-7.59-6.4,0-3.52,3.11-6.24,7.78-6.24a11.13,11.13,0,0,1,8,3l-2.15,2.79a8.65,8.65,0,0,0-6.18-2.43c-2.21,0-3.62,1-3.62,2.65s2.18,2.21,4.71,2.85c3.52.9,7.72,2,7.72,6.63,0,3.55-2.5,6.59-8.26,6.59a11.42,11.42,0,0,1-8.68-3.39"/></g><g class="cls-3"><polygon class="cls-5" points="190.91 584.45 189.86 614.38 215.38 600.34 190.91 584.45"/><polygon class="cls-6" points="215.38 600.34 189.86 614.38 209.97 623.13 215.38 600.34"/><polygon class="cls-7" points="225.61 600.7 215.38 600.35 209.97 623.13 225.61 600.7"/><polygon class="cls-7" points="189.86 614.38 189.86 614.38 185.28 621.64 209.91 623.13 189.86 614.38"/><polygon class="cls-8" points="186.84 576.87 190.91 584.45 213.07 577.86 186.84 576.87"/><polygon class="cls-9" points="213.07 577.86 213.07 577.86 190.91 584.45 215.38 600.34 213.07 577.86"/><path class="cls-10" d="M190.91,584.45l-18,14.38,17,15.56Zm-18,14.39,0,0,.07.06Z"/><path class="cls-9" d="M186.84,577l-14,21.87h0l18-14.38Zm-14,21.88,0,0,0,0Z"/><polygon class="cls-5" points="172.87 598.8 172.89 598.83 172.89 598.84 172.94 598.92 185.28 621.64 189.86 614.39 172.91 598.83 172.89 598.82 172.87 598.8"/><polygon class="cls-10" points="213.07 577.86 215.38 600.34 225.61 600.7 213.07 577.86"/></g><polygon class="cls-2" points="1121.03 42.75 1098.55 1.81 1098.55 1.81 1051.53 0.02 1051.52 0.17 1026.53 39.39 1026.55 39.4 1026.55 39.4 1026.55 39.4 1026.53 39.39 1026.49 39.35 1026.52 39.4 1026.53 39.42 1026.6 39.56 1048.73 80.28 1048.73 80.29 1092.88 82.96 1121.03 42.75"/><polygon class="cls-2" points="1133.17 39.42 1133.17 39.42 1133.16 39.4 1133.13 39.45 1133.13 39.45 1133.24 39.56 1133.17 39.42"/><g class="cls-3"><polygon class="cls-5" points="1079.27 174.41 1077.4 228.08 1123.14 202.91 1079.27 174.41"/><polygon class="cls-6" points="1123.14 202.91 1077.4 228.08 1113.45 243.76 1123.14 202.91"/><polygon class="cls-7" points="1141.48 203.55 1123.14 202.91 1113.45 243.76 1141.48 203.55"/><polygon class="cls-7" points="1077.4 228.08 1077.4 228.08 1069.18 241.08 1113.33 243.75 1077.4 228.08"/><polygon class="cls-8" points="1071.98 160.82 1079.27 174.41 1119 162.6 1071.98 160.82"/><polygon class="cls-9" points="1119 162.61 1119 162.61 1079.27 174.41 1123.14 202.91 1119 162.61"/><path class="cls-10" d="M1079.27,174.41,1047,200.2l30.4,27.88ZM1047,200.21l0,0,.12.1Z"/><path class="cls-9" d="M1072,161l-25,39.22,0,0,32.27-25.79Zm-25,39.24,0,.05,0,0Z"/><polygon class="cls-5" points="1046.94 200.15 1046.97 200.2 1046.98 200.21 1047.06 200.35 1069.18 241.08 1077.4 228.08 1047 200.2 1046.98 200.18 1046.94 200.15"/><polygon class="cls-10" points="1119 162.61 1123.14 202.91 1141.48 203.55 1119 162.61"/></g><polygon class="cls-2" points="1143.45 601.12 1119.87 558.17 1119.87 558.17 1070.54 556.29 1070.54 556.45 1044.32 597.59 1044.34 597.6 1044.34 597.61 1044.34 597.6 1044.32 597.59 1044.28 597.55 1044.31 597.6 1044.32 597.62 1044.39 597.76 1067.6 640.49 1067.6 640.49 1113.92 643.29 1143.45 601.12"/><g class="cls-3"><polygon class="cls-5" points="1078.24 570.95 1076.28 627.25 1124.26 600.85 1078.24 570.95"/><polygon class="cls-6" points="1124.26 600.85 1076.28 627.26 1114.1 643.71 1124.26 600.85"/><polygon class="cls-7" points="1143.5 601.52 1124.26 600.85 1114.1 643.7 1143.5 601.52"/><polygon class="cls-7" points="1076.28 627.26 1076.28 627.26 1067.66 640.9 1113.97 643.7 1076.28 627.26"/><polygon class="cls-8" points="1070.6 556.7 1078.24 570.95 1119.92 558.57 1070.6 556.7"/><polygon class="cls-9" points="1119.92 558.57 1119.92 558.57 1078.24 570.95 1124.26 600.85 1119.92 558.57"/><path class="cls-10" d="M1078.24,571,1044.39,598l31.89,29.25ZM1044.37,598l0,0,.12.11Z"/><path class="cls-9" d="M1070.59,556.85,1044.37,598l0,0L1078.24,571ZM1044.36,598l0,0,0,0Z"/><polygon class="cls-5" points="1044.33 597.96 1044.36 598.01 1044.37 598.02 1044.45 598.17 1067.66 640.89 1076.28 627.26 1044.39 598.01 1044.37 597.99 1044.33 597.96"/><polygon class="cls-10" points="1119.92 558.57 1124.26 600.85 1143.51 601.52 1119.92 558.57"/></g></g></g></svg>