<?xml version="1.0" encoding="utf-8"?>
<!-- Generator: Adobe Illustrator 24.3.0, SVG Export Plug-In . SVG Version: 6.00 Build 0)  -->
<svg version="1.1" id="Layer_1" xmlns="http://www.w3.org/2000/svg" xmlns:xlink="http://www.w3.org/1999/xlink" x="0px" y="0px"
	 viewBox="0 0 1280 800" style="enable-background:new 0 0 1280 800;" xml:space="preserve">
<style type="text/css">
	.st0{fill:#4D404E;}
	.st1{fill:#DBD7A5;}
	.st2{opacity:0.25;fill:#FFFFFF;enable-background:new    ;}
	.st3{opacity:0.25;enable-background:new    ;}
	.st4{opacity:0.2;fill:#FFFFFF;enable-background:new    ;}
	.st5{opacity:0.1;enable-background:new    ;}
	.st6{opacity:0.2;enable-background:new    ;}
	.st7{fill:#329399;}
	.st8{fill:#FFFFFF;}
</style>
<rect x="880.3" y="0.5" class="st0" width="399.2" height="399.2"/>
<rect x="0.5" y="399.7" class="st0" width="879.8" height="399.2"/>
<polygon class="st1" points="202.5,181.1 202.5,214.4 231.3,231 260.2,214.4 260.2,181.1 231.3,164.4 "/>
<polygon class="st2" points="231.3,231 260.2,214.4 260.2,181.1 231.3,197.7 "/>
<polygon class="st3" points="231.3,231 202.5,214.4 202.5,181.1 231.3,197.7 "/>
<polygon class="st4" points="260.1,214.4 231.3,197.7 231.3,164.5 260.1,181.1 "/>
<polygon class="st5" points="231.3,231 202.5,214.4 231.3,197.7 260.2,214.4 "/>
<polygon class="st6" points="231.3,214.4 216.9,206 231.3,197.7 245.7,206 "/>
<path class="st0" d="M299.4,183.8h11.2c8.9,0,15,5.6,15,14.2s-6.2,14.1-15,14.1h-11.2V183.8z M310.6,206.8c4.7,0.2,8.6-3.4,8.9-8.1
	c0-0.3,0-0.5,0-0.8c0-5-3.1-8.9-8.9-8.9h-5.1v17.7H310.6z"/>
<path class="st0" d="M349.9,207.2h-12.6l-1.8,4.9h-6.6l11-28.3h7.6l10.9,28.3h-6.6L349.9,207.2z M338.9,202h9.4l-4.7-13L338.9,202z"
	/>
<path class="st0" d="M368.1,189.1h-8.3v-5.3h22.6v5.3h-8.2v23h-6.1L368.1,189.1z"/>
<path class="st0" d="M405,207.2h-12.6l-1.8,4.9h-6.6l11-28.3h7.6l10.9,28.3h-6.6L405,207.2z M394,202h9.4l-4.7-13L394,202z"/>
<path class="st0" d="M435,203.5c2.4,2.4,5.6,3.8,9,3.8c3.3,0,4.9-1.6,4.9-3.2c0-2.1-2.5-2.8-5.7-3.6c-4.6-1.1-10.6-2.3-10.6-8.7
	c0-4.7,4.1-8.5,10.8-8.5c4-0.1,8,1.3,11,4l-3.4,4.4c-2.2-2-5.1-3.1-8.1-3.1c-2.7,0-4.2,1.2-4.2,2.9c0,1.9,2.4,2.5,5.6,3.3
	c4.7,1.1,10.6,2.5,10.6,8.8c0,5.2-3.7,9.1-11.3,9.1c-5.4,0-9.4-1.8-12-4.5L435,203.5z"/>
<path class="st0" d="M468.8,189.1h-8.3v-5.3h22.6v5.3h-8.2v23h-6.1L468.8,189.1z"/>
<path class="st0" d="M490.4,183.8h20v5.2h-14v6.2h13.7v5.2h-13.7v6.6h14v5.2h-20V183.8z"/>
<path class="st0" d="M535.2,192.6l-4.9,19.5h-6.4l-8.1-28.3h6.8l5,20.5l5.4-20.5h4.7l5.4,20.5l4.9-20.5h6.8l-8.1,28.3h-6.4
	L535.2,192.6z"/>
<path class="st0" d="M577.1,207.2h-12.7l-1.8,4.9H556l11-28.3h7.6l10.9,28.3h-6.6L577.1,207.2z M566.1,202h9.4l-4.7-13L566.1,202z"
	/>
<path class="st0" d="M601.9,201.9h-4.4v10.1h-6v-28.3h13.2c5.9,0,9.5,3.9,9.5,9.1c0,5-3.1,7.7-6.2,8.4l6.4,10.8h-6.9L601.9,201.9z
	 M603.9,188.9h-6.3v7.8h6.3c2.4,0,4.2-1.5,4.2-3.9S606.3,188.9,603.9,188.9z"/>
<path class="st0" d="M622.2,183.8h11.2c8.9,0,15,5.6,15,14.2s-6.2,14.1-15,14.1h-11.2V183.8z M633.4,206.8c4.7,0.2,8.7-3.4,8.9-8.1
	c0-0.3,0-0.5,0-0.8c0-5-3.1-8.9-8.9-8.9h-5.1v17.7H633.4z"/>
<path class="st0" d="M657.5,203.5c2.4,2.4,5.6,3.8,9,3.8c3.3,0,4.9-1.6,4.9-3.2c0-2.1-2.5-2.8-5.7-3.6c-4.6-1.1-10.6-2.3-10.6-8.7
	c0-4.7,4.1-8.5,10.7-8.5c4-0.1,8,1.3,11,4l-3.3,4.4c-2.2-2-5.1-3.1-8.1-3.1c-2.7,0-4.2,1.2-4.2,2.9c0,1.9,2.4,2.5,5.7,3.3
	c4.7,1.1,10.6,2.5,10.6,8.8c0,5.2-3.7,9.1-11.3,9.1c-5.4,0-9.3-1.8-12-4.5L657.5,203.5z"/>
<polygon class="st7" points="216.9,189.4 216.9,206 231.3,214.4 245.7,206 245.7,189.4 231.3,181.1 "/>
<polygon class="st2" points="231.3,214.4 245.7,206 245.7,189.4 231.3,197.7 "/>
<polygon class="st3" points="231.3,214.4 216.9,206 216.9,189.4 231.3,197.7 "/>
<polygon class="st1" points="202.5,583.1 202.5,616.4 231.3,633 260.2,616.4 260.2,583.1 231.3,566.5 "/>
<polygon class="st2" points="231.3,633 260.2,616.4 260.2,583.1 231.3,599.7 "/>
<polygon class="st3" points="231.3,633 202.5,616.4 202.5,583.1 231.3,599.7 "/>
<polygon class="st4" points="260.1,616.4 231.3,599.7 231.3,566.5 260.1,583.1 "/>
<polygon class="st5" points="231.3,633 202.5,616.4 231.3,599.7 260.2,616.4 "/>
<polygon class="st6" points="231.3,616.4 216.9,608 231.3,599.7 245.7,608 "/>
<path class="st8" d="M299.4,585.8h11.2c8.9,0,15,5.7,15,14.2s-6.2,14.2-15,14.2h-11.2V585.8z M310.6,608.8c4.7,0.2,8.6-3.4,8.9-8.1
	c0-0.3,0-0.5,0-0.8c0-5-3.1-8.9-8.9-8.9h-5.1v17.7H310.6z"/>
<path class="st8" d="M349.9,609.2h-12.6l-1.8,4.9h-6.6l11-28.3h7.6l10.9,28.3h-6.6L349.9,609.2z M338.9,604h9.4l-4.7-13L338.9,604z"
	/>
<path class="st8" d="M368.1,591.1h-8.3v-5.3h22.6v5.3h-8.2v23h-6.1L368.1,591.1z"/>
<path class="st8" d="M405,609.2h-12.6l-1.8,4.9h-6.6l11-28.3h7.6l10.9,28.3h-6.6L405,609.2z M394,604h9.4l-4.7-13L394,604z"/>
<path class="st8" d="M435,605.5c2.4,2.4,5.6,3.8,9,3.8c3.3,0,4.9-1.6,4.9-3.2c0-2.1-2.5-2.8-5.7-3.6c-4.6-1.1-10.6-2.3-10.6-8.7
	c0-4.7,4.1-8.5,10.8-8.5c4-0.1,8,1.3,11,4l-3.4,4.4c-2.2-2-5.1-3.1-8.1-3.1c-2.7,0-4.2,1.2-4.2,2.9c0,1.9,2.4,2.5,5.6,3.3
	c4.7,1.1,10.6,2.5,10.6,8.8c0,5.2-3.7,9.1-11.3,9.1c-5.4,0-9.4-1.8-12-4.5L435,605.5z"/>
<path class="st8" d="M468.8,591.1h-8.3v-5.3h22.6v5.3h-8.2v23h-6.1L468.8,591.1z"/>
<path class="st8" d="M490.4,585.8h20v5.2h-14v6.2h13.7v5.2h-13.7v6.6h14v5.2h-20V585.8z"/>
<path class="st8" d="M535.2,594.6l-4.9,19.5h-6.4l-8.1-28.3h6.8l5,20.5l5.4-20.5h4.7l5.4,20.5l4.9-20.5h6.8l-8.1,28.3h-6.4
	L535.2,594.6z"/>
<path class="st8" d="M577.1,609.2h-12.7l-1.8,4.9H556l11-28.3h7.6l10.9,28.3h-6.6L577.1,609.2z M566.1,604h9.4l-4.7-13L566.1,604z"
	/>
<path class="st8" d="M601.9,603.9h-4.4v10.2h-6v-28.3h13.2c5.9,0,9.5,3.9,9.5,9.1c0,5-3.1,7.7-6.2,8.4l6.4,10.8h-6.9L601.9,603.9z
	 M603.9,590.9h-6.3v7.8h6.3c2.4,0,4.2-1.5,4.2-3.9S606.3,590.9,603.9,590.9z"/>
<path class="st8" d="M622.2,585.8h11.2c8.9,0,15,5.7,15,14.2s-6.2,14.2-15,14.2h-11.2V585.8z M633.4,608.8c4.7,0.2,8.7-3.4,8.9-8.1
	c0-0.3,0-0.5,0-0.8c0-5-3.1-8.9-8.9-8.9h-5.1v17.7H633.4z"/>
<path class="st8" d="M657.5,605.5c2.4,2.4,5.6,3.8,9,3.8c3.3,0,4.9-1.6,4.9-3.2c0-2.1-2.5-2.8-5.7-3.6c-4.6-1.1-10.6-2.3-10.6-8.7
	c0-4.7,4.1-8.5,10.7-8.5c4-0.1,8,1.3,11,4l-3.3,4.4c-2.2-2-5.1-3.1-8.1-3.1c-2.7,0-4.2,1.2-4.2,2.9c0,1.9,2.4,2.5,5.7,3.3
	c4.7,1.1,10.6,2.5,10.6,8.8c0,5.2-3.7,9.1-11.3,9.1c-5.4,0-9.3-1.8-12-4.5L657.5,605.5z"/>
<polygon class="st7" points="216.9,591.4 216.9,608 231.3,616.4 245.7,608 245.7,591.4 231.3,583.1 "/>
<polygon class="st2" points="231.3,616.4 245.7,608 245.7,591.4 231.3,599.7 "/>
<polygon class="st3" points="231.3,616.4 216.9,608 216.9,591.4 231.3,599.7 "/>
<polygon class="st1" points="1037.7,173.2 1037.7,223.6 1081.3,248.8 1125,223.6 1125,173.2 1081.3,148 "/>
<polygon class="st2" points="1081.3,248.8 1125,223.6 1125,173.2 1081.3,198.3 "/>
<polygon class="st3" points="1081.3,248.8 1037.7,223.6 1037.7,173.2 1081.3,198.3 "/>
<polygon class="st4" points="1125,223.6 1081.3,198.4 1081.3,148 1125,173.1 "/>
<polygon class="st5" points="1081.3,248.8 1037.7,223.6 1081.3,198.3 1125,223.6 "/>
<polygon class="st6" points="1081.3,223.5 1059.5,210.9 1081.3,198.3 1103.1,210.9 "/>
<polygon class="st7" points="1059.5,185.8 1059.5,210.9 1081.3,223.5 1103.1,210.9 1103.1,185.8 1081.3,173.2 "/>
<polygon class="st2" points="1081.3,223.5 1103.1,210.9 1103.1,185.8 1081.3,198.3 "/>
<polygon class="st3" points="1081.3,223.5 1059.5,210.9 1059.5,185.8 1081.3,198.3 "/>
<polygon class="st1" points="1036.7,578.9 1036.7,629.3 1080.3,654.5 1124,629.3 1124,578.9 1080.3,553.7 "/>
<polygon class="st2" points="1080.3,654.5 1124,629.3 1124,578.9 1080.3,604 "/>
<polygon class="st3" points="1080.3,654.5 1036.7,629.3 1036.7,578.9 1080.3,604 "/>
<polygon class="st4" points="1124,629.3 1080.3,604.1 1080.3,553.7 1124,578.8 "/>
<polygon class="st5" points="1080.3,654.5 1036.7,629.3 1080.3,604 1124,629.3 "/>
<polygon class="st6" points="1080.3,629.3 1058.5,616.7 1080.3,604.1 1102.1,616.7 "/>
<polygon class="st7" points="1058.5,591.5 1058.5,616.7 1080.3,629.3 1102.1,616.7 1102.1,591.5 1080.3,578.9 "/>
<polygon class="st2" points="1080.3,629.3 1102.1,616.7 1102.1,591.5 1080.3,604.1 "/>
<polygon class="st3" points="1080.3,629.3 1058.5,616.7 1058.5,591.5 1080.3,604.1 "/>
</svg>
