<?xml version="1.0" encoding="utf-8"?>
<!-- Generator: Adobe Illustrator 24.3.0, SVG Export Plug-In . SVG Version: 6.00 Build 0)  -->
<svg version="1.1" id="Layer_2_1_" xmlns="http://www.w3.org/2000/svg" xmlns:xlink="http://www.w3.org/1999/xlink" x="0px" y="0px"
	 viewBox="0 0 1280 800" style="enable-background:new 0 0 1280 800;" xml:space="preserve">
<style type="text/css">
	.st0{opacity:0.2;fill:#05BFFF;enable-background:new    ;}
	.st1{opacity:0.6;fill:#05BFFF;enable-background:new    ;}
	.st2{fill:#05BFFF;}
	.st3{fill:#143C50;}
</style>
<rect x="282.2" y="316.3" class="st0" width="7.2" height="7.2"/>
<rect x="275" y="316.3" class="st1" width="7.2" height="7.2"/>
<rect x="289.4" y="323.5" class="st0" width="7.2" height="7.2"/>
<rect x="282.2" y="323.5" class="st1" width="7.2" height="7.2"/>
<rect x="296.6" y="330.7" class="st0" width="7.2" height="7.2"/>
<rect x="289.4" y="330.7" class="st1" width="7.2" height="7.2"/>
<rect x="303.8" y="337.9" class="st0" width="7.2" height="7.2"/>
<rect x="303.8" y="345.1" class="st1" width="7.2" height="7.2"/>
<rect x="296.6" y="337.9" class="st1" width="7.2" height="7.2"/>
<path class="st2" d="M303.8,352.3v-7.2h-7.2v7.2h-43.2v-7.2h43.2v-7.2h-7.2v-7.2h-7.2v-7.2H275v-7.2h-36v100.8h72v-64.8H303.8z
	 M296.6,395.5h-43.2v-7.2h43.2V395.5z M296.6,381.1h-43.2v-7.2h43.2V381.1z M296.6,366.7h-43.2v-7.2h43.2V366.7z"/>
<path class="st3" d="M393.8,394c-13.3,0-23.4-8.3-23.4-23.4c0-14.2,10.2-23.6,23.5-23.6c13.4,0,23.5,8.2,23.5,23.3
	C417.4,384.5,407.2,394,393.8,394z M393.8,356.1c-7.6,0-11.9,5.7-11.9,14.2c0,8.6,4.5,14.5,12.1,14.5s11.9-5.8,11.9-14.2
	C405.9,361.9,401.4,356.1,393.8,356.1z"/>
<path class="st3" d="M444.6,358.4c8.3,0,14.3,6.7,14.3,17.4c0,11.1-7.7,18.1-16.7,18.1c-2.3,0-4.7-0.4-6.9-1.1v14.9h-11.1v-47.7
	l11.1-1.4v4.2C437.6,360.2,441,358.6,444.6,358.4z M435.2,384.3c1.5,0.9,3.3,1.4,5.1,1.4c4.7,0,7.5-3.8,7.5-9.3c0-5.8-2.4-9.1-7-9.1
	c-2.1,0-4.1,0.8-5.6,2.3L435.2,384.3z"/>
<path class="st3" d="M474.2,378.8c0.4,4.4,3.5,7,8.8,7c3.9-0.1,7.6-1.2,10.9-3.2l1.1,8.5c-4.1,1.9-8.5,2.8-12.9,2.7
	c-11.3,0-18.7-6.3-18.7-17.5c0-10.9,7.5-18,18.1-18c9.5,0,14.7,5.7,14.7,14c0,2-0.2,4-0.7,5.9l-21.2,0.4L474.2,378.8z M485.8,373.1
	v-0.6c0-4-1.6-6.4-5.1-6.4c-3.8,0-6.1,3.3-6.5,7.1L485.8,373.1z"/>
<path class="st3" d="M524.1,392.9v-19.7c0-4-1.8-5.3-4.7-5.3c-2.2,0.1-4.4,1-6,2.5v22.6h-11.1v-32.9l11.1-1.4v5.5
	c2.7-3.4,6.8-5.5,11.2-5.7c6.7,0,10.6,4.4,10.6,11.5v23L524.1,392.9z"/>
<path class="st3" d="M576.1,392.9H560V348h16.9c15.8,0,24.8,8.8,24.8,22.1C601.6,384,592.5,392.9,576.1,392.9z M576.1,357.1h-4.7
	v26.6h5.3c8.3,0,13.4-4.2,13.4-13.2C590.1,361.3,585.5,357.1,576.1,357.1z"/>
<path class="st3" d="M626.2,388.9c-2.4,2.8-5,5.1-9.6,5.1c-5.7,0-10.2-4.1-10.2-9.3c0-6.3,4.7-11.4,19.8-11.8v-0.6
	c0-3.5-1.8-5-5.9-5c-3.4,0-7.5,1.4-11.3,3.4l-2.3-8.1c4.7-2.5,10-3.9,15.4-3.9c11.6,0,15.4,5.2,15.2,14.6l-0.1,9.9
	c0,2.3,0.4,2.5,2.7,2.7l-1.1,7.9c-7.3,0.9-10.8-1-12.4-4.7L626.2,388.9z M626.1,378c-6.8,0.8-9.3,2.1-9.3,5c0,2.2,1.7,3.6,4.2,3.6
	c2,0,3.9-0.8,5.2-2.2L626.1,378z"/>
<path class="st3" d="M658.3,394c-8.3,0-12.7-3.4-12.3-12.1l0.5-12.7l-5-0.9l0.2-7l5-1.6l0.1-7.6h10.7l-0.1,8h8.3l-0.2,8.7h-8.9
	l-0.4,12c-0.1,3.1,1.6,4.4,4.4,4.4c1.5-0.1,3-0.3,4.4-0.9l1.3,8.6C663.8,393.6,661.1,394,658.3,394z"/>
<path class="st3" d="M690,388.9c-2.4,2.8-5,5.1-9.6,5.1c-5.7,0-10.2-4.1-10.2-9.3c0-6.3,4.7-11.4,19.8-11.8v-0.6c0-3.5-1.8-5-5.9-5
	c-3.5,0-7.5,1.4-11.3,3.4l-2.3-8.1c4.7-2.5,10-3.9,15.4-3.9c11.6,0,15.4,5.2,15.2,14.6l-0.1,9.9c0,2.3,0.4,2.5,2.7,2.7l-1.1,7.9
	c-7.3,0.9-10.9-1-12.4-4.7L690,388.9z M689.9,378c-6.8,0.8-9.3,2.1-9.3,5c0,2.2,1.7,3.6,4.2,3.6c2,0,3.9-0.8,5.2-2.2V378z"/>
<path class="st3" d="M741.5,379.8l-4.4,0.1v13h-11.4V348h16.6c12.6,0,19.2,6.3,19.2,15.6C761.6,374.1,754.4,379.8,741.5,379.8z
	 M741.4,357.1h-4.6v14l4.6-0.1c5.9-0.1,8.7-2.6,8.7-7.1S747.2,357.1,741.4,357.1z"/>
<path class="st3" d="M782.5,394c-10.1,0-17.7-6.3-17.7-17.6s8-17.9,18.2-17.9c10.1,0,17.6,6.5,17.6,17.6
	C800.6,387.3,792.5,394,782.5,394z M782.7,366.8c-4.5,0-6.9,3.7-6.9,9.4s2.4,9.3,7,9.3s6.9-3.6,6.9-9.3S787.2,366.8,782.7,366.8
	L782.7,366.8z"/>
<path class="st3" d="M806.7,392.9v-47.5l11.1-1.4v48.8L806.7,392.9z"/>
<path class="st3" d="M831.2,354.8c-4,0-6.5-2.1-6.5-5.9s2.5-6,6.5-6s6.5,2.1,6.5,6S835.3,354.8,831.2,354.8z M825.7,392.9v-32.8
	l11.1-1.4v34.2L825.7,392.9z"/>
<path class="st3" d="M861,394c-11.1,0-18.1-6.2-18.1-17.5c0-11.1,7.2-18,18.4-18c4.2-0.1,8.4,0.9,12.1,2.8l-2.2,8.3
	c-2.7-1.6-5.7-2.5-8.8-2.6c-5.3,0-8.3,3.8-8.3,9.1c0,6,3.4,9.3,8.5,9.3c3.1,0,6.2-0.9,8.8-2.5l1.6,8.4C870.4,393,865.8,394,861,394z
	"/>
<path class="st3" d="M900.2,391.3l-1.7,4.4c-3.4,9.8-7.6,12.7-14.6,12.7c-3.4,0-6.8-0.7-9.9-2.2l3.3-8.4c1.6,0.9,3.4,1.4,5.2,1.5
	c2.4,0,3.5-0.9,4.7-4.1l0.9-2.6L875,359.5h11.8l7.1,22l6.5-22h11.8L900.2,391.3z"/>
<path class="st3" d="M933,392.9V348h11.4v35.3h18.8v9.5H933z"/>
<path class="st3" d="M987.7,388.9c-2.4,2.8-5,5.1-9.6,5.1c-5.7,0-10.2-4.1-10.2-9.3c0-6.3,4.7-11.4,19.8-11.8v-0.6
	c0-3.5-1.8-5-5.9-5c-3.5,0-7.5,1.4-11.3,3.4l-2.3-8.2c4.7-2.5,10-3.9,15.4-3.9c11.6,0,15.4,5.2,15.2,14.6v9.9c0,2.3,0.4,2.5,2.7,2.7
	l-1.1,7.9c-7.3,0.9-10.9-1-12.4-4.7H987.7z M987.6,378c-6.8,0.8-9.3,2.1-9.3,5c0,2.2,1.7,3.6,4.2,3.6c2,0,3.9-0.8,5.2-2.2V378z"/>
<path class="st3" d="M1024.3,393.9c-2.6-0.1-5.1-0.5-7.6-1.4l-10.4,1.4v-48.6l11.1-1.4V363c2.4-2.7,5.8-4.4,9.4-4.5
	c8.3,0,14.2,6.7,14.2,17.4C1041,386.9,1033.3,393.9,1024.3,393.9z M1023,367.3c-2.1,0-4.1,0.8-5.6,2.3v14.7c1.5,0.9,3.3,1.4,5.1,1.4
	c4.7,0,7.5-3.8,7.5-9.3C1030,370.6,1027.5,367.3,1023,367.3L1023,367.3z"/>
<rect x="542.8" y="383" class="st2" width="10.9" height="10.9"/>
<rect x="709.9" y="383" class="st2" width="10.9" height="10.9"/>
<rect x="913.3" y="383" class="st2" width="10.9" height="10.9"/>
</svg>
