<?xml version="1.0" encoding="utf-8"?>
<!-- Generator: Adobe Illustrator 24.3.0, SVG Export Plug-In . SVG Version: 6.00 Build 0)  -->
<svg version="1.1" id="Layer_2_1_" xmlns="http://www.w3.org/2000/svg" xmlns:xlink="http://www.w3.org/1999/xlink" x="0px" y="0px"
	 viewBox="0 0 1280 800" style="enable-background:new 0 0 1280 800;" xml:space="preserve">
<style type="text/css">
	.st0{fill:#143C50;}
	.st1{opacity:0.2;fill:#05BFFF;enable-background:new    ;}
	.st2{opacity:0.6;fill:#05BFFF;enable-background:new    ;}
	.st3{fill:#05BFFF;}
	.st4{fill:#FFFFFF;}
</style>
<rect class="st0" width="880" height="399.3"/>
<rect x="184.9" y="156.7" class="st1" width="5.7" height="5.7"/>
<rect x="179.2" y="156.7" class="st2" width="5.7" height="5.7"/>
<rect x="190.6" y="162.4" class="st1" width="5.7" height="5.7"/>
<rect x="184.9" y="162.4" class="st2" width="5.7" height="5.7"/>
<rect x="196.4" y="168.1" class="st1" width="5.7" height="5.7"/>
<rect x="190.6" y="168.1" class="st2" width="5.7" height="5.7"/>
<rect x="202.1" y="173.9" class="st1" width="5.7" height="5.7"/>
<rect x="202.1" y="179.6" class="st2" width="5.7" height="5.7"/>
<rect x="196.3" y="173.9" class="st2" width="5.7" height="5.7"/>
<path class="st3" d="M202.1,185.3v-5.7h-5.7v5.7H162v-5.7h34.4v-5.7h-5.7v-5.7h-5.7v-5.7h-5.7v-5.7h-28.6v80.2h57.2v-51.5H202.1z
	 M196.3,219.7H162v-5.7h34.4L196.3,219.7z M196.3,208.2H162v-5.7h34.4L196.3,208.2z M196.3,196.8H162V191h34.4L196.3,196.8z"/>
<path class="st4" d="M273.6,218.5c-10.6,0-18.6-6.6-18.6-18.6c0-11.3,8.1-18.8,18.7-18.8s18.7,6.5,18.7,18.6
	C292.4,210.9,284.2,218.5,273.6,218.5z M273.6,188.4c-6,0-9.5,4.6-9.5,11.2c0,6.9,3.5,11.5,9.6,11.5s9.5-4.6,9.5-11.3
	C283.2,193,279.6,188.4,273.6,188.4L273.6,188.4z"/>
<path class="st4" d="M313.9,190.2c6.6,0,11.4,5.4,11.4,13.8c0,8.8-6.1,14.4-13.3,14.4c-1.9,0-3.7-0.3-5.5-0.9v11.9h-8.8v-37.9
	l8.8-1.1v3.4C308.4,191.6,311.1,190.3,313.9,190.2z M306.5,210.8c1.2,0.7,2.6,1.1,4,1.1c3.8,0,5.9-3,5.9-7.4c0-4.6-1.9-7.2-5.5-7.2
	c-1.7,0-3.3,0.6-4.5,1.8L306.5,210.8z"/>
<path class="st4" d="M337.5,206.4c0.3,3.5,2.7,5.6,7,5.6c3.1-0.1,6-1,8.7-2.6l0.9,6.8c-3.2,1.5-6.8,2.2-10.3,2.2
	c-9,0-14.9-5-14.9-13.9c0-8.7,5.9-14.3,14.4-14.3c7.5,0,11.6,4.5,11.6,11.1c0,1.6-0.2,3.1-0.6,4.7l-16.9,0.3L337.5,206.4z
	 M346.7,201.8v-0.5c0-3.1-1.3-5.1-4-5.1c-3,0-4.9,2.6-5.1,5.6L346.7,201.8z"/>
<path class="st4" d="M377.2,217.6v-15.7c0-3.2-1.4-4.2-3.8-4.2c-1.8,0.1-3.5,0.8-4.8,2v17.9h-8.8v-26.1l8.8-1.1v4.3
	c2.2-2.7,5.4-4.4,8.9-4.6c5.3,0,8.5,3.5,8.5,9.1v18.3H377.2z"/>
<path class="st4" d="M418.5,217.6h-12.8v-35.7h13.4c12.6,0,19.7,7,19.7,17.6C438.8,210.5,431.5,217.6,418.5,217.6z M418.5,189.2
	h-3.8v21.2h4.3c6.6,0,10.7-3.4,10.7-10.5C429.7,192.5,425.9,189.2,418.5,189.2L418.5,189.2z"/>
<path class="st4" d="M458.3,214.4c-1.9,2.2-4,4.1-7.6,4.1c-4.6,0-8.1-3.3-8.1-7.4c0-5,3.8-9.1,15.7-9.4v-0.5c0-2.8-1.4-4.1-4.7-4.1
	c-2.7,0-5.9,1.1-9,2.7l-1.8-6.4c3.8-2,8-3.1,12.2-3.1c9.2,0,12.2,4.2,12.1,11.6l-0.1,7.9c0,1.8,0.4,2,2.2,2.2l-0.9,6.3
	c-5.8,0.8-8.6-0.8-9.8-3.7L458.3,214.4z M458.3,205.8c-5.4,0.6-7.4,1.7-7.4,4c0,1.7,1.4,2.9,3.3,2.9c1.6,0,3.1-0.6,4.1-1.8
	L458.3,205.8z"/>
<path class="st4" d="M483.8,218.5c-6.6,0-10.1-2.7-9.8-9.6l0.4-10.1l-4-0.7l0.2-5.6l4-1.3l0.1-6.1h8.5l0,6.3h6.6l-0.2,6.9h-7.1
	l-0.3,9.5c-0.1,2.4,1.3,3.5,3.5,3.5c1.2,0,2.4-0.3,3.5-0.7l1,6.9C488.2,218.2,486,218.5,483.8,218.5z"/>
<path class="st4" d="M509,214.4c-1.9,2.2-4,4.1-7.6,4.1c-4.6,0-8.1-3.3-8.1-7.4c0-5,3.8-9.1,15.7-9.4v-0.5c0-2.8-1.4-4.1-4.7-4.1
	c-2.7,0-5.9,1.1-9,2.7l-1.8-6.4c3.8-2,7.9-3.1,12.2-3.1c9.2,0,12.2,4.2,12.1,11.6l-0.1,7.9c0,1.8,0.3,2,2.2,2.2l-0.9,6.3
	c-5.8,0.8-8.6-0.8-9.8-3.7H509z M508.9,205.8c-5.4,0.6-7.4,1.7-7.4,4c0,1.7,1.4,2.9,3.3,2.9c1.6,0,3.1-0.6,4.1-1.8L508.9,205.8z"/>
<path class="st4" d="M550,207.2l-3.5,0.1v10.3h-9.1v-35.7h13.2c10,0,15.2,5,15.2,12.4C565.9,202.6,560.2,207.2,550,207.2z
	 M549.9,189.1h-3.7v11.1l3.7-0.1c4.7-0.1,6.9-2.1,6.9-5.7S554.5,189.1,549.9,189.1z"/>
<path class="st4" d="M582.6,218.5c-8,0-14.1-5-14.1-14.1s6.4-14.2,14.4-14.2s14,5.1,14,14S590.5,218.5,582.6,218.5z M582.7,196.9
	c-3.6,0-5.5,2.9-5.5,7.5s2,7.4,5.5,7.4s5.5-2.9,5.5-7.4S586.3,196.9,582.7,196.9L582.7,196.9z"/>
<path class="st4" d="M601.8,217.6v-37.7l8.8-1.1v38.8H601.8z"/>
<path class="st4" d="M621.3,187.3c-3.2,0-5.2-1.6-5.2-4.7s2-4.7,5.2-4.7s5.2,1.7,5.2,4.7S624.6,187.3,621.3,187.3z M616.9,217.6
	v-26.1l8.8-1.1v27.2H616.9z"/>
<path class="st4" d="M645,218.5c-8.8,0-14.4-4.9-14.4-13.9c0-8.8,5.7-14.3,14.6-14.3c3.4-0.1,6.7,0.7,9.7,2.2l-1.7,6.6
	c-2.1-1.3-4.5-2-7-2.1c-4.2,0-6.6,3-6.6,7.2c0,4.7,2.7,7.4,6.8,7.4c2.5,0,4.9-0.7,7-2l1.3,6.7C652.5,217.7,648.8,218.5,645,218.5z"
	/>
<path class="st4" d="M676.1,216.3l-1.3,3.5c-2.7,7.8-6,10.1-11.7,10.1c-2.7,0-5.4-0.6-7.9-1.7l2.6-6.7c1.3,0.7,2.7,1.1,4.1,1.2
	c1.9,0,2.7-0.7,3.8-3.3l0.7-2l-10.4-26.4h9.4l5.7,17.5l5.1-17.5h9.4L676.1,216.3z"/>
<path class="st4" d="M702.2,217.6v-35.7h9.1V210h15v7.6L702.2,217.6z"/>
<path class="st4" d="M745.7,214.4c-1.9,2.2-4,4.1-7.7,4.1c-4.6,0-8.1-3.3-8.1-7.4c0-5,3.8-9.1,15.7-9.4v-0.5c0-2.8-1.4-4.1-4.7-4.1
	c-2.7,0-5.9,1.1-9,2.7l-1.8-6.4c3.8-2,8-3.1,12.2-3.1c9.2,0,12.2,4.2,12.1,11.6l-0.1,7.9c0,1.8,0.3,2,2.2,2.2l-0.9,6.3
	c-5.8,0.8-8.6-0.8-9.8-3.7H745.7z M745.6,205.8c-5.4,0.6-7.4,1.7-7.4,4c0,1.7,1.4,2.9,3.3,2.9c1.6,0,3.1-0.6,4.1-1.8V205.8z"/>
<path class="st4" d="M774.8,218.4c-2-0.1-4.1-0.4-6-1.1l-8.3,1.1v-38.6l8.8-1.1v15c1.9-2.2,4.6-3.5,7.5-3.6
	c6.6,0,11.3,5.4,11.3,13.8C788.1,212.8,782,218.4,774.8,218.4z M773.8,197.2c-1.7,0-3.3,0.6-4.5,1.8v11.7c1.2,0.8,2.6,1.1,4.1,1.1
	c3.8,0,5.9-3,5.9-7.4C779.3,199.9,777.3,197.2,773.8,197.2L773.8,197.2z"/>
<rect x="392" y="209.7" class="st3" width="8.6" height="8.6"/>
<rect x="524.9" y="209.7" class="st3" width="8.6" height="8.6"/>
<rect x="686.5" y="209.7" class="st3" width="8.6" height="8.6"/>
<rect x="186.3" y="571.2" class="st1" width="5.7" height="5.7"/>
<rect x="180.6" y="571.2" class="st2" width="5.7" height="5.7"/>
<rect x="192.1" y="576.9" class="st1" width="5.7" height="5.7"/>
<rect x="186.3" y="576.9" class="st2" width="5.7" height="5.7"/>
<rect x="197.8" y="582.7" class="st1" width="5.7" height="5.7"/>
<rect x="192.1" y="582.7" class="st2" width="5.7" height="5.7"/>
<rect x="203.5" y="588.4" class="st1" width="5.7" height="5.7"/>
<rect x="203.5" y="594.1" class="st2" width="5.7" height="5.7"/>
<rect x="197.8" y="588.4" class="st2" width="5.7" height="5.7"/>
<path class="st3" d="M203.5,599.8v-5.7h-5.7v5.7h-34.3v-5.7h34.3v-5.7h-5.7v-5.7h-5.7v-5.7h-5.7v-5.7H152v80.1h57.2v-51.5H203.5z
	 M197.8,634.1h-34.3v-5.7h34.3V634.1z M197.8,622.7h-34.3V617h34.3V622.7z M197.8,611.3h-34.3v-5.7h34.3V611.3z"/>
<path class="st0" d="M274.9,632.9c-10.5,0-18.6-6.6-18.6-18.6c0-11.3,8.1-18.8,18.7-18.8s18.7,6.5,18.7,18.5
	C293.7,625.4,285.5,632.9,274.9,632.9z M274.9,602.9c-6,0-9.5,4.6-9.5,11.2c0,6.8,3.5,11.5,9.6,11.5s9.5-4.6,9.5-11.3
	C284.6,607.5,281,602.9,274.9,602.9z"/>
<path class="st0" d="M315.2,604.7c6.6,0,11.4,5.4,11.4,13.8c0,8.8-6.1,14.4-13.3,14.4c-1.9,0-3.7-0.3-5.5-0.8v11.9H299V606l8.8-1.1
	v3.4C309.7,606.1,312.4,604.8,315.2,604.7z M307.8,625.2c1.2,0.8,2.6,1.1,4,1.1c3.8,0,5.9-3,5.9-7.3c0-4.6-1.9-7.2-5.5-7.2
	c-1.7,0-3.3,0.6-4.5,1.8L307.8,625.2z"/>
<path class="st0" d="M338.8,620.9c0.3,3.5,2.7,5.6,7,5.6c3.1-0.1,6-1,8.7-2.6l0.9,6.8c-3.2,1.5-6.7,2.2-10.3,2.2
	c-9,0-14.8-5-14.8-13.9c0-8.7,5.9-14.3,14.4-14.3c7.5,0,11.6,4.5,11.6,11.1c0,1.6-0.2,3.1-0.6,4.7l-16.8,0.3L338.8,620.9z
	 M348,616.3v-0.5c0-3.1-1.3-5.1-4-5.1c-3,0-4.9,2.6-5.1,5.7L348,616.3z"/>
<path class="st0" d="M378.5,632.1v-15.7c0-3.2-1.4-4.2-3.8-4.2c-1.8,0.1-3.5,0.8-4.8,2v17.9h-8.8V606l8.8-1.1v4.3
	c2.2-2.7,5.4-4.4,8.9-4.6c5.3,0,8.4,3.5,8.4,9.1v18.2L378.5,632.1z"/>
<path class="st0" d="M419.7,632.1h-12.8v-35.6h13.4c12.5,0,19.7,7,19.7,17.6C440,625,432.8,632.1,419.7,632.1z M419.7,603.7H416
	v21.2h4.2c6.6,0,10.7-3.4,10.7-10.5C430.9,607,427.2,603.7,419.7,603.7z"/>
<path class="st0" d="M459.5,628.9c-1.9,2.2-4,4-7.6,4c-4.6,0-8.1-3.2-8.1-7.4c0-5,3.8-9.1,15.7-9.4v-0.5c0-2.8-1.4-4-4.7-4
	c-2.7,0-5.9,1.1-9,2.7l-1.8-6.5c3.8-2,7.9-3.1,12.2-3.1c9.2,0,12.2,4.2,12.1,11.6l0,7.9c0,1.8,0.3,2,2.2,2.2l-0.9,6.3
	c-5.8,0.7-8.6-0.8-9.8-3.7L459.5,628.9z M459.4,620.3c-5.4,0.6-7.4,1.7-7.4,4c0,1.7,1.4,2.8,3.3,2.8c1.6,0,3.1-0.6,4.1-1.8
	L459.4,620.3z"/>
<path class="st0" d="M485,632.9c-6.6,0-10.1-2.7-9.8-9.6l0.4-10.1l-4-0.7l0.2-5.6l4-1.3l0.1-6h8.5l-0.1,6.3h6.6l-0.2,6.9h-7.1
	l-0.3,9.5c-0.1,2.5,1.3,3.5,3.5,3.5c1.2,0,2.4-0.3,3.5-0.7l1,6.8C489.4,632.7,487.2,633,485,632.9z"/>
<path class="st0" d="M510.1,628.9c-1.9,2.2-4,4-7.6,4c-4.6,0-8.1-3.2-8.1-7.4c0-5,3.8-9.1,15.7-9.4v-0.5c0-2.8-1.4-4-4.7-4
	c-2.7,0-5.9,1.1-9,2.7l-1.8-6.5c3.8-2,7.9-3.1,12.2-3.1c9.2,0,12.2,4.2,12.1,11.6l-0.1,7.9c0,1.8,0.3,2,2.2,2.2l-0.8,6.3
	c-5.8,0.7-8.6-0.8-9.8-3.7L510.1,628.9z M510.1,620.3c-5.4,0.6-7.4,1.7-7.4,4c0,1.7,1.4,2.8,3.3,2.8c1.6,0,3.1-0.6,4.1-1.8
	L510.1,620.3z"/>
<path class="st0" d="M551.1,621.7l-3.5,0.1v10.3h-9.1v-35.6h13.2c10,0,15.2,5,15.2,12.4C567,617.1,561.3,621.7,551.1,621.7z
	 M551,603.6h-3.7v11.1l3.7-0.1c4.7-0.1,6.9-2.1,6.9-5.7S555.6,603.6,551,603.6z"/>
<path class="st0" d="M583.7,632.9c-8,0-14.1-5-14.1-14s6.4-14.2,14.4-14.2s14,5.1,14,14S591.6,632.9,583.7,632.9z M583.8,611.4
	c-3.6,0-5.5,2.9-5.5,7.5s1.9,7.4,5.5,7.4s5.5-2.8,5.5-7.4S587.4,611.4,583.8,611.4L583.8,611.4z"/>
<path class="st0" d="M602.9,632.1v-37.7l8.8-1.1v38.8L602.9,632.1z"/>
<path class="st0" d="M622.3,601.8c-3.2,0-5.2-1.7-5.2-4.7s2-4.7,5.2-4.7s5.2,1.7,5.2,4.7S625.6,601.8,622.3,601.8z M617.9,632.1V606
	l8.8-1.1v27.2L617.9,632.1z"/>
<path class="st0" d="M646,632.9c-8.8,0-14.4-4.9-14.4-13.9c0-8.8,5.7-14.3,14.6-14.3c3.3-0.1,6.7,0.7,9.6,2.2l-1.7,6.6
	c-2.1-1.3-4.5-2-7-2.1c-4.2,0-6.6,3-6.6,7.2c0,4.7,2.7,7.4,6.8,7.4c2.5,0,4.9-0.7,7-2l1.3,6.7C653.5,632.1,649.8,632.9,646,632.9z"
	/>
<path class="st0" d="M677.1,630.8l-1.3,3.5c-2.7,7.8-6,10.1-11.6,10.1c-2.7,0-5.4-0.6-7.9-1.7l2.6-6.7c1.3,0.7,2.7,1.1,4.1,1.2
	c1.9,0,2.7-0.7,3.8-3.2l0.7-2.1l-10.4-26.3h9.4l5.7,17.4l5.1-17.5h9.4L677.1,630.8z"/>
<path class="st0" d="M703.2,632.1v-35.6h9.1v28.1h14.9v7.6H703.2z"/>
<path class="st0" d="M746.6,628.9c-1.9,2.2-4,4-7.7,4c-4.6,0-8.1-3.2-8.1-7.4c0-5,3.8-9.1,15.7-9.4v-0.5c0-2.8-1.4-4-4.7-4
	c-2.7,0-5.9,1.1-9,2.7l-1.8-6.5c3.8-2,7.9-3.1,12.2-3.1c9.2,0,12.2,4.2,12.1,11.6v7.9c0,1.8,0.3,2,2.2,2.2l-0.8,6.3
	c-5.8,0.7-8.6-0.8-9.8-3.7H746.6z M746.5,620.3c-5.4,0.6-7.4,1.7-7.4,4c0,1.7,1.4,2.8,3.3,2.8c1.6,0,3.1-0.6,4.1-1.8V620.3z"/>
<path class="st0" d="M775.6,632.9c-2,0-4.1-0.4-6-1.1l-8.3,1.1v-38.6l8.8-1.1v15c1.9-2.2,4.6-3.5,7.5-3.6c6.6,0,11.3,5.4,11.3,13.8
	C788.9,627.3,782.8,632.9,775.6,632.9z M774.6,611.7c-1.7,0-3.3,0.6-4.5,1.8v11.7c1.2,0.8,2.6,1.1,4,1.1c3.8,0,5.9-3,5.9-7.3
	C780.2,614.4,778.2,611.7,774.6,611.7L774.6,611.7z"/>
<rect x="393.3" y="624.2" class="st3" width="8.6" height="8.6"/>
<rect x="526" y="624.2" class="st3" width="8.6" height="8.6"/>
<rect x="687.5" y="624.2" class="st3" width="8.6" height="8.6"/>
<rect x="880" y="0.2" class="st4" width="400" height="400"/>
<rect x="880" y="399.8" class="st0" width="400" height="400"/>
<rect x="1086" y="156.7" class="st1" width="5.7" height="5.7"/>
<rect x="1080.3" y="156.7" class="st2" width="5.7" height="5.7"/>
<rect x="1091.7" y="162.4" class="st1" width="5.7" height="5.7"/>
<rect x="1086" y="162.4" class="st2" width="5.7" height="5.7"/>
<rect x="1097.5" y="168.1" class="st1" width="5.7" height="5.7"/>
<rect x="1091.7" y="168.1" class="st2" width="5.7" height="5.7"/>
<rect x="1103.2" y="173.9" class="st1" width="5.7" height="5.7"/>
<rect x="1103.2" y="179.6" class="st2" width="5.7" height="5.7"/>
<rect x="1097.5" y="173.8" class="st2" width="5.7" height="5.7"/>
<path class="st3" d="M1103.2,185.3v-5.7h-5.7v5.7h-34.3v-5.7h34.3v-5.7h-5.7v-5.7h-5.7v-5.7h-5.7v-5.7h-28.6v80.2h57.2v-51.5H1103.2
	z M1097.5,219.7h-34.3v-5.7h34.3V219.7z M1097.5,208.2h-34.3v-5.7h34.3V208.2z M1097.5,196.8h-34.3V191h34.3V196.8z"/>
<rect x="1087.5" y="571.2" class="st1" width="5.7" height="5.7"/>
<rect x="1081.7" y="571.2" class="st2" width="5.7" height="5.7"/>
<rect x="1093.2" y="577" class="st1" width="5.7" height="5.7"/>
<rect x="1087.5" y="576.9" class="st2" width="5.7" height="5.7"/>
<rect x="1098.9" y="582.7" class="st1" width="5.7" height="5.7"/>
<rect x="1093.2" y="582.7" class="st2" width="5.7" height="5.7"/>
<rect x="1104.6" y="588.4" class="st1" width="5.7" height="5.7"/>
<rect x="1104.6" y="594.1" class="st2" width="5.7" height="5.7"/>
<rect x="1098.9" y="588.4" class="st2" width="5.7" height="5.7"/>
<path class="st3" d="M1104.6,599.8v-5.7h-5.7v5.7h-34.3v-5.7h34.3v-5.7h-5.7v-5.7h-5.7v-5.7h-5.7v-5.7h-28.6v80.1h57.2v-51.5H1104.6
	z M1098.9,634.1h-34.3v-5.7h34.3V634.1z M1098.9,622.7h-34.3V617h34.3V622.7z M1098.9,611.3h-34.3v-5.7h34.3V611.3z"/>
</svg>
