<svg id="Layer_1" data-name="Layer 1" xmlns="http://www.w3.org/2000/svg" viewBox="0 0 1157.62 714.5"><defs><style>.cls-1{fill:#2e4858;}.cls-2{fill:#fff;}.cls-3{fill:none;}.cls-4{fill:#00b59d;}.cls-5{fill:#86ae51;}.cls-6{fill:#f05e5a;}.cls-7{fill:#cb1866;}.cls-8{fill:#1928db;}</style></defs><polygon class="cls-1" points="236.17 186.54 180.49 218.08 180.49 281.18 236.17 312.73 291.84 281.18 291.84 218.08 236.17 186.54"/><path class="cls-2" d="M267.42,234.5c-3,.18-18.72,6.24-24.14,6.24h-2.69a3.89,3.89,0,0,0-.17-.65c1.65-.34,8.25-6.85,8.25-6.85.32-2.86,3.44-7.44,3.55-7.76l-.09-.42c1.45-.66,11.71-3.4,11.71-7.93a2,2,0,0,0-.55-1.43c0,.36-.25,1.08-.55,1.19a.69.69,0,0,1-.35,0c-2.72,4.67-11.36,7.19-11.36,7.19-.21.06-1.26.46-3.77,7.81a1.79,1.79,0,0,1-.57.12c-.15.15-5.41,5.31-6.87,5.14-.64-1.32-2.63-1.23-2.26-2.35,2.48-.22,2.59-1.27,1.85-2.59a11.61,11.61,0,0,0,1.39-1.89,12.06,12.06,0,0,0,1.56-.12v0a5.19,5.19,0,0,0-1.13-.59c.16-.27.34-.56.53-.85a18.21,18.21,0,0,0,2-.13v0a10.13,10.13,0,0,0-1.54-.58l.41-.6s2-.11,2-.17v0a8.81,8.81,0,0,0-1.49-.55l.38-.51a10.33,10.33,0,0,0,1.95.05s0,0,0,0a8.52,8.52,0,0,0-1.52-.57c.15-.19.31-.37.46-.55a15,15,0,0,0,1.71.13,13.67,13.67,0,0,0-1.27-.63l.35-.37a9.07,9.07,0,0,0,1.41.18,5.82,5.82,0,0,0-.93-.66c.16-.16.27-.26.43-.4a7,7,0,0,0,1.14.2,2.74,2.74,0,0,0-.68-.58c.26-.19.46-.37.72-.53.15,0,.7.29.71.22a2.75,2.75,0,0,0-.37-.43c.13-.17,1-.64,1-.65a3.52,3.52,0,0,0-1.36.31c-.06-.08-.33-.41-.39-.37s0,.49,0,.54a9,9,0,0,0-.81.56c-.07-.08-.36-.46-.42-.43a3.89,3.89,0,0,0,0,.76c-.21.17-.41.35-.61.54-.1-.12-.45-.71-.52-.69a5.66,5.66,0,0,0,.11,1.09l-.38.38c-.14-.19-.53-.73-.6-.71a4.79,4.79,0,0,0,.2,1.15c-.18.19-.35.39-.52.59-.19-.25-.65-.82-.72-.8a4.59,4.59,0,0,0,.32,1.29q-.24.28-.45.57a7.53,7.53,0,0,0-1.08-1.13,16.08,16.08,0,0,0,.6,1.76l-.5.7a6.38,6.38,0,0,0-.92-1.06c-.07,0,.37,1.27.45,1.75-.21.31-.4.61-.58.89a9,9,0,0,0-.77-1.11A15.85,15.85,0,0,0,240,230a6.76,6.76,0,0,1-1.63,1.73,1,1,0,0,1-1.43-.85c1-.14,1.8-.73,1.8-1.48s-.75-1-1.17-1v.93c0,.56-.14,1-.74,1V217.88a21.66,21.66,0,0,1,.42-3.78c.11-.41.19-.68.06-.88s-.28-.22-.61-.25a5.46,5.46,0,0,1-.54-.73h0a5.46,5.46,0,0,1-.54.73c-.34,0-.52.11-.62.25s0,.47.07.88a21.8,21.8,0,0,1,.41,3.78v12.33c-.59,0-.74-.39-.74-1v-.93c-.42,0-1.17.36-1.17,1s.79,1.34,1.81,1.48a1,1,0,0,1-1.43.85,7,7,0,0,1-1.64-1.73,13.88,13.88,0,0,0,.31-1.84,9.48,9.48,0,0,0-.76,1.11l-.59-.89c.09-.48.52-1.74.46-1.75a5.94,5.94,0,0,0-.92,1.06l-.51-.7a14.17,14.17,0,0,0,.6-1.76,7.57,7.57,0,0,0-1.07,1.13l-.45-.57a4.89,4.89,0,0,0,.31-1.29,3.81,3.81,0,0,0-.71.8l-.52-.59a5.34,5.34,0,0,0,.2-1.15c-.07,0-.46.52-.61.71l-.37-.38a6.48,6.48,0,0,0,.1-1.09c-.07,0-.41.57-.51.69-.2-.19-.41-.37-.62-.54a3.92,3.92,0,0,0,0-.76c-.07,0-.35.35-.42.43-.27-.2-.54-.39-.81-.56a2,2,0,0,0,0-.54c-.07,0-.34.29-.4.37a3.49,3.49,0,0,0-1.36-.31c-.06,0,.85.48,1,.65a2.65,2.65,0,0,0-.36.43c0,.07.55-.19.71-.22a8.72,8.72,0,0,1,.71.53,2.94,2.94,0,0,0-.68.58,6.65,6.65,0,0,0,1.14-.2c.17.14.27.24.44.4a5.82,5.82,0,0,0-.93.66,9,9,0,0,0,1.4-.18l.36.37a13.67,13.67,0,0,0-1.27.63,14.86,14.86,0,0,0,1.7-.13c.16.18.31.36.46.55a8.82,8.82,0,0,0-1.52.57v0a10.22,10.22,0,0,0,1.94-.05l.39.51a8.62,8.62,0,0,0-1.5.55v0c0,.06,2,.17,2,.17l.41.6a9.88,9.88,0,0,0-1.55.58v0a18.25,18.25,0,0,0,2,.13l.53.85a5.28,5.28,0,0,0-1.14.59v0a12.22,12.22,0,0,0,1.56.12,12.93,12.93,0,0,0,1.39,1.89c-.73,1.32-.62,2.37,1.86,2.59.36,1.12-1.63,1-2.26,2.35-1.46.17-6.72-5-6.87-5.14a1.79,1.79,0,0,1-.58-.12c-2.51-7.35-3.56-7.75-3.77-7.81,0,0-8.63-2.52-11.35-7.19a.69.69,0,0,1-.35,0c-.31-.11-.54-.83-.56-1.19a2,2,0,0,0-.55,1.43c0,4.53,10.27,7.27,11.72,7.93l-.09.42c.11.32,3.23,4.9,3.54,7.76,0,0,6.6,6.51,8.26,6.85a3.89,3.89,0,0,0-.17.65h-2.69c-5.42,0-21.16-6.06-24.15-6.24-3.72-.23-7.07.44-7.15,1.87s2.17,4.76,6,5.77c6.17,1.64,14.56,3.93,18.32,4.72a72,72,0,0,1,9.47-4.3,1.54,1.54,0,0,0,.26,1.37c-1,.48-8.38,6.22-9,6.83-.79.76-1.79,10.39-2.34,11.44-1.28,1.51-5.12,4-5.17,4.13-.55,1.82-4.87,6.52-3.86,7.68a1.91,1.91,0,0,1,1-.87c.09.63.7.88,1.29.38-1.18-.23.54-2.1,2.63-6.15.07,0,.42.15.47.12s5.11-4.53,5.26-4.66.53,0,.59-.15c.67-1.89,0-8.11,1.19-10.25,0-.07.63,0,.77-.07,2.52-2.08,6.17-5.17,8.62-6.34.1.13.41.46.47.52-1.13,1.51-8,10.71-7.85,12.11,0,0,.57.36.53.44,1.16,4.49,2.58,10.67,2.22,11.66-.52,1-2.81,6.24-3.85,7.3-.13.14.15.5.09.66-3.75,5.35-6.3,5.94-7,6.24a7.23,7.23,0,0,0,.56.73c-.17.55.21,1.49,1,1.33-.59-.61-.42-1.17.54-1.38,2.53-.56,5.39-4.25,10.22-14.59.1-.18.66-.26.66-.42-.05-4.43-2.9-11.64-2.94-11.82s3.66-5.22,6-7.93c0,.11.07.13.15.19,0,.36-.73,3.57-.54,3.8s.34.57.26.72a26.22,26.22,0,0,0-.52,4.54.49.49,0,0,0,.23.4c.09.06.11.08.11.13,0,.42-.39,3.92-.34,4a.6.6,0,0,0,.22.14c0,.22-.28,3.91-.24,4s.35.17.36.17-.19,2.84-.11,2.92a2,2,0,0,0,.52.13c0,.1.11,1.39.18,1.51s.64.2.64.36a4.91,4.91,0,0,0,.06,1.16c.07.07.39-.07.48-.07s.74.35.87.35h0c.13,0,.7-.35.88-.35s.41.14.48.07a4.92,4.92,0,0,0,.05-1.16c0-.16.57-.23.65-.36s.15-1.41.17-1.51a2,2,0,0,0,.53-.13c.07-.08-.14-2.81-.12-2.92s.31-.08.37-.17-.24-3.77-.25-4a.48.48,0,0,0,.22-.14c.06-.07-.33-3.57-.33-4,0,0,0-.07.1-.13a.49.49,0,0,0,.23-.4,25.28,25.28,0,0,0-.52-4.54c-.08-.15.08-.47.27-.72s-.5-3.44-.54-3.8c.07-.06.12-.08.14-.19,2.31,2.71,5.95,7.86,6,7.93s-2.9,7.39-2.95,11.82c0,.16.56.24.67.42,4.82,10.34,7.68,14,10.21,14.59,1,.21,1.13.77.55,1.38.81.16,1.19-.78,1-1.33a6,6,0,0,0,.55-.73c-.69-.3-3.25-.89-7-6.24-.07-.16.21-.52.08-.66-1-1.06-3.32-6.32-3.85-7.3-.35-1,1.06-7.17,2.22-11.66,0-.08.53-.4.53-.44.19-1.4-6.72-10.6-7.84-12.11,0-.06.37-.39.47-.52,2.44,1.17,6.09,4.26,8.61,6.34.14.11.74,0,.77.07,1.2,2.14.53,8.36,1.19,10.25.07.17.4,0,.6.15s5.11,4.57,5.25,4.66.4-.14.48-.12c2.09,4.05,3.8,5.92,2.62,6.15.6.5,1.21.25,1.29-.38a2,2,0,0,1,1,.87c1-1.16-3.32-5.86-3.87-7.68,0-.16-3.89-2.62-5.16-4.13-.56-1.05-1.55-10.68-2.35-11.44-.65-.61-8.07-6.35-9-6.83a1.54,1.54,0,0,0,.26-1.37,70.81,70.81,0,0,1,9.47,4.3c3.77-.79,12.15-3.08,18.33-4.72,3.8-1,6.07-4.35,6-5.77s-3.44-2.1-7.16-1.87"/><path class="cls-1" d="M299.49,371.43c-.64.09-2.13.25-2.31-.25-.12-.33.37-1.18,1.51-1.59a2.24,2.24,0,0,1,2.23.16l3.15-2.33a5.37,5.37,0,0,0-4.77-1.93l-.76-2.09-3.68,1.33.76,2.11a5,5,0,0,0-2.13,5.67c.85,2.35,3.06,3.3,6.55,2.8,2.22-.32,2.81.07,2.82.07.12.32-.37,1.17-1.51,1.58a2.22,2.22,0,0,1-2.23-.16L296,379.13a5.35,5.35,0,0,0,4.77,1.93l.76,2.1,3.68-1.33-.76-2.12a5,5,0,0,0,2.13-5.66C305.72,371.77,303.35,370.88,299.49,371.43Z"/><path class="cls-1" d="M294.09,356.81a17.5,17.5,0,1,0,22.4,10.53A17.5,17.5,0,0,0,294.09,356.81Zm11.14,30.92a15.37,15.37,0,1,1,9.24-19.66A15.35,15.35,0,0,1,305.23,387.73Z"/><path class="cls-1" d="M272.15,379.83a3.28,3.28,0,1,0,4.2,2A3.29,3.29,0,0,0,272.15,379.83Z"/><path class="cls-1" d="M323.61,361.29a3.28,3.28,0,1,0,4.2,2A3.28,3.28,0,0,0,323.61,361.29Z"/><path class="cls-1" d="M296.06,286.83l-55.68,31.55v63.1L296.06,413l55.67-31.55v-63.1ZM246,339.61l52.5-37.79L317,327.7l-2.55.92-16.78-23.34-3.9,2.8-11,8L246,342.54Zm0,7.06,39-28.07a18.21,18.21,0,0,0,20.61,3.23l5.78,7.94L246,353.35Zm100.13,28.14a16.87,16.87,0,0,0-3.58,5.39l-46.62,26.38-46.69-26.45-1.57-4.34a18.45,18.45,0,0,0,8.9-18.77l63.81-23a19.1,19.1,0,0,0,19.79,9.1l6,16.36Zm0-25.29L337,324.3h-.21L319,330.8l-73,26.38v-2.62l92.78-33.44,7.35,20.41Z"/><polygon class="cls-3" points="411.41 281.13 411.41 218.13 355.82 186.63 300.24 218.13 300.24 281.13 355.82 312.63 411.41 281.13"/><path class="cls-1" d="M355.82,186.63l-55.58,31.5v63l55.58,31.5,55.59-31.5v-63Zm0,6.54,32.09,18.23A13.49,13.49,0,0,1,374.78,222a9,9,0,0,1-9,8.82h-8c-.28.67,8.11,3.51,7.75,4.49a43,43,0,0,0-1.19,4.44l-3.15-.62-9.38.8c-.67-1.58-1.39-7.14-2-8.94a8.34,8.34,0,0,1-5.19-2.51A5.83,5.83,0,0,1,343.1,225c-4.36,0-7.12-2.07-7.23-6.11-.54.08-2.27.13-2.83.13-5.18,0-10.82-2.26-12.79-5.6Zm50.1,79.25L399,268.57l-4.44-1a25.78,25.78,0,0,1-4-1.71,3,3,0,0,0,0,.9c.1.26,2.92,3.62,2.92,3.62l5.46,3.51c1.48.94,5.66,5.39,5.66,5.39l-16.1,9.14-5.25-4.06-5-6.68-2-1.62-1.29.11,4.55,10.4,4.32,4.53-26.39,15s-.07-2.45,0-3.59-1.89-11.92-1.89-11.92l0-6.15-.92-.84a45.26,45.26,0,0,0-2.36,8.16c-.38,3.08-1,12.57-1,12.57L320.64,287s3.1-6,4.71-7.8,8.82-9.43,8.82-9.43a2.81,2.81,0,0,0-1.37-.23,18.09,18.09,0,0,0-2.94,1.29s-7.32,4.88-9.83,7.07a41.87,41.87,0,0,0-5.14,5.83l-9.16-5.21v-7.78S328.21,260,333.62,256s13.64-12.26,14.93-12.87,11.73-1.68,11.73-1.68a9.11,9.11,0,0,1,4.74.91c1.44.86,14.61,8.23,14.61,8.23l26.29,17.32Z"/><path class="cls-1" d="M360.45,248.08c.48-.22,5.92-.56,5.92-.56a1.72,1.72,0,0,0-.54-1c-.41-.28-3.75-2.63-4.91-2.63a68.56,68.56,0,0,0-9.62,1.69,13.36,13.36,0,0,0-2.24,2c-.17.3-.66.94-.36,1.52,3.46.51,9.35,2,11.15,2a22.2,22.2,0,0,0,4.7-.84,1.06,1.06,0,0,0-.56-.6c-.42-.18-4.22-.94-4.22-.94A1.47,1.47,0,0,1,360.45,248.08Z"/><path class="cls-1" d="M417.17,367.16c-1.89.9-.51,4,1.31,4.07s4.59.22,4.59-1.59S423.18,364.33,417.17,367.16Z"/><path class="cls-1" d="M419.24,334.71c2.17.15,3.83-.18,3.83-2.13,0-2.18-1.74-2.81-4.33-2.81S417.06,334.56,419.24,334.71Z"/><path class="cls-1" d="M404.43,344.46a5.17,5.17,0,0,0,.31,5.55c1.13,1.7,5.95,1.49,6.49.38s-.13-4.11-1-5.36S405.27,342.88,404.43,344.46Z"/><path class="cls-1" d="M400,338.34c1.13-.9.65-.34.76-2.61s-1.33-2.83-1.33-2.83c-1.58.57-2.94,1.48-2.49,3.06S398.87,339.25,400,338.34Z"/><path class="cls-1" d="M397.84,357.36c-1.68-1.25-.79,4.76,1,4.87s3.85-.11,3.85-1.93S399.82,358.84,397.84,357.36Z"/><path class="cls-1" d="M415.59,286.92,360,318.42v63l55.59,31.5,55.59-31.5v-63ZM456,353.59a2,2,0,0,1-2.45.43,9.37,9.37,0,0,0-4.34-1.76,38.44,38.44,0,0,1-4.26-.78,4.27,4.27,0,0,0-2.78.27.41.41,0,0,0-.2.28c-.13.91-.21,1.81-.35,2.71a5.7,5.7,0,0,1-.36,1,3.72,3.72,0,0,1,2.17.07,3.13,3.13,0,0,1,2,2.07c.08.25.06.53.13.78a.51.51,0,0,0,.28.31,12.07,12.07,0,0,0,3.73.54,4.47,4.47,0,0,1,1.89.34,2.32,2.32,0,0,1,1.2,2.47,5.89,5.89,0,0,1-1.52,3,1.88,1.88,0,0,1-1.86.34c-.07,0-.07-.17-.14-.23a1.81,1.81,0,0,0-.32-.22l-.11.08c0-.19,0-.39.07-.59l-.35-.28-.37,0,.09.33-.42-.34c0-.09,0-.21,0-.24s-.29-.17-.41-.29a.64.64,0,0,1-.17-.41c-.27-.17-.65-.29-.8-.55a2.49,2.49,0,0,0-.91-.72,6.89,6.89,0,0,0-1.13-.54.44.44,0,0,0-.35.06,4.81,4.81,0,0,1-2.39,1.07,3,3,0,0,1-2.63-.86,4.86,4.86,0,0,1-.86-1.36c-.35.54-.69,1-1,1.53-.08.15,0,.42.13.62.21.46.43.92.67,1.36a12.76,12.76,0,0,0,2.26,3,24.68,24.68,0,0,0,3.54,3.15,13.74,13.74,0,0,0,2.87,1.3c1.15.46,1.8,1.76.65,2.8a13.63,13.63,0,0,1-1.91,1.49,7.92,7.92,0,0,1-2.22,1.05c-1.05.25-1.88-.26-2.09-1.66l.14,0c-.11-.39-.22-.82-.37-1.4-.15-.24-.38-.65-.63-1.05s-.44-.62-.61-1a13.46,13.46,0,0,0-1.59-2,2.54,2.54,0,0,1-.25-.53c-.12-.08-.26-.12-.33-.22-.32-.45-.59-.91-.91-1.35-.48-.67-1-1.33-1.5-2-.26.3-.53.59-.78.9-.7.91-1.37,1.85-2.08,2.75a.48.48,0,0,0,0,.67,19.93,19.93,0,0,0,2.81,3.4,5.6,5.6,0,0,0,1.63,1,2.72,2.72,0,0,1,.91,4.63,5.18,5.18,0,0,1-2.14,1.34,2.36,2.36,0,0,1-3-1.65,4.07,4.07,0,0,0-.4-.91,3,3,0,0,1-.15.62,3.41,3.41,0,0,1-.62.94,6.15,6.15,0,0,1-3.72,1.62,2.54,2.54,0,0,1-2.15-1,2.76,2.76,0,0,1-.53-2.15c.05-.52,0-1,0-1.56a.89.89,0,0,0,0-.4,4,4,0,0,1-.21-.81c-.05-.55-.36-.83-.89-.73l-1.85.37c.26,1,.47,2,.73,2.88s.52,1.85.85,2.75c.39,1.07.83,2.13,1.31,3.16a8.12,8.12,0,0,0,.94,1.42,2.81,2.81,0,0,1,.54,1.42,1.49,1.49,0,0,1-1.09,1.46,21.52,21.52,0,0,1-2.59.8,8,8,0,0,1-1.95.16,1.48,1.48,0,0,1-1.39-1.83,6.07,6.07,0,0,1,.5-1.6,8.26,8.26,0,0,0,.55-3.9c0-1.12-.08-2.25-.21-3.37a6.63,6.63,0,0,0-.88-3.07l-2.24.36c.19,1.26.33,2.54.6,3.78a14.46,14.46,0,0,0,.89,2.46,2.67,2.67,0,0,1,.22,2,2.15,2.15,0,0,1-1.58,1.32,7.4,7.4,0,0,1-3.44,0,1.86,1.86,0,0,1-1.25-1.54.64.64,0,0,1,.14-.31,2.86,2.86,0,0,1,.11-.76c.15-.3.4-.54.56-.83a4.15,4.15,0,0,0,.47-1,20.31,20.31,0,0,0,.28-4.89l-1.05-.18-3.58-.61a2.05,2.05,0,0,0-.17.4q-.33,1.33-.63,2.67a3.71,3.71,0,0,0,.33,2.43,2.54,2.54,0,0,1-.22,2.73,2,2,0,0,1-1.07.63,4.82,4.82,0,0,1-2.95-.28,3.77,3.77,0,0,1-1.87-1.45l-.12,0c0,.54-.05,1.07,0,1.61,0,.74.15,1.48.19,2.22s-.32.94-1,.78a14.59,14.59,0,0,1-1.71-.51,18.73,18.73,0,0,1-2.13-.88c-1.15-.58-1-1.62-.22-2.36a14,14,0,0,0,2.49-3.2c.56-1,1-2.08,1.53-3.12.34-.68.73-1.34,1-2a3.28,3.28,0,0,0,.09-.84c0-.11.17-.25.13-.31-.11-.24-.07-.62-.58-.64a9.24,9.24,0,0,1-.24,1,5.14,5.14,0,0,1-.5,1.34c-.29.42-.53,1-1.1,1.13a4.46,4.46,0,0,1-1.25.3,3.57,3.57,0,0,1-3.38-2.8,2,2,0,0,1,1.49-2.24,2.79,2.79,0,0,0,1.74-.72c.21-.23.26-.43,0-.61a10.3,10.3,0,0,1-2.3-2.17c-.24-.27-.53-.5-.8-.75-.44-.42-.75,0-1,.22a18.26,18.26,0,0,0-1.51,1.41c-.82.78-1.64,1.56-2.45,2.36a10.24,10.24,0,0,0-1.39,1.48,11.28,11.28,0,0,0-.95,2,5.12,5.12,0,0,1-1.06,1.71,1.8,1.8,0,0,1-1.68.31,5.34,5.34,0,0,1-2.12-1.47,14.8,14.8,0,0,1-1.1-1.14,2,2,0,0,1,.06-2.66,2.61,2.61,0,0,0,.36-.54,1.46,1.46,0,0,1-2.09-.33,5.58,5.58,0,0,1-.57-.86,5.18,5.18,0,0,1-.77-2.85,1.67,1.67,0,0,1,1.3-1.47c.68-.16,1.39-.21,2.08-.33a10.7,10.7,0,0,0,3.58-1.48c.73-.42.67-.4.33-1.18a3.61,3.61,0,0,1-.26-2,.39.39,0,0,0-.1-.28,5.11,5.11,0,0,1-1.66-4.13,1.83,1.83,0,0,1,1.3-1.42c.42-.07.84-.1,1.27-.16,0-.35-.1-.8-.16-1.31l-.15.4-.47,0a.64.64,0,0,0,0-.12,3,3,0,0,1-.58.27c-.85.18-1.69.33-2.54.5a6,6,0,0,1-1.41.28c-.75-.06-1.27.54-2,.57l-.31,0-1.1.7-1.55,1a2.54,2.54,0,0,1-1.51.44,1.05,1.05,0,0,1-.79-.74,13.87,13.87,0,0,1-.24-3.58c0-.23,0-.46,0-.69.06-1.05.65-1.26,1.48-1.22a7.11,7.11,0,0,1,1.55.36,7.3,7.3,0,0,0,2,.32,20.43,20.43,0,0,0,3.39-.44,15,15,0,0,0,3.06-.88c.56-.24.49-.67.58-1.05a11,11,0,0,0,.17-1.62l-1.91-.24a2.08,2.08,0,0,1-.41-.11s-.13-.05-.15,0c-.28.21-.48.17-.61-.16,0,0-.11-.05-.26-.11l.2.32-2,0c0-.11.07-.2.1-.3l-.07,0a3.57,3.57,0,0,1-.25.38,1.16,1.16,0,0,1-1.19.31,2.41,2.41,0,0,0-2.16.57,1.5,1.5,0,0,1-1.33.19c-1.11-.16-1.43-1-1.4-2.05a5.26,5.26,0,0,1,1-2.89,2.4,2.4,0,0,1,3.13-.71,9,9,0,0,0,3.7,1.15c1.1.07,2.21.19,3.31.29.27,0,.46,0,.49-.33a15.2,15.2,0,0,1,.92-3.31c.17-.55.26-1.13.4-1.7.06-.26.15-.52.24-.82a1.73,1.73,0,0,0-1.53.3,3.77,3.77,0,0,1-1.11.48,3.27,3.27,0,0,1-1.42.05,2.89,2.89,0,0,1-2.25-1.91c-.14-.45-.31-.88-.54-1.53-.53-.11-1.37-.32-2.23-.46a13.75,13.75,0,0,0-1.44-.07c-.11,0-.22-.11-.32-.09a2.82,2.82,0,0,1-.83-.09,1.13,1.13,0,0,1-.69-1.58c.38-1,.77-2.07,1.19-3.08a1.29,1.29,0,0,1,2.22-.28c.63.7,1.25,1.42,1.93,2.07a2.91,2.91,0,0,0,1.61.83.3.3,0,0,0,.2-.06,2.59,2.59,0,0,1,2.78-.51,3.67,3.67,0,0,1,2,1.89c.33.69.53.8,1.3.66.3-.05.59-.13.91-.2,0,0,0-.13,0-.16a3.81,3.81,0,0,0,1-1.49,13.6,13.6,0,0,1,.85-1.55c.3-.44.08-.69-.21-.93-.92-.77-1.87-1.51-2.77-2.3a10.49,10.49,0,0,0-2.74-1.64,3,3,0,0,0-.77-.11l.11-.45c-.69.49-.83.41-1.35,0a1.14,1.14,0,0,1-.4-1.42,5.48,5.48,0,0,1,3.18-3.31c1-.38,1.72,0,2.15,1.16a9.91,9.91,0,0,0,2.43,3.55c.61.62,1.25,1.21,1.88,1.8.17.16.36.31.54.46a.36.36,0,0,0,.5,0c.69-.46,1.4-.87,2.08-1.34.24-.16.54-.34.39-.76-.06-.15.09-.38,0-.53a2.61,2.61,0,0,0-.49-.8c-.51-.57-1.07-1.09-1.6-1.64s-1.1-1.31-1.73-1.88a10.93,10.93,0,0,0-1.84-1.23c-.54-.31-1.19-.46-1.7-.81a1.71,1.71,0,0,1-.46-2.71,7.39,7.39,0,0,1,3-2.17,2.34,2.34,0,0,1,1.87-.1,1.76,1.76,0,0,1,1.13,1.43,11.53,11.53,0,0,0,1.54,4.92c.61,1.07,1.31,2.1,2,3.14a2.19,2.19,0,0,0,.43.43c.43.34.68.28,1.1-.24a15.7,15.7,0,0,1-.71-1.5,2.4,2.4,0,0,1,.22-2.22,2,2,0,0,1,2.26-.74,2.49,2.49,0,0,1,1.82,1.51,2.18,2.18,0,0,0,.18.31,5,5,0,0,1,2.13-2c-.19-.75-.38-1.51-.58-2.27a22.82,22.82,0,0,0-1.24-3.38,8.38,8.38,0,0,0-.74-1.09,5.42,5.42,0,0,1-.73-1.21,1.35,1.35,0,0,1,.82-1.78,8.27,8.27,0,0,1,2-.58,11.11,11.11,0,0,1,2.08,0,2.12,2.12,0,0,1,.82.21c.56.25.71.81.55,1.56-.08.39-.37.73-.48,1.12a10.51,10.51,0,0,0-.31,1.58,9.59,9.59,0,0,0,.24,3.11c.14.73.27,1.47.43,2.19a1.1,1.1,0,0,0,.34.52,12.19,12.19,0,0,0,1,.86.74.74,0,0,0,.45.15c.39,0,.77-.12,1.16-.12s.45-.23.41-.53c-.11-.78-.21-1.55-.34-2.32-.16-1-.35-2-.54-3a4.5,4.5,0,0,0-.24-.87c-.17-.39-.09-.86-.39-1.21a2.07,2.07,0,0,1-.22-.35,8.88,8.88,0,0,1-.89-1.66c-.33-1.11,0-1.57,1-1.88a7.9,7.9,0,0,1,3.55-.29c1.15.18,1.28,1.19,1,2.07a14.32,14.32,0,0,0-.63,2.09,10.87,10.87,0,0,0-.06,2.42c.08,1.12.24,2.23.42,3.34.11.68.32,1.34.46,1.9l3.47.7a4,4,0,0,0-.09-.87,2.46,2.46,0,0,1,1.44-2.91,3.62,3.62,0,0,1,3.22.26,2.2,2.2,0,0,1,1.31,1.48,3.78,3.78,0,0,0,.28-.43c.28-.69.59-1.38.82-2.08a6.69,6.69,0,0,0,.39-3.65,8.27,8.27,0,0,1-.32-1.54,1.59,1.59,0,0,1,1-1.73,2.19,2.19,0,0,1,1.47.12,19,19,0,0,1,3.05,1.38,1.49,1.49,0,0,1,.81,2.15,15.22,15.22,0,0,1-1.2,1.69c-.12.18-.28.33-.45.54.36.2.7.38,1,.57a11.39,11.39,0,0,1,1.35.91,8.55,8.55,0,0,1,1,1.21,1.86,1.86,0,0,1-.26,2.7c-.44.37-1,.64-1.41,1a12.45,12.45,0,0,0-1.08,1c-.67.67-1.34,1.34-2,2a3.87,3.87,0,0,0-.37.56,21.56,21.56,0,0,1,4.57,3.24c1.11-1,2.25-2.09,3.39-3.16a11.83,11.83,0,0,0,1.6-2.32,2.11,2.11,0,0,1,2.78-.74,3.22,3.22,0,0,1,1.49,1.36,1.74,1.74,0,0,1-1.11,2.62c-.48.13-.93.39-1.41.54a4,4,0,0,0-1.39.52c-.6.46-1.25.86-1.81,1.36s-1.31,1.29-2,1.95c-.19.19-.08.34.12.41a4.81,4.81,0,0,0,3.18,0,10.76,10.76,0,0,0,2.66-1.47c1-.65,1.82-1.46,2.73-2.2a7,7,0,0,0,1.71-2.47,1.53,1.53,0,0,1,2.65-.34,21.72,21.72,0,0,1,2.05,2.74,4.1,4.1,0,0,1,.41.74,1.15,1.15,0,0,1-.36,1.23,2,2,0,0,1-1.28.55c-.23,0-.5.3-.71-.08,0,0-.24,0-.24,0-.11.41-.54.24-.69.38l-.54-.12,0,.14h.29c0,.05,0,.08-.05.08-.7.31-1.41.59-2.1.92a13.44,13.44,0,0,0-2.13,1.11,15.56,15.56,0,0,0-3.36,2.45,15.54,15.54,0,0,1-1.08,1.21.59.59,0,0,0-.08.73,5.75,5.75,0,0,0,.84,1.22c.1.11.48,0,.69,0s.63-.47,1-.56.76-.49,1.21-.59c.07,0,.12-.14.18-.22a15.13,15.13,0,0,1,1.32-1.85,2.55,2.55,0,0,1,2-.76,3.18,3.18,0,0,1,1.81.69,3.41,3.41,0,0,1,1.39,2.71,2.92,2.92,0,0,1-.39,1.7,3.13,3.13,0,0,1-2.27,1.47,4.51,4.51,0,0,1-1.16,0,8,8,0,0,1-.83-.15,1.44,1.44,0,0,0-.54,0,14.89,14.89,0,0,0-2.1.27,3.21,3.21,0,0,1-.74.13c.1.77.19,1.42.29,2.14.58-.06,1.07-.07,1.54-.15,1.22-.21,2.45-.39,3.66-.68a13.65,13.65,0,0,0,2.12-.82,1.35,1.35,0,0,0,.57-.49c.28-.44.76-.55,1.17-.76a1.16,1.16,0,0,1,1.34.44,9.45,9.45,0,0,1,1,1.76,6.86,6.86,0,0,1,.38,1.67,1.58,1.58,0,0,1-1.87,1.89c-.76-.06-1.51-.36-2.28-.46a20.31,20.31,0,0,0-2.35-.15c-.7,0-1.41,0-2.11.05s-1.17.16-1.75.23a4.23,4.23,0,0,1-.62,0,1.37,1.37,0,0,0,.31,1.39,9.28,9.28,0,0,0,2.87,1.5,14.62,14.62,0,0,0,3,.4c1.05,0,2.1-.09,3.15-.15,0,0,.07,0,.11,0,.45-.21.92-.4,1.37-.64a1.73,1.73,0,0,1,2.61,1.14c.15.89.49,1.75.59,2.64A3.54,3.54,0,0,1,456,353.59Z"/><path class="cls-1" d="M433.57,347.46c-2.51-.5-2.59,7.33-.42,7.48s2.85-2.73,2.85-5.16S435.68,347.88,433.57,347.46Z"/><path class="cls-1" d="M429.22,372.18a.38.38,0,0,0-.34-.08c-.31.19-.59.41-.94.66.45.52.86,1.06,1.34,1.53.75.73,1.56,1.41,2.36,2.12a1.5,1.5,0,0,0-.12-.45C430.76,374.69,430,373.43,429.22,372.18Z"/><path class="cls-1" d="M420.24,348.47a5.16,5.16,0,0,0,.31,5.54c1.13,1.7,4.92.1,5.46-1a4,4,0,0,0,0-4C425.16,347.82,421.08,346.88,420.24,348.47Z"/><path class="cls-1" d="M355.82,420.05a29.17,29.17,0,0,0-21.32,8.83,30.18,30.18,0,0,0,0,42.64,29.17,29.17,0,0,0,21.32,8.83,30.15,30.15,0,0,0,0-60.3Zm-8.31,26.66,8.31,3.49v-9a9,9,0,0,1,8.34,5.6h0s0,.1,0,.15c.09.22.17.44.24.67s.05.22.08.33.09.35.13.52,0,.35.08.53,0,.22,0,.34a5.63,5.63,0,0,1,0,.71s0,.1,0,.16v0c0,.26,0,.51,0,.76a.81.81,0,0,0,0,.16c0,.2-.06.4-.09.59s0,.21-.05.3h0a9.09,9.09,0,0,1-.88,2.42h0l-.29.49c0,.08-.1.18-.16.26l-.18.25a9.14,9.14,0,0,1-2.24,2.19h0l-.25.16-.52.31-.14.07c-.23.11-.45.22-.69.32h0l-.16,0q-.33.14-.66.24l-.34.08-.51.13-.53.08-.34.05-.71,0h-.19l-.48,0a8.57,8.57,0,0,1-5.48-2.27,8.89,8.89,0,0,1-2.35-3.31A8.71,8.71,0,0,1,347.51,446.71ZM343,463l3.75-3.75a12.8,12.8,0,1,0,9.06-21.85v-5.31a18.11,18.11,0,0,1,0,36.22A17.46,17.46,0,0,1,343,463Zm15.92,13.93-.88-5a21.81,21.81,0,0,0-2.23-43.5v-5.1a26.91,26.91,0,0,1,3.11,53.64Z"/><path class="cls-1" d="M355.82,387.2l-55.58,31.5v63l55.58,31.5,55.59-31.5v-63Zm0,96.17a32.1,32.1,0,0,1-23.46-9.72,33.21,33.21,0,0,1,0-46.91A32.13,32.13,0,0,1,355.82,417a33.17,33.17,0,0,1,0,66.34Z"/><path class="cls-4" d="M818.42,214.7h-5.26l2.63-6.36Zm1.85,3.16-4.2-10.08h-.57l-4.2,10.08h.56l1.12-2.71h5.62l1.11,2.71Zm-11.26,0-4.84-5.26,4.38-4.82h-.65l-5.24,5.82v-5.82h-.48v10.08h.48v-3.64l1.21-1.32,4.49,5Zm-11-10.08h-.48v10.08H798Zm-4.12,10.08v-.46h-6.57l6.46-9.16v-.46h-7v.46h6.45l-6.45,9.16v.46Z"/><path class="cls-1" d="M1015.3,199.93a5.48,5.48,0,0,0,4.15-1.83v-3.77h-4.77v1.55h3v1.57a3.65,3.65,0,0,1-2.38.91,3.65,3.65,0,0,1,0-7.3,3.2,3.2,0,0,1,2.61,1.35l1.45-.82a4.75,4.75,0,0,0-4.06-2.1,5.22,5.22,0,1,0,0,10.44m-8.49-.2V189.66H1005v7l-5.15-7h-1.81v10.07h1.77v-7.19l5.25,7.19Zm-12.39-10.07h-1.76v10.07h1.76Zm-8.74,10.25a4.57,4.57,0,0,0,4.05-2.26l-1.51-.77a3,3,0,0,1-2.54,1.46,3.64,3.64,0,0,1,0-7.28,3,3,0,0,1,2.54,1.47l1.51-.77a4.56,4.56,0,0,0-4.05-2.27,5.21,5.21,0,1,0,0,10.42M974,194.42h-2.42v-3.2H974a1.6,1.6,0,1,1,0,3.2m3.6,5.31-2.46-3.95a2.83,2.83,0,0,0,2.39-3,3.06,3.06,0,0,0-3.29-3.16h-4.43v10.07h1.77V196h1.75l2.24,3.76Zm-15.79.18c2.91,0,4.35-1.66,4.35-4.16v-6.09h-1.79v6a2.58,2.58,0,1,1-5.15,0v-6h-1.78v6.1c0,2.48,1.44,4.15,4.37,4.15m-12.73-1.57a3.65,3.65,0,1,1,3.33-3.64,3.35,3.35,0,0,1-3.33,3.64m0,1.57A5.21,5.21,0,1,0,944,194.7a5,5,0,0,0,5.15,5.21m-11.74,0c2.72,0,3.9-1.43,3.9-3.11,0-2.19-2-2.7-3.64-3.12-1.2-.3-2.22-.56-2.22-1.35s.66-1.25,1.7-1.25a4.09,4.09,0,0,1,2.92,1.15l1-1.32a5.27,5.27,0,0,0-3.78-1.4c-2.2,0-3.67,1.28-3.67,2.94,0,2.13,1.94,2.62,3.58,3,1.23.32,2.3.59,2.3,1.5,0,.66-.57,1.37-2,1.37a4.34,4.34,0,0,1-3.19-1.39l-1,1.36a5.35,5.35,0,0,0,4.09,1.6m-11.93-1.73h-2v-7h2a3.26,3.26,0,0,1,3.46,3.48,3.31,3.31,0,0,1-3.46,3.48m0,1.55a5,5,0,1,0,0-10.07H921.7v10.07Zm-9.3,0L919,189.66h-2l-1.95,7.76L913,189.66h-1.4l-2.08,7.76-2-7.76h-2l2.89,10.07h1.89l1.94-7.43,2,7.43Zm-17.66-1.39a3.65,3.65,0,1,1,3.34-3.64,3.35,3.35,0,0,1-3.34,3.64m0,1.57a5.21,5.21,0,1,0-5.15-5.21,5,5,0,0,0,5.15,5.21M887,194.42h-2.41v-3.2H887a1.6,1.6,0,1,1,0,3.2m3.61,5.31-2.46-3.95a2.83,2.83,0,0,0,2.39-3,3.06,3.06,0,0,0-3.3-3.16H882.8v10.07h1.77V196h1.75l2.23,3.76Zm-14.77.18a4.57,4.57,0,0,0,4-2.26l-1.51-.77a3,3,0,0,1-2.54,1.46,3.64,3.64,0,0,1,0-7.28,3,3,0,0,1,2.54,1.47l1.51-.77a4.56,4.56,0,0,0-4-2.27,5.21,5.21,0,1,0,0,10.42m-17-5.49h-2.42v-3.2h2.42a1.6,1.6,0,1,1,0,3.2m3.6,5.31-2.46-3.95a2.83,2.83,0,0,0,2.39-3,3.06,3.06,0,0,0-3.29-3.16H854.6v10.07h1.77V196h1.75l2.24,3.76Zm-11.11,0v-1.55h-5.14v-2.8h5v-1.55h-5v-2.61h5.14v-1.56h-6.9v10.07Zm-13,0v-8.51h3v-1.56H833.5v1.56h3v8.51Zm-10.83-5.31h-2.41v-3.2h2.41a1.6,1.6,0,1,1,0,3.2m3.61,5.31-2.46-3.95a2.83,2.83,0,0,0,2.39-3,3.06,3.06,0,0,0-3.3-3.16h-4.42v10.07h1.77V196h1.75l2.23,3.76Zm-13.65-3.49h-3.63l1.82-4.8Zm3.25,3.49-4-10.07h-2.21l-3.95,10.07h2l.74-1.93H818l.74,1.93Zm-12.72,0V189.66h-2.49l-2.75,6.63L800,189.66h-2.5v10.07h1.77v-7.47l3.08,7.47h.76l3.09-7.47v7.47Zm-17.5.18c2.71,0,3.89-1.43,3.89-3.11,0-2.19-2-2.7-3.64-3.12-1.19-.3-2.22-.56-2.22-1.35s.67-1.25,1.71-1.25a4.05,4.05,0,0,1,2.91,1.15l1-1.32a5.28,5.28,0,0,0-3.78-1.4c-2.21,0-3.67,1.28-3.67,2.94,0,2.13,1.93,2.62,3.58,3,1.22.32,2.29.59,2.29,1.5,0,.66-.57,1.37-2,1.37a4.37,4.37,0,0,1-3.19-1.39l-1,1.36a5.37,5.37,0,0,0,4.1,1.6"/><polygon class="cls-1" points="748.39 174.04 722.15 188.91 722.15 218.65 748.39 233.52 774.63 218.65 774.63 188.91 748.39 174.04"/><path class="cls-2" d="M763,196.64c-1.41.09-8.82,3-11.38,3H750.3a1.22,1.22,0,0,0-.08-.31c.78-.16,3.89-3.23,3.89-3.23a12.74,12.74,0,0,1,1.67-3.66l0-.19c.69-.32,5.52-1.61,5.52-3.74a.94.94,0,0,0-.26-.68c0,.17-.11.51-.26.57a.3.3,0,0,1-.16,0c-1.28,2.2-5.35,3.39-5.35,3.39s-.6.22-1.78,3.68a.72.72,0,0,1-.27.06c-.07.07-2.55,2.5-3.24,2.42-.3-.62-1.24-.58-1.07-1.1,1.17-.11,1.23-.61.88-1.22a5.73,5.73,0,0,0,.65-.9,5.82,5.82,0,0,0,.74,0h0a2.41,2.41,0,0,0-.53-.28c.07-.13.16-.26.24-.4a7.36,7.36,0,0,0,1-.06h0a4.44,4.44,0,0,0-.73-.28l.19-.28s1-.05,1-.08h0a4.41,4.41,0,0,0-.71-.27l.19-.24a5.28,5.28,0,0,0,.91,0h0a3.51,3.51,0,0,0-.72-.27l.22-.26a7.75,7.75,0,0,0,.8.06,6.54,6.54,0,0,0-.59-.29,1.37,1.37,0,0,1,.16-.18,5.47,5.47,0,0,0,.66.09,2.39,2.39,0,0,0-.43-.32l.2-.19a2.69,2.69,0,0,0,.54.1,1.4,1.4,0,0,0-.32-.27,2.39,2.39,0,0,1,.33-.25c.08,0,.34.13.34.1s-.14-.2-.17-.2.49-.31.45-.31a1.77,1.77,0,0,0-.64.15s-.15-.19-.18-.18a1.13,1.13,0,0,0,0,.26l-.38.26s-.17-.21-.2-.2a2.22,2.22,0,0,0,0,.36,3.47,3.47,0,0,0-.29.25c0-.06-.21-.34-.24-.32a1.91,1.91,0,0,0,.05.51l-.18.18c-.07-.09-.25-.34-.28-.33a2.08,2.08,0,0,0,.09.54c-.08.09-.17.18-.25.28a1.72,1.72,0,0,0-.33-.38,2.31,2.31,0,0,0,.14.61l-.21.26a3.83,3.83,0,0,0-.5-.53,7.35,7.35,0,0,0,.28.83l-.24.33a2.82,2.82,0,0,0-.43-.5s.17.6.21.82-.19.29-.27.43c-.17-.24-.33-.53-.36-.53a8,8,0,0,0,.14.87,3.28,3.28,0,0,1-.77.82.49.49,0,0,1-.67-.4c.48-.07.85-.35.85-.7s-.35-.48-.55-.48v.43c0,.27-.07.45-.35.45v-5.81a10.39,10.39,0,0,1,.19-1.78c.06-.19.1-.32,0-.41s-.13-.11-.29-.13a2.46,2.46,0,0,1-.25-.34h0a2.46,2.46,0,0,1-.25.34c-.16,0-.25.06-.29.13s0,.22,0,.41a10.39,10.39,0,0,1,.19,1.78v5.81c-.28,0-.35-.18-.35-.45v-.43c-.2,0-.55.16-.55.48s.37.63.85.7a.49.49,0,0,1-.67.4,3.28,3.28,0,0,1-.77-.82,8,8,0,0,0,.14-.87s-.19.29-.36.53c-.08-.14-.17-.28-.27-.43s.24-.81.21-.82a2.82,2.82,0,0,0-.43.5l-.24-.33a7.35,7.35,0,0,0,.28-.83,3.83,3.83,0,0,0-.5.53,2.75,2.75,0,0,0-.22-.26,2,2,0,0,0,.15-.61,2,2,0,0,0-.34.38l-.24-.28a2.08,2.08,0,0,0,.09-.54s-.21.24-.28.33l-.18-.18a2.43,2.43,0,0,0,0-.51s-.19.26-.24.32l-.29-.25a2.22,2.22,0,0,0,0-.36s-.17.16-.2.2l-.38-.26a1.13,1.13,0,0,0,0-.26s-.16.14-.18.18a1.77,1.77,0,0,0-.64-.15s.39.23.45.31-.17.2-.17.2.26-.09.33-.1a2,2,0,0,1,.34.25,1.4,1.4,0,0,0-.32.27,2.69,2.69,0,0,0,.54-.1l.2.19a2.39,2.39,0,0,0-.43.32,5.76,5.76,0,0,0,.66-.09c0,.05.12.12.16.18a5.7,5.7,0,0,0-.6.29,7.73,7.73,0,0,0,.81-.06l.22.26a3.51,3.51,0,0,0-.72.27h0a5.28,5.28,0,0,0,.91,0l.19.24a4.41,4.41,0,0,0-.71.27h0s.95.08,1,.08l.19.28a4.44,4.44,0,0,0-.73.28h0a7.31,7.31,0,0,0,1,.06c.09.14.18.27.25.4a2.2,2.2,0,0,0-.53.28h0a5.82,5.82,0,0,0,.74,0,5.73,5.73,0,0,0,.65.9c-.35.61-.29,1.11.88,1.22.17.52-.77.48-1.07,1.1-.69.08-3.17-2.35-3.24-2.42a.72.72,0,0,1-.27-.06c-1.18-3.46-1.68-3.65-1.78-3.68s-4.07-1.19-5.35-3.39a.3.3,0,0,1-.16,0c-.15-.06-.26-.4-.27-.57a1,1,0,0,0-.26.68c0,2.13,4.84,3.42,5.53,3.74l-.05.19a12.21,12.21,0,0,1,1.67,3.66s3.12,3.07,3.9,3.23a1.22,1.22,0,0,0-.08.31h-1.27c-2.56,0-10-2.86-11.38-3-1.75-.1-3.33.21-3.38.89s1,2.24,2.82,2.72c2.92.77,6.87,1.85,8.64,2.22a33.91,33.91,0,0,1,4.46-2,.72.72,0,0,0,.13.65c-.46.23-3.95,2.93-4.26,3.22s-.84,4.89-1.1,5.39a25.19,25.19,0,0,1-2.44,2c-.26.86-2.29,3.07-1.82,3.62a.92.92,0,0,1,.46-.41c0,.29.33.41.61.18-.55-.11.25-1,1.24-2.9,0,0,.2.07.22.06s2.41-2.14,2.48-2.2.25,0,.28-.08c.31-.88,0-3.82.56-4.82,0,0,.3,0,.36,0a26.53,26.53,0,0,1,4.07-3,1.94,1.94,0,0,0,.22.25c-.53.71-3.79,5.05-3.7,5.71,0,0,.27.17.25.2.55,2.12,1.21,5,1,5.5a24.87,24.87,0,0,1-1.81,3.44c-.06.07.07.24,0,.31-1.76,2.52-3,2.8-3.3,2.94a4,4,0,0,0,.26.35c-.07.26.11.7.49.63-.28-.29-.2-.56.25-.66,1.2-.26,2.54-2,4.82-6.87,0-.09.31-.13.31-.2a21.33,21.33,0,0,0-1.39-5.57s1.73-2.46,2.82-3.74c0,0,0,.06.07.09a10.89,10.89,0,0,0-.26,1.79c.09.12.17.27.13.34a12.23,12.23,0,0,0-.25,2.14.24.24,0,0,0,.11.19s.05,0,.05.06c0,.2-.18,1.85-.16,1.88s.11.06.11.07-.14,1.84-.12,1.88a.49.49,0,0,0,.17.08c0,.05-.09,1.34-.05,1.37a.86.86,0,0,0,.25.07s.05.65.08.71.3.09.3.17a2.38,2.38,0,0,0,0,.54s.18,0,.23,0,.35.16.41.16h0c.06,0,.33-.16.41-.16s.2.07.23,0a2.38,2.38,0,0,0,0-.54c0-.08.26-.11.3-.17s.07-.67.08-.71a1,1,0,0,0,.25-.07s-.06-1.32,0-1.37a.49.49,0,0,0,.17-.08s-.11-1.78-.12-1.88.08,0,.11-.07-.16-1.68-.16-1.88c0,0,0,0,0-.06a.24.24,0,0,0,.11-.19,12.23,12.23,0,0,0-.25-2.14c0-.07,0-.22.13-.34a10.89,10.89,0,0,0-.26-1.79s.06,0,.07-.09c1.09,1.28,2.8,3.71,2.82,3.74a21.33,21.33,0,0,0-1.39,5.57c0,.07.26.11.31.2,2.28,4.87,3.62,6.61,4.82,6.87.45.1.53.37.25.66.38.07.56-.37.48-.63a2.66,2.66,0,0,0,.27-.35c-.33-.14-1.54-.42-3.3-2.94,0-.07.1-.24,0-.31a26.12,26.12,0,0,1-1.82-3.44c-.16-.47.5-3.38,1.05-5.5,0,0,.25-.18.25-.2.09-.66-3.17-5-3.7-5.71a1.94,1.94,0,0,0,.22-.25,26.53,26.53,0,0,1,4.07,3c.06.06.34,0,.36,0,.56,1,.25,3.94.56,4.82,0,.09.19,0,.28.08s2.41,2.15,2.48,2.2.18-.07.22-.06c1,1.9,1.79,2.79,1.24,2.9.28.23.57.11.61-.18a.92.92,0,0,1,.46.41c.47-.55-1.56-2.76-1.82-3.62a24,24,0,0,1-2.44-2c-.26-.5-.73-5-1.1-5.39s-3.81-3-4.26-3.22a.72.72,0,0,0,.13-.65,33.91,33.91,0,0,1,4.46,2c1.77-.37,5.72-1.45,8.64-2.22,1.79-.48,2.86-2.05,2.81-2.72s-1.62-1-3.37-.89"/><path class="cls-1" d="M786.17,272.43l1-1.35a4.35,4.35,0,0,0,3.19,1.39c1.45,0,2-.71,2-1.38,0-2.11-5.87-.8-5.87-4.51,0-1.67,1.46-2.95,3.67-2.95a5.21,5.21,0,0,1,3.77,1.41l-1,1.31A4.09,4.09,0,0,0,790,265.2c-1,0-1.71.5-1.71,1.26,0,1.87,5.86.7,5.86,4.46,0,1.68-1.18,3.12-3.9,3.12A5.35,5.35,0,0,1,786.17,272.43Z"/><path class="cls-1" d="M806,273.85v-7.47l-3.1,7.47h-.75l-3.08-7.47v7.47H797.3V263.78h2.49l2.74,6.63,2.74-6.63h2.49v10.07Z"/><path class="cls-1" d="M818.47,273.85l-.74-1.93h-4.62l-.74,1.93h-2l4-10.07h2.21l4,10.07Zm-3.05-8.29-1.81,4.81h3.63Z"/><path class="cls-1" d="M828.85,273.85l-2.24-3.76h-1.75v3.76H823.1V263.78h4.42a3.06,3.06,0,0,1,3.29,3.16,2.83,2.83,0,0,1-2.38,3l2.46,4Zm.15-6.91a1.58,1.58,0,0,0-1.72-1.6h-2.42v3.2h2.42A1.59,1.59,0,0,0,829,266.94Z"/><path class="cls-1" d="M836.33,273.85v-8.51h-3.05v-1.56h7.86v1.56h-3v8.51Z"/><path class="cls-1" d="M844.15,273.85V263.78h6.9v1.56h-5.13V268h5v1.56h-5v2.79h5.13v1.55Z"/><path class="cls-1" d="M860.13,273.85l-2.24-3.76h-1.75v3.76h-1.77V263.78h4.43a3.06,3.06,0,0,1,3.29,3.16,2.83,2.83,0,0,1-2.39,3l2.47,4Zm.15-6.91a1.59,1.59,0,0,0-1.72-1.6h-2.42v3.2h2.42A1.59,1.59,0,0,0,860.28,266.94Z"/><path class="cls-1" d="M870.31,268.83a5.08,5.08,0,0,1,5.28-5.21,4.56,4.56,0,0,1,4,2.26l-1.51.77a3,3,0,0,0-2.54-1.46,3.64,3.64,0,0,0,0,7.28,3,3,0,0,0,2.54-1.47l1.51.77a4.57,4.57,0,0,1-4,2.27A5.08,5.08,0,0,1,870.31,268.83Z"/><path class="cls-1" d="M888.32,273.85l-2.23-3.76h-1.75v3.76h-1.77V263.78H887a3.06,3.06,0,0,1,3.3,3.16,2.83,2.83,0,0,1-2.39,3l2.46,4Zm.15-6.91a1.58,1.58,0,0,0-1.72-1.6h-2.41v3.2h2.41A1.59,1.59,0,0,0,888.47,266.94Z"/><path class="cls-1" d="M893.11,268.83a5.15,5.15,0,1,1,5.15,5.21A5,5,0,0,1,893.11,268.83Zm8.49,0a3.35,3.35,0,1,0-3.34,3.64A3.35,3.35,0,0,0,901.6,268.83Z"/><path class="cls-1" d="M914,273.85l-2-7.43-2,7.43h-1.89l-2.88-10.07h2l2,7.76,2.08-7.76h1.4l2.09,7.76,1.95-7.76h2l-2.86,10.07Z"/><path class="cls-1" d="M921.48,273.85V263.78h3.74a5,5,0,1,1,0,10.07Zm7.2-5a3.27,3.27,0,0,0-3.46-3.49h-2v7h2A3.31,3.31,0,0,0,928.68,268.83Z"/><path class="cls-1" d="M933.06,272.43l1-1.35a4.35,4.35,0,0,0,3.19,1.39c1.45,0,2-.71,2-1.38,0-2.11-5.87-.8-5.87-4.51,0-1.67,1.46-2.95,3.67-2.95a5.22,5.22,0,0,1,3.77,1.41l-1,1.31a4.09,4.09,0,0,0-2.92-1.15c-1,0-1.7.5-1.7,1.26,0,1.87,5.86.7,5.86,4.46,0,1.68-1.18,3.12-3.9,3.12A5.35,5.35,0,0,1,933.06,272.43Z"/><path class="cls-1" d="M943.74,268.83a5.15,5.15,0,1,1,5.15,5.21A5,5,0,0,1,943.74,268.83Zm8.48,0a3.35,3.35,0,1,0-3.33,3.64A3.34,3.34,0,0,0,952.22,268.83Z"/><path class="cls-1" d="M957.25,269.88v-6.1H959v6a2.57,2.57,0,1,0,5.14,0v-6H966v6.09c0,2.5-1.44,4.17-4.35,4.17S957.25,272.36,957.25,269.88Z"/><path class="cls-1" d="M975.38,273.85l-2.24-3.76h-1.75v3.76h-1.77V263.78h4.43a3.06,3.06,0,0,1,3.29,3.16,2.83,2.83,0,0,1-2.39,3l2.46,4Zm.15-6.91a1.59,1.59,0,0,0-1.72-1.6h-2.42v3.2h2.42A1.59,1.59,0,0,0,975.53,266.94Z"/><path class="cls-1" d="M980.16,268.83a5.09,5.09,0,0,1,5.29-5.21,4.56,4.56,0,0,1,4,2.26l-1.51.77a3,3,0,0,0-2.54-1.46,3.64,3.64,0,0,0,0,7.28A3,3,0,0,0,988,271l1.51.77a4.57,4.57,0,0,1-4,2.27A5.09,5.09,0,0,1,980.16,268.83Z"/><path class="cls-1" d="M992.43,273.85V263.78h1.76v10.07Z"/><path class="cls-1" d="M1004.87,273.85l-5.25-7.18v7.18h-1.77V263.78h1.81l5.15,7v-7h1.77v10.07Z"/><path class="cls-1" d="M1009.78,268.83a5.08,5.08,0,0,1,5.29-5.21,4.73,4.73,0,0,1,4.06,2.1l-1.45.81a3.22,3.22,0,0,0-2.61-1.34,3.65,3.65,0,0,0,0,7.29,3.65,3.65,0,0,0,2.38-.91V270h-3v-1.55h4.77v3.77a5.44,5.44,0,0,1-4.15,1.83A5.09,5.09,0,0,1,1009.78,268.83Z"/><path class="cls-5" d="M794.47,292l-1.11-2.71h-5.62L786.62,292h-.56l4.2-10.07h.58L795,292Zm-3.92-9.52-2.63,6.36h5.26Z"/><path class="cls-5" d="M805.47,292l-6.8-9.29V292h-.48V281.91h.48l6.8,9.19v-9.19H806V292Z"/><path class="cls-5" d="M812.76,292v-9.62h-3.39v-.45h7.29v.45h-3.41V292Z"/><path class="cls-5" d="M820.08,292V281.91h.48V292Z"/><path class="cls-5" d="M823.85,288.55v-.45h3.63v.45Z"/><path class="cls-5" d="M830.42,287a5,5,0,0,1,5-5.21,4.47,4.47,0,0,1,3.5,1.59l-.38.33a4,4,0,0,0-3.12-1.47,4.77,4.77,0,0,0,0,9.52,4,4,0,0,0,3.12-1.47l.4.32a4.48,4.48,0,0,1-3.52,1.6A5,5,0,0,1,830.42,287Z"/><path class="cls-5" d="M842,287c0-2.91,1.86-5.21,4.79-5.21s4.79,2.3,4.79,5.21-1.87,5.21-4.79,5.21S842,289.86,842,287Zm9,0c0-2.76-1.68-4.76-4.26-4.76s-4.26,2-4.26,4.76,1.65,4.76,4.26,4.76S851.05,289.68,851.05,287Z"/><path class="cls-5" d="M861.36,292l-3.06-4.35h-2.42V292h-.48V281.91h3.47a2.86,2.86,0,1,1,0,5.72L862,292Zm0-7.22a2.31,2.31,0,0,0-2.45-2.4h-3v4.82h3A2.33,2.33,0,0,0,861.32,284.76Z"/><path class="cls-5" d="M871.62,292l-3.07-4.35h-2.41V292h-.48V281.91h3.47a2.86,2.86,0,1,1,0,5.72l3.11,4.35Zm0-7.22a2.3,2.3,0,0,0-2.44-2.4h-3v4.82h3A2.32,2.32,0,0,0,871.57,284.76Z"/><path class="cls-5" d="M875.91,288.16v-6.25h.48v6.25c0,2.23,1.15,3.55,3.26,3.55s3.27-1.32,3.27-3.55v-6.25h.48v6.25c0,2.49-1.3,4-3.75,4S875.91,290.63,875.91,288.16Z"/><path class="cls-5" d="M887.57,292V281.91h3.49a2.85,2.85,0,1,1,0,5.7h-3V292Zm5.9-7.22a2.3,2.3,0,0,0-2.43-2.4h-3v4.8h3A2.3,2.3,0,0,0,893.47,284.76Z"/><path class="cls-5" d="M900.1,292v-9.62h-3.39v-.45H904v.45h-3.41V292Z"/><path class="cls-5" d="M907.41,292V281.91h.49V292Z"/><path class="cls-5" d="M911.72,287c0-2.91,1.86-5.21,4.79-5.21s4.78,2.3,4.78,5.21-1.87,5.21-4.78,5.21S911.72,289.86,911.72,287Zm9,0c0-2.76-1.67-4.76-4.25-4.76s-4.26,2-4.26,4.76,1.64,4.76,4.26,4.76S920.76,289.68,920.76,287Z"/><path class="cls-5" d="M932.39,292l-6.79-9.29V292h-.48V281.91h.48l6.79,9.19v-9.19h.49V292Z"/><path class="cls-1" d="M750.24,288c-.3,0-1,.12-1.09-.12s.17-.55.71-.75a1.06,1.06,0,0,1,1,.08l1.49-1.1a2.55,2.55,0,0,0-2.25-.91l-.36-1-1.73.63.36,1a2.35,2.35,0,0,0-1,2.67c.4,1.11,1.44,1.55,3.09,1.32,1-.15,1.32,0,1.33,0,0,.16-.18.55-.71.75a1,1,0,0,1-1-.08l-1.49,1.1a2.51,2.51,0,0,0,2.25.91l.36,1,1.73-.63-.36-1a2.34,2.34,0,0,0,1-2.66C753.18,288.18,752.06,287.76,750.24,288Z"/><path class="cls-1" d="M747.69,281.13a8.25,8.25,0,1,0,10.56,5A8.24,8.24,0,0,0,747.69,281.13Zm5.25,14.57a7.24,7.24,0,1,1,4.36-9.26A7.23,7.23,0,0,1,752.94,295.7Z"/><path class="cls-1" d="M737.35,292a1.55,1.55,0,1,0,2,.93A1.55,1.55,0,0,0,737.35,292Z"/><path class="cls-1" d="M761.61,283.24a1.55,1.55,0,1,0,2,.93A1.54,1.54,0,0,0,761.61,283.24Z"/><path class="cls-1" d="M748.62,248.15,722.38,263v29.74l26.24,14.87,26.24-14.87V263ZM725,273l24.75-17.81,8.73,12.2-1.2.43-7.91-11-1.84,1.32-5.2,3.76L725,274.41Zm0,3.33,18.37-13.23a8.59,8.59,0,0,0,9.72,1.52l2.72,3.74L725,279.5Zm47.2,13.26a7.78,7.78,0,0,0-1.69,2.55l-22,12.43-22-12.47-.74-2a8.69,8.69,0,0,0,4.19-8.85l30.08-10.84a9,9,0,0,0,9.33,4.28l2.81,7.72Zm0-11.92-4.3-11.88h-.1l-8.4,3.06L725,281.31v-1.24l43.73-15.76,3.47,9.62Z"/><path class="cls-6" d="M864.48,364.78H865V354.72h-.48Zm-3.85,0h.64l-4.16-5.17,3.93-4.89h-.65l-3.56,4.51-3.55-4.51h-.65l3.93,4.9-4.16,5.16H853l3.8-4.8Zm-14.91-9.5,2.62,6.35H843.1Zm3.92,9.5h.56L846,354.72h-.58l-4.19,10.06h.56l1.12-2.7h5.61Zm-10.16-7.21a2.3,2.3,0,0,1-2.43,2.4h-3v-4.8h3a2.3,2.3,0,0,1,2.43,2.4m-5.9,7.21h.48v-4.36h3a2.85,2.85,0,1,0,0-5.7h-3.48Zm-4.34-5c0,2.73-1.68,4.75-4.25,4.75s-4.26-2-4.26-4.75S822.38,355,825,355s4.25,2,4.25,4.75m-9,0c0,2.91,1.85,5.2,4.78,5.2s4.78-2.29,4.78-5.2-1.87-5.21-4.78-5.21-4.78,2.3-4.78,5.21m-6.5,5h.48v-9.61h3.41v-.45h-7.29v.45h3.4Zm-6.53-5c0,2.73-1.68,4.75-4.25,4.75s-4.26-2-4.26-4.75,1.65-4.75,4.26-4.75,4.25,2,4.25,4.75m-9,0c0,2.91,1.85,5.2,4.78,5.2s4.78-2.29,4.78-5.2-1.87-5.21-4.78-5.21-4.78,2.3-4.78,5.21M791.6,365a4.46,4.46,0,0,0,3.51-1.6l-.39-.32a4,4,0,0,1-3.12,1.47,4.76,4.76,0,0,1,0-9.5,4,4,0,0,1,3.12,1.46l.38-.33a4.47,4.47,0,0,0-3.5-1.59,5.21,5.21,0,0,0,0,10.41"/><path class="cls-1" d="M1009.3,341.66a5.09,5.09,0,0,0,5.28,5.22,5.48,5.48,0,0,0,4.15-1.83v-3.77H1014v1.56h3v1.57a3.68,3.68,0,0,1-2.38.9,3.64,3.64,0,0,1,0-7.28,3.19,3.19,0,0,1,2.61,1.34l1.45-.82a4.74,4.74,0,0,0-4.06-2.09,5.07,5.07,0,0,0-5.28,5.2m-4.9,5h1.71V336.62h-1.77v7.14l-5.14-7.14h-1.81v10.06h1.76v-7.33Zm-12.42,0h1.76V336.62H992Zm-7.05.18a4.6,4.6,0,0,0,4.12-2.26l-1.51-.77a3,3,0,0,1-2.61,1.46,3.64,3.64,0,0,1,0-7.26,3,3,0,0,1,2.61,1.46l1.51-.77a4.58,4.58,0,0,0-4.12-2.26,5.2,5.2,0,1,0,0,10.4m-9.83-7.08a1.58,1.58,0,0,1-1.72,1.59H971v-3.19h2.41a1.58,1.58,0,0,1,1.72,1.6m-.15,6.9h2l-2.46-3.95a2.81,2.81,0,0,0,2.38-3,3.05,3.05,0,0,0-3.29-3.16h-4.41v10.06H971v-3.75h1.75Zm-18.09-4c0,2.47,1.43,4.14,4.35,4.14s4.35-1.66,4.35-4.16v-6.08h-1.78v6a2.57,2.57,0,1,1-5.14,0v-6h-1.78Zm-5-1.06A3.34,3.34,0,1,1,948.5,338a3.34,3.34,0,0,1,3.33,3.63m-8.47,0a5.14,5.14,0,1,0,5.14-5.2,5,5,0,0,0-5.14,5.2m-10.66,3.6a5.38,5.38,0,0,0,4.09,1.6c2.71,0,3.89-1.43,3.89-3.1,0-2.19-2-2.7-3.64-3.12-1.19-.31-2.22-.56-2.22-1.35s.67-1.25,1.71-1.25a4.07,4.07,0,0,1,2.91,1.15l1-1.31a5.22,5.22,0,0,0-3.77-1.41c-2.2,0-3.66,1.29-3.66,2.94,0,2.13,1.93,2.61,3.57,3,1.22.32,2.29.59,2.29,1.49,0,.67-.57,1.37-2,1.37a4.32,4.32,0,0,1-3.18-1.38Zm-9.8-.13v-6.95h2a3.26,3.26,0,0,1,3.46,3.48,3.31,3.31,0,0,1-3.46,3.47Zm-1.77,1.55h3.74a5,5,0,1,0,0-10.06h-3.74Zm-7.43,0h1.88l2.87-10.06h-2l-1.94,7.75-2.08-7.75H911L909,344.37l-2-7.75h-2l2.88,10.06h1.88l2-7.42Zm-12.41-5A3.35,3.35,0,1,1,898,338a3.34,3.34,0,0,1,3.33,3.63m-8.48,0a5.15,5.15,0,1,0,5.15-5.2,5,5,0,0,0-5.15,5.2m-4.63-1.88a1.58,1.58,0,0,1-1.72,1.59h-2.41v-3.19h2.41a1.58,1.58,0,0,1,1.72,1.6m-.15,6.9h2l-2.46-3.95a2.81,2.81,0,0,0,2.38-3,3.05,3.05,0,0,0-3.28-3.16h-4.42v10.06h1.76v-3.75h1.75Zm-12.78.18a4.59,4.59,0,0,0,4.11-2.26l-1.51-.77a3,3,0,0,1-2.6,1.46,3.64,3.64,0,0,1,0-7.26,3,3,0,0,1,2.6,1.46l1.51-.77a4.56,4.56,0,0,0-4.11-2.26,5.2,5.2,0,1,0,0,10.4M860,339.78a1.58,1.58,0,0,1-1.72,1.59H855.9v-3.19h2.41a1.58,1.58,0,0,1,1.72,1.6m-.15,6.9h2l-2.46-3.95a2.82,2.82,0,0,0,2.38-3,3.06,3.06,0,0,0-3.29-3.16h-4.42v10.06h1.77v-3.75h1.75Zm-16,0h6.89v-1.55h-5.13v-2.79h5v-1.55h-5v-2.61h5.13v-1.56h-6.89Zm-7.82,0h1.77v-8.5h3v-1.56h-7.86v1.56h3Zm-7.32-6.9a1.59,1.59,0,0,1-1.72,1.59h-2.42v-3.19h2.42a1.59,1.59,0,0,1,1.72,1.6m-.15,6.9h2l-2.46-3.95a2.82,2.82,0,0,0,2.39-3,3.06,3.06,0,0,0-3.29-3.16h-4.42v10.06h1.76v-3.75h1.75Zm-13.41-8.56,1.88,5.08h-3.77Zm3.12,8.56h1.93l-3.95-10.06h-2.2l-4,10.06h1.93l.74-1.93h4.76Zm-12.53,0h1.76V336.62H805.1l-2.75,6.77-2.73-6.77h-2.49v10.06h1.77v-7.61l3.08,7.61h.75l3.09-7.61ZM786,345.26a5.38,5.38,0,0,0,4.09,1.6c2.71,0,3.89-1.43,3.89-3.1,0-2.19-2-2.7-3.64-3.12-1.19-.31-2.21-.56-2.21-1.35s.66-1.25,1.7-1.25a4.05,4.05,0,0,1,2.91,1.15l1-1.31a5.21,5.21,0,0,0-3.77-1.41c-2.2,0-3.66,1.29-3.66,2.94,0,2.13,1.93,2.61,3.57,3,1.22.32,2.29.59,2.29,1.49,0,.67-.57,1.37-2,1.37a4.32,4.32,0,0,1-3.18-1.38Z"/><polygon class="cls-3" points="774.29 365.57 774.29 335.87 748.09 321.03 721.89 335.87 721.89 365.57 748.09 380.41 774.29 365.57"/><path class="cls-1" d="M748.09,321l-26.2,14.84v29.7l26.2,14.84,26.2-14.84v-29.7Zm0,3.08,15.13,8.59a6.36,6.36,0,0,1-6.19,5,4.25,4.25,0,0,1-4.22,4.15H749c-.13.32,3.82,1.66,3.66,2.12a21,21,0,0,0-.57,2.09l-1.48-.29-4.42.38c-.31-.75-.65-3.37-.94-4.22a3.88,3.88,0,0,1-2.45-1.18,2.79,2.79,0,0,1-.74-1.64c-2.05,0-3.35-1-3.4-2.88-.26,0-1.07.05-1.34.05-2.44,0-5.1-1.06-6-2.63Zm23.62,37.35-3.25-1.81-2.1-.48a12.52,12.52,0,0,1-1.9-.8,1.2,1.2,0,0,0,0,.42c0,.12,1.37,1.71,1.37,1.71l2.58,1.65a29.48,29.48,0,0,1,2.67,2.54L763.49,369,761,367.09l-2.37-3.15-.95-.76-.6.05,2.14,4.9,2,2.13-12.44,7.07s0-1.15,0-1.69-.89-5.62-.89-5.62v-2.9l-.43-.39a21.25,21.25,0,0,0-1.12,3.84c-.18,1.46-.48,5.93-.48,5.93l-14.37-8.16a26.75,26.75,0,0,1,2.22-3.68c.75-.83,4.15-4.45,4.15-4.45a1.32,1.32,0,0,0-.64-.1,7.82,7.82,0,0,0-1.39.61s-3.45,2.29-4.63,3.33a20,20,0,0,0-2.43,2.75l-4.31-2.46v-3.67s10.59-5.09,13.14-7,6.43-5.78,7-6.07a51.45,51.45,0,0,1,5.53-.79,4.25,4.25,0,0,1,2.23.43c.68.4,6.89,3.88,6.89,3.88l12.39,8.16Z"/><path class="cls-1" d="M750.27,350c.22-.11,2.79-.27,2.79-.27a.87.87,0,0,0-.25-.47,8.26,8.26,0,0,0-2.32-1.24,32.1,32.1,0,0,0-4.53.8,6.36,6.36,0,0,0-1.06.95c-.08.14-.31.44-.17.71,1.63.24,4.41,1,5.25,1a10.42,10.42,0,0,0,2.22-.4.52.52,0,0,0-.26-.28c-.2-.08-2-.44-2-.44A.66.66,0,0,1,750.27,350Z"/><path class="cls-1" d="M1008.56,418.21a5.09,5.09,0,0,0,5.28,5.22,5.48,5.48,0,0,0,4.15-1.83v-3.77h-4.77v1.55h3V421a3.65,3.65,0,0,1-2.38.91,3.65,3.65,0,0,1,0-7.29,3.2,3.2,0,0,1,2.61,1.35l1.45-.82a4.74,4.74,0,0,0-4.06-2.09,5.07,5.07,0,0,0-5.28,5.2m-4.9,5h1.7V413.17h-1.76v7.13l-5.14-7.13h-1.81v10.06h1.76V415.9Zm-12.42,0H993V413.17h-1.76Zm-7,.18a4.6,4.6,0,0,0,4.12-2.26l-1.51-.77a3,3,0,0,1-2.61,1.46,3.64,3.64,0,0,1,0-7.27A3,3,0,0,1,986.8,416l1.51-.77a4.58,4.58,0,0,0-4.12-2.26,5.2,5.2,0,0,0,0,10.4m-9.83-7.09a1.58,1.58,0,0,1-1.72,1.6h-2.41v-3.19h2.41a1.58,1.58,0,0,1,1.72,1.59m-.15,6.91h2l-2.46-4a2.82,2.82,0,0,0,2.38-3,3.06,3.06,0,0,0-3.29-3.15h-4.41v10.06h1.76v-3.75H972Zm-18.09-4c0,2.48,1.43,4.15,4.35,4.15s4.35-1.66,4.35-4.16v-6.08H963v6a2.58,2.58,0,1,1-5.15,0v-6h-1.77Zm-5-1.05a3.34,3.34,0,1,1-3.33-3.64,3.35,3.35,0,0,1,3.33,3.64m-8.47,0a5.14,5.14,0,1,0,5.14-5.2,5,5,0,0,0-5.14,5.2M932,421.81a5.37,5.37,0,0,0,4.08,1.6c2.72,0,3.9-1.43,3.9-3.11,0-2.18-2-2.69-3.64-3.12-1.19-.3-2.22-.55-2.22-1.34s.67-1.25,1.71-1.25a4.09,4.09,0,0,1,2.91,1.15l1-1.32a5.26,5.26,0,0,0-3.77-1.4c-2.2,0-3.67,1.28-3.67,2.94,0,2.13,1.94,2.61,3.58,3,1.22.31,2.29.59,2.29,1.49,0,.66-.57,1.37-2,1.37a4.36,4.36,0,0,1-3.18-1.38Zm-9.8-.13v-6.95h2a3.26,3.26,0,0,1,3.46,3.48,3.31,3.31,0,0,1-3.46,3.47Zm-1.77,1.55h3.74a5,5,0,1,0,0-10.06h-3.74Zm-7.43,0h1.88l2.87-10.06h-2l-1.94,7.75-2.08-7.75H910.3l-2.08,7.75-2-7.75h-2l2.88,10.06h1.88l2-7.42Zm-12.41-5a3.35,3.35,0,1,1-3.34-3.64,3.35,3.35,0,0,1,3.34,3.64m-8.48,0a5.15,5.15,0,1,0,5.14-5.2,5,5,0,0,0-5.14,5.2m-4.63-1.89a1.58,1.58,0,0,1-1.72,1.6h-2.41v-3.19h2.41a1.58,1.58,0,0,1,1.72,1.59m-.15,6.91h2l-2.46-4a2.82,2.82,0,0,0,2.38-3,3,3,0,0,0-3.28-3.15h-4.42v10.06h1.76v-3.75h1.75Zm-12.78.18a4.59,4.59,0,0,0,4.11-2.26l-1.51-.77a3,3,0,0,1-2.6,1.46,3.64,3.64,0,0,1,0-7.27,3,3,0,0,1,2.6,1.47l1.51-.77a4.56,4.56,0,0,0-4.11-2.26,5.2,5.2,0,1,0,0,10.4m-15.22-7.09a1.58,1.58,0,0,1-1.72,1.6h-2.41v-3.19h2.41a1.58,1.58,0,0,1,1.72,1.59m-.15,6.91h2l-2.46-4a2.83,2.83,0,0,0,2.38-3,3.06,3.06,0,0,0-3.29-3.15h-4.42v10.06h1.77v-3.75h1.75Zm-15.95,0h6.89v-1.55H845v-2.79h5v-1.56h-5v-2.6h5.13v-1.56h-6.89Zm-7.82,0h1.77v-8.5h3v-1.56h-7.85v1.56h3Zm-7.32-6.91a1.59,1.59,0,0,1-1.72,1.6h-2.42v-3.19h2.42a1.59,1.59,0,0,1,1.72,1.59m-.15,6.91h2l-2.46-4a2.83,2.83,0,0,0,2.39-3,3.06,3.06,0,0,0-3.29-3.15h-4.42v10.06h1.76v-3.75h1.75Zm-13.41-8.56,1.88,5.08H812.6Zm3.12,8.56h1.93l-3.95-10.06h-2.2l-3.95,10.06h1.93l.74-1.93h4.76Zm-12.53,0h1.76V413.17h-2.48l-2.75,6.77-2.73-6.77h-2.49v10.06h1.77v-7.61l3.07,7.61H802l3.09-7.61Zm-19.8-1.42a5.38,5.38,0,0,0,4.09,1.6c2.71,0,3.89-1.43,3.89-3.11,0-2.18-2-2.69-3.64-3.12-1.19-.3-2.21-.55-2.21-1.34s.66-1.25,1.7-1.25a4.05,4.05,0,0,1,2.91,1.15l1-1.32a5.24,5.24,0,0,0-3.77-1.4c-2.2,0-3.66,1.28-3.66,2.94,0,2.13,1.93,2.61,3.57,3,1.22.31,2.29.59,2.29,1.49,0,.66-.57,1.37-2,1.37a4.36,4.36,0,0,1-3.18-1.38Z"/><path class="cls-1" d="M748.09,435.4c-.89.42-.24,1.86.62,1.92s2.16.1,2.16-.76S750.92,434.06,748.09,435.4Z"/><path class="cls-1" d="M749.07,420.1c1,.07,1.8-.08,1.8-1s-.82-1.33-2-1.33S748,420,749.07,420.1Z"/><path class="cls-1" d="M742.09,424.7a2.44,2.44,0,0,0,.14,2.61c.54.8,2.81.71,3.06.18a3.61,3.61,0,0,0-.48-2.53C744.41,424.39,742.48,424,742.09,424.7Z"/><path class="cls-1" d="M740,421.81c.53-.42.31-.16.36-1.23s-.63-1.33-.63-1.33c-.74.27-1.39.69-1.17,1.44S739.47,422.24,740,421.81Z"/><path class="cls-1" d="M739,430.78c-.79-.59-.37,2.24.48,2.29s1.82-.05,1.82-.91S739.92,431.47,739,430.78Z"/><path class="cls-1" d="M747.35,397.57l-26.2,14.85v29.69L747.35,457l26.2-14.85V412.42Zm19,31.43a.92.92,0,0,1-1.15.2,4.46,4.46,0,0,0-2-.83,19,19,0,0,1-2-.36,2,2,0,0,0-1.31.12.21.21,0,0,0-.1.14c-.06.42-.1.85-.16,1.27a3.36,3.36,0,0,1-.17.47,1.77,1.77,0,0,1,1,0,1.48,1.48,0,0,1,.94,1c0,.11,0,.25.06.36a.26.26,0,0,0,.14.15,5.19,5.19,0,0,0,1.75.25,2.21,2.21,0,0,1,.89.17,1.08,1.08,0,0,1,.57,1.16,2.74,2.74,0,0,1-.72,1.39.87.87,0,0,1-.87.17s0-.09-.07-.11a.83.83,0,0,0-.15-.11l0,0,0-.28-.16-.13h-.18l0,.16-.2-.16s0-.1,0-.12-.14-.08-.19-.13a.28.28,0,0,1-.08-.2c-.13-.08-.31-.14-.38-.25a1.09,1.09,0,0,0-.43-.35,3.22,3.22,0,0,0-.53-.25.18.18,0,0,0-.16,0,2.31,2.31,0,0,1-1.13.5,1.39,1.39,0,0,1-1.24-.4,2.42,2.42,0,0,1-.41-.64c-.16.25-.32.47-.45.72,0,.07,0,.2.06.29s.21.43.32.64a6.12,6.12,0,0,0,1.06,1.42,11.19,11.19,0,0,0,1.67,1.48,6.6,6.6,0,0,0,1.35.62.75.75,0,0,1,.31,1.31,6.11,6.11,0,0,1-.9.71,3.86,3.86,0,0,1-1,.49c-.49.12-.88-.12-1-.78h.06c0-.18-.1-.38-.17-.66l-.3-.49c-.09-.15-.2-.29-.28-.45a5.81,5.81,0,0,0-.75-.95,1,1,0,0,1-.12-.26c-.06,0-.13-.05-.16-.1-.15-.21-.28-.43-.43-.64s-.46-.62-.7-.95l-.37.42-1,1.3a.23.23,0,0,0,0,.31,9,9,0,0,0,1.33,1.61,2.48,2.48,0,0,0,.77.45,1.28,1.28,0,0,1,.42,2.18,2.4,2.4,0,0,1-1,.63,1.11,1.11,0,0,1-1.41-.78,1.75,1.75,0,0,0-.19-.42,1.53,1.53,0,0,1-.07.29,1.55,1.55,0,0,1-.3.44,2.92,2.92,0,0,1-1.75.77,1.2,1.2,0,0,1-1-.5,1.26,1.26,0,0,1-.25-1c0-.24,0-.49,0-.73a.39.39,0,0,0,0-.19,2,2,0,0,1-.1-.38.33.33,0,0,0-.42-.35l-.87.18c.12.48.22.92.34,1.36s.25.87.41,1.29.38,1,.61,1.49a4.07,4.07,0,0,0,.44.67,1.26,1.26,0,0,1,.26.67.7.7,0,0,1-.52.69,10,10,0,0,1-1.21.37,3.58,3.58,0,0,1-.92.08.7.7,0,0,1-.66-.86,2.9,2.9,0,0,1,.23-.76,3.87,3.87,0,0,0,.27-1.84c0-.53,0-1.06-.1-1.58A3.13,3.13,0,0,0,749,439l-1.06.17c.1.59.16,1.19.29,1.78a7,7,0,0,0,.42,1.16,1.26,1.26,0,0,1,.1,1,1,1,0,0,1-.74.62,3.41,3.41,0,0,1-1.62,0,.87.87,0,0,1-.59-.72c0-.07.05-.13.06-.15a1.55,1.55,0,0,1,0-.36c.07-.14.19-.25.27-.39a1.8,1.8,0,0,0,.22-.49,9.69,9.69,0,0,0,.13-2.3l-.49-.08-1.69-.29a1.35,1.35,0,0,0-.08.19l-.3,1.25a1.75,1.75,0,0,0,.16,1.15,1.2,1.2,0,0,1-.11,1.29.9.9,0,0,1-.5.29,2.22,2.22,0,0,1-1.39-.13,1.7,1.7,0,0,1-.88-.68h-.06c0,.25,0,.51,0,.76s.07.7.09,1.05-.15.44-.45.36a6.21,6.21,0,0,1-.81-.24,8.74,8.74,0,0,1-1-.41c-.54-.28-.46-.77-.11-1.12a6.3,6.3,0,0,0,1.18-1.5c.26-.48.48-1,.72-1.47.16-.33.34-.64.49-1a1.61,1.61,0,0,0,0-.39c0-.05.08-.12.07-.15s0-.29-.28-.3a4.15,4.15,0,0,1-.11.48,2.28,2.28,0,0,1-.24.63c-.14.2-.25.45-.52.53a1.75,1.75,0,0,1-.59.14,1.68,1.68,0,0,1-1.59-1.32,1,1,0,0,1,.7-1,1.31,1.31,0,0,0,.82-.34c.1-.11.13-.21,0-.29a5,5,0,0,1-1.09-1c-.11-.13-.25-.24-.37-.36s-.35,0-.48.11a8.81,8.81,0,0,0-.71.66l-1.15,1.11a5.43,5.43,0,0,0-.66.7,5.32,5.32,0,0,0-.45.93,2.34,2.34,0,0,1-.5.81.83.83,0,0,1-.79.15,2.59,2.59,0,0,1-1-.7,5.09,5.09,0,0,1-.51-.53.92.92,0,0,1,0-1.25,1.3,1.3,0,0,0,.17-.26.69.69,0,0,1-1-.16,2.16,2.16,0,0,1-.27-.4,2.44,2.44,0,0,1-.37-1.34.81.81,0,0,1,.62-.7c.32-.08.65-.1,1-.15a5.31,5.31,0,0,0,1.69-.7c.34-.2.31-.19.15-.56a1.68,1.68,0,0,1-.12-.94.2.2,0,0,0,0-.14A2.38,2.38,0,0,1,733,430a.84.84,0,0,1,.61-.67c.2,0,.4-.05.6-.08l-.07-.61-.08.18-.22,0s0-.06,0-.05a2.93,2.93,0,0,1-.28.12c-.4.09-.8.16-1.2.24a3.08,3.08,0,0,1-.66.13c-.36,0-.6.26-.93.27h-.14c-.19.11-.36.22-.52.33l-.74.47a1.26,1.26,0,0,1-.71.21.52.52,0,0,1-.37-.35,6.39,6.39,0,0,1-.11-1.69c0-.11,0-.22,0-.32,0-.5.3-.6.7-.58a3.34,3.34,0,0,1,.73.17,3,3,0,0,0,.95.15,9.6,9.6,0,0,0,1.6-.21,6.74,6.74,0,0,0,1.44-.41c.26-.11.23-.32.28-.5s0-.48.08-.76L733,426l-.19-.06s-.06,0-.07,0-.22.08-.29-.07-.05,0-.12-.05l.1.15h-1l0-.14,0,0a.81.81,0,0,1-.12.18.56.56,0,0,1-.56.15,1.12,1.12,0,0,0-1,.27.72.72,0,0,1-.62.09c-.53-.08-.68-.49-.66-1a2.4,2.4,0,0,1,.47-1.36,1.13,1.13,0,0,1,1.47-.34,4.17,4.17,0,0,0,1.75.55c.52,0,1,.08,1.56.13.13,0,.22,0,.23-.15a7.11,7.11,0,0,1,.44-1.56c.08-.26.12-.54.18-.8s.07-.25.11-.39a.81.81,0,0,0-.72.14,1.62,1.62,0,0,1-.52.23,1.52,1.52,0,0,1-.67,0,1.36,1.36,0,0,1-1.06-.9c-.06-.21-.14-.41-.25-.72-.25-.05-.65-.15-1.06-.22-.22,0-.45,0-.67,0,0,0-.11-.05-.15,0a1.19,1.19,0,0,1-.39-.05.53.53,0,0,1-.33-.74c.18-.49.36-1,.56-1.45a.61.61,0,0,1,1-.13c.3.32.59.67.91,1a1.33,1.33,0,0,0,.75.39.12.12,0,0,0,.1,0,1.24,1.24,0,0,1,1.31-.24,1.73,1.73,0,0,1,1,.9c.16.32.25.37.61.31l.43-.1s0-.06,0-.07a1.82,1.82,0,0,0,.46-.7,6.58,6.58,0,0,1,.4-.74c.14-.2,0-.32-.1-.44-.43-.36-.88-.71-1.31-1.08a4.7,4.7,0,0,0-1.29-.77,1,1,0,0,0-.36-.05l.05-.21c-.32.23-.39.19-.63,0a.54.54,0,0,1-.19-.67,2.6,2.6,0,0,1,1.5-1.56c.47-.17.81,0,1,.55a4.75,4.75,0,0,0,1.15,1.68c.28.29.59.56.88.84a2.75,2.75,0,0,0,.26.22.16.16,0,0,0,.23,0c.33-.22.66-.41,1-.63.12-.08.26-.16.19-.36s0-.18,0-.25a1.14,1.14,0,0,0-.23-.38c-.24-.27-.51-.51-.75-.77s-.52-.62-.82-.89a5.27,5.27,0,0,0-.87-.58,8.34,8.34,0,0,1-.8-.38.8.8,0,0,1-.21-1.27,3.38,3.38,0,0,1,1.39-1,1.1,1.1,0,0,1,.89,0,.81.81,0,0,1,.53.67,5.57,5.57,0,0,0,.72,2.32c.29.5.62,1,.94,1.48a.8.8,0,0,0,.21.2c.2.16.31.13.51-.11a7.51,7.51,0,0,1-.33-.71,1.15,1.15,0,0,1,.1-1.05,1,1,0,0,1,1.07-.34,1.15,1.15,0,0,1,.85.71s.06.08.09.14a2.43,2.43,0,0,1,1-.93c-.09-.35-.17-.71-.27-1.06a11.32,11.32,0,0,0-.58-1.6,5.76,5.76,0,0,0-.35-.51,3.13,3.13,0,0,1-.35-.57.64.64,0,0,1,.39-.84,3.85,3.85,0,0,1,.95-.28,5.34,5.34,0,0,1,1,0,1.06,1.06,0,0,1,.39.09c.26.12.33.39.26.74,0,.18-.18.35-.23.53a6.06,6.06,0,0,0-.15.74,4.55,4.55,0,0,0,.12,1.47c.06.34.12.69.2,1a.49.49,0,0,0,.16.24,3.72,3.72,0,0,0,.48.41.31.31,0,0,0,.21.07c.18,0,.37-.05.55-.05s.21-.11.19-.26c-.05-.36-.1-.72-.16-1.09s-.17-.94-.26-1.42a1.56,1.56,0,0,0-.11-.41c-.08-.18,0-.4-.18-.57a.86.86,0,0,1-.1-.16,4,4,0,0,1-.43-.78c-.15-.53,0-.75.47-.89a3.81,3.81,0,0,1,1.68-.14c.54.09.6.56.47,1a5.82,5.82,0,0,0-.3,1,5.53,5.53,0,0,0,0,1.15c0,.52.11,1.05.2,1.57a9.14,9.14,0,0,0,.22.9l1.63.33a2.12,2.12,0,0,0,0-.42,1.15,1.15,0,0,1,.68-1.37,1.7,1.7,0,0,1,1.52.13,1,1,0,0,1,.61.69.83.83,0,0,0,.13-.2c.14-.33.28-.65.39-1a3.17,3.17,0,0,0,.19-1.72,3.06,3.06,0,0,1-.15-.73.74.74,0,0,1,.45-.81,1,1,0,0,1,.69.05,10.38,10.38,0,0,1,1.44.65.71.71,0,0,1,.38,1c-.16.28-.37.53-.56.8-.06.08-.14.15-.22.25l.48.27a4.77,4.77,0,0,1,.64.43,3.81,3.81,0,0,1,.48.57.86.86,0,0,1-.12,1.27c-.21.17-.45.3-.66.47a5.47,5.47,0,0,0-.51.45l-.94,1a1.59,1.59,0,0,0-.18.27,10,10,0,0,1,2.16,1.52c.52-.48,1.06-1,1.59-1.49a5.46,5.46,0,0,0,.76-1.09,1,1,0,0,1,1.31-.35,1.55,1.55,0,0,1,.7.64.81.81,0,0,1-.52,1.23c-.23.07-.44.19-.67.26a1.72,1.72,0,0,0-.65.25c-.28.21-.59.4-.85.63s-.62.61-.93.92c-.08.09,0,.16.06.2a2.27,2.27,0,0,0,1.5,0,5.28,5.28,0,0,0,1.26-.68c.45-.31.85-.7,1.28-1a3.28,3.28,0,0,0,.81-1.17.72.72,0,0,1,1.25-.16,10.78,10.78,0,0,1,1,1.29,1.7,1.7,0,0,1,.19.35.52.52,0,0,1-.16.58.92.92,0,0,1-.61.26c-.11,0-.23.14-.33,0a.18.18,0,0,0-.12,0c-.05.19-.25.11-.32.18l-.26-.06v.07h.14s0,0,0,0l-1,.43a6,6,0,0,0-1,.53,7.1,7.1,0,0,0-1.58,1.15,6.91,6.91,0,0,1-.51.57.28.28,0,0,0,0,.35,2.79,2.79,0,0,0,.4.57c0,.05.22,0,.32,0a4.31,4.31,0,0,1,.47-.26c.21-.05.35-.23.57-.27,0,0,.06-.07.08-.11a9.1,9.1,0,0,1,.62-.87,1.22,1.22,0,0,1,1-.36,1.56,1.56,0,0,1,.86.32,1.66,1.66,0,0,1,.65,1.28,1.45,1.45,0,0,1-.18.81,1.51,1.51,0,0,1-1.08.69,3.27,3.27,0,0,1-.54,0c-.13,0-.26,0-.39-.07a.6.6,0,0,0-.26,0,8.67,8.67,0,0,0-1,.13,1.22,1.22,0,0,1-.35.06c.05.37.09.67.14,1,.28,0,.5,0,.73-.07.57-.1,1.15-.19,1.72-.32a6.09,6.09,0,0,0,1-.39.55.55,0,0,0,.27-.23,1.26,1.26,0,0,1,.55-.36.55.55,0,0,1,.63.21,4.25,4.25,0,0,1,.46.83,3.49,3.49,0,0,1,.18.79.75.75,0,0,1-.88.89c-.36,0-.71-.17-1.08-.22a10,10,0,0,0-1.1-.07,8.29,8.29,0,0,0-1,0c-.28,0-.55.07-.83.11h-.29a.64.64,0,0,0,.15.65,4.27,4.27,0,0,0,1.35.71,6.84,6.84,0,0,0,1.43.19c.49,0,1,0,1.48-.07l0,0c.22-.1.44-.19.65-.3a.82.82,0,0,1,1.23.53c.07.42.23.83.28,1.25A1.65,1.65,0,0,1,766.4,429Z"/><path class="cls-1" d="M755.82,426.11c-1.18-.24-1.22,3.46-.19,3.53s1.34-1.29,1.34-2.44S756.82,426.31,755.82,426.11Z"/><path class="cls-1" d="M753.77,437.76a.15.15,0,0,0-.16,0c-.14.08-.28.19-.44.3a7.38,7.38,0,0,0,.63.72c.35.35.74.67,1.11,1a.87.87,0,0,0,0-.22C754.5,439,754.14,438.35,753.77,437.76Z"/><path class="cls-1" d="M749.54,426.58a2.43,2.43,0,0,0,.15,2.62c.53.8,2.32.05,2.57-.48a1.91,1.91,0,0,0,0-1.87C751.86,426.28,749.94,425.84,749.54,426.58Z"/><path class="cls-7" d="M785.77,436.28a5,5,0,0,1,5-5.21,4.52,4.52,0,0,1,3.51,1.58l-.38.33a4,4,0,0,0-3.13-1.46,4.77,4.77,0,0,0,0,9.52,4,4,0,0,0,3.13-1.47l.39.32a4.48,4.48,0,0,1-3.52,1.6A5,5,0,0,1,785.77,436.28Z"/><path class="cls-7" d="M802.15,431.07c2.91,0,4.78,2.29,4.78,5.21s-1.87,5.21-4.78,5.21-4.79-2.3-4.79-5.21S799.22,431.07,802.15,431.07Zm0,.45c-2.62,0-4.26,2-4.26,4.76s1.64,4.76,4.26,4.76,4.26-2,4.26-4.76S804.73,431.52,802.15,431.52Z"/><path class="cls-7" d="M813.66,437h-2.42v4.35h-.48V431.23h3.47a2.87,2.87,0,1,1,0,5.73l3.11,4.35h-.62Zm.57-5.27h-3v4.81h3a2.41,2.41,0,1,0,0-4.81Z"/><path class="cls-7" d="M825.45,431.07c2.92,0,4.79,2.29,4.79,5.21s-1.87,5.21-4.79,5.21-4.79-2.3-4.79-5.21S822.52,431.07,825.45,431.07Zm0,.45c-2.61,0-4.26,2-4.26,4.76s1.65,4.76,4.26,4.76,4.26-2,4.26-4.76S828,431.52,825.45,431.52Z"/><path class="cls-7" d="M834.59,432v9.29h-.48V431.23h.48l6.8,9.2v-9.2h.49v10.08h-.49Z"/><path class="cls-7" d="M852.33,438.6h-5.62l-1.12,2.71H845l4.2-10.08h.57l4.2,10.08h-.55Zm-5.44-.45h5.26l-2.63-6.36Z"/><path class="cls-7" d="M855.24,431.23h.56l3.93,9.52,3.93-9.52h.55L860,441.31h-.58Z"/><path class="cls-7" d="M867.37,431.23h.48v10.08h-.48Z"/><path class="cls-7" d="M874.92,437h-2.41v4.35H872V431.23h3.48a2.87,2.87,0,1,1,0,5.73l3.11,4.35H878Zm.58-5.27h-3v4.81h3a2.41,2.41,0,1,0,0-4.81Z"/><path class="cls-7" d="M882.28,431.23h.48v6.26c0,2.23,1.15,3.55,3.26,3.55s3.27-1.32,3.27-3.55v-6.26h.48v6.26c0,2.49-1.3,4-3.75,4s-3.74-1.53-3.74-4Z"/><path class="cls-7" d="M893.8,439.54a4,4,0,0,0,3.13,1.5c2.33,0,2.92-1.33,2.92-2.28,0-1.64-1.47-2.07-3-2.5s-3.16-.87-3.16-2.63,1.49-2.56,3.16-2.56a4,4,0,0,1,3.26,1.42l-.38.34a3.45,3.45,0,0,0-2.88-1.31c-1.47,0-2.63.88-2.63,2.11s1.36,1.74,2.79,2.15c1.62.47,3.32,1,3.32,3,0,1.13-.72,2.73-3.44,2.73a4.41,4.41,0,0,1-3.52-1.6Z"/><path class="cls-8" d="M788.33,506.09v9.29h-.49V505.3h.49l6.79,9.2v-9.2h.49v10.08h-.49Z"/><path class="cls-8" d="M799.77,505.3h6.17v.46h-5.68V510h5.57v.45h-5.57v4.5h5.68v.46h-6.17Z"/><path class="cls-8" d="M814.82,506.21l-2.61,9.17h-.58l-2.87-10.08h.53l2.63,9.35,2.64-9.35h.52l2.64,9.35,2.63-9.35h.53L818,515.38h-.58Z"/><path class="cls-8" d="M838,505.88l-3.93,9.5h-.15l-3.93-9.5v9.5h-.48V505.3h.77l3.72,9,3.71-9h.77v10.08H838Z"/><path class="cls-8" d="M842.67,505.3h6.16v.46h-5.68V510h5.58v.45h-5.58v4.5h5.68v.46h-6.16Z"/><path class="cls-8" d="M858.89,512.67h-5.62l-1.11,2.71h-.56l4.2-10.08h.57l4.2,10.08H860Zm-5.43-.45h5.25l-2.63-6.36Z"/><path class="cls-8" d="M863.29,513.61a4,4,0,0,0,3.13,1.5c2.32,0,2.91-1.33,2.91-2.29,0-1.63-1.46-2.06-3-2.49s-3.16-.87-3.16-2.63,1.5-2.56,3.16-2.56a4,4,0,0,1,3.26,1.42l-.37.34a3.47,3.47,0,0,0-2.89-1.31c-1.46,0-2.63.87-2.63,2.11s1.36,1.74,2.8,2.15c1.61.47,3.32,1,3.32,3,0,1.14-.72,2.74-3.44,2.74a4.38,4.38,0,0,1-3.52-1.6Z"/><path class="cls-8" d="M873.62,505.3h.48v6.26c0,2.23,1.15,3.55,3.27,3.55s3.26-1.32,3.26-3.55V505.3h.48v6.26c0,2.49-1.3,4-3.74,4s-3.75-1.53-3.75-4Z"/><path class="cls-8" d="M888.18,511h-2.42v4.35h-.48V505.3h3.48a2.87,2.87,0,1,1,0,5.73l3.11,4.35h-.62Zm.58-5.27h-3v4.81h3a2.41,2.41,0,1,0,0-4.81Z"/><path class="cls-8" d="M895.54,505.3h6.16v.46H896V510h5.57v.45H896v4.5h5.68v.46h-6.16Z"/><path class="cls-8" d="M905.34,513.61a4,4,0,0,0,3.13,1.5c2.32,0,2.91-1.33,2.91-2.29,0-1.63-1.46-2.06-3-2.49s-3.16-.87-3.16-2.63,1.5-2.56,3.16-2.56a4,4,0,0,1,3.26,1.42l-.37.34a3.47,3.47,0,0,0-2.89-1.31c-1.46,0-2.63.87-2.63,2.11s1.36,1.74,2.8,2.15c1.61.47,3.32,1,3.32,3,0,1.14-.72,2.74-3.44,2.74A4.39,4.39,0,0,1,905,514Z"/><path class="cls-1" d="M1009.79,492.11a5.09,5.09,0,0,0,5.28,5.22,5.48,5.48,0,0,0,4.15-1.83v-3.77h-4.77v1.56h3v1.56a3.63,3.63,0,0,1-2.38.91,3.64,3.64,0,0,1,0-7.28,3.19,3.19,0,0,1,2.61,1.34l1.45-.82a4.74,4.74,0,0,0-4.06-2.09,5.07,5.07,0,0,0-5.28,5.2m-4.9,5h1.71V487.07h-1.77v7.14l-5.14-7.14h-1.81v10.06h1.77V489.8Zm-12.42,0h1.76V487.07h-1.76Zm-7,.18a4.59,4.59,0,0,0,4.11-2.26l-1.51-.77a3,3,0,0,1-2.6,1.46,3.64,3.64,0,0,1,0-7.26,3,3,0,0,1,2.6,1.46l1.51-.77a4.56,4.56,0,0,0-4.11-2.26,5.2,5.2,0,1,0,0,10.4m-9.84-7.09a1.58,1.58,0,0,1-1.71,1.6h-2.42v-3.19h2.42a1.58,1.58,0,0,1,1.71,1.59m-.15,6.91h2L975,493.18a2.82,2.82,0,0,0,2.38-3,3,3,0,0,0-3.28-3.15H969.7v10.06h1.76v-3.75h1.75Zm-18.09-4c0,2.48,1.43,4.15,4.36,4.15s4.34-1.66,4.34-4.16v-6.08h-1.78v6a2.57,2.57,0,1,1-5.14,0v-6h-1.78Zm-5-1.05a3.35,3.35,0,1,1-3.34-3.63,3.35,3.35,0,0,1,3.34,3.63m-8.48,0a5.15,5.15,0,1,0,5.14-5.2,5,5,0,0,0-5.14,5.2m-10.66,3.6a5.38,5.38,0,0,0,4.09,1.6c2.71,0,3.89-1.43,3.89-3.1,0-2.19-2-2.7-3.64-3.13-1.19-.3-2.21-.55-2.21-1.34s.66-1.25,1.7-1.25a4.05,4.05,0,0,1,2.91,1.15l1-1.32a5.24,5.24,0,0,0-3.77-1.4c-2.2,0-3.66,1.28-3.66,2.94,0,2.13,1.93,2.61,3.57,3,1.22.31,2.29.59,2.29,1.49,0,.66-.57,1.37-2,1.37a4.36,4.36,0,0,1-3.18-1.38Zm-9.8-.13v-6.95h2a3.26,3.26,0,0,1,3.46,3.48,3.31,3.31,0,0,1-3.46,3.47Zm-1.77,1.55h3.74a5,5,0,1,0,0-10.06h-3.74Zm-7.43,0h1.89l2.86-10.06h-2l-2,7.75-2.08-7.75h-1.4l-2.08,7.75-2-7.75h-2l2.88,10.06h1.88l2-7.42Zm-12.41-5a3.35,3.35,0,1,1-3.33-3.63,3.34,3.34,0,0,1,3.33,3.63m-8.47,0a5.14,5.14,0,1,0,5.14-5.2,5,5,0,0,0-5.14,5.2m-4.63-1.89a1.59,1.59,0,0,1-1.72,1.6h-2.42v-3.19H887a1.59,1.59,0,0,1,1.72,1.59m-.15,6.91h2l-2.46-3.95a2.83,2.83,0,0,0,2.39-3,3.06,3.06,0,0,0-3.29-3.15h-4.42v10.06h1.76v-3.75h1.75Zm-12.79.18a4.57,4.57,0,0,0,4.11-2.26l-1.5-.77a3,3,0,0,1-2.61,1.46,3.64,3.64,0,0,1,0-7.26,3,3,0,0,1,2.61,1.46l1.5-.77a4.56,4.56,0,0,0-4.11-2.26,5.2,5.2,0,0,0,0,10.4m-15.22-7.09a1.58,1.58,0,0,1-1.72,1.6h-2.41v-3.19h2.41a1.58,1.58,0,0,1,1.72,1.59m-.15,6.91h2L860,493.18a2.82,2.82,0,0,0,2.38-3,3,3,0,0,0-3.28-3.15h-4.42v10.06h1.76v-3.75h1.75Zm-16,0h6.89v-1.55h-5.13v-2.79h5v-1.56h-5v-2.6h5.13v-1.56h-6.89Zm-7.81,0h1.76v-8.5h3v-1.56h-7.86v1.56h3.05Zm-7.33-6.91a1.59,1.59,0,0,1-1.72,1.6h-2.41v-3.19h2.41a1.59,1.59,0,0,1,1.72,1.59m-.15,6.91h2l-2.45-3.95a2.83,2.83,0,0,0,2.38-3,3.06,3.06,0,0,0-3.29-3.15h-4.42v10.06h1.77v-3.75h1.75Zm-13.41-8.56,1.89,5.08h-3.77Zm3.12,8.56h1.93l-3.95-10.06h-2.2l-4,10.06h1.93l.74-1.93h4.76Zm-12.53,0h1.77V487.07h-2.49l-2.75,6.77-2.73-6.77h-2.48v10.06h1.76v-7.61l3.08,7.61h.75l3.09-7.61Zm-19.8-1.42a5.38,5.38,0,0,0,4.09,1.6c2.71,0,3.89-1.43,3.89-3.1,0-2.19-2-2.7-3.63-3.13-1.2-.3-2.22-.55-2.22-1.34s.66-1.25,1.7-1.25a4.05,4.05,0,0,1,2.91,1.15l1-1.32a5.24,5.24,0,0,0-3.77-1.4c-2.2,0-3.66,1.28-3.66,2.94,0,2.13,1.93,2.61,3.57,3,1.23.31,2.3.59,2.3,1.49,0,.66-.58,1.37-2,1.37a4.39,4.39,0,0,1-3.19-1.38Z"/><path class="cls-1" d="M748.58,487a13.75,13.75,0,0,0-10.05,4.16,14.23,14.23,0,0,0,0,20.1,13.75,13.75,0,0,0,10.05,4.16,14.21,14.21,0,0,0,0-28.42Zm-3.92,12.57,3.92,1.64v-4.25a4.26,4.26,0,0,1,3.93,2.64h0s0,.05,0,.07.08.21.11.32,0,.1.05.15,0,.17,0,.25a1.87,1.87,0,0,1,0,.25.78.78,0,0,1,0,.16,1.83,1.83,0,0,1,0,.33v.08h0c0,.12,0,.24,0,.36a.17.17,0,0,0,0,.07,2.7,2.7,0,0,1,0,.28c0,.05,0,.1,0,.14h0a4.59,4.59,0,0,1-.42,1.14h0c0,.08-.09.15-.14.23l-.08.13a.76.76,0,0,1-.08.11,4.15,4.15,0,0,1-1.06,1h0l-.12.07-.24.15-.07,0a2.3,2.3,0,0,1-.32.15h0l-.08,0-.31.11-.16,0-.24.05-.25,0-.16,0a1.94,1.94,0,0,1-.34,0h-.31a4.08,4.08,0,0,1-2.59-1.06,4.29,4.29,0,0,1-1.1-1.56A4.08,4.08,0,0,1,744.66,499.53Zm-2.12,7.67,1.77-1.76a6,6,0,1,0,4.27-10.31v-2.5a8.54,8.54,0,0,1,0,17.07A8.22,8.22,0,0,1,742.54,507.2Zm7.5,6.57-.41-2.38a10.28,10.28,0,0,0-1-20.5v-2.41A12.69,12.69,0,0,1,750,513.77Z"/><path class="cls-1" d="M748.58,471.47l-26.2,14.85V516l26.2,14.84L774.78,516v-29.7Zm0,45.33a15.13,15.13,0,0,1-11.06-4.58,15.66,15.66,0,0,1,0-22.11,15.13,15.13,0,0,1,11.06-4.58,15.64,15.64,0,0,1,0,31.27Z"/></svg>