<svg id="Layer_1" data-name="Layer 1" xmlns="http://www.w3.org/2000/svg" viewBox="0 0 1157.62 714.5"><defs><style>.cls-1{fill:#2e4858;}.cls-2{fill:#fff;}.cls-3{fill:none;}</style></defs><polygon class="cls-1" points="422.34 166.5 352.84 205.88 352.84 284.65 422.34 324.03 491.84 284.65 491.84 205.88 422.34 166.5"/><path class="cls-2" d="M461.36,226.37c-3.73.23-23.37,7.8-30.14,7.8h-3.36a4.92,4.92,0,0,0-.21-.82c2.06-.42,10.31-8.55,10.31-8.55.39-3.57,4.28-9.29,4.42-9.69l-.11-.52c1.81-.83,14.62-4.25,14.62-9.9a2.54,2.54,0,0,0-.68-1.79c0,.46-.32,1.35-.7,1.49a.83.83,0,0,1-.44,0c-3.39,5.83-14.17,9-14.17,9-.26.08-1.57.58-4.71,9.75a1.78,1.78,0,0,1-.71.15c-.19.19-6.76,6.63-8.58,6.42-.79-1.65-3.28-1.54-2.82-2.93,3.09-.27,3.23-1.6,2.32-3.24a15.46,15.46,0,0,0,1.73-2.36,15.71,15.71,0,0,0,1.95-.14v0a6.73,6.73,0,0,0-1.42-.74l.66-1.06a20.77,20.77,0,0,0,2.53-.17v0a11.62,11.62,0,0,0-1.93-.73l.51-.75s2.53-.14,2.53-.22v0a11.15,11.15,0,0,0-1.87-.69l.49-.64A13.39,13.39,0,0,0,434,216v0a12.08,12.08,0,0,0-1.9-.71l.58-.69a17.93,17.93,0,0,0,2.12.17,15.41,15.41,0,0,0-1.58-.79l.44-.46a12.76,12.76,0,0,0,1.75.23,6.36,6.36,0,0,0-1.16-.83c.21-.2.34-.32.55-.5a9.43,9.43,0,0,0,1.42.25,3.42,3.42,0,0,0-.85-.72,8.5,8.5,0,0,1,.89-.66c.2,0,.88.36.89.27s-.38-.53-.46-.54c.16-.2,1.3-.8,1.21-.81a4.56,4.56,0,0,0-1.69.38c-.08-.09-.42-.5-.5-.46a2.52,2.52,0,0,0,0,.67c-.34.22-.67.45-1,.71-.09-.1-.45-.57-.53-.53a4.27,4.27,0,0,0,0,.94c-.26.21-.52.44-.77.68-.12-.16-.55-.9-.64-.86a7.74,7.74,0,0,0,.13,1.35l-.47.48c-.18-.24-.67-.91-.75-.88a6.42,6.42,0,0,0,.24,1.43l-.64.74c-.23-.31-.81-1-.9-1a6.41,6.41,0,0,0,.4,1.61c-.19.23-.38.47-.56.71a9.37,9.37,0,0,0-1.35-1.41,18.93,18.93,0,0,0,.76,2.19l-.64.88a7.82,7.82,0,0,0-1.15-1.33c-.08,0,.46,1.59.57,2.18l-.73,1.12a11.23,11.23,0,0,0-.95-1.38,19.16,19.16,0,0,0,.38,2.29,8.41,8.41,0,0,1-2,2.16,1.3,1.3,0,0,1-1.78-1.06c1.26-.18,2.25-.91,2.25-1.85s-.93-1.27-1.46-1.27v1.16c0,.69-.18,1.18-.92,1.18V205.63a28.12,28.12,0,0,1,.51-4.73c.15-.51.25-.84.08-1.09s-.34-.27-.76-.32a5.71,5.71,0,0,1-.67-.91h0a6.4,6.4,0,0,1-.67.91c-.42,0-.65.14-.77.32s-.06.58.09,1.09a28.12,28.12,0,0,1,.51,4.73V221c-.74,0-.92-.49-.92-1.18v-1.16c-.53,0-1.46.44-1.46,1.27s1,1.67,2.25,1.85a1.31,1.31,0,0,1-1.79,1.06,8.77,8.77,0,0,1-2-2.16,17.8,17.8,0,0,0,.39-2.29,11.23,11.23,0,0,0-.95,1.38l-.73-1.12c.1-.59.64-2.16.57-2.18a8.22,8.22,0,0,0-1.16,1.33c-.2-.29-.41-.58-.63-.88a16.87,16.87,0,0,0,.75-2.19,9.41,9.41,0,0,0-1.34,1.41c-.18-.24-.37-.48-.56-.71a5.91,5.91,0,0,0,.39-1.61c-.09,0-.66.69-.89,1-.21-.25-.43-.5-.65-.74a6,6,0,0,0,.25-1.43c-.09,0-.58.64-.76.88l-.46-.48a7.74,7.74,0,0,0,.13-1.35c-.09,0-.52.7-.64.86-.25-.24-.51-.47-.77-.68a6,6,0,0,0,0-.94c-.09,0-.44.43-.53.53-.33-.26-.67-.49-1-.71a2.17,2.17,0,0,0,0-.67c-.09,0-.42.37-.5.46a4.63,4.63,0,0,0-1.69-.38c-.09,0,1,.61,1.21.81-.08,0-.46.54-.46.54s.69-.24.89-.27a8.5,8.5,0,0,1,.89.66,3.42,3.42,0,0,0-.85.72,9.43,9.43,0,0,0,1.42-.25c.21.18.34.3.54.5a6.61,6.61,0,0,0-1.15.83,12.76,12.76,0,0,0,1.75-.23l.44.46a15.68,15.68,0,0,0-1.59.79,17.92,17.92,0,0,0,2.13-.17l.58.69a11.71,11.71,0,0,0-1.9.71v0a13.39,13.39,0,0,0,2.42-.07l.48.64a11,11,0,0,0-1.86.69v0c0,.08,2.52.22,2.54.22l.51.75a11.62,11.62,0,0,0-1.93.73v0a20.73,20.73,0,0,0,2.52.17c.24.37.46.72.66,1.06a6.64,6.64,0,0,0-1.41.74v0a15.55,15.55,0,0,0,1.95.14,14.81,14.81,0,0,0,1.73,2.36c-.91,1.64-.78,3,2.32,3.24.46,1.39-2,1.28-2.82,2.93-1.82.21-8.39-6.23-8.58-6.42a1.87,1.87,0,0,1-.72-.15c-3.13-9.17-4.44-9.67-4.7-9.75,0,0-10.78-3.15-14.18-9a.79.79,0,0,1-.43,0c-.39-.14-.67-1-.7-1.49a2.51,2.51,0,0,0-.69,1.79c0,5.65,12.82,9.07,14.63,9.9l-.11.52c.13.4,4,6.12,4.42,9.69,0,0,8.24,8.13,10.31,8.55a4.52,4.52,0,0,0-.22.82h-3.35c-6.77,0-26.41-7.57-30.14-7.8-4.64-.28-8.83.55-8.94,2.34s2.72,5.94,7.47,7.2c7.71,2.05,18.18,4.9,22.88,5.89,3.46-2.19,10.57-4.87,11.82-5.37a1.89,1.89,0,0,0,.32,1.71c-1.2.6-10.46,7.76-11.27,8.53-1,.94-2.23,13-2.93,14.28-1.59,1.88-6.39,5-6.45,5.15-.68,2.28-6.07,8.15-4.82,9.59a2.38,2.38,0,0,1,1.23-1.08c.1.78.86,1.09,1.61.48-1.47-.3.67-2.63,3.28-7.68.09,0,.53.19.59.15s6.37-5.66,6.56-5.83.66,0,.74-.19c.83-2.35,0-10.12,1.49-12.78,0-.09.79.05,1-.09,3.14-2.6,7.7-6.46,10.75-7.92.13.17.52.58.59.65-1.4,1.89-10,13.37-9.79,15.12,0,.05.7.45.66.55,1.45,5.6,3.22,13.31,2.77,14.55-.66,1.23-3.51,7.8-4.81,9.12-.16.17.19.62.11.82-4.67,6.68-7.87,7.42-8.73,7.79a7.42,7.42,0,0,0,.69.91c-.21.69.27,1.86,1.27,1.66-.73-.75-.52-1.46.69-1.73,3.15-.69,6.72-5.29,12.75-18.2.13-.22.83-.33.83-.53-.06-5.53-3.63-14.52-3.68-14.75s4.58-6.52,7.46-9.9c0,.13.08.16.18.23-.06.45-.91,4.45-.68,4.75s.44.71.34.9a31.8,31.8,0,0,0-.65,5.67.6.6,0,0,0,.28.49c.11.08.14.11.14.17,0,.52-.49,4.89-.42,5a.83.83,0,0,0,.27.17c0,.28-.35,4.88-.3,5s.44.21.45.22-.23,3.54-.14,3.63a2.32,2.32,0,0,0,.65.17c0,.13.14,1.73.22,1.88s.81.26.81.46a5.66,5.66,0,0,0,.07,1.44c.08.09.49-.08.6-.08s.93.43,1.09.43h0c.16,0,.87-.43,1.09-.43s.51.17.6.08a6.16,6.16,0,0,0,.07-1.44c0-.2.7-.29.8-.46s.19-1.75.22-1.88a2.38,2.38,0,0,0,.66-.17c.09-.09-.17-3.5-.14-3.63s.38-.1.45-.22-.3-4.7-.31-5a.75.75,0,0,0,.28-.17c.07-.09-.42-4.46-.42-5,0-.06,0-.09.13-.17a.58.58,0,0,0,.29-.49,31.8,31.8,0,0,0-.65-5.67c-.1-.19.09-.59.33-.9s-.61-4.3-.67-4.75c.09-.07.15-.1.18-.23,2.88,3.38,7.42,9.81,7.46,9.9s-3.62,9.22-3.68,14.75c0,.2.7.31.83.53,6,12.91,9.59,17.51,12.75,18.2,1.21.27,1.42,1,.69,1.73,1,.2,1.48-1,1.27-1.66a10.17,10.17,0,0,0,.69-.91c-.87-.37-4.06-1.11-8.73-7.79-.08-.2.27-.65.1-.82-1.29-1.32-4.15-7.89-4.8-9.12-.45-1.24,1.32-8.95,2.77-14.55,0-.1.66-.5.66-.55.24-1.75-8.39-13.23-9.79-15.12a8.57,8.57,0,0,0,.58-.65c3.06,1.46,7.61,5.32,10.76,7.92.17.14.91,0,1,.09,1.5,2.66.65,10.43,1.49,12.78.07.23.5,0,.74.19s6.38,5.71,6.56,5.83.5-.19.59-.15c2.61,5,4.75,7.38,3.28,7.68.74.61,1.5.3,1.61-.48a2.32,2.32,0,0,1,1.22,1.08c1.26-1.44-4.13-7.31-4.82-9.59-.05-.19-4.85-3.27-6.44-5.15-.7-1.31-1.94-13.34-2.94-14.28-.81-.77-10.07-7.93-11.27-8.53a1.93,1.93,0,0,0,.33-1.71c1.24.5,8.36,3.18,11.82,5.37,4.7-1,15.17-3.84,22.88-5.89,4.75-1.26,7.57-5.43,7.46-7.2s-4.29-2.62-8.93-2.34"/><path class="cls-1" d="M501.39,397.31c-.79.11-2.66.3-2.88-.32-.15-.41.46-1.47,1.89-2a2.77,2.77,0,0,1,2.77.2l3.94-2.9a6.71,6.71,0,0,0-6-2.42l-.94-2.61-4.6,1.66.95,2.64c-2.42,1.75-3.57,4.52-2.65,7.07,1.06,2.94,3.81,4.12,8.16,3.5,2.78-.39,3.51.09,3.53.09.14.4-.46,1.46-1.89,2a2.79,2.79,0,0,1-2.78-.19l-3.93,2.9a6.69,6.69,0,0,0,6,2.41l.94,2.61,4.6-1.65-.95-2.65c2.42-1.74,3.57-4.52,2.65-7.06C509.17,397.72,506.21,396.63,501.39,397.31Z"/><path class="cls-1" d="M494.65,379.06a21.85,21.85,0,1,0,28,13.14A21.83,21.83,0,0,0,494.65,379.06Zm13.91,38.6a19.18,19.18,0,1,1,11.54-24.55A19.18,19.18,0,0,1,508.56,417.66Z"/><path class="cls-1" d="M467.26,407.8a4.09,4.09,0,1,0,5.24,2.46A4.08,4.08,0,0,0,467.26,407.8Z"/><path class="cls-1" d="M531.5,384.65a4.1,4.1,0,1,0,5.24,2.46A4.1,4.1,0,0,0,531.5,384.65Z"/><path class="cls-1" d="M497.11,291.7l-69.5,39.39v78.76l69.5,39.39,69.5-39.39V331.09Zm-62.5,65.88,65.53-47.17,23.14,32.31-3.19,1.15-21-29.14-4.86,3.49-13.78,10-45.89,33.06Zm0,8.81,48.65-35a22.71,22.71,0,0,0,25.73,4l7.21,9.92-81.59,29.44Zm125,35.14a20.68,20.68,0,0,0-4.47,6.73l-58.21,32.93-58.29-33-1.94-5.41a23,23,0,0,0,11.1-23.44l79.66-28.7A23.83,23.83,0,0,0,552.16,362l7.45,20.43Zm0-31.57-11.4-31.49H548l-22.25,8.12-91.09,32.93v-3.28l115.82-41.73L559.61,360Z"/><polygon class="cls-3" points="641.11 284.59 641.11 205.94 571.72 166.62 502.32 205.94 502.32 284.59 571.72 323.91 641.11 284.59"/><path class="cls-1" d="M571.72,166.62l-69.4,39.32v78.65l69.4,39.32,69.39-39.32V205.94Zm0,8.16,40.07,22.75a16.85,16.85,0,0,1-16.4,13.19,11.25,11.25,0,0,1-11.19,11h-10c-.35.84,10.12,4.39,9.68,5.61-.81,2.26-1.34,5-1.5,5.55l-3.92-.78-11.71,1c-.83-2-1.74-8.92-2.5-11.16a10.4,10.4,0,0,1-6.48-3.14,7.31,7.31,0,0,1-2-4.35c-5.44,0-8.88-2.59-9-7.62-.68.1-2.83.15-3.54.15-6.46,0-13.5-2.82-16-7Zm62.55,98.93-8.62-4.8-5.55-1.26a31.11,31.11,0,0,1-5-2.13,3.58,3.58,0,0,0,0,1.13c.12.32,3.64,4.52,3.64,4.52l6.81,4.37c1.85,1.18,7.08,6.73,7.08,6.73l-20.1,11.42-6.56-5.08-6.29-8.34-2.5-2-1.6.14,5.67,13,5.4,5.66-33,18.72s-.09-3.05,0-4.48-2.35-14.88-2.35-14.88l0-7.68-1.14-1s-2.48,6.34-3,10.19-1.27,15.69-1.27,15.69L527.8,291.92s3.87-7.53,5.88-9.74,11-11.77,11-11.77a3.7,3.7,0,0,0-1.71-.29,22.77,22.77,0,0,0-3.66,1.62s-9.15,6.09-12.27,8.82a52.6,52.6,0,0,0-6.43,7.28l-11.43-6.5v-9.72s28.06-13.48,34.82-18.44,17-15.31,18.63-16.07,14.65-2.1,14.65-2.1a11.4,11.4,0,0,1,5.91,1.13c1.81,1.08,18.24,10.29,18.24,10.29L634.25,268Z"/><path class="cls-1" d="M577.49,243.32c.6-.27,7.39-.7,7.39-.7a2.21,2.21,0,0,0-.67-1.24c-.51-.35-4.68-3.28-6.14-3.28s-11.33,1.66-12,2.1a16.92,16.92,0,0,0-2.8,2.51c-.21.38-.82,1.17-.44,1.9,4.31.63,11.66,2.56,13.91,2.56a27.83,27.83,0,0,0,5.87-1,1.37,1.37,0,0,0-.7-.75c-.52-.22-5.27-1.17-5.27-1.17A1.82,1.82,0,0,1,577.49,243.32Z"/><path class="cls-1" d="M648.3,392c-2.36,1.11-.64,4.94,1.63,5.08s5.73.27,5.73-2S655.8,388.45,648.3,392Z"/><path class="cls-1" d="M650.87,351.47c2.72.19,4.79-.23,4.79-2.66,0-2.72-2.17-3.51-5.4-3.51S648.16,351.28,650.87,351.47Z"/><path class="cls-1" d="M632.4,363.64a6.43,6.43,0,0,0,.38,6.92c1.41,2.12,7.43,1.87,8.1.48s-.16-5.14-1.27-6.69S633.44,361.66,632.4,363.64Z"/><path class="cls-1" d="M626.86,356c1.42-1.13.81-.43,1-3.26s-1.67-3.53-1.67-3.53c-2,.71-3.67,1.84-3.11,3.82S625.45,357.13,626.86,356Z"/><path class="cls-1" d="M624.16,379.74c-2.09-1.56-1,5.94,1.28,6.08s4.81-.14,4.81-2.4S626.64,381.59,624.16,379.74Z"/><path class="cls-1" d="M646.32,291.81l-69.39,39.32v78.64l69.39,39.32,69.4-39.32V331.13ZM696.79,375a2.44,2.44,0,0,1-3,.53,11.74,11.74,0,0,0-5.43-2.2,45.47,45.47,0,0,1-5.31-1,5.29,5.29,0,0,0-3.47.34.58.58,0,0,0-.26.35c-.15,1.13-.25,2.26-.43,3.38a6.77,6.77,0,0,1-.44,1.23,4.71,4.71,0,0,1,2.71.1,3.91,3.91,0,0,1,2.49,2.58c.1.31.07.66.16,1a.68.68,0,0,0,.35.39,14.67,14.67,0,0,0,4.65.67,5.71,5.71,0,0,1,2.37.43,2.88,2.88,0,0,1,1.49,3.08,7.27,7.27,0,0,1-1.89,3.69,2.38,2.38,0,0,1-2.33.43c-.08,0-.09-.22-.17-.29a2.8,2.8,0,0,0-.4-.27l-.14.1.09-.73-.43-.36-.47,0,.11.42-.52-.42c0-.12,0-.27,0-.31s-.37-.21-.51-.35a.78.78,0,0,1-.21-.51c-.35-.23-.82-.37-1-.69a2.93,2.93,0,0,0-1.13-.9,8.06,8.06,0,0,0-1.42-.68.56.56,0,0,0-.43.08,6,6,0,0,1-3,1.33,3.71,3.71,0,0,1-3.28-1.07,5.82,5.82,0,0,1-1.08-1.7c-.43.67-.86,1.27-1.2,1.92-.09.18.06.52.16.76.26.58.55,1.15.84,1.71a15.9,15.9,0,0,0,2.82,3.75,31.13,31.13,0,0,0,4.42,3.93,17.89,17.89,0,0,0,3.59,1.63c1.43.58,2.24,2.19.81,3.49a16.48,16.48,0,0,1-2.39,1.86,9.76,9.76,0,0,1-2.77,1.31c-1.31.31-2.34-.32-2.61-2.08l.17.05-.46-1.75c-.18-.3-.47-.81-.79-1.31s-.54-.78-.76-1.2a15.59,15.59,0,0,0-2-2.52,3.55,3.55,0,0,1-.31-.66,1.71,1.71,0,0,1-.42-.28c-.39-.55-.73-1.14-1.13-1.68-.6-.84-1.22-1.66-1.88-2.54-.32.37-.66.74-1,1.13-.87,1.14-1.71,2.3-2.61,3.43a.62.62,0,0,0,0,.84,24.65,24.65,0,0,0,3.51,4.24,6.66,6.66,0,0,0,2,1.19,3.39,3.39,0,0,1,1.13,5.78,6.38,6.38,0,0,1-2.67,1.68,3,3,0,0,1-3.73-2.06,5.2,5.2,0,0,0-.5-1.14,3.18,3.18,0,0,1-.19.78,4.1,4.1,0,0,1-.77,1.17,7.7,7.7,0,0,1-4.65,2,3.13,3.13,0,0,1-2.67-1.3,3.42,3.42,0,0,1-.67-2.69c.06-.64,0-1.29,0-1.94a1,1,0,0,0,0-.5,6.41,6.41,0,0,1-.27-1c0-.69-.44-1-1.1-.9l-2.32.45c.33,1.28.6,2.45.92,3.61s.65,2.3,1.06,3.42c.49,1.34,1,2.66,1.63,3.95a11.29,11.29,0,0,0,1.17,1.77,3.31,3.31,0,0,1,.68,1.77,1.83,1.83,0,0,1-1.36,1.82,26.21,26.21,0,0,1-3.23,1,9,9,0,0,1-2.43.2,1.84,1.84,0,0,1-1.74-2.27,7.27,7.27,0,0,1,.62-2,10.17,10.17,0,0,0,.69-4.87c0-1.41-.09-2.82-.26-4.21a8.38,8.38,0,0,0-1.1-3.84l-2.8.45c.24,1.57.41,3.17.76,4.73a18,18,0,0,0,1.1,3.06,3.26,3.26,0,0,1,.27,2.51,2.63,2.63,0,0,1-2,1.65,9,9,0,0,1-4.28,0,2.31,2.31,0,0,1-1.57-1.93.74.74,0,0,1,.18-.37,3.76,3.76,0,0,1,.13-1c.19-.37.5-.68.7-1a5,5,0,0,0,.59-1.29,25.63,25.63,0,0,0,.34-6.1l-1.3-.22-4.47-.76a2.11,2.11,0,0,0-.21.5c-.28,1.11-.54,2.22-.8,3.33a4.61,4.61,0,0,0,.43,3,3.19,3.19,0,0,1-.28,3.41,2.46,2.46,0,0,1-1.34.78,6,6,0,0,1-3.68-.34,4.63,4.63,0,0,1-2.33-1.81l-.16,0c0,.66,0,1.33,0,2,.05.93.19,1.85.23,2.78s-.39,1.17-1.2,1a19.81,19.81,0,0,1-2.12-.63,24.85,24.85,0,0,1-2.66-1.11c-1.44-.72-1.23-2-.28-2.94a17.15,17.15,0,0,0,3.11-4c.69-1.26,1.27-2.59,1.91-3.89.43-.85.91-1.68,1.3-2.55a4.45,4.45,0,0,0,.11-1.05c0-.14.21-.31.17-.39-.15-.29-.1-.77-.73-.79-.09.41-.17.84-.3,1.25a6.61,6.61,0,0,1-.62,1.68c-.37.53-.67,1.2-1.38,1.41a5.64,5.64,0,0,1-1.56.38,4.48,4.48,0,0,1-4.22-3.49,2.56,2.56,0,0,1,1.86-2.81,3.44,3.44,0,0,0,2.17-.89c.27-.29.33-.55,0-.77a13.18,13.18,0,0,1-2.88-2.7,12.73,12.73,0,0,0-1-.95c-.55-.51-.93,0-1.26.29a23.88,23.88,0,0,0-1.89,1.75c-1,1-2,1.95-3,2.95a12.5,12.5,0,0,0-1.73,1.84,14.55,14.55,0,0,0-1.2,2.48,6.2,6.2,0,0,1-1.32,2.13,2.24,2.24,0,0,1-2.09.39,6.58,6.58,0,0,1-2.65-1.84,18.18,18.18,0,0,1-1.37-1.41,2.47,2.47,0,0,1,.07-3.32,4,4,0,0,0,.45-.68,1.83,1.83,0,0,1-2.61-.42,6,6,0,0,1-.71-1.07,6.43,6.43,0,0,1-1-3.55,2.07,2.07,0,0,1,1.63-1.84c.84-.2,1.72-.27,2.59-.41a13.68,13.68,0,0,0,4.47-1.84c.91-.53.84-.51.41-1.49a4.42,4.42,0,0,1-.32-2.5.51.51,0,0,0-.14-.35,6.4,6.4,0,0,1-2.06-5.16,2.29,2.29,0,0,1,1.62-1.77c.52-.09,1.05-.13,1.59-.2,0-.43-.12-1-.2-1.63-.08.19-.13.34-.2.49l-.58.06c0-.09,0-.17,0-.15a3.93,3.93,0,0,1-.74.33c-1,.22-2.11.41-3.16.62a7,7,0,0,1-1.76.35c-.94-.07-1.59.68-2.46.72l-.38,0c-.49.31-.94.58-1.38.87l-1.94,1.25a3.24,3.24,0,0,1-1.89.55,1.3,1.3,0,0,1-1-.92,16.75,16.75,0,0,1-.29-4.47c0-.28,0-.57,0-.86.08-1.32.82-1.57,1.85-1.52a9.53,9.53,0,0,1,1.94.44,8.51,8.51,0,0,0,2.52.4,25,25,0,0,0,4.23-.55,19.19,19.19,0,0,0,3.83-1.09c.7-.3.62-.84.73-1.32a16.57,16.57,0,0,0,.21-2c-.8-.1-1.6-.19-2.39-.3a3,3,0,0,1-.51-.15c-.06,0-.16-.05-.19,0-.35.26-.59.21-.76-.2,0-.05-.14-.06-.32-.14l.25.41-2.55,0c0-.14.08-.25.12-.37l-.09,0a2.55,2.55,0,0,1-.31.47,1.44,1.44,0,0,1-1.48.39,3,3,0,0,0-2.7.71,1.86,1.86,0,0,1-1.65.24c-1.39-.2-1.79-1.3-1.75-2.57a6.57,6.57,0,0,1,1.25-3.6,3,3,0,0,1,3.91-.89,11.25,11.25,0,0,0,4.62,1.44c1.38.09,2.76.23,4.14.36.33,0,.57,0,.6-.41a19.06,19.06,0,0,1,1.16-4.13c.21-.69.32-1.42.49-2.12.08-.33.19-.66.3-1a2.1,2.1,0,0,0-1.91.37,4.92,4.92,0,0,1-1.39.6,4.25,4.25,0,0,1-1.77.06,3.61,3.61,0,0,1-2.81-2.39c-.17-.55-.38-1.09-.67-1.91-.66-.14-1.71-.4-2.78-.57a17.93,17.93,0,0,0-1.8-.09c-.14,0-.27-.13-.4-.11a3.83,3.83,0,0,1-1-.11,1.43,1.43,0,0,1-.87-2c.48-1.29,1-2.57,1.49-3.84a1.61,1.61,0,0,1,2.77-.35c.79.87,1.56,1.77,2.41,2.59a3.68,3.68,0,0,0,2,1,.35.35,0,0,0,.26-.08,3.25,3.25,0,0,1,3.47-.63,4.57,4.57,0,0,1,2.55,2.36c.41.86.66,1,1.62.83.37-.07.74-.17,1.13-.26,0,0,0-.16,0-.2a4.76,4.76,0,0,0,1.21-1.85,16,16,0,0,1,1.06-1.95c.38-.55.1-.85-.26-1.16-1.15-1-2.34-1.88-3.46-2.87a13.51,13.51,0,0,0-3.42-2.05,3.6,3.6,0,0,0-1-.12l.14-.57c-.86.62-1,.51-1.69.05a1.46,1.46,0,0,1-.5-1.78,6.92,6.92,0,0,1,4-4.13c1.25-.47,2.15,0,2.68,1.45a12.52,12.52,0,0,0,3,4.44c.76.77,1.56,1.5,2.35,2.24.21.2.45.38.67.58a.44.44,0,0,0,.62,0c.86-.57,1.75-1.09,2.6-1.67.3-.2.68-.42.49-.94-.07-.2.11-.49,0-.67a3.62,3.62,0,0,0-.62-1c-.64-.7-1.33-1.35-2-2s-1.38-1.64-2.17-2.34a12.75,12.75,0,0,0-2.29-1.54c-.68-.39-1.49-.57-2.13-1a2.13,2.13,0,0,1-.56-3.38,9.09,9.09,0,0,1,3.7-2.71,2.89,2.89,0,0,1,2.34-.12,2.17,2.17,0,0,1,1.41,1.77,14.56,14.56,0,0,0,1.91,6.15c.78,1.34,1.65,2.62,2.49,3.92a2.47,2.47,0,0,0,.54.53c.54.43.84.35,1.37-.29a18.74,18.74,0,0,1-.88-1.88,3,3,0,0,1,.27-2.77,2.52,2.52,0,0,1,2.82-.92,3.09,3.09,0,0,1,2.27,1.89,3,3,0,0,0,.23.38,6.21,6.21,0,0,1,2.66-2.46l-.72-2.83a30,30,0,0,0-1.55-4.22,10.83,10.83,0,0,0-.92-1.36A7,7,0,0,1,631,322a1.68,1.68,0,0,1,1-2.22,10,10,0,0,1,2.5-.73,15,15,0,0,1,2.6-.05,2.85,2.85,0,0,1,1,.26c.69.32.88,1,.68,2-.1.49-.46.92-.6,1.4a14.6,14.6,0,0,0-.39,2,11.8,11.8,0,0,0,.31,3.88c.17.92.33,1.83.53,2.74a1.43,1.43,0,0,0,.42.64,16.39,16.39,0,0,0,1.28,1.09.93.93,0,0,0,.56.17c.48,0,1-.14,1.45-.14s.56-.29.51-.67c-.13-1-.26-1.93-.42-2.89-.21-1.25-.44-2.51-.68-3.76a5.1,5.1,0,0,0-.3-1.08c-.21-.49-.11-1.08-.49-1.51a2.43,2.43,0,0,1-.26-.44,11,11,0,0,1-1.13-2.07c-.4-1.39,0-2,1.24-2.35a9.81,9.81,0,0,1,4.44-.36c1.43.22,1.6,1.49,1.25,2.58a16.62,16.62,0,0,0-.79,2.61,13.33,13.33,0,0,0-.07,3c.1,1.39.29,2.78.52,4.16.13.85.4,1.67.57,2.38l4.33.87a4.8,4.8,0,0,0-.11-1.09,3.06,3.06,0,0,1,1.81-3.63,4.5,4.5,0,0,1,4,.33,2.73,2.73,0,0,1,1.63,1.84,4,4,0,0,0,.35-.54c.36-.86.74-1.71,1-2.6a8.21,8.21,0,0,0,.48-4.55,10.9,10.9,0,0,1-.39-1.92,2,2,0,0,1,1.19-2.16,2.71,2.71,0,0,1,1.84.15,24,24,0,0,1,3.8,1.72,1.86,1.86,0,0,1,1,2.69,20.14,20.14,0,0,1-1.49,2.11c-.16.22-.35.41-.57.67.46.25.88.47,1.28.72a12,12,0,0,1,1.68,1.13,9.88,9.88,0,0,1,1.29,1.51,2.3,2.3,0,0,1-.33,3.37c-.55.46-1.19.8-1.76,1.23a15.37,15.37,0,0,0-1.34,1.22c-.84.83-1.68,1.67-2.49,2.53a3.9,3.9,0,0,0-.47.7c2,1.25,4,2.27,5.71,4.05,1.38-1.29,2.81-2.61,4.23-3.95a15.59,15.59,0,0,0,2-2.9,2.6,2.6,0,0,1,3.46-.92,4,4,0,0,1,1.86,1.69,2.16,2.16,0,0,1-1.38,3.27c-.6.17-1.16.5-1.76.68a5.24,5.24,0,0,0-1.74.65c-.74.58-1.55,1.07-2.25,1.69-.86.76-1.64,1.62-2.44,2.44-.23.23-.1.42.15.51a6,6,0,0,0,4,.05,13.4,13.4,0,0,0,3.32-1.83c1.21-.82,2.28-1.83,3.41-2.75a8.79,8.79,0,0,0,2.13-3.08,1.92,1.92,0,0,1,3.31-.43,27.2,27.2,0,0,1,2.56,3.42,5.52,5.52,0,0,1,.51.92,1.43,1.43,0,0,1-.45,1.54,2.41,2.41,0,0,1-1.6.68c-.29,0-.62.38-.88-.09,0,0-.3,0-.31.06-.13.52-.66.3-.86.47l-.67-.15,0,.18.37,0c0,.06-.05.09-.07.1-.87.38-1.76.73-2.62,1.14a18.14,18.14,0,0,0-2.66,1.39c-1.41,1-3.05,1.68-4.18,3.06-.44.52-.88,1-1.36,1.51a.72.72,0,0,0-.1.91,7.75,7.75,0,0,0,1,1.52c.13.14.6.05.86-.07.43-.18.79-.58,1.23-.69s1-.61,1.52-.74c.09,0,.15-.17.22-.27a20.12,20.12,0,0,1,1.65-2.31,3.19,3.19,0,0,1,2.57-.95,4,4,0,0,1,2.25.86,4.29,4.29,0,0,1,1.74,3.39,3.65,3.65,0,0,1-.49,2.12,4,4,0,0,1-2.84,1.83,6.4,6.4,0,0,1-1.45,0c-.34,0-.68-.13-1-.19a1.8,1.8,0,0,0-.68-.07,19.39,19.39,0,0,0-2.62.35,4.54,4.54,0,0,1-.93.16l.36,2.67c.73-.07,1.34-.09,1.93-.19,1.52-.26,3.06-.49,4.56-.85a16.45,16.45,0,0,0,2.65-1,1.69,1.69,0,0,0,.71-.61c.35-.55,1-.69,1.46-.95a1.46,1.46,0,0,1,1.68.55,12.75,12.75,0,0,1,1.21,2.2,8.6,8.6,0,0,1,.47,2.08,2,2,0,0,1-2.33,2.36c-1-.07-1.89-.45-2.85-.58a26,26,0,0,0-2.93-.18q-1.32,0-2.64.06c-.73.05-1.46.2-2.19.29a6.47,6.47,0,0,1-.77,0,1.71,1.71,0,0,0,.39,1.73,11.64,11.64,0,0,0,3.59,1.88,17.53,17.53,0,0,0,3.76.49c1.31.05,2.62-.11,3.93-.18a.39.39,0,0,0,.14-.05c.57-.27,1.15-.5,1.71-.8a2.17,2.17,0,0,1,3.26,1.42c.19,1.11.61,2.19.74,3.3A4.46,4.46,0,0,1,696.79,375Z"/><path class="cls-1" d="M668.77,367.39c-3.14-.63-3.24,9.14-.52,9.33s3.55-3.4,3.55-6.44S671.4,367.91,668.77,367.39Z"/><path class="cls-1" d="M663.34,398.25a.42.42,0,0,0-.43-.1c-.38.22-.74.5-1.17.81.57.66,1.07,1.33,1.67,1.91.94.92,2,1.76,3,2.66a2,2,0,0,0-.15-.57Q664.8,400.59,663.34,398.25Z"/><path class="cls-1" d="M652.13,368.64a6.45,6.45,0,0,0,.39,6.93c1.41,2.12,6.14.12,6.81-1.27s1.13-3.39,0-4.95S653.18,366.66,652.13,368.64Z"/><path class="cls-1" d="M571.71,458a36.42,36.42,0,0,0-26.62,11,37.68,37.68,0,0,0,0,53.22,36.45,36.45,0,0,0,26.62,11,37.64,37.64,0,0,0,0-75.27Zm-10.38,33.29,10.38,4.35V484.39a11.25,11.25,0,0,1,10.41,7h0a1.46,1.46,0,0,0,.07.19c.1.27.2.55.29.84,0,.13.07.27.11.41s.11.43.15.65.07.43.1.65,0,.29.06.43c0,.3,0,.59.05.88,0,.07,0,.14,0,.21v0c0,.31,0,.63,0,.94,0,.07,0,.13,0,.2,0,.25-.07.49-.11.74s0,.25-.06.38h0a11.25,11.25,0,0,1-1.1,3h0c-.12.21-.25.41-.37.61l-.2.34a3.55,3.55,0,0,0-.23.31,11.15,11.15,0,0,1-2.8,2.72l0,0-.32.2c-.22.13-.43.27-.66.39l-.17.08a8.42,8.42,0,0,1-.86.4l0,0-.19.07-.83.29-.42.11-.64.15-.66.1c-.14,0-.28.05-.43.06a8.64,8.64,0,0,1-.88,0h-.23l-.61,0a10.78,10.78,0,0,1-6.84-2.83,11.26,11.26,0,0,1-2.93-4.14A10.8,10.8,0,0,1,561.33,491.29Zm-5.61,20.33,4.69-4.68a16,16,0,1,0,11.3-27.29V473a22.61,22.61,0,0,1,0,45.21A21.82,21.82,0,0,1,555.72,511.62ZM575.59,529l-1.1-6.28a27.22,27.22,0,0,0-2.78-54.3V462a33.59,33.59,0,0,1,3.88,67Z"/><path class="cls-1" d="M571.72,417l-69.4,39.32V535l69.4,39.32L641.11,535V456.31Zm0,120a40.06,40.06,0,0,1-29.28-12.12,41.45,41.45,0,0,1,0-58.56,40,40,0,0,1,29.28-12.13,41.41,41.41,0,0,1,0,82.81Z"/></svg>